<?xml version="1.0" standalone="no"?>
<!DOCTYPE svg PUBLIC "-//W3C//DTD SVG 1.1//EN" "http://www.w3.org/Graphics/SVG/1.1/DTD/svg11.dtd" >
<svg>
<metadata>
Created by FontForge 20090914 at Sat Jan 16 11:14:47 2021
 By www-data
Copyright 2006 The Inconsolata Project Authors (https://github.com/cyrealtype/Inconsolata)
</metadata>
<defs>
<font id="Inconsolata-Light" horiz-adv-x="500" >
  <font-face 
    font-family="Inconsolata Light"
    font-weight="300"
    font-stretch="normal"
    units-per-em="1000"
    panose-1="0 0 5 9 0 0 0 0 0 0"
    ascent="800"
    descent="-200"
    x-height="452.999"
    cap-height="623"
    bbox="-80.001 -400 1455 1000"
    underline-thickness="50"
    underline-position="-175"
    unicode-range="U+000D-U+FFFD"
  />
<missing-glyph 
 />
    <glyph glyph-name=".notdef" 
 />
    <glyph glyph-name="NULL" 
 />
    <glyph glyph-name="NULL" 
 />
    <glyph glyph-name="CR" unicode="&#xd;" 
 />
    <glyph glyph-name="space" unicode=" " 
 />
    <glyph glyph-name="exclam" unicode="!" 
d="M224 194l-17 415c0 12 1.16699 22.333 3.5 31s6 15.5 11 20.5s11.5 7.5 19.5 7.5s14.5 -2.33301 19.5 -7s8.83301 -12.167 11.5 -22.5s4 -23.5 4 -39.5l-20 -405h-32zM239 -11c-12 0 -22.333 4.16699 -31 12.5s-13 18.5 -13 30.5s4.33301 22.333 13 31s19 13 31 13
c11.333 0 21.5 -4.5 30.5 -13.5s13.5 -19.167 13.5 -30.5s-4.5 -21.333 -13.5 -30s-19.167 -13 -30.5 -13z" />
    <glyph glyph-name="quotedbl" unicode="&#x22;" 
d="M148 665h54.999c0 -40 -0.333008 -72 -1 -96s-1.5 -44.167 -2.5 -60.5s-2.16699 -32 -3.5 -47s-2.66602 -33.167 -3.99902 -54.5h-33l-5 54.5c-1.33301 15 -2.5 30.5 -3.5 46.5s-1.66699 36.167 -2 60.5s-0.5 56.5 -0.5 96.5zM297.999 665h54.999
c0 -40 -0.333008 -72 -1 -96s-1.5 -44.167 -2.5 -60.5s-2.16699 -32 -3.5 -47s-2.66602 -33.167 -3.99902 -54.5h-33l-5 54.5c-1.33301 15 -2.5 30.5 -3.5 46.5s-1.66699 36.167 -2 60.5s-0.5 56.5 -0.5 96.5z" />
    <glyph glyph-name="numbersign" unicode="#" 
d="M280 10l22 189h-131l-21 -185l-42 -1l21 184h-97l4 34h99l20 183h-109l3 35h111l20 175l44 2l-21 -176h130l20 172l45 1l-20 -171h91l-6 -36h-91l-21 -181h99l-5 -34h-99l-22 -187zM177 233h130l21 182h-131z" />
    <glyph glyph-name="dollar" unicode="$" 
d="M243 -47l0.000976562 61.002c-24 2 -46.333 6.16699 -67 12.5s-39.667 15.166 -57 26.499s-33.666 25 -48.999 41l35 44c2.66699 -2 3.66699 -5.16699 3 -9.5s0 -7.83301 2 -10.5c11.333 -12.667 24 -23.334 38 -32.001s29.167 -15.667 45.5 -21
s32.833 -8.66602 49.5 -9.99902v244c-32.667 11.333 -60.334 23.666 -83.001 36.999s-40.167 29 -52.5 47s-18.5 39 -18.5 63c0 24.667 6.5 47.5 19.5 68.5s31 38.333 54 52s49.833 21.834 80.5 24.501v60h48c0.666992 -0.666992 1 -1.16699 1 -1.5v-1.5
c0 -1.33301 -1 -3.5 -3 -6.5s-3.33301 -6.83301 -4 -11.5v-38c21.333 -1.33301 40.833 -5.33301 58.5 -12s34 -15.5 49 -26.5s28.167 -23.833 39.5 -38.5l-31 -40c-3.33301 1.33301 -5.16602 4.33301 -5.49902 9s-2.16602 8.66699 -5.49902 12
c-5.33301 6.66699 -11.5 13 -18.5 19s-14.833 11.5 -23.5 16.5s-18.334 9.16699 -29.001 12.5s-22 5.66602 -34 6.99902v-219c34.667 -10.667 64.167 -22.667 88.5 -36s43.166 -29.166 56.499 -47.499s20 -41.5 20 -69.5c0 -24.667 -6.5 -48.834 -19.5 -72.501
s-31.833 -43.667 -56.5 -60s-54.334 -26.5 -89.001 -30.5v-63h-42zM285.001 57.002c21.333 2.66699 41.167 9.16797 59.5 19.501s32.833 23.833 43.5 40.5s16 36 16 58c0 20 -4.66699 36.667 -14 50s-22.833 24.666 -40.5 33.999s-39.167 18 -64.5 26v-228zM243.002 346.003
l-0.000976562 206.002c-23.333 -2.66699 -43.166 -8.83398 -59.499 -18.501s-28.5 -21.334 -36.5 -35.001s-12 -28.5 -12 -44.5c0 -17.333 3.83301 -32.166 11.5 -44.499s19.5 -23.333 35.5 -33s36.333 -19.834 61 -30.501z" />
    <glyph glyph-name="percent" unicode="%" 
d="M54 0l345 623h42l-348 -623h-39zM371 -10c-18.667 0 -36.002 5.66797 -52.002 17.001s-28.667 26.833 -38 46.5s-14 41.5 -14 65.5c0 24.667 4.5 46.667 13.5 66s21.333 34.833 37 46.5s33.5 17.5 53.5 17.5c20.667 0 38.834 -5.83301 54.501 -17.5
s27.834 -27.334 36.501 -47.001s13 -41.5 13 -65.5s-4.66699 -45.833 -14 -65.5s-21.833 -35.167 -37.5 -46.5s-33.167 -17 -52.5 -17zM371.998 26.001c10.667 0 20.6631 3.50098 29.9961 10.501s16.833 17.5 22.5 31.5s8.5 30.667 8.5 50c0 17.333 -2.5 33.166 -7.5 47.499
s-12.167 25.833 -21.5 34.5s-20.666 13 -33.999 13c-11.333 0 -21.666 -3.83301 -30.999 -11.5s-16.666 -18.5 -21.999 -32.5s-8 -30.333 -8 -49c0 -19.333 3 -36 9 -50s13.833 -24.833 23.5 -32.5s19.834 -11.5 30.501 -11.5zM139.994 373.002
c-18 0 -35 5.66602 -51 16.999s-28.833 27 -38.5 47s-14.5 42.333 -14.5 67s4.5 46.667 13.5 66s21.333 34.833 37 46.5s33.5 17.5 53.5 17.5c20 0.666992 37.833 -4.66602 53.5 -15.999s28.167 -26.833 37.5 -46.5s14 -42.5 14 -68.5c0 -25.333 -4.66699 -47.833 -14 -67.5
s-21.833 -35 -37.5 -46s-33.5 -16.5 -53.5 -16.5zM140.994 411.001c10.667 0 20.501 3.16699 29.501 9.5s16.333 16.5 22 30.5s8.5 31.667 8.5 53c0 16 -1.83301 30 -5.5 42s-8.33398 21.833 -14.001 29.5s-12.167 13.334 -19.5 17.001s-15 5.5 -23 5.5
c-10.667 0 -20.5 -3.83301 -29.5 -11.5s-16.333 -18.334 -22 -32.001s-8.5 -30.5 -8.5 -50.5s3 -37 9 -51s13.667 -24.5 23 -31.5s19.333 -10.5 30 -10.5z" />
    <glyph glyph-name="ampersand" unicode="&#x26;" 
d="M413 -12l-56.0029 88.002c-13.333 -16 -28.666 -30.667 -45.999 -44s-36 -23.666 -56 -30.999s-41 -11 -63 -11c-28 0 -53.167 6.83301 -75.5 20.5s-39.666 32 -51.999 55s-18.5 48.167 -18.5 75.5c0 21.333 3 41.5 9 60.5s14.333 37 25 54s23.667 32.667 39 47
s32.666 26.833 51.999 37.5c-22.667 28.667 -40 56.5 -52 83.5s-18 51.833 -18 74.5c0 18.667 3 36 9 52s14.667 29.833 26 41.5s24.833 20.834 40.5 27.501s32.834 10 51.501 10c25.333 0 47.333 -6.33301 66 -19s33.167 -28.834 43.5 -48.501s15.5 -40.834 15.5 -63.501
c0 -16 -2.66699 -32 -8 -48s-13.166 -31.333 -23.499 -46s-22.5 -28.334 -36.5 -41.001s-30 -24 -48 -34l125 -183c8.66699 10 16.5 20.167 23.5 30.5s13 20.333 18 30s9 19.167 12 28.5s4.83301 17.666 5.5 24.999c0 2 0.333008 3.83301 1 5.5s1.66699 3.16699 3 4.5
l46 -31c-6.66699 -13.333 -14.667 -27.5 -24 -42.5l-28.5 -45c-9.66699 -15 -19.5 -28.833 -29.5 -41.5l65 -92zM198.997 35.002c16 0 31.834 3.33496 47.501 10.002s30.667 15.834 45 27.501s27.833 24.5 40.5 38.5l-136 196c-14.667 -8 -28 -17.833 -40 -29.5
s-22.333 -24.334 -31 -38.001s-15.334 -27.834 -20.001 -42.501s-7 -29.667 -7 -45c0 -16.667 2.5 -32.167 7.5 -46.5s12 -26.833 21 -37.5s19.667 -18.834 32 -24.501s25.833 -8.5 40.5 -8.5zM211.998 361.004c14.667 8 27.834 17.001 39.501 27.001s21.667 20.833 30 32.5
s14.666 23.667 18.999 36s6.5 24.166 6.5 35.499c0 26.667 -7.33301 49.334 -22 68.001s-33.334 28 -56.001 28c-14.667 0 -28.167 -3.83301 -40.5 -11.5s-22 -18.334 -29 -32.001s-10.5 -29.5 -10.5 -47.5c0 -10.667 2.33301 -23.167 7 -37.5s11.834 -29.833 21.501 -46.5
s21.167 -34 34.5 -52z" />
    <glyph glyph-name="quotesingle" unicode="'" 
d="M223 665h54.999c0 -40 -0.333008 -72 -1 -96s-1.5 -44.167 -2.5 -60.5s-2.16699 -32 -3.5 -47s-2.66602 -33.167 -3.99902 -54.5h-33l-5 54.5c-1.33301 15 -2.5 30.5 -3.5 46.5s-1.66699 36.167 -2 60.5s-0.5 56.5 -0.5 96.5z" />
    <glyph glyph-name="parenleft" unicode="(" 
d="M395 -104c-55.333 26.667 -102.666 61.833 -141.999 105.5s-69.333 92.834 -90 147.501s-31 111.667 -31 171s10.167 115.666 30.5 168.999s49.666 101.333 87.999 144s84.5 76.667 138.5 102l12 -43c-34 -18 -64.667 -40.333 -92 -67s-50.5 -56.334 -69.5 -89.001
s-33.5 -67.5 -43.5 -104.5s-15 -75.167 -15 -114.5c0 -38.667 5.16699 -76.667 15.5 -114s25.333 -72.666 45 -105.999s43.5 -63.5 71.5 -90.5s59.333 -49.833 94 -68.5z" />
    <glyph glyph-name="parenright" unicode=")" 
d="M133 -104l-12.002 42.001c35.333 18.667 66.833 41.5 94.5 68.5s51.334 57.167 71.001 90.5s34.834 68.666 45.501 105.999s16 75.333 16 114c0 39.333 -5.16699 77.5 -15.5 114.5s-25 71.833 -44 104.5s-42.167 62.334 -69.5 89.001s-58 49 -92 67l12 43
c54 -25.333 100.167 -59.333 138.5 -102s67.666 -90.667 87.999 -144s30.5 -109.666 30.5 -168.999s-10.333 -116.333 -31 -171s-50.667 -103.834 -90 -147.501s-86.666 -78.834 -141.999 -105.501z" />
    <glyph glyph-name="asterisk" unicode="*" 
d="M131 133l-38 30l130 156l-171 64l19 44l164 -77l-9 186h53l-12 -186l163 75l17 -43l-169 -62l127 -157l-37 -30l-118 167z" />
    <glyph glyph-name="plus" unicode="+" 
d="M231 104v196h-179v43h179v180h45v-180h174v-43h-174v-196h-45z" />
    <glyph glyph-name="comma" unicode="," 
d="M204 -168l-25.001 24.001c22 22 37.667 42.333 47 61s14 34.667 14 48c0 6.66699 -1.83301 12.5 -5.5 17.5s-8.16699 9.66699 -13.5 14s-10 9.16602 -14 14.499s-6 11.666 -6 18.999c0 12.667 4.16699 23.167 12.5 31.5s18.833 12.5 31.5 12.5
c13.333 0 24.833 -5.66699 34.5 -17s14.5 -26.666 14.5 -45.999c0 -12 -1.5 -24.833 -4.5 -38.5s-8 -28.167 -15 -43.5s-16.167 -31 -27.5 -47s-25.666 -32.667 -42.999 -50z" />
    <glyph glyph-name="hyphen" unicode="-" 
d="M119 291v47h265v-47h-265z" />
    <glyph glyph-name="period" unicode="." 
d="M238 -11c-12 0 -22.167 4.16699 -30.5 12.5s-12.5 18.166 -12.5 29.499c0 12 4.16699 22.167 12.5 30.5s18.5 12.5 30.5 12.5c11.333 0 21.333 -4.16699 30 -12.5s13 -18.5 13 -30.5c0 -11.333 -4.33301 -21.166 -13 -29.499s-18.667 -12.5 -30 -12.5z" />
    <glyph glyph-name="slash" unicode="/" 
d="M118 -42l-42 20l306 687l42 -21z" />
    <glyph glyph-name="zero" unicode="0" 
d="M107 141l274 346l17 -34l-275 -345zM250 -11c-40 0 -74 12 -102 36s-49.333 59.333 -64 106s-22 104 -22 172c0 66 7.33301 122.5 22 169.5s36 82.833 64 107.5s62 37 102 37c40.667 0 75 -12.333 103 -37s49.167 -60.5 63.5 -107.5s21.5 -103.5 21.5 -169.5
c0 -68 -7.16699 -125.333 -21.5 -172s-35.5 -82 -63.5 -106s-62.333 -36 -103 -36zM250 32c30.667 0 56.334 10.5 77.001 31.5s36.167 51.833 46.5 92.5s15.5 89.667 15.5 147c0 56 -5.16699 104.167 -15.5 144.5s-25.833 71.666 -46.5 93.999s-46.334 33.5 -77.001 33.5
c-30 0 -55.333 -11.333 -76 -34s-36.167 -54.167 -46.5 -94.5s-15.5 -88.166 -15.5 -143.499c0 -57.333 5.16699 -106.333 15.5 -147s25.833 -71.5 46.5 -92.5s46 -31.5 76 -31.5z" />
    <glyph glyph-name="one" unicode="1" 
d="M244 0v555l-135 -54l-14 28l163 85h34v-614h-48z" />
    <glyph glyph-name="two" unicode="2" 
d="M78 38l98.999 99.001l83.5 86c25 26.667 46.667 52.167 65 76.5s32.333 48 42 71s14.5 46.5 14.5 70.5c0 21.333 -2.83301 40.333 -8.5 57s-14 30.667 -25 42s-24 20 -39 26s-32.167 9 -51.5 9c-17.333 0 -34 -2.66699 -50 -8s-31.167 -12.833 -45.5 -22.5
s-27.5 -22.167 -39.5 -37.5c-6 -9.33301 -9.66699 -16.5 -11 -21.5s-1.66602 -10.167 -0.999023 -15.5l-4 -5l-8 5l-36 26c13.333 26 29.833 48 49.5 66s41.667 31.667 66 41s50.5 14 78.5 14c34.667 0 65 -7.16699 91 -21.5s46.333 -34.833 61 -61.5s22 -58.334 22 -95.001
c0 -26 -5.5 -52.167 -16.5 -78.5s-26.167 -52.5 -45.5 -78.5s-41.5 -52 -66.5 -78l-78.5 -79.5l-82 -81.5h248c11.333 0 19.333 0.666992 24 2s9 4 13 8h7v-10v-43h-356v38z" />
    <glyph glyph-name="three" unicode="3" 
d="M240 -11c-33.333 0 -64.002 6.00586 -92.002 18.0059s-52.667 29.667 -74 53l34 37l7 6l5 -5c-0.666992 -4 0.166016 -8.16699 2.49902 -12.5s7.16602 -10.5 14.499 -18.5c12.667 -10.667 27 -19.334 43 -26.001s35 -10 57 -10c31.333 0 56.833 6 76.5 18
s34.5 28.5 44.5 49.5s15 44.833 15 71.5c0 24.667 -4.83301 45.5 -14.5 62.5s-23.167 30.667 -40.5 41s-38 17.666 -62 21.999s-51 5.5 -81 3.5v40c32 0 59.333 3.83301 82 11.5s41 18 55 31s24.167 27.5 30.5 43.5s9.5 32 9.5 48c0 16.667 -2.66699 31.5 -8 44.5
s-12.833 23.667 -22.5 32s-21 14.666 -34 18.999s-27.167 6.5 -42.5 6.5c-14.667 0 -29.167 -1.83301 -43.5 -5.5s-28.166 -9.33398 -41.499 -17.001s-25.666 -17.5 -36.999 -29.5l-29 30c22.667 23.333 46.334 39.833 71.001 49.5s51 14.5 79 14.5
c32.667 0 60.667 -5.83301 84 -17.5s41.333 -28.5 54 -50.5s19 -48.333 19 -79c0 -21.333 -4.66699 -41.833 -14 -61.5s-22.666 -36.834 -39.999 -51.501s-38 -25.334 -62 -32.001c24.667 -4.66699 47.5 -14 68.5 -28s37.667 -31.833 50 -53.5s18.5 -47.167 18.5 -76.5
c0 -32.667 -6.83301 -62.5 -20.5 -89.5s-34 -48.5 -61 -64.5s-60.5 -24 -100.5 -24v0z" />
    <glyph glyph-name="four" unicode="4" 
d="M335 0v162h-282v32l293 420h39v-411h82v-42h-82v-161h-50zM111 204h224v319z" />
    <glyph glyph-name="five" unicode="5" 
d="M249 -11c-35.333 0 -68.9971 8.33398 -100.997 25.001s-58.333 40.334 -79 71.001l39 29l7 5l4 -5c-1.33301 -4 -0.833008 -8.16699 1.5 -12.5s7.16602 -10.833 14.499 -19.5c16 -16.667 33.667 -29.167 53 -37.5s41 -12.5 65 -12.5c19.333 0 37.333 3.66699 54 11
s31.334 18 44.001 32s22.5 31.333 29.5 52s10.5 44 10.5 70c0 25.333 -3.5 47.666 -10.5 66.999s-16.833 35.5 -29.5 48.5s-27.5 22.667 -44.5 29s-35.5 9.5 -55.5 9.5c-13.333 0 -27.666 -2.5 -42.999 -7.5s-30.333 -12 -45 -21s-28.334 -20.5 -41.001 -34.5l-32 13l21 312
h306v-43h-263l-15 -218c11.333 8 23.5 15 36.5 21s26.5 10.667 40.5 14s27.667 5 41 5c26.667 0 51.167 -4.33301 73.5 -13s41.666 -21.5 57.999 -38.5s29 -37.667 38 -62s13.5 -52.5 13.5 -84.5c0 -42.667 -8.33301 -79.334 -25 -110.001s-39.334 -54.167 -68.001 -70.5
s-61.334 -24.5 -98.001 -24.5v0z" />
    <glyph glyph-name="six" unicode="6" 
d="M261 -10c-40 0 -74.1709 11.668 -102.504 35.001s-49.833 56.5 -64.5 99.5s-22 94.5 -22 154.5c0 74.667 9.33301 137.334 28 188.001s44.334 89 77.001 115s69.334 38.667 110.001 38c27.333 0 51.333 -4.66699 72 -14s40.667 -23.666 60 -42.999l-30 -34l-6 -7l-5 4
c0 4.66699 -1.16699 9.16699 -3.5 13.5s-7.83301 9.83301 -16.5 16.5c-6.66699 5.33301 -13.5 9.5 -20.5 12.5s-14.5 5.33301 -22.5 7s-16.667 2.5 -26 2.5c-16 0 -32 -3 -48 -9s-31.167 -15.833 -45.5 -29.5s-27.166 -31.334 -38.499 -53.001s-20.166 -48.5 -26.499 -80.5
s-9.83301 -69 -10.5 -111c9.33301 16 21.5 31.167 36.5 45.5s32 25.833 51 34.5s39.167 13 60.5 13c22.667 0 44 -4.16699 64 -12.5s37.667 -20.833 53 -37.5s27.333 -36.834 36 -60.501s13 -50.834 13 -81.501c0 -41.333 -7.83301 -77.5 -23.5 -108.5s-36.5 -55 -62.5 -72
s-55 -25.5 -87 -25.5v0zM263.996 33.001c16 0 31.501 3.83398 46.501 11.501s28.167 18.667 39.5 33s20.333 31.333 27 51s10 41.834 10 66.501c0 25.333 -3.33301 47.5 -10 66.5s-15.834 34.833 -27.501 47.5s-25 22 -40 28s-30.833 9 -47.5 9
c-13.333 0 -26.833 -2.83301 -40.5 -8.5s-26.667 -13.334 -39 -23.001s-23.5 -20.834 -33.5 -33.501s-18.333 -26 -25 -40c-1.33301 -23.333 0.666992 -47.166 6 -71.499s13.833 -46.833 25.5 -67.5s26.667 -37.334 45 -50.001s39.5 -19 63.5 -19v0z" />
    <glyph glyph-name="seven" unicode="7" 
d="M169 0l62 189.5l66.5 188l70.5 190.5h-284v45h343v-30l-55.5 -144l-53 -144.5l-49.5 -146c-16 -49 -31.333 -98.5 -46 -148.5h-54z" />
    <glyph glyph-name="eight" unicode="8" 
d="M250 -10c-38 0 -70.835 7.16602 -98.502 21.499s-49 33.666 -64 57.999s-22.5 51.833 -22.5 82.5c0 24.667 5.66699 47.834 17 69.501s27.333 41.834 48 60.501s45.334 35 74.001 49c-20 10.667 -38.167 23.334 -54.5 38.001s-29.5 31 -39.5 49s-15 36.667 -15 56
c0 28.667 6.33301 54 19 76s30.834 39.333 54.501 52s52.5 19 86.5 19c36.667 0 66.667 -6.16699 90 -18.5s40.833 -29.333 52.5 -51s17.5 -46.167 17.5 -73.5c0 -14.667 -2.83301 -29.167 -8.5 -43.5s-13.667 -27.833 -24 -40.5s-22 -24.5 -35 -35.5
s-27.167 -20.5 -42.5 -28.5c19.333 -9.33301 37 -20 53 -32s29.833 -25.333 41.5 -40s20.667 -30.334 27 -47.001s9.5 -34 9.5 -52c0 -32.667 -7.66699 -61.667 -23 -87s-36.833 -45.333 -64.5 -60s-60.5 -22 -98.5 -22zM251.998 33.999
c28.667 0 52.998 5.49902 72.998 16.499s35.333 26 46 45s16 40.167 16 63.5c0 16 -3.33301 31.5 -10 46.5s-16.5 29 -29.5 42s-28.333 24.833 -46 35.5s-37.5 20 -59.5 28c-17.333 -8 -33.833 -17.5 -49.5 -28.5s-29.167 -23.167 -40.5 -36.5s-20.333 -27.166 -27 -41.499
s-10 -29.5 -10 -45.5c0 -24.667 5.33301 -46.5 16 -65.5s26.334 -33.667 47.001 -44s45.334 -15.5 74.001 -15.5zM263.996 347.998c13.333 7.33301 26.332 15.6699 38.999 25.0029s23.834 19.333 33.501 30s17.334 22.167 23.001 34.5s8.5 25.166 8.5 38.499
c0 20 -4.33301 37.667 -13 53s-21.334 27.666 -38.001 36.999s-38 14 -64 14c-24 0 -44.167 -4.5 -60.5 -13.5s-28.833 -21 -37.5 -36s-13 -31.5 -13 -49.5c0 -16.667 3.5 -31.334 10.5 -44.001s16.167 -24.167 27.5 -34.5s24.333 -20 39 -29s29.667 -17.5 45 -25.5z" />
    <glyph glyph-name="nine" unicode="9" 
d="M228 -10c-31.333 0 -58.3291 4.83203 -80.9961 14.499s-43.667 23.834 -63 42.501l35 33l7 7l5 -6c-1.33301 -4 -0.5 -7.83301 2.5 -11.5s8.5 -9.16699 16.5 -16.5c10 -7.33301 20.667 -12.666 32 -15.999s24.666 -5 39.999 -5c30 0 55.5 8 76.5 24s38 37.833 51 65.5
s22.5 59.667 28.5 96s9 74.5 9 114.5c0 54 -5 98.833 -15 134.5s-25.167 62.667 -45.5 81s-45.833 27.5 -76.5 27.5c-18.667 0 -35.834 -3.5 -51.501 -10.5s-29.334 -17.167 -41.001 -30.5s-20.667 -29.333 -27 -48s-9.5 -39.667 -9.5 -63c0 -22 3.16699 -41.5 9.5 -58.5
s15.166 -31.5 26.499 -43.5s25 -21.333 41 -28s33.333 -10 52 -10c23.333 -0.666992 44 2.83301 62 10.5s34.5 18.667 49.5 33s28.5 31.166 40.5 50.499l1 -59c-12.667 -14 -26.334 -26.833 -41.001 -38.5s-31.167 -21.167 -49.5 -28.5s-39.5 -11 -63.5 -11
c-25.333 0 -48.666 4.16699 -69.999 12.5s-39.833 20.5 -55.5 36.5s-28 35.167 -37 57.5s-13.5 47.5 -13.5 75.5c0 29.333 4.5 55.833 13.5 79.5s21.5 44.167 37.5 61.5s34.5 30.666 55.5 39.999s43.5 14 67.5 14c38.667 0 72 -10.333 100 -31s49.5 -50.167 64.5 -88.5
s22.5 -84.833 22.5 -139.5c0 -84 -8.16699 -152.833 -24.5 -206.5s-39.833 -93.667 -70.5 -120s-67.667 -40.166 -111 -41.499v0z" />
    <glyph glyph-name="colon" unicode=":" 
d="M238 323c-10.667 0 -20.499 4.33301 -29.499 13s-13.5 18.334 -13.5 29.001c0 12 4.5 22.167 13.5 30.5s18.833 12.5 29.5 12.5c11.333 0 21.666 -4.16699 30.999 -12.5s14 -18.5 14 -30.5c0 -10.667 -4.5 -20.334 -13.5 -29.001s-19.5 -13 -31.5 -13zM238.001 -11
c-12 0 -22.165 3.99902 -30.498 11.999s-12.5 18 -12.5 30s4.5 22.167 13.5 30.5s18.833 12.5 29.5 12.5c11.333 0 21.666 -4.33301 30.999 -13s14 -18.667 14 -30s-4.33301 -21.166 -13 -29.499s-19.334 -12.5 -32.001 -12.5z" />
    <glyph glyph-name="semicolon" unicode=";" 
d="M201 -168l-25.002 24.001c22 22 37.667 42.333 47 61s14 34.667 14 48c0 6.66699 -1.83301 12.5 -5.5 17.5s-8.16699 9.66699 -13.5 14s-10 9.16602 -14 14.499s-6 11.666 -6 18.999c0 8.66699 1.83301 16.167 5.5 22.5s8.83398 11.5 15.501 15.5s14.334 6 23.001 6
c13.333 0 24.833 -5.66699 34.5 -17s14.5 -26.666 14.5 -45.999c0 -16 -2.83301 -33.5 -8.5 -52.5s-15 -39 -28 -60s-30.833 -43.167 -53.5 -66.5zM237.998 323.001c-10.667 0 -20.499 4.33301 -29.499 13s-13.5 18.334 -13.5 29.001c0 12 4.5 22.167 13.5 30.5
s18.833 12.5 29.5 12.5c11.333 0 21.666 -4.16699 30.999 -12.5s14 -18.5 14 -30.5c0 -10.667 -4.5 -20.334 -13.5 -29.001s-19.5 -13 -31.5 -13z" />
    <glyph glyph-name="less" unicode="&#x3c;" 
d="M456 47l-416 256v35l413 229v-49l-361 -198l364 -221v-52z" />
    <glyph glyph-name="equal" unicode="=" 
d="M53 398v43h396v-43h-396zM53 191v43h396v-43h-396z" />
    <glyph glyph-name="greater" unicode="&#x3e;" 
d="M45 47v54l363 218l-361 199v49l414 -229v-35z" />
    <glyph glyph-name="question" unicode="?" 
d="M237 226c0 24.667 3.3291 45.335 9.99609 62.002s15.334 31.167 26.001 43.5s21.834 24.166 33.501 35.499s22.834 23 33.501 35s19.334 26.333 26.001 43s10 36.667 10 60c0 18 -2.83301 34.167 -8.5 48.5s-13.834 26.833 -24.501 37.5s-23.5 18.667 -38.5 24
s-31.833 8 -50.5 8c-28 0 -51.167 -4 -69.5 -12s-34.833 -21 -49.5 -39c-6.66699 -8.66699 -10.667 -15.5 -12 -20.5s-1.66602 -10.167 -0.999023 -15.5l-4 -6l-8 6l-36 25c14.667 22 29.667 40.667 45 56s34 27.166 56 35.499s49.333 12.5 82 12.5
c33.333 0 62.5 -6.33301 87.5 -19s44.5 -30.667 58.5 -54s21 -51 21 -83c0 -26.667 -3.5 -49.334 -10.5 -68.001s-15.833 -34.667 -26.5 -48s-22 -25.666 -34 -36.999s-23.333 -22.833 -34 -34.5s-19.5 -25 -26.5 -40s-10.5 -33.5 -10.5 -55.5v-41h-45v41zM260.996 -10.999
c-12 0 -22.167 4.16699 -30.5 12.5s-12.5 18.166 -12.5 29.499c0 12 4.16699 22.167 12.5 30.5s18.5 12.5 30.5 12.5c11.333 0 21.333 -4.16699 30 -12.5s13 -18.5 13 -30.5c0 -11.333 -4.33301 -21.166 -13 -29.499s-18.667 -12.5 -30 -12.5z" />
    <glyph glyph-name="at" unicode="@" 
d="M292 -11c-32.667 0 -64.333 6.50098 -95 19.501s-58 32.667 -82 59s-43 59.833 -57 100.5s-21 89 -21 145c0 55.333 6.66699 103.166 20 143.499s31.333 73.5 54 99.5s47.834 45.333 75.501 58s55.834 19 84.501 19c26 0 50.167 -4.5 72.5 -13.5
s41.833 -22.833 58.5 -41.5s29.667 -42.167 39 -70.5s14 -61.5 14 -99.5v-227h-42v58c-9.33301 -21.333 -22.833 -37.333 -40.5 -48s-39.167 -16 -64.5 -16c-22.667 0 -43.5 5.16699 -62.5 15.5s-34.167 25 -45.5 44s-17 41.167 -17 66.5c0 22.667 4.66699 43.167 14 61.5
s23.5 33.833 42.5 46.5s42.667 22 71 28s61.5 7.66699 99.5 5c0 29.333 -5.5 55.5 -16.5 78.5s-27.167 41.167 -48.5 54.5s-47 20 -77 20c-24 0 -47.167 -5.5 -69.5 -16.5s-42.666 -27.667 -60.999 -50s-32.833 -50.5 -43.5 -84.5s-16 -74 -16 -120
c0 -50.667 6 -94.5 18 -131.5s28.167 -67.667 48.5 -92s43.666 -42.333 69.999 -54s54.166 -17.5 83.499 -17.5c20 0 39.667 3.33301 59 10s37 15.667 53 27l20 -36c-20.667 -14 -42.334 -24.333 -65.001 -31s-47 -10 -73 -10zM317.001 214.001
c16.667 0 30.834 3.49805 42.501 10.498s21.5 18 29.5 33s14 34.667 18 59s6 53.833 6 88.5c-40 4 -73.833 2.33301 -101.5 -5s-48.834 -19.166 -63.501 -35.499s-22 -36.166 -22 -59.499c0 -28 8.33301 -50.167 25 -66.5s38.667 -24.5 66 -24.5z" />
    <glyph glyph-name="A" unicode="A" 
d="M367 197h-242l10 39h220zM250 522l-175 -522h-49l220 634h8l220 -634h-51z" />
    <glyph glyph-name="B" unicode="B" 
d="M61 0l0.000976562 622.995h167c36 0 66.667 -3.66699 92 -11s46.166 -17.666 62.499 -30.999s28.333 -29.333 36 -48s11.5 -39 11.5 -61c0 -21.333 -4.33301 -41.666 -13 -60.999s-21 -36.166 -37 -50.499s-35.667 -24.5 -59 -30.5c18.667 -4 36.167 -11 52.5 -21
s30.5 -22.167 42.5 -36.5s21.5 -29.666 28.5 -45.999s10.5 -33.5 10.5 -51.5c0 -26 -4.5 -49.833 -13.5 -71.5s-22.667 -40.167 -41 -55.5s-41.833 -27.166 -70.5 -35.499s-63 -12.5 -103 -12.5h-166zM109.001 42.9951l130.002 0.00195312c34.667 0 64.167 4.66699 88.5 14
s43.166 23.666 56.499 42.999s20 44.333 20 75c0.666992 23.333 -4.83301 45.166 -16.5 65.499s-30.834 36.833 -57.501 49.5s-62.667 19 -108 19h-113v-266zM109.003 350.997l109.001 0.000976562c41.333 0 73.833 5.5 97.5 16.5s40.5 25.333 50.5 43s15 35.834 15 54.501
c0 17.333 -2.66699 33.166 -8 47.499s-13.833 26.666 -25.5 36.999s-27.334 18.333 -47.001 24s-43.5 8.5 -71.5 8.5h-120v-231z" />
    <glyph glyph-name="C" unicode="C" 
d="M285 -10c-34 0 -65.3301 6.16504 -93.9971 18.498s-53.834 31.5 -75.501 57.5s-38.667 59 -51 99s-18.5 87.667 -18.5 143c0 48.667 4.5 91.167 13.5 127.5s21.333 66.833 37 91.5s33.5 44.334 53.5 59.001s41.167 25.334 63.5 32.001s44.833 10 67.5 10
c45.333 0 83.166 -11.167 113.499 -33.5s53.5 -52.166 69.5 -89.499l-40 -19l-8 -3l-3 6c2 4.66699 2 9 0 13s-5.66699 10.667 -11 20c-17.333 24.667 -36.333 42 -57 52s-42.667 14.667 -66 14c-25.333 0 -49.333 -5.33301 -72 -16s-42.5 -27.167 -59.5 -49.5
s-30.167 -50.833 -39.5 -85.5s-14 -76 -14 -124c0 -44.667 4.5 -84.334 13.5 -119.001s22 -64 39 -88s37 -42.333 60 -55s48.167 -19 75.5 -19c20 0 38.5 3.33301 55.5 10s32.333 16.167 46 28.5s25.5 27.166 35.5 44.499l36 -23
c-19.333 -33.333 -42.333 -58.666 -69 -75.999s-60.334 -26 -101.001 -26v0z" />
    <glyph glyph-name="D" unicode="D" 
d="M64 -1l0.00195312 624h135c36 0 66.167 -3.33301 90.5 -10s45.166 -16.167 62.499 -28.5s32.666 -27.833 45.999 -46.5c14 -18.667 25.167 -39.667 33.5 -63s14.333 -48.833 18 -76.5s5.5 -57.834 5.5 -90.501c-1.33301 -48.667 -7 -92.167 -17 -130.5
s-25.5 -70.666 -46.5 -96.999s-48.167 -46.5 -81.5 -60.5s-74.333 -21 -123 -21h-123zM111.002 39l72.999 -0.000976562c54 0 97.333 10.167 130 30.5s56.334 50.333 71.001 90s22 87.834 22 144.501c0 61.333 -6.83301 112.5 -20.5 153.5s-36 72 -67 93
s-72.5 31.5 -124.5 31.5h-84v-543z" />
    <glyph glyph-name="E" unicode="E" 
d="M67 0v624h364v-43h-318v-234h263v-44h-263v-260h315v-43h-361z" />
    <glyph glyph-name="F" unicode="F" 
d="M86 0v624h341v-42h-294v-225h238v-42h-238v-315h-47z" />
    <glyph glyph-name="G" unicode="G" 
d="M277 -10c-49.333 0 -91.3311 12.9941 -125.998 38.9941s-60.834 62.667 -78.501 110s-26.5 102.333 -26.5 165c-0.666992 54 3.83301 99.833 13.5 137.5s22.667 68.834 39 93.501s34.666 44 54.999 58s41 23.667 62 29s40.5 8 58.5 8c24.667 0 48 -4.5 70 -13.5
s42 -21.167 60 -36.5s32.667 -33.666 44 -54.999l-31 -27l-7 -6l-5 5c1.33301 4.66699 1 9.16699 -1 13.5s-6.66699 10.833 -14 19.5c-10.667 12.667 -22 23.334 -34 32.001s-24.833 15 -38.5 19s-28.5 6 -44.5 6c-18 0 -35.667 -2.66699 -53 -8
s-33.5 -14.166 -48.5 -26.499s-28.333 -28.833 -40 -49.5s-20.834 -46.167 -27.501 -76.5s-10 -66.166 -10 -107.499c0 -45.333 4 -85.666 12 -120.999s19.667 -65.166 35 -89.499s34.333 -43 57 -56s49 -19.5 79 -19.5c11.333 0 22.666 1 33.999 3s22.5 5 33.5 9
s21.667 9.16699 32 15.5s19.833 13.166 28.5 20.499v167h-123v43h168v-236c-29.333 -21.333 -57.666 -37.5 -84.999 -48.5s-56.666 -16.5 -87.999 -16.5v0z" />
    <glyph glyph-name="H" unicode="H" 
d="M55 623l49 -0.00195312h9v-7c-3.33301 -2.66699 -5.5 -6.16699 -6.5 -10.5s-1.5 -12.166 -1.5 -23.499v-226h281v267h48h9v-7c-3.33301 -2.66699 -5.5 -6.16699 -6.5 -10.5s-1.5 -12.166 -1.5 -23.499v-582h-50v314h-280v-314h-50v623z" />
    <glyph glyph-name="I" unicode="I" 
d="M91 0v42h124v540h-117v41h289v-41h-124v-541h130v-41h-302z" />
    <glyph glyph-name="J" unicode="J" 
d="M196 -11c-29.333 0 -56.335 5.83203 -81.002 17.499s-46.667 28.834 -66 51.501l29 33l6 7l5 -4c0 -4.66699 1.16699 -9.16699 3.5 -13.5s7.83301 -10.166 16.5 -17.499c13.333 -10 27.333 -17.833 42 -23.5s29.667 -8.5 45 -8.5c24.667 0 44.834 6 60.501 18
s27.334 31 35.001 57s11.5 60 11.5 102v374h-121v41h265v-41h-96v-373c0.666992 -40 -2.83301 -74 -10.5 -102s-18.667 -50.833 -33 -68.5s-31 -30.334 -50 -38.001s-39.5 -11.5 -61.5 -11.5v0z" />
    <glyph glyph-name="K" unicode="K" 
d="M151 323l-48.001 -49.002v-274h-51v623h50h9v-7c-3.33301 -2.66699 -5.5 -6.16699 -6.5 -10.5s-1.5 -12.166 -1.5 -23.499v-254l288 299c2.66699 -0.666992 5.33398 -1.16699 8.00098 -1.5s5.66699 -0.666016 9 -0.999023l10 -1c3.33301 -0.333008 6.33301 -0.5 9 -0.5
h18l-257 -270l273 -353l-60 -3z" />
    <glyph glyph-name="L" unicode="L" 
d="M76 623l49 -0.000976562h9v-7c-3.33301 -2.66699 -5.5 -6.16699 -6.5 -10.5s-1.5 -12.166 -1.5 -23.499v-540h303v-42h-353v623z" />
    <glyph glyph-name="M" unicode="M" 
d="M51 0v623h35l164 -311l167 312h33v-624h-46v510l-145 -263h-23l-139 262v-509h-46z" />
    <glyph glyph-name="N" unicode="N" 
d="M60 623l46 -0.000976562l284 -510v510h46h9v-7c-3.33301 -2.66699 -5.5 -6.16699 -6.5 -10.5s-1.5 -12.166 -1.5 -23.499v-582h-37l-293 527v-527h-47v623z" />
    <glyph glyph-name="O" unicode="O" 
d="M250 -11c-45.333 0 -84 12.333 -116 37s-56.167 60.834 -72.5 108.501s-24.5 105.5 -24.5 173.5c0 66 8.16699 122.833 24.5 170.5s40.5 84.334 72.5 110.001s70.667 38.5 116 38.5c46.667 0 85.667 -12.833 117 -38.5s55.166 -62.334 71.499 -110.001
s24.5 -104.5 24.5 -170.5c0 -68 -8.16699 -125.833 -24.5 -173.5s-40.166 -83.834 -71.499 -108.501s-70.333 -37 -117 -37zM250 32c35.333 0 65.166 10.667 89.499 32s42.833 52.666 55.5 93.999s19 91.333 19 150c0 56.667 -6.33301 105.667 -19 147
s-31.167 73.333 -55.5 96s-54.166 34 -89.499 34c-34.667 0 -64.167 -11.333 -88.5 -34s-42.833 -54.667 -55.5 -96s-19 -90.333 -19 -147c0 -58.667 6.33301 -108.667 19 -150s31.167 -72.666 55.5 -93.999s53.833 -32 88.5 -32z" />
    <glyph glyph-name="P" unicode="P" 
d="M69 0l0.00195312 622.998h190c43.333 0 78.666 -7.5 105.999 -22.5s47.666 -35.167 60.999 -60.5s20 -54.333 20 -87c0 -24 -3.5 -46.167 -10.5 -66.5s-18 -38.166 -33 -53.499s-34 -27.166 -57 -35.499s-50.167 -12.5 -81.5 -12.5h-145v-285h-50zM119.002 327.998
h137.001c35.333 0 63.166 5.33301 83.499 16s35 25.5 44 44.5s13.5 40.167 13.5 63.5c0 24 -4.66699 45.333 -14 64s-24.333 33.667 -45 45s-47.667 17 -81 17h-138v-250z" />
    <glyph glyph-name="Q" unicode="Q" 
d="M401 -135c-32.667 -1.33301 -59.667 -0.333008 -81 3s-38.166 10 -50.499 20s-21 23.5 -26 40.5s-7.5 38.5 -7.5 64.5c-33.333 3.33301 -65 17.166 -95 41.499s-54.5 59.333 -73.5 105s-28.5 101.834 -28.5 168.501c0 62 6.5 113.833 19.5 155.5s30.167 74.667 51.5 99
s44.333 41.666 69 51.999s48.667 15.5 72 15.5c28 0 55 -6.16699 81 -18.5s48.833 -31.333 68.5 -57s35 -58.667 46 -99s15.833 -88.5 14.5 -144.5c0 -46 -4 -87.5 -12 -124.5s-20 -69.167 -36 -96.5s-35.333 -49.166 -58 -65.499s-48.667 -26.833 -78 -31.5
c1.33301 -20.667 4.66602 -37.167 9.99902 -49.5s14 -21.333 26 -27s28 -8.5 48 -8.5l81 5l-2 -48h-39zM256 36c20.667 0 40.3311 5.50098 58.998 16.501s35.5 27.667 50.5 50s26.833 50 35.5 83s13 71.5 13 115.5c0 52.667 -4.33301 97.334 -13 134.001
s-20.667 66.167 -36 88.5s-32.666 38.666 -51.999 48.999s-40 15.5 -62 15.5c-24.667 0 -47.167 -6.16699 -67.5 -18.5s-37.666 -30 -51.999 -53s-25.333 -51 -33 -84s-11.5 -70.167 -11.5 -111.5c0 -58.667 7.33301 -109.334 22 -152.001s34.667 -75.5 60 -98.5
s54.333 -34.5 87 -34.5z" />
    <glyph glyph-name="R" unicode="R" 
d="M66 0v623h174c48 0 86.333 -6.83301 115 -20.5s49.5 -33.5 62.5 -59.5s19.5 -57 19.5 -93c0 -24.667 -5.66699 -48.5 -17 -71.5s-27 -42.5 -47 -58.5s-43 -26.667 -69 -32l150 -288h-53l-148 285h-138v-285h-49zM115 328h132.999c48 0 83.333 11.667 106 35
s34 52.333 34 87c0 26 -4.66699 48.5 -14 67.5s-24.166 33.833 -44.499 44.5s-47.5 16 -81.5 16h-133v-250z" />
    <glyph glyph-name="S" unicode="S" 
d="M253 -10c-40.667 0 -76.4951 6.66992 -107.495 20.0029s-58.833 33 -83.5 59l29 42l5 7l6 -4c0 -4 1.16699 -8.5 3.5 -13.5s7.16602 -11.167 14.499 -18.5c17.333 -14.667 37.833 -26.334 61.5 -35.001s49.5 -13 77.5 -13c20.667 0 39.5 3.16699 56.5 9.5
s31.667 15.166 44 26.499s21.666 24.666 27.999 39.999s9.5 31.666 9.5 48.999c0 12 -1.16699 23 -3.5 33s-6.66602 19.5 -12.999 28.5s-15 17.833 -26 26.5s-25.167 17.5 -42.5 26.5s-38 18.5 -62 28.5c-39.333 15.333 -71.5 32 -96.5 50s-43.167 37.5 -54.5 58.5
s-17 43.167 -17 66.5c0 30.667 7.16699 57.5 21.5 80.5s35 41 62 54s59.167 19.5 96.5 19.5c22.667 0 44.167 -3 64.5 -9s38.833 -14.667 55.5 -26s31 -25 43 -41l-27 -34l-6 -7l-5 4c0 4.66699 -1 9.33398 -3 14.001s-6.66699 11 -14 19c-15.333 14 -32.5 24 -51.5 30
s-41.167 9.33301 -66.5 10c-18 0 -34.333 -2.83301 -49 -8.5s-27.334 -13.5 -38.001 -23.5s-18.834 -21.5 -24.501 -34.5s-8.5 -27.167 -8.5 -42.5c0 -12 1.5 -23 4.5 -33s8.16699 -19.833 15.5 -29.5s17.166 -19 29.499 -28s27.833 -18.167 46.5 -27.5s41 -19.333 67 -30
c28 -11.333 51.667 -23 71 -35s34.666 -24.833 45.999 -38.5s19.666 -28.167 24.999 -43.5s8 -32 8 -50c0 -30 -7 -58.5 -21 -85.5s-35.167 -49 -63.5 -66s-64.166 -25.5 -107.499 -25.5v0z" />
    <glyph glyph-name="T" unicode="T" 
d="M219 0v581h-188v43h432v-43h-195v-581h-49z" />
    <glyph glyph-name="U" unicode="U" 
d="M251 -11c-62.667 0 -110.166 19.833 -142.499 59.5s-48.5 95.167 -48.5 166.5v408h48h9v-7c-4 -2.66699 -6.5 -6.16699 -7.5 -10.5s-1.16699 -12.166 -0.5 -23.499v-368c0 -56.667 11.333 -101.334 34 -134.001s59 -49 109 -49c50.667 0 87.667 15.833 111 47.5
s35 77.834 35 138.501v406h46v-405c0 -52.667 -7.66699 -95.834 -23 -129.501s-37.333 -58.667 -66 -75s-63.334 -24.5 -104.001 -24.5v0z" />
    <glyph glyph-name="V" unicode="V" 
d="M240 -4l-205 628h51l170 -532l165 531h47l-201 -627h-27z" />
    <glyph glyph-name="W" unicode="W" 
d="M127 0l-100 623h47l75 -486l100 440h22l95 -437l70 483h42l-99 -623h-22l-99 464l-107 -464h-24z" />
    <glyph glyph-name="X" unicode="X" 
d="M51 0l171 320l-168 304h52l143 -258l142 258h48l-161 -303l180 -321h-54l-154 273l-147 -273h-52z" />
    <glyph glyph-name="Y" unicode="Y" 
d="M233 0v261l-195 362h55l166 -310l153 310h51l-179 -362v-261h-51z" />
    <glyph glyph-name="Z" unicode="Z" 
d="M60 34l320 546h-308v43h365v-34l-316 -546h288c11.333 0 19.333 0.666992 24 2s9 4 13 8h7v-10v-43h-393v34z" />
    <glyph glyph-name="bracketleft" unicode="[" 
d="M140 -89v759h277v-42h-232v-677h233v-40h-278z" />
    <glyph glyph-name="backslash" unicode="\" 
d="M383 -42l-306 685l41 22l307 -686z" />
    <glyph glyph-name="bracketright" unicode="]" 
d="M409 -89h-278v40h233v677h-232v42h277v-759z" />
    <glyph glyph-name="asciicircum" unicode="^" 
d="M135 349l-36 18l148 256h20l131 -255l-37 -19l-106 202z" />
    <glyph glyph-name="underscore" unicode="_" 
d="M40 -71v43h421v-43h-421z" />
    <glyph glyph-name="grave" unicode="`" 
d="M261 510l-103 134l40 30l89 -146z" />
    <glyph glyph-name="a" unicode="a" 
d="M211 -11c-48 0 -85.002 12.167 -111.002 36.5s-39 54.166 -39 89.499c0 24 5.5 45.333 16.5 64s26.333 34.5 46 47.5s42.834 22.833 69.501 29.5s55.334 10 86.001 10c11.333 0 23.5 -0.166992 36.5 -0.5s26.667 -1 41 -2s28.5 -2.5 42.5 -4.5l4 -38
c-12 2 -25 3.5 -39 4.5s-27.833 1.83301 -41.5 2.5s-26.167 1 -37.5 1c-27.333 0 -51.833 -2.5 -73.5 -7.5s-40.167 -12.167 -55.5 -21.5s-26.833 -21 -34.5 -35s-11.5 -30 -11.5 -48c0 -14.667 2.33301 -27.667 7 -39s11.667 -20.666 21 -27.999s20.5 -13 33.5 -17
s28.167 -6 45.5 -6c28 0 52.833 4.66699 74.5 14s40 22.666 55 39.999s26.333 38.166 34 62.499s11.5 51.833 11.5 82.5c0 48 -4.66699 86.333 -14 115s-24.666 49.5 -45.999 62.5s-50 19.5 -86 19.5c-22.667 0 -44.834 -4.5 -66.501 -13.5s-42.5 -23.167 -62.5 -42.5
l-26 31c21.333 21.333 45 37.5 71 48.5s54.667 16.5 86 16.5c30.667 0 57.5 -3.83301 80.5 -11.5s42.333 -20.167 58 -37.5s27.667 -40.166 36 -68.499s12.5 -63.166 12.5 -104.499v-241h-52v92c-6.66699 -16.667 -15.667 -31.5 -27 -44.5s-24.5 -23.833 -39.5 -32.5
s-31.5 -15.167 -49.5 -19.5s-36.667 -6.5 -56 -6.5z" />
    <glyph glyph-name="b" unicode="b" 
d="M263 -11c-25.333 0 -47.832 4.99902 -67.499 14.999s-36 22.333 -49 37s-23.5 29.334 -31.5 44.001l-17 -85h-31v665h48h9v-7c-4 -2.66699 -6.5 -6.16699 -7.5 -10.5s-1.16699 -12.166 -0.5 -23.499v-258c6.66699 14 15.167 27 25.5 39s22 22.5 35 31.5
s27.333 15.833 43 20.5s31.834 7 48.501 7c25.333 0 49.166 -5.16699 71.499 -15.5s41.833 -25.5 58.5 -45.5s29.667 -44.333 39 -73s14 -61.667 14 -99c0 -42 -5.33301 -78.333 -16 -109s-24.834 -55.834 -42.501 -75.501s-37.667 -34.167 -60 -43.5s-45.5 -14 -69.5 -14v0
zM260.001 32.999c18 0 35.5029 3.33301 52.5029 10s32.167 17.667 45.5 33s23.833 35.5 31.5 60.5s11.5 55.167 11.5 90.5c0 32 -3.66699 60.167 -11 84.5s-17.333 44.666 -30 60.999s-27.334 28.666 -44.001 36.999s-34.334 12.5 -53.001 12.5
c-25.333 0 -49.166 -7 -71.499 -21s-40.5 -35.5 -54.5 -64.5s-21 -66.167 -21 -111.5c0 -34 3.83301 -63.167 11.5 -87.5s18.167 -44.166 31.5 -59.499s28.666 -26.666 45.999 -33.999s35.666 -11 54.999 -11v0z" />
    <glyph glyph-name="c" unicode="c" 
d="M280 -11c-32.667 0 -62.3311 6.00195 -88.998 18.002s-49.5 28.667 -68.5 50s-33.833 46.5 -44.5 75.5s-16 60.833 -16 95.5c0 34 5.5 65.333 16.5 94s26.333 53.5 46 74.5s42.834 37.167 69.501 48.5s55.667 17 87 17c39.333 0 73 -6.83301 101 -20.5
s51.333 -33.834 70 -60.501l-30 -29l-6 -7l-5 5c0.666992 4.66699 -0.166016 9.16699 -2.49902 13.5s-7.5 10.5 -15.5 18.5c-14 13.333 -30 23 -48 29s-41.333 9 -70 9c-21.333 0 -41.833 -4.33301 -61.5 -13s-37.167 -21.167 -52.5 -37.5s-27.333 -36 -36 -59
s-13 -48.833 -13 -77.5c0 -30 4.16699 -57.167 12.5 -81.5s20.166 -45.333 35.499 -63s33.666 -31.334 54.999 -41.001s44.333 -14.5 69 -14.5c16.667 0 33 2.5 49 7.5s31.167 12.167 45.5 21.5s27.166 20.333 38.499 33l28 -34c-22.667 -24 -47.834 -42 -75.501 -54
s-57.5 -18 -89.5 -18v0z" />
    <glyph glyph-name="d" unicode="d" 
d="M239 -10c-23.333 0 -46.3369 5.00098 -69.0039 15.001s-43 25 -61 45s-32.333 45.167 -43 75.5s-16 65.833 -16 106.5c0 42 5.66699 77.667 17 107s26.5 53.333 45.5 72s39.833 32.334 62.5 41.001s46 13 70 13c22.667 0 43.334 -4.33301 62.001 -13
s35 -20.334 49 -35.001s24.333 -31.334 31 -50.001v298h45h9v-7c-3.33301 -2.66699 -5.5 -6.16699 -6.5 -10.5s-1.5 -12.166 -1.5 -23.499l1 -553c0 -12 0.5 -23.833 1.5 -35.5s3.83301 -23.5 8.5 -35.5l-48 1c-3.33301 8 -5.66602 17.167 -6.99902 27.5
s-2.16602 20.666 -2.49902 30.999s-0.5 19.5 -0.5 27.5c-7.33301 -16 -17.666 -31.5 -30.999 -46.5s-29.5 -27.167 -48.5 -36.5s-41.5 -14 -67.5 -14v0zM246.996 33.001c24 0 44.499 4.83594 61.499 14.5029s31.167 23.5 42.5 41.5s19.833 39 25.5 63s8.5 50.333 8.5 79
c0 43.333 -6.33301 79.166 -19 107.499s-29.5 49.666 -50.5 63.999s-44.167 21.5 -69.5 21.5c-21.333 0 -41 -3.83301 -59 -11.5s-33.667 -19.334 -47 -35.001s-23.666 -35 -30.999 -58s-11 -49.833 -11 -80.5c0 -45.333 6.5 -83.333 19.5 -114s30.667 -53.667 53 -69
s47.833 -23 76.5 -23v0z" />
    <glyph glyph-name="e" unicode="e" 
d="M268 -10c-32 0 -61.002 5.33301 -87.002 16s-48.333 26.167 -67 46.5s-33.167 45 -43.5 74s-15.5 61.833 -15.5 98.5c0 38.667 5.16699 72.834 15.5 102.501s24.666 54.667 42.999 75s39.5 35.666 63.5 45.999s50 15.5 78 15.5c26 0 50.167 -4.33301 72.5 -13
s41.833 -21.667 58.5 -39s29.667 -39.333 39 -66s14 -58 14 -94v-13.5c0 -3.66699 -0.333008 -8.16699 -1 -13.5h-336c0.666992 -32.667 5.33398 -61.167 14.001 -85.5s20.334 -44.5 35.001 -60.5s32 -28 52 -36s42 -12 66 -12c19.333 0 36.666 2.33301 51.999 7
s29.333 11.5 42 20.5s24.334 19.5 35.001 31.5l30 -27c-12.667 -15.333 -27.167 -28.5 -43.5 -39.5s-34.166 -19.333 -53.499 -25s-40.333 -8.5 -63 -8.5zM103.998 265l286 0.000976562c0 25.333 -3.33301 48 -10 68s-16 36.833 -28 50.5s-26.333 24 -43 31
s-35 10.5 -55 10.5c-21.333 0 -40.666 -3.66699 -57.999 -11s-32.5 -18 -45.5 -32s-23.333 -30.833 -31 -50.5s-12.834 -41.834 -15.501 -66.501z" />
    <glyph glyph-name="f" unicode="f" 
d="M173 409l-110.001 -0.00292969v40h110v43c0 40.667 6.33301 74.334 19 101.001s30.667 46.334 54 59.001s51.333 19 84 19c28.667 0 55.5 -5.16699 80.5 -15.5s45.833 -26.166 62.5 -47.499l-25 -35l-6 -8l-6 5c0.666992 4 -0.166016 8.33301 -2.49902 13
s-7.5 11 -15.5 19c-12.667 10 -25.667 17.333 -39 22s-29 7 -47 7c-23.333 0 -43.333 -4.66699 -60 -14s-29.5 -24 -38.5 -44s-13.5 -47 -13.5 -81v-43h161v-40h-161v-409h-47v409z" />
    <glyph glyph-name="g" unicode="g" 
d="M248 -172c-34 0 -63.665 2.66504 -88.998 7.99805s-46.5 13 -63.5 23s-29.833 22.333 -38.5 37s-13 31 -13 49c0 20 3.83301 37.167 11.5 51.5s17.667 26.5 30 36.5s26.166 18.667 41.499 26l26 -14c-12.667 -7.33301 -23.667 -15.166 -33 -23.499
s-16.666 -18.333 -21.999 -30s-8 -25.834 -8 -42.501c0 -12.667 3.16699 -24 9.5 -34s16 -18.5 29 -25.5s29.333 -12.5 49 -16.5s43.167 -6 70.5 -6c34.667 0 63 4 85 12s38.667 18.833 50 32.5s17 28.834 17 45.501c0.666992 16.667 -1.83301 30.167 -7.5 40.5
s-17.5 18 -35.5 23s-45.667 7.5 -83 7.5c-23.333 0 -45 0.833008 -65 2.5s-37.833 4.33398 -53.5 8.00098s-29 8.83398 -40 15.501s-19.5 14.667 -25.5 24s-9 20.666 -9 33.999c0 16.667 5 31.834 15 45.501s23.333 27.834 40 42.501l24 -20
c-8.66699 -8.66699 -15.667 -16 -21 -22s-9.16602 -11.5 -11.499 -16.5s-3.5 -11.167 -3.5 -18.5c0 -14 6 -24.833 18 -32.5s30.167 -12.834 54.5 -15.501s54.166 -4 89.499 -4c33.333 0 60.5 -2.5 81.5 -7.5s37.167 -12 48.5 -21s19.166 -20.167 23.499 -33.5
s6.5 -28.333 6.5 -45c0 -18 -4 -35 -12 -51s-20 -30.333 -36 -43s-36.333 -22.834 -61 -30.501s-54.334 -11.5 -89.001 -11.5zM232.002 151.998c-30.667 0 -57.834 7 -81.501 21s-42.167 33 -55.5 57s-20 50.667 -20 80c0 28.667 6.66699 54.834 20 78.501
s31.833 42.5 55.5 56.5s50.834 21 81.501 21c32 0 59.667 -7 83 -21s41.5 -32.833 54.5 -56.5s19.5 -49.834 19.5 -78.501c0 -29.333 -6.33301 -56 -19 -80s-30.667 -43 -54 -57s-51.333 -21 -84 -21zM232.002 193.998c23.333 0 43.668 4.83203 61.001 14.499
s30.666 23.167 39.999 40.5s14 37.333 14 60s-5 42.667 -15 60s-23.667 31 -41 41s-37 15 -59 15c-21.333 0 -40.666 -5 -57.999 -15s-31 -23.667 -41 -41s-15 -37 -15 -59c0 -24 5 -44.667 15 -62s23.667 -30.666 41 -39.999s36.666 -14 57.999 -14zM361.004 386.997
l-19.999 25c16 18.667 33.667 32 53 40s42.666 11 69.999 9l5 -39c-22.667 2 -42.667 0.666992 -60 -4s-33.333 -15 -48 -31z" />
    <glyph glyph-name="h" unicode="h" 
d="M80 665l45.999 -0.00683594h9v-7c-3.33301 -2.66699 -5.5 -6.16699 -6.5 -10.5s-1.5 -12.166 -1.5 -23.499v-267c12 22 26.333 40.833 43 56.5s35 27.834 55 36.501s41 13 63 13c27.333 0 51.333 -5.66699 72 -17s36.834 -30.666 48.501 -57.999
s17.5 -65.666 17.5 -114.999v-273h-47v271c0 38 -3.83301 67.833 -11.5 89.5s-19.167 37 -34.5 46s-34 13.5 -56 13.5c-14.667 0 -29.167 -2.66699 -43.5 -8s-27.833 -12.666 -40.5 -21.999s-24 -20.666 -34 -33.999s-17.833 -28.166 -23.5 -44.499s-8.5 -33.833 -8.5 -52.5
v-259h-47v665z" />
    <glyph glyph-name="i" unicode="i" 
d="M105 0v41h124v372h-118v40h166v-412h114v-41h-286zM249 566c-10 0 -18.833 3.66895 -26.5 11.002s-11.5 16.333 -11.5 27c0 11.333 3.66699 20.666 11 27.999s16.333 11 27 11s19.834 -3.83301 27.501 -11.5s11.5 -16.834 11.5 -27.501
c0 -10 -3.83301 -18.833 -11.5 -26.5s-16.834 -11.5 -27.501 -11.5z" />
    <glyph glyph-name="j" unicode="j" 
d="M194 -174c-28.667 0 -55.8359 5.33398 -81.5029 16.001s-47.167 26.667 -64.5 48l28 37l5 8l6 -5c0.666992 -4 2 -8.33301 4 -13s6.66699 -11 14 -19c12.667 -9.33301 26.334 -16.5 41.001 -21.5s30.334 -7.5 47.001 -7.5c28 0 51 5.83301 69 17.5s31.333 28.667 40 51
s13 49.166 13 80.499v394h-189v41h238v-431c0 -40 -6.16699 -74.667 -18.5 -104s-31.166 -52 -56.499 -68s-57 -24 -95 -24v0zM326.998 566.001c-10 0 -18.833 3.66895 -26.5 11.002s-11.5 16.333 -11.5 27c0 11.333 3.66699 20.666 11 27.999s16.333 11 27 11
s19.834 -3.83301 27.501 -11.5s11.5 -16.834 11.5 -27.501c0 -10 -3.83301 -18.833 -11.5 -26.5s-16.834 -11.5 -27.501 -11.5z" />
    <glyph glyph-name="k" unicode="k" 
d="M192 241l-67 -58v-183h-49v665h48h9v-7c-3.33301 -2.66699 -5.5 -6.16699 -6.5 -10.5s-1.5 -12.166 -1.5 -23.499v-389l255 220c3.33301 -0.666992 6.5 -1.33398 9.5 -2.00098s6 -1 9 -1s6.33301 -0.166992 10 -0.5s7.16699 -0.5 10.5 -0.5h18l-208 -180l235 -271l-61 -4
z" />
    <glyph glyph-name="l" unicode="l" 
d="M84 0v41h142v584h-136v40h185v-624h141v-41h-332z" />
    <glyph glyph-name="m" unicode="m" 
d="M46 0l0.00292969 453h46v-51c7.33301 12 16 22.667 26 32s20.833 16.666 32.5 21.999s24.167 8 37.5 8c12.667 0 24.667 -2.83301 36 -8.5s21.166 -14 29.499 -25s13.833 -25.167 16.5 -42.5c7.33301 15.333 16.166 28.666 26.499 39.999s22.166 20.166 35.499 26.499
s27.666 9.5 42.999 9.5c14 0 26.333 -2.66699 37 -8s19.667 -13.166 27 -23.499s13 -22.666 17 -36.999s5.66699 -30.166 5 -47.499v-348h-45v329c0 26.667 -2.5 47 -7.5 61s-11.5 23.667 -19.5 29s-16.667 8 -26 8c-14.667 0 -28.667 -6 -42 -18s-24 -26.833 -32 -44.5
s-12 -35.167 -12 -52.5v-312h-46v322c0 41.333 -4.66699 69 -14 83s-24.333 21 -45 21c-8 0 -16.667 -2.5 -26 -7.5s-18.166 -12.333 -26.499 -22s-15 -21.5 -20 -35.5s-7.5 -30 -7.5 -48v-313h-46z" />
    <glyph glyph-name="n" unicode="n" 
d="M79 0l0.000976562 452.996h48v-96c10 22 23.167 40.833 39.5 56.5s35.166 27.834 56.499 36.501s43.666 13 66.999 13c24.667 0 47.167 -5.83301 67.5 -17.5s36.833 -31.167 49.5 -58.5s19 -65.333 19 -114v-273h-48v271c0 37.333 -4 66.833 -12 88.5
s-19.667 37.167 -35 46.5s-33.666 14 -54.999 14c-20 0 -38.833 -4.16699 -56.5 -12.5s-33.5 -19.666 -47.5 -33.999s-25 -31.166 -33 -50.499s-12 -40.666 -12 -63.999v-259h-48z" />
    <glyph glyph-name="o" unicode="o" 
d="M250 -8c-41.333 0 -77 10 -107 30s-53.167 47.667 -69.5 83s-24.5 76 -24.5 122c0 46.667 8.16699 87.667 24.5 123s39.5 63 69.5 83s65.667 30 107 30s77 -10 107 -30s53.167 -47.667 69.5 -83s24.5 -76.333 24.5 -123c0 -46 -8.16699 -86.667 -24.5 -122
s-39.5 -63 -69.5 -83s-65.667 -30 -107 -30zM250 34c32 0 59.167 8.33301 81.5 25s39.5 39.667 51.5 69s18 62.666 18 99.999c0 39.333 -6.5 73.5 -19.5 102.5s-30.667 51.5 -53 67.5s-48.5 24 -78.5 24c-30.667 0 -57.334 -8.33301 -80.001 -25s-40 -39.5 -52 -68.5
s-18 -62.5 -18 -100.5s6 -71.667 18 -101s29.333 -52.166 52 -68.499s49.334 -24.5 80.001 -24.5z" />
    <glyph glyph-name="p" unicode="p" 
d="M67 -167l0.00195312 619.999h48v-97c8 22 19.167 41 33.5 57s31.666 28.333 51.999 37s43.166 13 68.499 13c24 0 47.167 -4.66699 69.5 -14s42.166 -23.5 59.499 -42.5s31 -43 41 -72s15 -63.167 15 -102.5c0 -41.333 -5.16699 -77.5 -15.5 -108.5
s-24.333 -56.333 -42 -76s-37.667 -34.5 -60 -44.5s-45.5 -15 -69.5 -15c-21.333 0 -41.833 3.83301 -61.5 11.5s-37.167 18.834 -52.5 33.501s-27.666 32 -36.999 52v-252h-49zM258.002 30.999c18.667 0 36.667 3.5 54 10.5s33 18.333 47 34s25 36.167 33 61.5s12 56 12 92
c0 42 -5.83301 77 -17.5 105s-27.834 49.333 -48.501 64s-44.667 22.334 -72 23.001c-21.333 0.666992 -41.166 -2.83301 -59.499 -10.5s-34.333 -19.834 -48 -36.501s-24.334 -38.334 -32.001 -65.001s-11.5 -58.667 -11.5 -96
c0.666992 -26.667 3.83398 -50.167 9.50098 -70.5s13.334 -37.666 23.001 -51.999s20.667 -25.833 33 -34.5s25.166 -15 38.499 -19s26.333 -6 39 -6z" />
    <glyph glyph-name="q" unicode="q" 
d="M386 -167l-0.000976562 255c-8.66699 -18 -19.834 -34.5 -33.501 -49.5s-30 -26.667 -49 -35s-41.833 -12.833 -68.5 -13.5c-26 0 -50.333 5.83301 -73 17.5s-42.5 28 -59.5 49s-30.167 46.167 -39.5 75.5s-14 62 -14 98c0 37.333 5 70.333 15 99s23.667 53.167 41 73.5
s37.833 35.833 61.5 46.5s49.167 16 76.5 16c18.667 0 35.834 -2.66699 51.501 -8s29.834 -12.5 42.501 -21.5s23.5 -19.333 32.5 -31s15.833 -24.167 20.5 -37.5v90h45v-624h-49zM242.999 33c19.333 0 37.665 3.99902 54.998 11.999s32.5 20.167 45.5 36.5
s23.167 37.833 30.5 64.5s11 58.334 11 95.001c0 34 -3.66699 62.667 -11 86s-17.666 42 -30.999 56s-28.166 24.333 -44.499 31s-33.5 10 -51.5 10c-21.333 0 -41 -4.16699 -59 -12.5s-33.833 -20.5 -47.5 -36.5s-24.167 -35.833 -31.5 -59.5s-11 -51.167 -11 -82.5
c0 -30 3.33301 -57.333 10 -82s16.5 -45.667 29.5 -63s28.333 -30.833 46 -40.5s37.5 -14.5 59.5 -14.5z" />
    <glyph glyph-name="r" unicode="r" 
d="M124 453h50.999l-3 -133l-8 7c4 21.333 11.167 40.5 21.5 57.5s23 31.5 38 43.5s31.333 21 49 27s35.834 9 54.501 9c22.667 0 45.334 -4.16699 68.001 -12.5s42 -20.833 58 -37.5l-23 -37l-4 -8l-7 4c0 4.66699 -1.33301 9 -4 13s-8.66699 9.33301 -18 16
c-12 7.33301 -23.5 12.5 -34.5 15.5s-22.833 4.5 -35.5 4.5c-20.667 0 -40.334 -4 -59.001 -12s-35.167 -19.667 -49.5 -35s-25.5 -33.833 -33.5 -55.5s-12 -46.5 -12 -74.5v-246h-49v454z" />
    <glyph glyph-name="s" unicode="s" 
d="M252 -10c-24.667 0.666992 -48.1689 3.49902 -70.502 8.49902s-43.5 12.833 -63.5 23.5s-38.667 24 -56 40l28 44l6 7l6 -4c0 -4 1 -8.33301 3 -13s7 -11 15 -19c16 -13.333 35.167 -24.166 57.5 -32.499s47.833 -12.5 76.5 -12.5c30 0 54.667 3.33301 74 10
s34 16.5 44 29.5s15 28.833 15 47.5c0 11.333 -2.66699 21.666 -8 30.999s-13.5 17.833 -24.5 25.5s-24.833 14.834 -41.5 21.501s-36.334 13 -59.001 19c-32.667 8.66699 -61.5 19.334 -86.5 32.001s-44.667 27.5 -59 44.5s-21.5 36.5 -21.5 58.5
c0 22.667 6.5 42.5 19.5 59.5s31.667 30.167 56 39.5s54.166 14 89.499 14c21.333 0 40.333 -1.33301 57 -4s32 -6.83398 46 -12.501s26.833 -12.667 38.5 -21s22.834 -18.166 33.501 -29.499l-28 -35l-6 -8l-5 5c0 4.66699 -1.16699 9.16699 -3.5 13.5
s-7.5 10.5 -15.5 18.5c-14.667 11.333 -31.667 20 -51 26s-40.333 9 -63 9c-37.333 0 -66.5 -6.33301 -87.5 -19s-31.5 -30.667 -31.5 -54c0 -14 4.83301 -26.667 14.5 -38s24.834 -22 45.501 -32s47.334 -19.333 80.001 -28c35.333 -9.33301 64.833 -20 88.5 -32
s41.334 -25.833 53.001 -41.5s17.5 -34.5 17.5 -56.5c0 -25.333 -6.16699 -48.333 -18.5 -69s-32 -36.834 -59 -48.501s-62.167 -17.5 -105.5 -17.5v0z" />
    <glyph glyph-name="t" unicode="t" 
d="M299 -7c-29.333 0 -52.832 4.99902 -70.499 14.999s-30.834 25.5 -39.501 46.5s-14 47.5 -16 79.5s-2.33301 70 -1 114l12 329l50 6l9 1l1 -7c-3.33301 -3.33301 -5.83301 -7.33301 -7.5 -12s-2.83398 -12.667 -3.50098 -24l-7 -107l1 -16l-7 -174
c-2 -53.333 -1 -95.166 3 -125.499s12.5 -51.666 25.5 -63.999s32.167 -18.833 57.5 -19.5c22 0 42.833 4.16699 62.5 12.5s38.834 19.166 57.501 32.499l18 -38c-22.667 -16.667 -46 -29 -70 -37s-49 -12 -75 -12v0zM70.001 451.999h329v-41h-329v41z" />
    <glyph glyph-name="u" unicode="u" 
d="M228 -11c-17.333 0 -33.835 2.50391 -49.502 7.50391s-30 12.833 -43 23.5s-24.167 24.167 -33.5 40.5s-16.5 35.833 -21.5 58.5s-7.5 48.667 -7.5 78l1 256h47v-256c0 -31.333 3.16699 -57.833 9.5 -79.5s15 -38.834 26 -51.501s23.833 -21.834 38.5 -27.501
s30.667 -8.5 48 -8.5c18.667 0 36.167 3.5 52.5 10.5s30.833 17.667 43.5 32s22.667 32.166 30 53.499s11 46.333 11 75v252h47v-371c0 -12 0.5 -25.667 1.5 -41s3.83301 -29 8.5 -41h-47c-3.33301 8 -5.66602 16.667 -6.99902 26s-2.16602 18.833 -2.49902 28.5
s-0.5 18.167 -0.5 25.5c-6.66699 -12.667 -14.5 -24.334 -23.5 -35.001s-19.667 -20.167 -32 -28.5s-26.5 -15 -42.5 -20s-34 -7.5 -54 -7.5z" />
    <glyph glyph-name="v" unicode="v" 
d="M228 0l-183 453h50l163 -402h-12l95 217c16 36.667 28.833 70 38.5 100s17.167 58.333 22.5 85h48c-6 -28 -14.667 -58 -26 -90s-25.333 -67.333 -42 -106l-112 -257h-42z" />
    <glyph glyph-name="w" unicode="w" 
d="M118 -1l-91.999 453.999h45l78 -386l88 347h32l103 -349l24 148.5c6.66699 40.333 12 74.5 16 102.5s7 51.5 9 70.5s3 36.167 3 51.5v15h47c-6.66699 -51.333 -13.834 -102.166 -21.501 -152.499s-16 -100.5 -25 -150.5s-18.833 -100.333 -29.5 -151h-48l-94 328
l-90 -328h-45z" />
    <glyph glyph-name="x" unicode="x" 
d="M57 0l164 232l-161 221h55l134 -182l126 182h51l-150 -218l170 -235h-56l-141 196l-136 -196h-56z" />
    <glyph glyph-name="y" unicode="y" 
d="M125 -174c-21.333 0 -40.498 3.33008 -57.498 9.99707s-32.167 16.334 -45.5 29.001l26 34l6 7l5 -4c0 -4.66699 1.66699 -8.66699 5 -12s9.66602 -8 18.999 -14c6.66699 -3.33301 14 -5.66602 22 -6.99902s16 -2 24 -2c18 0 33.5 4 46.5 12s25.167 22 36.5 42
s23 48.333 35 85l92 269l29 89c9.33301 28.667 15.666 58.334 18.999 89.001h51c-4.66699 -30.667 -12 -61 -22 -91l-32 -92l-114 -322c-16.667 -45.333 -37 -77 -61 -95s-52 -27 -84 -27v0zM54.002 452.997h51l164 -415l-23 -60z" />
    <glyph glyph-name="z" unicode="z" 
d="M60 34l294 376h-273v43h335v-35l-290 -375h270c11.333 0 19.333 0.666992 24 2s9 4 13 8h7v-10v-43h-380v34z" />
    <glyph glyph-name="braceleft" unicode="{" 
d="M371 -95c-48 0 -87.166 5.33301 -117.499 16s-52.333 28.667 -66 54s-19.834 60.333 -18.501 105l4 100c0 32 -4 56.667 -12 74s-19.333 29.333 -34 36s-32.667 10 -54 10h-10v41h19c18.667 0 34.834 3.66699 48.501 11s24.5 19.5 32.5 36.5s12 39.167 12 66.5l-2 72
c0 38.667 6.66699 70.834 20 96.501s32.833 45 58.5 58s56.834 19.5 93.501 19.5h53v-41h-72c-31.333 0 -56.5 -10.5 -75.5 -31.5s-28.5 -51.167 -28.5 -90.5l2 -70c0 -24.667 -2.66699 -46.667 -8 -66s-14 -36 -26 -50s-27.667 -24.667 -47 -32
c19.333 -5.33301 34.666 -14.833 45.999 -28.5s19.666 -31 24.999 -52s8 -45.833 8 -74.5l-3 -84c0 -34.667 4.5 -61.834 13.5 -81.501s23.667 -33.5 44 -41.5s46.833 -12 79.5 -12h41v-41h-26z" />
    <glyph glyph-name="bar" unicode="|" 
d="M227 -151v803h47v-803h-47z" />
    <glyph glyph-name="braceright" unicode="}" 
d="M91 -95h-25.999v41h41c33.333 0 60 4 80 12s34.667 21.833 44 41.5s14 46.834 14 81.501l-4 84c0 28.667 2.66699 53.5 8 74.5s14 38.333 26 52s27.333 23.167 46 28.5c-19.333 7.33301 -35 18 -47 32s-20.833 30.667 -26.5 50s-8.5 41.333 -8.5 66l2 70
c0 39.333 -9.33301 69.5 -28 90.5s-44 31.5 -76 31.5h-72v41h53c38 0 69.667 -6.5 95 -19.5s44.5 -32.333 57.5 -58s19.5 -57.834 19.5 -96.501l-2 -72c0 -27.333 4 -49.5 12 -66.5s19 -29.167 33 -36.5s30 -11 48 -11h19v-41h-10c-20 0 -37.667 -3.33301 -53 -10
s-27 -18.667 -35 -36s-12 -42 -12 -74l4 -100c2 -44.667 -3.83301 -79.667 -17.5 -105s-35.834 -43.333 -66.501 -54s-70 -16 -118 -16z" />
    <glyph glyph-name="asciitilde" unicode="~" 
d="M348 274c-16.667 0 -31.6699 2.66602 -45.0029 7.99902s-25.666 11.666 -36.999 18.999s-22.666 13.666 -33.999 18.999s-23.666 8 -36.999 8c-18.667 0 -34.167 -3.5 -46.5 -10.5s-24.166 -19.167 -35.499 -36.5l-35 17c8 13.333 17 25.333 27 36s22.167 19 36.5 25
s31.833 9 52.5 9c16.667 0 31.334 -2.66699 44.001 -8s24.5 -11.666 35.5 -18.999s22 -13.666 33 -18.999s23.5 -8 37.5 -8c17.333 0 32 3.66699 44 11s24.333 20.333 37 39l33 -21c-10 -15.333 -20.333 -28.166 -31 -38.499s-22.334 -18 -35.001 -23
s-27.334 -7.5 -44.001 -7.5z" />
    <glyph glyph-name="uni00A0" unicode="&#xa0;" 
 />
    <glyph glyph-name="exclamdown" unicode="&#xa1;" 
d="M224 393l32 -0.000976562l20 -405c0 -15.333 -1.33301 -28.166 -4 -38.499s-6.5 -18 -11.5 -23s-11.5 -7.5 -19.5 -7.5s-14.5 2.5 -19.5 7.5s-8.66699 12 -11 21s-3.5 19.167 -3.5 30.5zM239 598.999c11.333 0 21.5 -4.5 30.5 -13.5s13.5 -19.167 13.5 -30.5
s-4.5 -21.5 -13.5 -30.5s-19.167 -13.5 -30.5 -13.5c-12 0 -22.333 4.5 -31 13.5s-13 19.167 -13 30.5c0 12 4.33301 22.333 13 31s19 13 31 13z" />
    <glyph glyph-name="cent" unicode="&#xa2;" 
d="M236 -73h-39l95 696h36zM280 32c-32.667 0 -62.3311 6.00195 -88.998 18.002s-49.5 28.667 -68.5 50s-33.833 46.5 -44.5 75.5s-16 60.833 -16 95.5c0 34 5.5 65.333 16.5 94s26.333 53.5 46 74.5s42.834 37.167 69.501 48.5s55.667 17 87 17
c39.333 0 73 -6.83301 101 -20.5s51.333 -33.834 70 -60.501l-30 -29l-6 -7l-5 5c0.666992 4.66699 -0.166016 9.16699 -2.49902 13.5s-7.5 10.5 -15.5 18.5c-14 13.333 -30 23 -48 29s-41.333 9 -70 9c-21.333 0 -41.833 -4.33301 -61.5 -13s-37.167 -21.167 -52.5 -37.5
s-27.333 -36 -36 -59s-13 -48.833 -13 -77.5c0 -30 4.16699 -57.167 12.5 -81.5s20.166 -45.333 35.499 -63s33.666 -31.334 54.999 -41.001s44.333 -14.5 69 -14.5c16.667 0 33 2.5 49 7.5s31.167 12.167 45.5 21.5s27.166 20.333 38.499 33l28 -34
c-22.667 -24 -47.834 -42 -75.501 -54s-57.5 -18 -89.5 -18v0z" />
    <glyph glyph-name="sterling" unicode="&#xa3;" 
d="M70 -8l-17.001 37.998c27.333 13.333 48.5 29 63.5 47s25.667 38.833 32 62.5s9.5 51.167 9.5 82.5c0 12.667 -1.33301 28.834 -4 48.501s-6.66699 39.834 -12 60.501h-72v40h61c-2.66699 11.333 -4.83398 23.5 -6.50098 36.5s-2.5 24.5 -2.5 34.5
c0 36.667 7.16699 68.5 21.5 95.5s34 48 59 63s53.5 22.5 85.5 22.5c24.667 0 47.5 -4.16699 68.5 -12.5s40.833 -21.166 59.5 -38.499l-32 -37c-11.333 13.333 -24.666 24.666 -39.999 33.999s-37 14 -65 14c-22.667 0 -42.167 -5.66699 -58.5 -17s-29 -27.333 -38 -48
s-13.5 -45.667 -13.5 -75c0 -10.667 1 -22 3 -34s4.33301 -24.667 7 -38h138v-40h-127c4.66699 -18.667 8.33398 -37.334 11.001 -56.001s4 -35.667 4 -51c0 -16.667 -1.33301 -34.334 -4 -53.001s-7 -36.667 -13 -54s-14.333 -32.666 -25 -45.999
c18 3.33301 36.333 3.16602 55 -0.500977s36.834 -8.66699 54.501 -15l51 -17.5c16.333 -5.33301 31.833 -8 46.5 -8s27.834 2.83301 39.501 8.5s24.167 13.834 37.5 24.501l20 -36c-16.667 -14 -33.334 -24.5 -50.001 -31.5s-33.667 -10.5 -51 -10.5
c-9.33301 0 -21.5 2.33301 -36.5 7l-49.5 15.5c-18 5.66699 -35.667 10.834 -53 15.501s-33 7 -47 7c-14.667 0 -30.834 -3.16699 -48.501 -9.5s-38.167 -15.833 -61.5 -28.5z" />
    <glyph glyph-name="currency" unicode="&#xa4;" 
d="M100 169l-26 26.999l56 57c-10 14 -17.5 28.833 -22.5 44.5s-7.5 31.5 -7.5 47.5c0 16.667 2.5 33 7.5 49s12.833 30.667 23.5 44l-57 58l26 27l57 -57c14 10.667 28.833 18.667 44.5 24s32.167 8 49.5 8c16.667 0 32.667 -2.5 48 -7.5s30.333 -12.833 45 -23.5l57 56
l26 -27l-56 -56c10.667 -14 18.667 -29 24 -45s8 -32.667 8 -50s-2.66699 -34 -8 -50s-13 -30.667 -23 -44l55 -55l-26 -27l-56 55c-14 -10.667 -29 -18.667 -45 -24s-32.333 -8 -49 -8s-33 2.83301 -49 8.5s-31.333 13.834 -46 24.501zM250 231.999
c24.667 0 45.334 5.50098 62.001 16.501s29.167 25.167 37.5 42.5s12.5 35.666 12.5 54.999c0 20.667 -4.16699 39.334 -12.5 56.001s-20.833 30.167 -37.5 40.5s-37.334 15.5 -62.001 15.5c-22.667 0 -42.334 -5.16699 -59.001 -15.5s-29.5 -23.833 -38.5 -40.5
s-13.5 -35.334 -13.5 -56.001c0 -20 4.33301 -38.667 13 -56s21.334 -31.333 38.001 -42s36.667 -16 60 -16z" />
    <glyph glyph-name="yen" unicode="&#xa5;" 
d="M245 221h-157v40h158zM272 261h151v-40h-151v40zM245 99h-157v39h157v-39zM272 138h151v-39h-151v39zM282 0h-47v299l-192 326h54l162 -280l150 278h52l-179 -326v-297z" />
    <glyph glyph-name="brokenbar" unicode="&#xa6;" 
d="M227 303v349h47v-349h-47zM227 -151v340h47v-340h-47z" />
    <glyph glyph-name="section" unicode="&#xa7;" 
d="M238 -53c-33.333 0 -64.834 6.8291 -94.501 20.4961s-54.5 33.834 -74.5 60.501l39 43c4 -2 6 -4 6 -6s0.5 -4.83301 1.5 -8.5s4 -8.5 9 -14.5s13.833 -13.667 26.5 -23c8 -6 16.667 -10.833 26 -14.5s19 -6.33398 29 -8.00098s19.667 -2.5 29 -2.5
c18 0 34.333 2.33301 49 7s27.334 11.334 38.001 20.001s19 18.834 25 30.501s9 24.167 9 37.5c0 16.667 -4.33301 30.834 -13 42.501s-22.5 22.5 -41.5 32.5s-44.167 20.333 -75.5 31c-34 12.667 -61.5 25 -82.5 37s-36.333 25 -46 39s-14.5 30.333 -14.5 49
c0 11.333 2.5 22.166 7.5 32.499s11.833 20 20.5 29s18.667 16.833 30 23.5s22.666 11.667 33.999 15c-24 14.667 -42.833 30.5 -56.5 47.5s-20.5 38.5 -20.5 64.5c0 25.333 7.16699 48.5 21.5 69.5s33.5 37.833 57.5 50.5s51 19 81 19c20.667 0 40.667 -3.33301 60 -10
s36.833 -16.167 52.5 -28.5s28.5 -27.166 38.5 -44.499l-38 -39c-1.33301 1.33301 -2.33301 2.83301 -3 4.5s-1.66699 3.5 -3 5.5c-2 10 -6.33301 19.333 -13 28s-14.834 16 -24.501 22s-20.5 10.833 -32.5 14.5s-24.667 5.5 -38 5.5c-20 0 -38.333 -4.33301 -55 -13
s-29.834 -20 -39.501 -34s-14.5 -29 -14.5 -45c0 -17.333 3.83301 -31.666 11.5 -42.999s19.334 -21.333 35.001 -30s35 -17.5 58 -26.5l80.5 -30.5c14 -6.66699 26 -13.834 36 -21.501s18.5 -16 25.5 -25s12.167 -18.5 15.5 -28.5s5 -20.333 5 -31
c0 -14 -3.66699 -27.667 -11 -41s-17.166 -25 -29.499 -35s-25.833 -18.333 -40.5 -25c22.667 -14.667 40.167 -30 52.5 -46s18.5 -35.333 18.5 -58c0 -22 -4.33301 -42 -13 -60s-20.5 -33.667 -35.5 -47s-32.667 -23.666 -53 -30.999s-42.166 -11 -65.499 -11z
M305.999 214.996c9.33301 5.33301 18.502 11.8359 27.502 19.5029s16.333 16.667 22 27s8.5 21.166 8.5 32.499c0 13.333 -2.5 24.666 -7.5 33.999s-12.667 17.666 -23 24.999s-22.833 14.333 -37.5 21s-31.667 13.334 -51 20.001l-40 13c-8 -2 -16.333 -5.5 -25 -10.5
s-16.5 -10.833 -23.5 -17.5s-12.667 -13.834 -17 -21.501s-6.5 -15.834 -6.5 -24.501c0 -10 2.33301 -19.667 7 -29s11.667 -17.833 21 -25.5s21.166 -15 35.499 -22s31.166 -13.833 50.499 -20.5l32.5 -11c9.66699 -3.33301 18.5 -6.66602 26.5 -9.99902z" />
    <glyph glyph-name="dieresis" unicode="&#xa8;" 
d="M169 577c-10.667 0 -19.667 3.66504 -27 10.998s-11 16 -11 26c0 10.667 3.66699 19.834 11 27.501s16.333 11.5 27 11.5c10 0 18.833 -3.66699 26.5 -11s11.5 -16.666 11.5 -27.999c0 -10 -3.83301 -18.667 -11.5 -26s-16.5 -11 -26.5 -11zM335 576.998
c-10.667 0 -19.5 3.49805 -26.5 10.498s-10.5 15.833 -10.5 26.5s3.5 19.834 10.5 27.501s15.833 11.5 26.5 11.5c10 0 18.833 -3.66699 26.5 -11s11.5 -16.666 11.5 -27.999c0 -10 -3.83301 -18.667 -11.5 -26s-16.5 -11 -26.5 -11z" />
    <glyph glyph-name="copyright" unicode="&#xa9;" 
d="M264 124c-26.667 0 -51.001 6.83398 -73.001 20.501s-39.667 32.167 -53 55.5s-20 48.666 -20 75.999c0 21.333 4 40.833 12 58.5s18.833 33.167 32.5 46.5s28.667 23.666 45 30.999s32.833 11 49.5 11c34 0 62.333 -8 85 -24s37.334 -37.333 44.001 -64l-38 -14
c-2.66699 4.66699 -4.16699 8.66699 -4.5 12s-1 7 -2 11s-3.33301 8.33301 -7 13s-10.5 10.334 -20.5 17.001c-6 4 -13.5 7 -22.5 9s-18.5 3 -28.5 3c-11.333 0 -23 -2.33301 -35 -7s-23.167 -11.5 -33.5 -20.5s-18.833 -20.167 -25.5 -33.5s-10 -29 -10 -47
c0 -22.667 5 -42.667 15 -60s23.333 -31 40 -41s34.667 -15 54 -15c10.667 0 21.5 2 32.5 6s20.833 9.5 29.5 16.5s15.667 14.833 21 23.5l32 -21c-14 -20 -31.667 -35.5 -53 -46.5s-43.333 -16.5 -66 -16.5zM257.999 20.001c-33.333 0 -64.5 6.66797 -93.5 20.001
s-54.5 31.666 -76.5 54.999s-39.333 50.333 -52 81s-19 63.667 -19 99s6.33301 68.5 19 99.5s30 58.167 52 81.5s47.5 41.666 76.5 54.999s60.167 20 93.5 20c32.667 0 63.5 -6.66699 92.5 -20s54.667 -31.666 77 -54.999s39.833 -50.5 52.5 -81.5s19 -64.167 19 -99.5
c0 -28 -4 -54.667 -12 -80s-19.333 -48.666 -34 -69.999s-32 -39.833 -52 -55.5s-42.167 -27.834 -66.5 -36.501s-49.833 -13 -76.5 -13zM258.999 52.002c29.333 0 56.667 6.00195 82 18.002s47.333 28.167 66 48.5s33.167 44 43.5 71s15.5 55.833 15.5 86.5
c0 30 -5.33301 58.5 -16 85.5s-25.5 50.667 -44.5 71s-41 36.5 -66 48.5s-51.833 18 -80.5 18s-55.5 -5.83301 -80.5 -17.5s-47 -27.667 -66 -48s-34 -44.166 -45 -71.499s-16.5 -56.333 -16.5 -87s5.5 -59.334 16.5 -86.001s26 -50.334 45 -71.001s41 -36.834 66 -48.501
s51.833 -17.5 80.5 -17.5z" />
    <glyph glyph-name="ordfeminine" unicode="&#xaa;" 
d="M220 259c-35.333 0 -62.666 9.33594 -81.999 28.0029s-29 42 -29 70c0 25.333 7 46.666 21 63.999s33.5 30.666 58.5 39.999s53.167 14 84.5 14c7.33301 0 15.666 -0.166992 24.999 -0.5s19 -0.833008 29 -1.5s19.667 -1.66699 29 -3l2 -34
c-7.33301 1.33301 -16 2.33301 -26 3s-19.833 1.16699 -29.5 1.5s-18.5 0.5 -26.5 0.5c-26 0 -48.167 -3 -66.5 -9s-32.333 -15 -42 -27s-14.5 -27.333 -14.5 -46c0 -14 2.83301 -26 8.5 -36s14.167 -17.333 25.5 -22s24.333 -7 39 -7c20 0 37.5 3.33301 52.5 10
s27.667 16.5 38 29.5s18.166 28.667 23.499 47s8 39.5 8 63.5c0 36 -3.33301 64.5 -10 85.5s-17.5 36 -32.5 45s-34.833 13.5 -59.5 13.5c-16.667 0 -32.667 -3.16699 -48 -9.5s-30.333 -16.5 -45 -30.5l-23 28c16 16.667 33.833 29 53.5 37s41.167 12 64.5 12
c30 0 55.333 -5.16699 76 -15.5s36.5 -27.833 47.5 -52.5s16.5 -58.334 16.5 -101.001v-189h-46v65c-5.33301 -12.667 -12.166 -23.5 -20.499 -32.5s-17.833 -16.5 -28.5 -22.5s-22 -10.5 -34 -13.5s-25 -4.5 -39 -4.5zM79 207.003h344v-39h-344v39z" />
    <glyph glyph-name="guillemotleft" unicode="&#xab;" 
d="M225 66l-155 166v18l148 144l27 -28l-129 -125l136 -147zM411 66l-154 166v18l147 144l26 -28l-127 -125l136 -147z" />
    <glyph glyph-name="logicalnot" unicode="&#xac;" 
d="M367 158v135h-272v44h316v-179h-44z" />
    <glyph glyph-name="uni00AD" unicode="&#xad;" 
d="M119 291v47h265v-47h-265z" />
    <glyph glyph-name="registered" unicode="&#xae;" 
d="M339 131l-64.001 129.001h-81v-128h-35v296h95c28 0 50.5 -3.83301 67.5 -11.5s29.333 -17.834 37 -30.501s11.5 -27 11.5 -43c0 -20 -5.66699 -36.5 -17 -49.5s-25.666 -22.167 -42.999 -27.5l66 -130zM193.999 292.001h65c26.667 0 46.167 4.5 58.5 13.5
s18.5 21.5 18.5 37.5c0 17.333 -6.83301 30.333 -20.5 39s-33.5 13 -59.5 13h-62v-103zM257.999 20.001c-33.333 0 -64.5 6.66797 -93.5 20.001s-54.5 31.666 -76.5 54.999s-39.333 50.333 -52 81s-19 63.667 -19 99s6.33301 68.5 19 99.5s30 58.167 52 81.5
s47.5 41.666 76.5 54.999s60.167 20 93.5 20c32.667 0 63.5 -6.66699 92.5 -20s54.667 -31.666 77 -54.999s39.833 -50.5 52.5 -81.5s19 -64.167 19 -99.5c0 -28 -4 -54.667 -12 -80s-19.333 -48.666 -34 -69.999s-32 -39.833 -52 -55.5s-42.167 -27.834 -66.5 -36.501
s-49.833 -13 -76.5 -13zM258.999 52.002c29.333 0 56.667 6.00195 82 18.002s47.333 28.167 66 48.5s33.167 44 43.5 71s15.5 55.833 15.5 86.5c0 30 -5.33301 58.5 -16 85.5s-25.5 50.667 -44.5 71s-41 36.5 -66 48.5s-51.833 18 -80.5 18s-55.5 -5.83301 -80.5 -17.5
s-47 -27.667 -66 -48s-34 -44.166 -45 -71.499s-16.5 -56.333 -16.5 -87s5.5 -59.334 16.5 -86.001s26 -50.334 45 -71.001s41 -36.834 66 -48.501s51.833 -17.5 80.5 -17.5z" />
    <glyph glyph-name="macron" unicode="&#xaf;" 
d="M128 580v38h246v-38h-246z" />
    <glyph glyph-name="degree" unicode="&#xb0;" 
d="M256 366c-24 0 -45.998 5.83301 -65.998 17.5s-35.833 27.5 -47.5 47.5s-17.5 42.333 -17.5 67c0 18.667 3.5 36 10.5 52s16.667 30 29 42s26.333 21.333 42 28s32.167 10 49.5 10c24 0 45.833 -6 65.5 -18s35.5 -28 47.5 -48s18 -42.333 18 -67
c0 -23.333 -5.83301 -45 -17.5 -65s-27.334 -36 -47.001 -48s-41.834 -18 -66.501 -18zM256.002 408c17.333 0 32.502 4.16699 45.502 12.5s23.167 19.333 30.5 33s11 28.5 11 44.5c0 16.667 -3.5 31.834 -10.5 45.501s-17 24.834 -30 33.501s-27.833 13 -44.5 13
c-16 0 -30.833 -4.33301 -44.5 -13s-24.334 -19.834 -32.001 -33.501s-11.5 -28.834 -11.5 -45.501c0 -16 3.83301 -31 11.5 -45s18.167 -25 31.5 -33s27.666 -12 42.999 -12z" />
    <glyph glyph-name="plusminus" unicode="&#xb1;" 
d="M231 157v196h-179v43h179v180h45v-180h174v-43h-174v-196h-45zM51 22v45h401v-45h-401z" />
    <glyph glyph-name="uni00B2" unicode="&#xb2;" 
d="M130 276l83.5029 75.5029c25 22.333 46.667 43 65 62s32.5 37.167 42.5 54.5s15 35.333 15 54c0 16.667 -3.5 30.667 -10.5 42s-16.5 19.666 -28.5 24.999s-26 8 -42 8c-14.667 0 -28.834 -2.33301 -42.501 -7s-25.834 -11.667 -36.501 -21
c-6.66699 -8.66699 -11.167 -15.334 -13.5 -20.001s-3.16602 -9.66699 -2.49902 -15l-4 -5l-8 6l-29 22c14 23.333 32.833 41.666 56.5 54.999s50.167 20 79.5 20c23.333 0 44.166 -4.5 62.499 -13.5s32.666 -21.667 42.999 -38s15.5 -36.166 15.5 -59.499
c0 -20.667 -5.33301 -40.834 -16 -60.501s-25 -39.167 -43 -58.5s-38.167 -39 -60.5 -59l-69.5 -63h147c11.333 0 19.333 0.666992 24 2s9 4 13 8h7v-10v-34h-248v30z" />
    <glyph glyph-name="uni00B3" unicode="&#xb3;" 
d="M243 239c-23.333 0 -45.001 3.82617 -65.001 11.4932s-37.333 18.834 -52 33.501l26 29l6 7l5 -6c0 -4 1.33301 -7.66699 4 -11s8.33398 -8.66602 17.001 -15.999c8 -4 16.5 -7.33301 25.5 -10s19.5 -4 31.5 -4c29.333 0 51.5 7.5 66.5 22.5s22.5 34.167 22.5 57.5
c0 19.333 -5.5 34.833 -16.5 46.5s-26.167 19.834 -45.5 24.501s-42.333 6.33398 -69 5.00098v32c22 0 40.5 2.16699 55.5 6.5s27 10 36 17s15.5 15.167 19.5 24.5s6 19 6 29c0 13.333 -3 24.333 -9 33s-14.333 15.334 -25 20.001s-22.667 7 -36 7
c-15.333 0 -30 -2.5 -44 -7.5s-27 -13.167 -39 -24.5l-24 25c15.333 14.667 32 25.167 50 31.5s36.667 9.5 56 9.5c34 0 61.167 -8.5 81.5 -25.5s30.5 -39.833 30.5 -68.5c0 -20.667 -6.5 -39 -19.5 -55s-30.833 -27.333 -53.5 -34c16 -3.33301 30.5 -9.16602 43.5 -17.499
s23.5 -19.166 31.5 -32.499s12 -29.333 12 -48c0 -20.667 -5 -39.5 -15 -56.5s-24.333 -30.5 -43 -40.5s-42 -15 -70 -15v0z" />
    <glyph glyph-name="acute" unicode="&#xb4;" 
d="M248 525l-25 18l88 146l40 -30z" />
    <glyph glyph-name="uni00B5" unicode="&#xb5;" 
d="M28 -171c0 12 0.666992 30.667 2 56s3 53.666 5 84.999l6 94c2 31.333 3.66699 59.333 5 84s2 42.667 2 54v251h45v-268c0 -30.667 3 -56.167 9 -76.5s14.333 -36.333 25 -48s22.5 -20 35.5 -25s26.5 -7.5 40.5 -7.5c26 0 47.5 7.16699 64.5 21.5s29.667 34 38 59
s12.5 53.5 12.5 85.5v259h44v-340c0 -19.333 2 -35.166 6 -47.499s10 -21.333 18 -27s17.333 -8.5 28 -8.5c9.33301 0 18.666 3.33301 27.999 10s16.333 14.667 21 24l6 10l21 -33c-11.333 -17.333 -23.666 -30.166 -36.999 -38.499s-28.333 -12.5 -45 -12.5
c-14.667 0 -28.167 4 -40.5 12s-22.166 18.833 -29.499 32.5s-11.333 28.5 -12 44.5c-6.66699 -20 -16.834 -36.667 -30.501 -50s-29 -23.166 -46 -29.499s-34.167 -9.5 -51.5 -9.5c-18.667 0 -36.167 3.16699 -52.5 9.5s-30.5 16.166 -42.5 29.499s-21 29.333 -27 48
c0 -20.667 -0.166992 -41.167 -0.5 -61.5l-1 -61.5c-0.333008 -20.667 -0.833008 -41.334 -1.5 -62.001s-1 -41.667 -1 -63h-44z" />
    <glyph glyph-name="paragraph" unicode="&#xb6;" 
d="M252 -67l-0.000976562 391.002c-25.333 0.666992 -49.166 5.66699 -71.499 15s-41.833 22.166 -58.5 38.499s-29.667 35.333 -39 57s-14 44.5 -14 68.5c0 28.667 7.66699 55.167 23 79.5s41 44.166 77 59.499s84.667 23 146 23h107v-732h-43v690h-84v-690h-43z" />
    <glyph glyph-name="periodcentered" unicode="&#xb7;" 
d="M238 288c-12 0 -22.166 4.16699 -30.499 12.5s-12.5 18.5 -12.5 30.5s4.33301 22.167 13 30.5s18.667 12.5 30 12.5c12 0 22.5 -4.16699 31.5 -12.5s13.5 -18.5 13.5 -30.5c0 -11.333 -4.33301 -21.333 -13 -30s-19.334 -13 -32.001 -13z" />
    <glyph glyph-name="cedilla" unicode="&#xb8;" 
d="M268 -194c-16.667 0 -32.333 1.83301 -47 5.5s-29 9.5 -43 17.5l18 32c11.333 -7.33301 24.166 -12.833 38.499 -16.5s29.833 -5.5 46.5 -5.5c19.333 0 34 3.5 44 10.5s15 17.167 15 30.5c0 11.333 -5.66699 20.333 -17 27s-25.666 10 -42.999 10h-25l11 83h33l-7 -53
c21.333 -1.33301 38.333 -5.33301 51 -12s22 -14.5 28 -23.5s9 -17.833 9 -26.5c0 -22 -9.16699 -40.667 -27.5 -56s-46.5 -23 -84.5 -23z" />
    <glyph glyph-name="uni00B9" unicode="&#xb9;" 
d="M241 246v337l-90 -31l-10 24l111 53h30v-383h-41z" />
    <glyph glyph-name="ordmasculine" unicode="&#xba;" 
d="M250 261c-30 0 -56.167 7.5 -78.5 22.5s-39.833 36.167 -52.5 63.5s-19 59.333 -19 96s6.33301 68.667 19 96s30.167 48.5 52.5 63.5s48.5 22.5 78.5 22.5c30.667 0 57.167 -7.5 79.5 -22.5s39.666 -36.167 51.999 -63.5s18.5 -59.333 18.5 -96
s-6.16699 -68.667 -18.5 -96s-29.666 -48.5 -51.999 -63.5s-48.833 -22.5 -79.5 -22.5zM250 298c22 0 40.833 6.16602 56.5 18.499s27.667 29.333 36 51s12.5 47.167 12.5 76.5c0 30 -4.33301 55.667 -13 77s-21 37.833 -37 49.5s-34.333 17.5 -55 17.5
c-21.333 0 -39.833 -6 -55.5 -18s-27.667 -28.667 -36 -50s-12.5 -46.666 -12.5 -75.999c0 -30 4.16699 -55.833 12.5 -77.5s20.333 -38.5 36 -50.5s34.167 -18 55.5 -18zM79 206.999h344v-39h-344v39z" />
    <glyph glyph-name="guillemotright" unicode="&#xbb;" 
d="M294 66l-28 28l136 147l-128 125l27 28l148 -144v-18zM108 66l-28 28l136 147l-128 125l27 28l147 -144v-18z" />
    <glyph glyph-name="onequarter" unicode="&#xbc;" 
d="M100 380v262l-69 -23l-9 23l88 42h28v-304h-38zM406 -70v76h-146v24l154 204h29v-198h45v-30h-45v-76h-37zM303 36h103v137zM123 -41l-33 18l306 686l34 -19z" />
    <glyph glyph-name="onehalf" unicode="&#xbd;" 
d="M100 380v262l-69 -23l-9 23l88 42h28v-304h-38zM284 -70l-0.00195312 27.002l66.5 60.5c19.667 17.667 36.5 33.667 50.5 48s24.833 28.333 32.5 42s11.5 27.5 11.5 41.5c0 12.667 -2.66699 23.167 -8 31.5s-12.5 14.5 -21.5 18.5s-19.5 6 -31.5 6
c-11.333 0 -22.166 -1.83301 -32.499 -5.5s-19.666 -8.83398 -27.999 -15.501s-15.5 -15.667 -21.5 -27l-26 20c10.667 18.667 25.5 33.167 44.5 43.5s39.833 15.5 62.5 15.5c19.333 0 36.333 -3.5 51 -10.5s26.167 -17 34.5 -30s12.5 -28.5 12.5 -46.5
c0 -16.667 -4 -32.667 -12 -48s-18.833 -30.333 -32.5 -45s-29.167 -29.834 -46.5 -45.501l-54 -49.5h147v-31h-199zM122.998 -40.998l-33 18l306 686l34 -19z" />
    <glyph glyph-name="threequarters" unicode="&#xbe;" 
d="M104 375c-18.667 0 -36.168 3.00098 -52.501 9.00098s-30.166 14.667 -41.499 26l23 27l6 7l5 -5c0 -4 1.66699 -7.83301 5 -11.5s9.33301 -8.83398 18 -15.501c4.66699 -2 9.83398 -3.66699 15.501 -5s12.167 -2 19.5 -2c22.667 0 39.5 5.66699 50.5 17
s16.5 25.666 16.5 42.999c0 15.333 -4 27.5 -12 36.5s-19.5 15.333 -34.5 19s-32.833 4.5 -53.5 2.5v29c17.333 0 31.666 1.5 42.999 4.5s20.5 7.33301 27.5 13s12 12 15 19s4.5 14.167 4.5 21.5c0 10 -2.33301 18.333 -7 25s-11 11.667 -19 15s-17 5 -27 5
c-11.333 0 -22.5 -1.83301 -33.5 -5.5s-21.167 -9.83398 -30.5 -18.501l-22 22c12.667 12 26.334 20.5 41.001 25.5s29.667 7.5 45 7.5c27.333 0 49.166 -6.66699 65.499 -20s24.5 -31.666 24.5 -54.999c0 -16.667 -5 -31.167 -15 -43.5s-23.667 -21.166 -41 -26.499
c18.667 -4 34.5 -12.5 47.5 -25.5s19.5 -30.5 19.5 -52.5c0 -24.667 -8.83301 -45.5 -26.5 -62.5s-43.167 -25.5 -76.5 -25.5v0zM405.999 6.00098h-146v24l154 204h29v-198h45v-30h-45v-76h-37v76zM405.999 36.001v137l-103 -137h103zM122.999 -40.999l-33 18l306 686
l34 -19z" />
    <glyph glyph-name="questiondown" unicode="&#xbf;" 
d="M262 316c0 -24 -3.33008 -44.501 -9.99707 -61.501s-15.334 -31.667 -26.001 -44s-22 -24 -34 -35s-23.333 -22.667 -34 -35s-19.334 -26.666 -26.001 -42.999s-10 -36.5 -10 -60.5c0 -17.333 2.83301 -33.333 8.5 -48s14 -27.167 25 -37.5s24 -18.166 39 -23.499
s31.5 -8 49.5 -8c28.667 0 52.167 4 70.5 12s34.833 20.667 49.5 38c6 8.66699 9.83301 15.5 11.5 20.5s2.16699 10.167 1.5 15.5l4 6l8 -6l35 -25c-14 -21.333 -28.833 -39.833 -44.5 -55.5s-34.334 -27.667 -56.001 -36s-49.167 -12.5 -82.5 -12.5
c-32.667 0 -61.667 6.33301 -87 19s-45 30.667 -59 54s-21 51 -21 83c0 27.333 3.5 50.333 10.5 69s15.833 34.667 26.5 48s22.167 25.5 34.5 36.5s23.833 22.333 34.5 34s19.5 25.167 26.5 40.5s10.5 33.666 10.5 54.999v41h45v-41zM237.003 553.999
c12 0 22.333 -4.33301 31 -13s13 -18.667 13 -30s-4.33301 -21.333 -13 -30s-19 -13 -31 -13c-11.333 0 -21.166 4.33301 -29.499 13s-12.5 18.667 -12.5 30s4.16699 21.333 12.5 30s18.166 13 29.499 13v0z" />
    <glyph glyph-name="Agrave" unicode="&#xc0;" 
d="M367 197h-242l10 39h220zM250 522l-175 -522h-49l220 634h8l220 -634h-51zM303 670l-165 56l26 50l155 -76z" />
    <glyph glyph-name="Aacute" unicode="&#xc1;" 
d="M367 197h-242l10 39h220zM250 522l-175 -522h-49l220 634h8l220 -634h-51zM176 667l-15 30l153 79l27 -50z" />
    <glyph glyph-name="Acircumflex" unicode="&#xc2;" 
d="M367 197h-242l10 39h220zM250 522l-175 -522h-49l220 634h8l220 -634h-51zM121 667l-23 27l138 89h16l144 -90l-22 -26l-128 71z" />
    <glyph glyph-name="Atilde" unicode="&#xc3;" 
d="M367 197h-242l10 39h220zM250 522l-175 -522h-49l220 634h8l220 -634h-51zM391 782l35.001 -19.001c-14.667 -26 -28.5 -44 -41.5 -54s-29.5 -15 -49.5 -15c-14.667 0 -28 2.83301 -40 8.5s-23.167 12.334 -33.5 20.001s-20.333 14.334 -30 20.001
s-19.834 8.5 -30.501 8.5c-12.667 0 -24 -3.5 -34 -10.5s-19.667 -19.167 -29 -36.5l-37 14c10.667 21.333 23.667 38.666 39 51.999s35 20 59 20c14.667 0 27.5 -2.83301 38.5 -8.5s21.5 -12.5 31.5 -20.5s20.167 -14.833 30.5 -20.5s21.5 -8.5 33.5 -8.5
s22.167 3.33301 30.5 10s17.5 20 27.5 40z" />
    <glyph glyph-name="Adieresis" unicode="&#xc4;" 
d="M367 197h-242l10 39h220zM250 522l-175 -522h-49l220 634h8l220 -634h-51zM169 698c-10 0 -18.667 3.66504 -26 10.998s-11 16 -11 26c0 10.667 3.66699 19.834 11 27.501s16 11.5 26 11.5c10.667 0 19.834 -3.66699 27.501 -11s11.5 -16.666 11.5 -27.999
c0 -10 -3.83301 -18.667 -11.5 -26s-16.834 -11 -27.501 -11zM335 697.998c-10 0 -18.5 3.49805 -25.5 10.498s-10.5 15.833 -10.5 26.5s3.5 19.834 10.5 27.501s15.5 11.5 25.5 11.5c10.667 0 19.834 -3.66699 27.501 -11s11.5 -16.666 11.5 -27.999
c0 -10 -3.83301 -18.667 -11.5 -26s-16.834 -11 -27.501 -11z" />
    <glyph glyph-name="Aring" unicode="&#xc5;" 
d="M367 197h-242l10 39h220zM250 522l-175 -522h-49l220 634h8l220 -634h-51zM250 620c-16 0 -30.665 4.00098 -43.998 12.001s-24 18.333 -32 31s-12 26.667 -12 42s4.16699 29.333 12.5 42s19.166 22.834 32.499 30.501s27.666 11.5 42.999 11.5
c16 0 30.5 -3.83301 43.5 -11.5s23.5 -17.834 31.5 -30.501s12 -27.334 12 -44.001c0 -14 -3.83301 -27.5 -11.5 -40.5s-18 -23.333 -31 -31s-27.833 -11.5 -44.5 -11.5zM251.002 652.001c14 0 25.833 5 35.5 15s14.5 22.333 14.5 37c0 16 -4.83301 29 -14.5 39
s-21.5 15 -35.5 15c-13.333 0 -25.333 -5 -36 -15s-16 -23 -16 -39c0 -14.667 5.33301 -27 16 -37s22.667 -15 36 -15z" />
    <glyph glyph-name="AE" unicode="&#xc6;" 
d="M20 0l198 625h276v-43h-177v-235h151v-44h-151v-260h175v-43h-219v175h-151l-56 -175h-46zM133 216h140v366h-25z" />
    <glyph glyph-name="Ccedilla" unicode="&#xc7;" 
d="M285 -10c-34 0 -65.3301 6.16504 -93.9971 18.498s-53.834 31.5 -75.501 57.5s-38.667 59 -51 99s-18.5 87.667 -18.5 143c0 48.667 4.5 91.167 13.5 127.5s21.333 66.833 37 91.5s33.5 44.334 53.5 59.001s41.167 25.334 63.5 32.001s44.833 10 67.5 10
c45.333 0 83.166 -11.167 113.499 -33.5s53.5 -52.166 69.5 -89.499l-40 -19l-8 -3l-3 6c2 4.66699 2 9 0 13s-5.66699 10.667 -11 20c-17.333 24.667 -36.333 42 -57 52s-42.667 14.667 -66 14c-25.333 0 -49.333 -5.33301 -72 -16s-42.5 -27.167 -59.5 -49.5
s-30.167 -50.833 -39.5 -85.5s-14 -76 -14 -124c0 -44.667 4.5 -84.334 13.5 -119.001s22 -64 39 -88s37 -42.333 60 -55s48.167 -19 75.5 -19c20 0 38.5 3.33301 55.5 10s32.333 16.167 46 28.5s25.5 27.166 35.5 44.499l36 -23
c-19.333 -33.333 -42.333 -58.666 -69 -75.999s-60.334 -26 -101.001 -26v0zM277.003 -194.002c-16.667 0 -32.333 1.83301 -47 5.5s-29 9.5 -43 17.5l18 32c11.333 -7.33301 24.166 -12.833 38.499 -16.5s29.833 -5.5 46.5 -5.5c19.333 0 34 3.5 44 10.5s15 17.167 15 30.5
c0 11.333 -5.66699 20.333 -17 27s-25.666 10 -42.999 10h-25l11 83h33l-7 -53c21.333 -1.33301 38.333 -5.33301 51 -12s22 -14.5 28 -23.5s9 -17.833 9 -26.5c0 -22 -9.16699 -40.667 -27.5 -56s-46.5 -23 -84.5 -23z" />
    <glyph glyph-name="Egrave" unicode="&#xc8;" 
d="M67 0v624h364v-43h-318v-234h263v-44h-263v-260h315v-43h-361zM309 670l-165 56l26 50l155 -76z" />
    <glyph glyph-name="Eacute" unicode="&#xc9;" 
d="M67 0v624h364v-43h-318v-234h263v-44h-263v-260h315v-43h-361zM182 667l-15 30l153 79l27 -50z" />
    <glyph glyph-name="Ecircumflex" unicode="&#xca;" 
d="M67 0v624h364v-43h-318v-234h263v-44h-263v-260h315v-43h-361zM127 667l-23 27l138 89h16l144 -90l-22 -26l-128 71z" />
    <glyph glyph-name="Edieresis" unicode="&#xcb;" 
d="M67 0v624h364v-43h-318v-234h263v-44h-263v-260h315v-43h-361zM175 698c-10 0 -18.667 3.66504 -26 10.998s-11 16 -11 26c0 10.667 3.66699 19.834 11 27.501s16 11.5 26 11.5c10.667 0 19.834 -3.66699 27.501 -11s11.5 -16.666 11.5 -27.999
c0 -10 -3.83301 -18.667 -11.5 -26s-16.834 -11 -27.501 -11zM341 697.998c-10 0 -18.5 3.49805 -25.5 10.498s-10.5 15.833 -10.5 26.5s3.5 19.834 10.5 27.501s15.5 11.5 25.5 11.5c10.667 0 19.834 -3.66699 27.501 -11s11.5 -16.666 11.5 -27.999
c0 -10 -3.83301 -18.667 -11.5 -26s-16.834 -11 -27.501 -11z" />
    <glyph glyph-name="Igrave" unicode="&#xcc;" 
d="M91 0v42h124v540h-117v41h289v-41h-124v-541h130v-41h-302zM292 670l-165 56l26 50l155 -76z" />
    <glyph glyph-name="Iacute" unicode="&#xcd;" 
d="M91 0v42h124v540h-117v41h289v-41h-124v-541h130v-41h-302zM165 667l-15 30l153 79l27 -50z" />
    <glyph glyph-name="Icircumflex" unicode="&#xce;" 
d="M91 0v42h124v540h-117v41h289v-41h-124v-541h130v-41h-302zM110 667l-23 27l138 89h16l144 -90l-22 -26l-128 71z" />
    <glyph glyph-name="Idieresis" unicode="&#xcf;" 
d="M91 0v42h124v540h-117v41h289v-41h-124v-541h130v-41h-302zM158 698c-10 0 -18.667 3.66504 -26 10.998s-11 16 -11 26c0 10.667 3.66699 19.834 11 27.501s16 11.5 26 11.5c10.667 0 19.834 -3.66699 27.501 -11s11.5 -16.666 11.5 -27.999
c0 -10 -3.83301 -18.667 -11.5 -26s-16.834 -11 -27.501 -11zM324 697.998c-10 0 -18.5 3.49805 -25.5 10.498s-10.5 15.833 -10.5 26.5s3.5 19.834 10.5 27.501s15.5 11.5 25.5 11.5c10.667 0 19.834 -3.66699 27.501 -11s11.5 -16.666 11.5 -27.999
c0 -10 -3.83301 -18.667 -11.5 -26s-16.834 -11 -27.501 -11z" />
    <glyph glyph-name="Eth" unicode="&#xd0;" 
d="M92 -1l-0.00195312 311.005h-53v41h53v272h131c29.333 0 54.833 -3.66699 76.5 -11s40.334 -16.833 56.001 -28.5s28.834 -24.334 39.501 -38.001s19.334 -26.834 26.001 -39.501c7.33301 -12 14.166 -27.333 20.499 -46s11.5 -40.334 15.5 -65.001s6 -53 6 -85
c0 -49.333 -6 -93.333 -18 -132s-29.167 -71.334 -51.5 -98.001s-49 -46.834 -80 -60.501s-65.833 -20.5 -104.5 -20.5h-117zM137.998 41.0049l69 0.000976562c44 0 81.5 10.833 112.5 32.5s54.833 52.5 71.5 92.5s25 87 25 141c0 55.333 -7.33301 103.666 -22 144.999
s-36.5 73.333 -65.5 96s-65.5 34 -109.5 34h-81v-231h111v-41h-111v-269z" />
    <glyph glyph-name="Ntilde" unicode="&#xd1;" 
d="M60 623l46 -0.000976562l284 -510v510h46h9v-7c-3.33301 -2.66699 -5.5 -6.16699 -6.5 -10.5s-1.5 -12.166 -1.5 -23.499v-582h-37l-293 527v-527h-47v623zM391 781.999l35.001 -19.001c-14.667 -26 -28.5 -44 -41.5 -54s-29.5 -15 -49.5 -15
c-14.667 0 -28 2.83301 -40 8.5s-23.167 12.334 -33.5 20.001s-20.333 14.334 -30 20.001s-19.834 8.5 -30.501 8.5c-12.667 0 -24 -3.5 -34 -10.5s-19.667 -19.167 -29 -36.5l-37 14c10.667 21.333 23.667 38.666 39 51.999s35 20 59 20c14.667 0 27.5 -2.83301 38.5 -8.5
s21.5 -12.5 31.5 -20.5s20.167 -14.833 30.5 -20.5s21.5 -8.5 33.5 -8.5s22.167 3.33301 30.5 10s17.5 20 27.5 40z" />
    <glyph glyph-name="Ograve" unicode="&#xd2;" 
d="M250 -11c-45.333 0 -84 12.333 -116 37s-56.167 60.834 -72.5 108.501s-24.5 105.5 -24.5 173.5c0 66 8.16699 122.833 24.5 170.5s40.5 84.334 72.5 110.001s70.667 38.5 116 38.5c46.667 0 85.667 -12.833 117 -38.5s55.166 -62.334 71.499 -110.001
s24.5 -104.5 24.5 -170.5c0 -68 -8.16699 -125.833 -24.5 -173.5s-40.166 -83.834 -71.499 -108.501s-70.333 -37 -117 -37zM250 32c35.333 0 65.166 10.667 89.499 32s42.833 52.666 55.5 93.999s19 91.333 19 150c0 56.667 -6.33301 105.667 -19 147
s-31.167 73.333 -55.5 96s-54.166 34 -89.499 34c-34.667 0 -64.167 -11.333 -88.5 -34s-42.833 -54.667 -55.5 -96s-19 -90.333 -19 -147c0 -58.667 6.33301 -108.667 19 -150s31.167 -72.666 55.5 -93.999s53.833 -32 88.5 -32zM303 670l-165 56l26 50l155 -76z" />
    <glyph glyph-name="Oacute" unicode="&#xd3;" 
d="M250 -11c-45.333 0 -84 12.333 -116 37s-56.167 60.834 -72.5 108.501s-24.5 105.5 -24.5 173.5c0 66 8.16699 122.833 24.5 170.5s40.5 84.334 72.5 110.001s70.667 38.5 116 38.5c46.667 0 85.667 -12.833 117 -38.5s55.166 -62.334 71.499 -110.001
s24.5 -104.5 24.5 -170.5c0 -68 -8.16699 -125.833 -24.5 -173.5s-40.166 -83.834 -71.499 -108.501s-70.333 -37 -117 -37zM250 32c35.333 0 65.166 10.667 89.499 32s42.833 52.666 55.5 93.999s19 91.333 19 150c0 56.667 -6.33301 105.667 -19 147
s-31.167 73.333 -55.5 96s-54.166 34 -89.499 34c-34.667 0 -64.167 -11.333 -88.5 -34s-42.833 -54.667 -55.5 -96s-19 -90.333 -19 -147c0 -58.667 6.33301 -108.667 19 -150s31.167 -72.666 55.5 -93.999s53.833 -32 88.5 -32zM176 667l-15 30l153 79l27 -50z" />
    <glyph glyph-name="Ocircumflex" unicode="&#xd4;" 
d="M250 -11c-45.333 0 -84 12.333 -116 37s-56.167 60.834 -72.5 108.501s-24.5 105.5 -24.5 173.5c0 66 8.16699 122.833 24.5 170.5s40.5 84.334 72.5 110.001s70.667 38.5 116 38.5c46.667 0 85.667 -12.833 117 -38.5s55.166 -62.334 71.499 -110.001
s24.5 -104.5 24.5 -170.5c0 -68 -8.16699 -125.833 -24.5 -173.5s-40.166 -83.834 -71.499 -108.501s-70.333 -37 -117 -37zM250 32c35.333 0 65.166 10.667 89.499 32s42.833 52.666 55.5 93.999s19 91.333 19 150c0 56.667 -6.33301 105.667 -19 147
s-31.167 73.333 -55.5 96s-54.166 34 -89.499 34c-34.667 0 -64.167 -11.333 -88.5 -34s-42.833 -54.667 -55.5 -96s-19 -90.333 -19 -147c0 -58.667 6.33301 -108.667 19 -150s31.167 -72.666 55.5 -93.999s53.833 -32 88.5 -32zM121 667l-23 27l138 89h16l144 -90l-22 -26
l-128 71z" />
    <glyph glyph-name="Otilde" unicode="&#xd5;" 
d="M250 -11c-45.333 0 -84 12.333 -116 37s-56.167 60.834 -72.5 108.501s-24.5 105.5 -24.5 173.5c0 66 8.16699 122.833 24.5 170.5s40.5 84.334 72.5 110.001s70.667 38.5 116 38.5c46.667 0 85.667 -12.833 117 -38.5s55.166 -62.334 71.499 -110.001
s24.5 -104.5 24.5 -170.5c0 -68 -8.16699 -125.833 -24.5 -173.5s-40.166 -83.834 -71.499 -108.501s-70.333 -37 -117 -37zM250 32c35.333 0 65.166 10.667 89.499 32s42.833 52.666 55.5 93.999s19 91.333 19 150c0 56.667 -6.33301 105.667 -19 147
s-31.167 73.333 -55.5 96s-54.166 34 -89.499 34c-34.667 0 -64.167 -11.333 -88.5 -34s-42.833 -54.667 -55.5 -96s-19 -90.333 -19 -147c0 -58.667 6.33301 -108.667 19 -150s31.167 -72.666 55.5 -93.999s53.833 -32 88.5 -32zM391 782l35.001 -19.001
c-14.667 -26 -28.5 -44 -41.5 -54s-29.5 -15 -49.5 -15c-14.667 0 -28 2.83301 -40 8.5s-23.167 12.334 -33.5 20.001s-20.333 14.334 -30 20.001s-19.834 8.5 -30.501 8.5c-12.667 0 -24 -3.5 -34 -10.5s-19.667 -19.167 -29 -36.5l-37 14
c10.667 21.333 23.667 38.666 39 51.999s35 20 59 20c14.667 0 27.5 -2.83301 38.5 -8.5s21.5 -12.5 31.5 -20.5s20.167 -14.833 30.5 -20.5s21.5 -8.5 33.5 -8.5s22.167 3.33301 30.5 10s17.5 20 27.5 40z" />
    <glyph glyph-name="Odieresis" unicode="&#xd6;" 
d="M250 -11c-45.333 0 -84 12.333 -116 37s-56.167 60.834 -72.5 108.501s-24.5 105.5 -24.5 173.5c0 66 8.16699 122.833 24.5 170.5s40.5 84.334 72.5 110.001s70.667 38.5 116 38.5c46.667 0 85.667 -12.833 117 -38.5s55.166 -62.334 71.499 -110.001
s24.5 -104.5 24.5 -170.5c0 -68 -8.16699 -125.833 -24.5 -173.5s-40.166 -83.834 -71.499 -108.501s-70.333 -37 -117 -37zM250 32c35.333 0 65.166 10.667 89.499 32s42.833 52.666 55.5 93.999s19 91.333 19 150c0 56.667 -6.33301 105.667 -19 147
s-31.167 73.333 -55.5 96s-54.166 34 -89.499 34c-34.667 0 -64.167 -11.333 -88.5 -34s-42.833 -54.667 -55.5 -96s-19 -90.333 -19 -147c0 -58.667 6.33301 -108.667 19 -150s31.167 -72.666 55.5 -93.999s53.833 -32 88.5 -32zM169 698c-10 0 -18.667 3.66504 -26 10.998
s-11 16 -11 26c0 10.667 3.66699 19.834 11 27.501s16 11.5 26 11.5c10.667 0 19.834 -3.66699 27.501 -11s11.5 -16.666 11.5 -27.999c0 -10 -3.83301 -18.667 -11.5 -26s-16.834 -11 -27.501 -11zM335 697.998c-10 0 -18.5 3.49805 -25.5 10.498s-10.5 15.833 -10.5 26.5
s3.5 19.834 10.5 27.501s15.5 11.5 25.5 11.5c10.667 0 19.834 -3.66699 27.501 -11s11.5 -16.666 11.5 -27.999c0 -10 -3.83301 -18.667 -11.5 -26s-16.834 -11 -27.501 -11z" />
    <glyph glyph-name="multiply" unicode="&#xd7;" 
d="M387 149l-133 139l-131 -135l-30 30l132 137l-132 139l33 33l130 -137l133 137l34 -31l-136 -140l133 -140z" />
    <glyph glyph-name="Oslash" unicode="&#xd8;" 
d="M80 -39l-31 15l374 703l30 -16zM250 -11c-45.333 0 -84 12.333 -116 37s-56.167 60.834 -72.5 108.501s-24.5 105.5 -24.5 173.5c0 66 8.16699 122.833 24.5 170.5s40.5 84.334 72.5 110.001s70.667 38.5 116 38.5c46.667 0 85.667 -12.833 117 -38.5
s55.166 -62.334 71.499 -110.001s24.5 -104.5 24.5 -170.5c0 -68 -8.16699 -125.833 -24.5 -173.5s-40.166 -83.834 -71.499 -108.501s-70.333 -37 -117 -37zM250 32c35.333 0 65.166 10.667 89.499 32s42.833 52.666 55.5 93.999s19 91.333 19 150
c0 56.667 -6.33301 105.667 -19 147s-31.167 73.333 -55.5 96s-54.166 34 -89.499 34c-34.667 0 -64.167 -11.333 -88.5 -34s-42.833 -54.667 -55.5 -96s-19 -90.333 -19 -147c0 -58.667 6.33301 -108.667 19 -150s31.167 -72.666 55.5 -93.999s53.833 -32 88.5 -32z" />
    <glyph glyph-name="Ugrave" unicode="&#xd9;" 
d="M251 -11c-62.667 0 -110.166 19.833 -142.499 59.5s-48.5 95.167 -48.5 166.5v408h48h9v-7c-4 -2.66699 -6.5 -6.16699 -7.5 -10.5s-1.16699 -12.166 -0.5 -23.499v-368c0 -56.667 11.333 -101.334 34 -134.001s59 -49 109 -49c50.667 0 87.667 15.833 111 47.5
s35 77.834 35 138.501v406h46v-405c0 -52.667 -7.66699 -95.834 -23 -129.501s-37.333 -58.667 -66 -75s-63.334 -24.5 -104.001 -24.5v0zM303.001 670l-165 56l26 50l155 -76z" />
    <glyph glyph-name="Uacute" unicode="&#xda;" 
d="M251 -11c-62.667 0 -110.166 19.833 -142.499 59.5s-48.5 95.167 -48.5 166.5v408h48h9v-7c-4 -2.66699 -6.5 -6.16699 -7.5 -10.5s-1.16699 -12.166 -0.5 -23.499v-368c0 -56.667 11.333 -101.334 34 -134.001s59 -49 109 -49c50.667 0 87.667 15.833 111 47.5
s35 77.834 35 138.501v406h46v-405c0 -52.667 -7.66699 -95.834 -23 -129.501s-37.333 -58.667 -66 -75s-63.334 -24.5 -104.001 -24.5v0zM176.001 667l-15 30l153 79l27 -50z" />
    <glyph glyph-name="Ucircumflex" unicode="&#xdb;" 
d="M251 -11c-62.667 0 -110.166 19.833 -142.499 59.5s-48.5 95.167 -48.5 166.5v408h48h9v-7c-4 -2.66699 -6.5 -6.16699 -7.5 -10.5s-1.16699 -12.166 -0.5 -23.499v-368c0 -56.667 11.333 -101.334 34 -134.001s59 -49 109 -49c50.667 0 87.667 15.833 111 47.5
s35 77.834 35 138.501v406h46v-405c0 -52.667 -7.66699 -95.834 -23 -129.501s-37.333 -58.667 -66 -75s-63.334 -24.5 -104.001 -24.5v0zM121.001 667l-23 27l138 89h16l144 -90l-22 -26l-128 71z" />
    <glyph glyph-name="Udieresis" unicode="&#xdc;" 
d="M251 -11c-62.667 0 -110.166 19.833 -142.499 59.5s-48.5 95.167 -48.5 166.5v408h48h9v-7c-4 -2.66699 -6.5 -6.16699 -7.5 -10.5s-1.16699 -12.166 -0.5 -23.499v-368c0 -56.667 11.333 -101.334 34 -134.001s59 -49 109 -49c50.667 0 87.667 15.833 111 47.5
s35 77.834 35 138.501v406h46v-405c0 -52.667 -7.66699 -95.834 -23 -129.501s-37.333 -58.667 -66 -75s-63.334 -24.5 -104.001 -24.5v0zM169.001 698c-10 0 -18.667 3.66504 -26 10.998s-11 16 -11 26c0 10.667 3.66699 19.834 11 27.501s16 11.5 26 11.5
c10.667 0 19.834 -3.66699 27.501 -11s11.5 -16.666 11.5 -27.999c0 -10 -3.83301 -18.667 -11.5 -26s-16.834 -11 -27.501 -11zM335.001 697.998c-10 0 -18.5 3.49805 -25.5 10.498s-10.5 15.833 -10.5 26.5s3.5 19.834 10.5 27.501s15.5 11.5 25.5 11.5
c10.667 0 19.834 -3.66699 27.501 -11s11.5 -16.666 11.5 -27.999c0 -10 -3.83301 -18.667 -11.5 -26s-16.834 -11 -27.501 -11z" />
    <glyph glyph-name="Yacute" unicode="&#xdd;" 
d="M233 0v261l-195 362h55l166 -310l153 310h51l-179 -362v-261h-51zM176 667l-15 30l153 79l27 -50z" />
    <glyph glyph-name="Thorn" unicode="&#xde;" 
d="M64 0v623h56c0.666992 -0.666992 1 -1.16699 1 -1.5v-1.5c0 -2 -1.16699 -4.83301 -3.5 -8.5s-3.83301 -8.5 -4.5 -14.5v-101h146c45.333 0 82 -7.5 110 -22.5s48.667 -35 62 -60s20 -52.833 20 -83.5c0 -30 -6.5 -57.333 -19.5 -82s-33.167 -44.167 -60.5 -58.5
s-63 -21.5 -107 -21.5h-151v-168h-49zM113 210h151c34 0 61 5.5 81 16.5s34.5 25.5 43.5 43.5s13.5 37.333 13.5 58c0 22 -4.66699 42.167 -14 60.5s-24.5 33.333 -45.5 45s-49.5 17.5 -85.5 17.5h-144v-241z" />
    <glyph glyph-name="germandbls" unicode="&#xdf;" 
d="M281 -10c-19.333 0 -37.6729 2.49512 -55.0059 7.49512s-33.666 12.833 -48.999 23.5l25 39c10 -8 22 -14.333 36 -19s28.333 -7 43 -7c19.333 0 37 3.83301 53 11.5s29.833 18.334 41.5 32.001s20.834 29.834 27.501 48.501s10 38.667 10 60
c0 20.667 -3.16699 39.834 -9.5 57.501s-16.166 33 -29.499 46s-30.666 23.333 -51.999 31s-47.333 11.5 -78 11.5h-30v40h36c12 0 23.833 1.83301 35.5 5.5s22.334 9.16699 32.001 16.5s18.334 16 26.001 26s13.667 21.5 18 34.5s6.5 27.5 6.5 43.5
c0 18.667 -3.16699 35.834 -9.5 51.501s-15 29.5 -26 41.5s-24.167 21.167 -39.5 27.5s-32.333 9.5 -51 9.5c-27.333 0 -51.166 -8 -71.499 -24s-35.833 -39 -46.5 -69s-16 -66.667 -16 -110v-425h-48v423c0 55.333 7.5 101.166 22.5 137.499s35.667 63.5 62 81.5
s56.833 27 91.5 27c36 0 67.333 -7.66699 94 -23s47.5 -36 62.5 -62s22.5 -54.667 22.5 -86c0 -20 -3.66699 -39.167 -11 -57.5s-17.5 -34.5 -30.5 -48.5s-28.167 -25.333 -45.5 -34c20.667 -5.33301 39.167 -13.166 55.5 -23.499s30.166 -23 41.499 -38
s19.833 -32.167 25.5 -51.5s8.5 -40.666 8.5 -63.999c0 -35.333 -7 -67.5 -21 -96.5s-34.333 -52 -61 -69s-58.667 -25.5 -96 -25.5z" />
    <glyph glyph-name="agrave" unicode="&#xe0;" 
d="M211 -11c-48 0 -85.002 12.167 -111.002 36.5s-39 54.166 -39 89.499c0 24 5.5 45.333 16.5 64s26.333 34.5 46 47.5s42.834 22.833 69.501 29.5s55.334 10 86.001 10c11.333 0 23.5 -0.166992 36.5 -0.5s26.667 -1 41 -2s28.5 -2.5 42.5 -4.5l4 -38
c-12 2 -25 3.5 -39 4.5s-27.833 1.83301 -41.5 2.5s-26.167 1 -37.5 1c-27.333 0 -51.833 -2.5 -73.5 -7.5s-40.167 -12.167 -55.5 -21.5s-26.833 -21 -34.5 -35s-11.5 -30 -11.5 -48c0 -14.667 2.33301 -27.667 7 -39s11.667 -20.666 21 -27.999s20.5 -13 33.5 -17
s28.167 -6 45.5 -6c28 0 52.833 4.66699 74.5 14s40 22.666 55 39.999s26.333 38.166 34 62.499s11.5 51.833 11.5 82.5c0 48 -4.66699 86.333 -14 115s-24.666 49.5 -45.999 62.5s-50 19.5 -86 19.5c-22.667 0 -44.834 -4.5 -66.501 -13.5s-42.5 -23.167 -62.5 -42.5
l-26 31c21.333 21.333 45 37.5 71 48.5s54.667 16.5 86 16.5c30.667 0 57.5 -3.83301 80.5 -11.5s42.333 -20.167 58 -37.5s27.667 -40.166 36 -68.499s12.5 -63.166 12.5 -104.499v-241h-52v92c-6.66699 -16.667 -15.667 -31.5 -27 -44.5s-24.5 -23.833 -39.5 -32.5
s-31.5 -15.167 -49.5 -19.5s-36.667 -6.5 -56 -6.5zM249.998 510l-103 134l40 30l89 -146z" />
    <glyph glyph-name="aacute" unicode="&#xe1;" 
d="M211 -11c-48 0 -85.002 12.167 -111.002 36.5s-39 54.166 -39 89.499c0 24 5.5 45.333 16.5 64s26.333 34.5 46 47.5s42.834 22.833 69.501 29.5s55.334 10 86.001 10c11.333 0 23.5 -0.166992 36.5 -0.5s26.667 -1 41 -2s28.5 -2.5 42.5 -4.5l4 -38
c-12 2 -25 3.5 -39 4.5s-27.833 1.83301 -41.5 2.5s-26.167 1 -37.5 1c-27.333 0 -51.833 -2.5 -73.5 -7.5s-40.167 -12.167 -55.5 -21.5s-26.833 -21 -34.5 -35s-11.5 -30 -11.5 -48c0 -14.667 2.33301 -27.667 7 -39s11.667 -20.666 21 -27.999s20.5 -13 33.5 -17
s28.167 -6 45.5 -6c28 0 52.833 4.66699 74.5 14s40 22.666 55 39.999s26.333 38.166 34 62.499s11.5 51.833 11.5 82.5c0 48 -4.66699 86.333 -14 115s-24.666 49.5 -45.999 62.5s-50 19.5 -86 19.5c-22.667 0 -44.834 -4.5 -66.501 -13.5s-42.5 -23.167 -62.5 -42.5
l-26 31c21.333 21.333 45 37.5 71 48.5s54.667 16.5 86 16.5c30.667 0 57.5 -3.83301 80.5 -11.5s42.333 -20.167 58 -37.5s27.667 -40.166 36 -68.499s12.5 -63.166 12.5 -104.499v-241h-52v92c-6.66699 -16.667 -15.667 -31.5 -27 -44.5s-24.5 -23.833 -39.5 -32.5
s-31.5 -15.167 -49.5 -19.5s-36.667 -6.5 -56 -6.5zM236.998 510l-25 18l88 146l40 -30z" />
    <glyph glyph-name="acircumflex" unicode="&#xe2;" 
d="M211 -11c-48 0 -85.002 12.167 -111.002 36.5s-39 54.166 -39 89.499c0 24 5.5 45.333 16.5 64s26.333 34.5 46 47.5s42.834 22.833 69.501 29.5s55.334 10 86.001 10c11.333 0 23.5 -0.166992 36.5 -0.5s26.667 -1 41 -2s28.5 -2.5 42.5 -4.5l4 -38
c-12 2 -25 3.5 -39 4.5s-27.833 1.83301 -41.5 2.5s-26.167 1 -37.5 1c-27.333 0 -51.833 -2.5 -73.5 -7.5s-40.167 -12.167 -55.5 -21.5s-26.833 -21 -34.5 -35s-11.5 -30 -11.5 -48c0 -14.667 2.33301 -27.667 7 -39s11.667 -20.666 21 -27.999s20.5 -13 33.5 -17
s28.167 -6 45.5 -6c28 0 52.833 4.66699 74.5 14s40 22.666 55 39.999s26.333 38.166 34 62.499s11.5 51.833 11.5 82.5c0 48 -4.66699 86.333 -14 115s-24.666 49.5 -45.999 62.5s-50 19.5 -86 19.5c-22.667 0 -44.834 -4.5 -66.501 -13.5s-42.5 -23.167 -62.5 -42.5
l-26 31c21.333 21.333 45 37.5 71 48.5s54.667 16.5 86 16.5c30.667 0 57.5 -3.83301 80.5 -11.5s42.333 -20.167 58 -37.5s27.667 -40.166 36 -68.499s12.5 -63.166 12.5 -104.499v-241h-52v92c-6.66699 -16.667 -15.667 -31.5 -27 -44.5s-24.5 -23.833 -39.5 -32.5
s-31.5 -15.167 -49.5 -19.5s-36.667 -6.5 -56 -6.5zM126.998 516l-28 23l141 140h20l141 -140l-27 -23l-124 119z" />
    <glyph glyph-name="atilde" unicode="&#xe3;" 
d="M211 -11c-48 0 -85.002 12.167 -111.002 36.5s-39 54.166 -39 89.499c0 24 5.5 45.333 16.5 64s26.333 34.5 46 47.5s42.834 22.833 69.501 29.5s55.334 10 86.001 10c11.333 0 23.5 -0.166992 36.5 -0.5s26.667 -1 41 -2s28.5 -2.5 42.5 -4.5l4 -38
c-12 2 -25 3.5 -39 4.5s-27.833 1.83301 -41.5 2.5s-26.167 1 -37.5 1c-27.333 0 -51.833 -2.5 -73.5 -7.5s-40.167 -12.167 -55.5 -21.5s-26.833 -21 -34.5 -35s-11.5 -30 -11.5 -48c0 -14.667 2.33301 -27.667 7 -39s11.667 -20.666 21 -27.999s20.5 -13 33.5 -17
s28.167 -6 45.5 -6c28 0 52.833 4.66699 74.5 14s40 22.666 55 39.999s26.333 38.166 34 62.499s11.5 51.833 11.5 82.5c0 48 -4.66699 86.333 -14 115s-24.666 49.5 -45.999 62.5s-50 19.5 -86 19.5c-22.667 0 -44.834 -4.5 -66.501 -13.5s-42.5 -23.167 -62.5 -42.5
l-26 31c21.333 21.333 45 37.5 71 48.5s54.667 16.5 86 16.5c30.667 0 57.5 -3.83301 80.5 -11.5s42.333 -20.167 58 -37.5s27.667 -40.166 36 -68.499s12.5 -63.166 12.5 -104.499v-241h-52v92c-6.66699 -16.667 -15.667 -31.5 -27 -44.5s-24.5 -23.833 -39.5 -32.5
s-31.5 -15.167 -49.5 -19.5s-36.667 -6.5 -56 -6.5zM386.998 668l35.001 -19.001c-14.667 -26 -28.5 -44 -41.5 -54s-29.5 -15 -49.5 -15c-14.667 0 -28 2.83301 -40 8.5s-23.167 12.334 -33.5 20.001s-20.333 14.334 -30 20.001s-19.834 8.5 -30.501 8.5
c-12.667 0 -24 -3.5 -34 -10.5s-19.667 -19.167 -29 -36.5l-37 14c10.667 21.333 23.667 38.666 39 51.999s35 20 59 20c14.667 0 27.5 -2.83301 38.5 -8.5s21.5 -12.5 31.5 -20.5s20.167 -14.833 30.5 -20.5s21.5 -8.5 33.5 -8.5s22.167 3.33301 30.5 10s17.5 20 27.5 40z
" />
    <glyph glyph-name="adieresis" unicode="&#xe4;" 
d="M211 -11c-48 0 -85.002 12.167 -111.002 36.5s-39 54.166 -39 89.499c0 24 5.5 45.333 16.5 64s26.333 34.5 46 47.5s42.834 22.833 69.501 29.5s55.334 10 86.001 10c11.333 0 23.5 -0.166992 36.5 -0.5s26.667 -1 41 -2s28.5 -2.5 42.5 -4.5l4 -38
c-12 2 -25 3.5 -39 4.5s-27.833 1.83301 -41.5 2.5s-26.167 1 -37.5 1c-27.333 0 -51.833 -2.5 -73.5 -7.5s-40.167 -12.167 -55.5 -21.5s-26.833 -21 -34.5 -35s-11.5 -30 -11.5 -48c0 -14.667 2.33301 -27.667 7 -39s11.667 -20.666 21 -27.999s20.5 -13 33.5 -17
s28.167 -6 45.5 -6c28 0 52.833 4.66699 74.5 14s40 22.666 55 39.999s26.333 38.166 34 62.499s11.5 51.833 11.5 82.5c0 48 -4.66699 86.333 -14 115s-24.666 49.5 -45.999 62.5s-50 19.5 -86 19.5c-22.667 0 -44.834 -4.5 -66.501 -13.5s-42.5 -23.167 -62.5 -42.5
l-26 31c21.333 21.333 45 37.5 71 48.5s54.667 16.5 86 16.5c30.667 0 57.5 -3.83301 80.5 -11.5s42.333 -20.167 58 -37.5s27.667 -40.166 36 -68.499s12.5 -63.166 12.5 -104.499v-241h-52v92c-6.66699 -16.667 -15.667 -31.5 -27 -44.5s-24.5 -23.833 -39.5 -32.5
s-31.5 -15.167 -49.5 -19.5s-36.667 -6.5 -56 -6.5zM167.998 577c-10.667 0 -19.667 3.66504 -27 10.998s-11 16 -11 26c0 10.667 3.66699 19.834 11 27.501s16.333 11.5 27 11.5c10 0 18.833 -3.66699 26.5 -11s11.5 -16.666 11.5 -27.999
c0 -10 -3.83301 -18.667 -11.5 -26s-16.5 -11 -26.5 -11zM333.998 576.998c-10.667 0 -19.5 3.49805 -26.5 10.498s-10.5 15.833 -10.5 26.5s3.5 19.834 10.5 27.501s15.833 11.5 26.5 11.5c10 0 18.833 -3.66699 26.5 -11s11.5 -16.666 11.5 -27.999
c0 -10 -3.83301 -18.667 -11.5 -26s-16.5 -11 -26.5 -11z" />
    <glyph glyph-name="aring" unicode="&#xe5;" 
d="M211 -11c-48 0 -85.002 12.167 -111.002 36.5s-39 54.166 -39 89.499c0 24 5.5 45.333 16.5 64s26.333 34.5 46 47.5s42.834 22.833 69.501 29.5s55.334 10 86.001 10c11.333 0 23.5 -0.166992 36.5 -0.5s26.667 -1 41 -2s28.5 -2.5 42.5 -4.5l4 -38
c-12 2 -25 3.5 -39 4.5s-27.833 1.83301 -41.5 2.5s-26.167 1 -37.5 1c-27.333 0 -51.833 -2.5 -73.5 -7.5s-40.167 -12.167 -55.5 -21.5s-26.833 -21 -34.5 -35s-11.5 -30 -11.5 -48c0 -14.667 2.33301 -27.667 7 -39s11.667 -20.666 21 -27.999s20.5 -13 33.5 -17
s28.167 -6 45.5 -6c28 0 52.833 4.66699 74.5 14s40 22.666 55 39.999s26.333 38.166 34 62.499s11.5 51.833 11.5 82.5c0 48 -4.66699 86.333 -14 115s-24.666 49.5 -45.999 62.5s-50 19.5 -86 19.5c-22.667 0 -44.834 -4.5 -66.501 -13.5s-42.5 -23.167 -62.5 -42.5
l-26 31c21.333 21.333 45 37.5 71 48.5s54.667 16.5 86 16.5c30.667 0 57.5 -3.83301 80.5 -11.5s42.333 -20.167 58 -37.5s27.667 -40.166 36 -68.499s12.5 -63.166 12.5 -104.499v-241h-52v92c-6.66699 -16.667 -15.667 -31.5 -27 -44.5s-24.5 -23.833 -39.5 -32.5
s-31.5 -15.167 -49.5 -19.5s-36.667 -6.5 -56 -6.5zM251.998 519c-15.333 0 -29.667 4 -43 12s-24 18.333 -32 31s-12 26.667 -12 42s4.16699 29.333 12.5 42s19 22.834 32 30.501s27.167 11.5 42.5 11.5c16 0 30.5 -3.83301 43.5 -11.5s23.5 -17.834 31.5 -30.501
s12 -27 12 -43c0 -14.667 -3.83301 -28.5 -11.5 -41.5s-18 -23.333 -31 -31s-27.833 -11.5 -44.5 -11.5zM252.997 551c14 0 25.999 5.16699 35.999 15.5s15 22.833 15 37.5c0 15.333 -5.16699 28 -15.5 38s-22.166 15 -35.499 15s-25.333 -5 -36 -15s-16 -22.667 -16 -38
c0 -14.667 5.33301 -27.167 16 -37.5s22.667 -15.5 36 -15.5z" />
    <glyph glyph-name="ae" unicode="&#xe6;" 
d="M141 -10c-28 0 -50.999 5.66895 -68.999 17.002s-31.5 26.833 -40.5 46.5s-13.5 42.167 -13.5 67.5c0 24.667 4.33301 46 13 64s21.667 33 39 45s39.5 21.333 66.5 28s58.833 10.667 95.5 12c0 35.333 -3.16699 64.333 -9.5 87s-16.333 39.667 -30 51
s-30.834 17 -51.501 17c-16 0 -30.667 -3.5 -44 -10.5s-25 -17.167 -35 -30.5l-26 29c14 17.333 29.833 30.166 47.5 38.499s38.5 12.5 62.5 12.5c18 0 34.333 -3.5 49 -10.5s27.334 -16.833 38.001 -29.5s18.334 -28.334 23.001 -47.001
c6.66699 17.333 15.5 32.333 26.5 45s23.667 22.834 38 30.501s29.166 11.5 44.499 11.5c30 0 53.5 -7.83301 70.5 -23.5s29.333 -38.167 37 -67.5s11.5 -64.666 11.5 -105.999v-30l-211 -7v-56c0 -21.333 2.66699 -41 8 -59s13 -33.333 23 -46s21.667 -22.334 35 -29.001
s28 -10 44 -10c13.333 0 24.833 1.66699 34.5 5s18.167 7.83301 25.5 13.5s13.666 12.167 18.999 19.5l26 -28c-12.667 -16 -28 -28.333 -46 -37s-38.667 -13 -62 -13c-19.333 0 -37.5 4.33301 -54.5 13s-31.833 20.167 -44.5 34.5s-22 30.166 -28 47.499
c-4.66699 -17.333 -12.167 -33.333 -22.5 -48s-22.833 -26.167 -37.5 -34.5s-32 -12.5 -52 -12.5zM143.001 31.002c26 0 45.1689 9 57.502 27s20.5 42 24.5 72s6 62.667 6 98c-41.333 -2 -74.5 -6.5 -99.5 -13.5s-43 -18 -54 -33s-16.5 -35.5 -16.5 -61.5
c0 -20.667 3.16699 -37.5 9.5 -50.5s15.666 -22.667 27.999 -29s27.166 -9.5 44.499 -9.5zM273.003 269.002l169.999 6c0 32 -2.16699 59.167 -6.5 81.5s-12.166 39.333 -23.499 51s-27.666 17.5 -48.999 17.5c-18 0 -33.833 -6.33301 -47.5 -19
s-24.334 -30.667 -32.001 -54s-11.5 -51 -11.5 -83z" />
    <glyph glyph-name="ccedilla" unicode="&#xe7;" 
d="M280 -11c-32.667 0 -62.3311 6.00195 -88.998 18.002s-49.5 28.667 -68.5 50s-33.833 46.5 -44.5 75.5s-16 60.833 -16 95.5c0 34 5.5 65.333 16.5 94s26.333 53.5 46 74.5s42.834 37.167 69.501 48.5s55.667 17 87 17c39.333 0 73 -6.83301 101 -20.5
s51.333 -33.834 70 -60.501l-30 -29l-6 -7l-5 5c0.666992 4.66699 -0.166016 9.16699 -2.49902 13.5s-7.5 10.5 -15.5 18.5c-14 13.333 -30 23 -48 29s-41.333 9 -70 9c-21.333 0 -41.833 -4.33301 -61.5 -13s-37.167 -21.167 -52.5 -37.5s-27.333 -36 -36 -59
s-13 -48.833 -13 -77.5c0 -30 4.16699 -57.167 12.5 -81.5s20.166 -45.333 35.499 -63s33.666 -31.334 54.999 -41.001s44.333 -14.5 69 -14.5c16.667 0 33 2.5 49 7.5s31.167 12.167 45.5 21.5s27.166 20.333 38.499 33l28 -34c-22.667 -24 -47.834 -42 -75.501 -54
s-57.5 -18 -89.5 -18v0zM283.003 -193.998c-16.667 0 -32.333 1.83301 -47 5.5s-29 9.5 -43 17.5l18 32c11.333 -7.33301 24.166 -12.833 38.499 -16.5s29.833 -5.5 46.5 -5.5c19.333 0 34 3.5 44 10.5s15 17.167 15 30.5c0 11.333 -5.66699 20.333 -17 27
s-25.666 10 -42.999 10h-25l11 83h33l-7 -53c21.333 -1.33301 38.333 -5.33301 51 -12s22 -14.5 28 -23.5s9 -17.833 9 -26.5c0 -22 -9.16699 -40.667 -27.5 -56s-46.5 -23 -84.5 -23z" />
    <glyph glyph-name="egrave" unicode="&#xe8;" 
d="M268 -10c-32 0 -61.002 5.33301 -87.002 16s-48.333 26.167 -67 46.5s-33.167 45 -43.5 74s-15.5 61.833 -15.5 98.5c0 38.667 5.16699 72.834 15.5 102.501s24.666 54.667 42.999 75s39.5 35.666 63.5 45.999s50 15.5 78 15.5c26 0 50.167 -4.33301 72.5 -13
s41.833 -21.667 58.5 -39s29.667 -39.333 39 -66s14 -58 14 -94v-13.5c0 -3.66699 -0.333008 -8.16699 -1 -13.5h-336c0.666992 -32.667 5.33398 -61.167 14.001 -85.5s20.334 -44.5 35.001 -60.5s32 -28 52 -36s42 -12 66 -12c19.333 0 36.666 2.33301 51.999 7
s29.333 11.5 42 20.5s24.334 19.5 35.001 31.5l30 -27c-12.667 -15.333 -27.167 -28.5 -43.5 -39.5s-34.166 -19.333 -53.499 -25s-40.333 -8.5 -63 -8.5zM103.998 265l286 0.000976562c0 25.333 -3.33301 48 -10 68s-16 36.833 -28 50.5s-26.333 24 -43 31
s-35 10.5 -55 10.5c-21.333 0 -40.666 -3.66699 -57.999 -11s-32.5 -18 -45.5 -32s-23.333 -30.833 -31 -50.5s-12.834 -41.834 -15.501 -66.501zM259.998 510.001l-103 134l40 30l89 -146z" />
    <glyph glyph-name="eacute" unicode="&#xe9;" 
d="M268 -10c-32 0 -61.002 5.33301 -87.002 16s-48.333 26.167 -67 46.5s-33.167 45 -43.5 74s-15.5 61.833 -15.5 98.5c0 38.667 5.16699 72.834 15.5 102.501s24.666 54.667 42.999 75s39.5 35.666 63.5 45.999s50 15.5 78 15.5c26 0 50.167 -4.33301 72.5 -13
s41.833 -21.667 58.5 -39s29.667 -39.333 39 -66s14 -58 14 -94v-13.5c0 -3.66699 -0.333008 -8.16699 -1 -13.5h-336c0.666992 -32.667 5.33398 -61.167 14.001 -85.5s20.334 -44.5 35.001 -60.5s32 -28 52 -36s42 -12 66 -12c19.333 0 36.666 2.33301 51.999 7
s29.333 11.5 42 20.5s24.334 19.5 35.001 31.5l30 -27c-12.667 -15.333 -27.167 -28.5 -43.5 -39.5s-34.166 -19.333 -53.499 -25s-40.333 -8.5 -63 -8.5zM103.998 265l286 0.000976562c0 25.333 -3.33301 48 -10 68s-16 36.833 -28 50.5s-26.333 24 -43 31
s-35 10.5 -55 10.5c-21.333 0 -40.666 -3.66699 -57.999 -11s-32.5 -18 -45.5 -32s-23.333 -30.833 -31 -50.5s-12.834 -41.834 -15.501 -66.501zM246.998 510.001l-25 18l88 146l40 -30z" />
    <glyph glyph-name="ecircumflex" unicode="&#xea;" 
d="M268 -10c-32 0 -61.002 5.33301 -87.002 16s-48.333 26.167 -67 46.5s-33.167 45 -43.5 74s-15.5 61.833 -15.5 98.5c0 38.667 5.16699 72.834 15.5 102.501s24.666 54.667 42.999 75s39.5 35.666 63.5 45.999s50 15.5 78 15.5c26 0 50.167 -4.33301 72.5 -13
s41.833 -21.667 58.5 -39s29.667 -39.333 39 -66s14 -58 14 -94v-13.5c0 -3.66699 -0.333008 -8.16699 -1 -13.5h-336c0.666992 -32.667 5.33398 -61.167 14.001 -85.5s20.334 -44.5 35.001 -60.5s32 -28 52 -36s42 -12 66 -12c19.333 0 36.666 2.33301 51.999 7
s29.333 11.5 42 20.5s24.334 19.5 35.001 31.5l30 -27c-12.667 -15.333 -27.167 -28.5 -43.5 -39.5s-34.166 -19.333 -53.499 -25s-40.333 -8.5 -63 -8.5zM103.998 265l286 0.000976562c0 25.333 -3.33301 48 -10 68s-16 36.833 -28 50.5s-26.333 24 -43 31
s-35 10.5 -55 10.5c-21.333 0 -40.666 -3.66699 -57.999 -11s-32.5 -18 -45.5 -32s-23.333 -30.833 -31 -50.5s-12.834 -41.834 -15.501 -66.501zM136.998 516.001l-28 23l141 140h20l141 -140l-27 -23l-124 119z" />
    <glyph glyph-name="edieresis" unicode="&#xeb;" 
d="M268 -10c-32 0 -61.002 5.33301 -87.002 16s-48.333 26.167 -67 46.5s-33.167 45 -43.5 74s-15.5 61.833 -15.5 98.5c0 38.667 5.16699 72.834 15.5 102.501s24.666 54.667 42.999 75s39.5 35.666 63.5 45.999s50 15.5 78 15.5c26 0 50.167 -4.33301 72.5 -13
s41.833 -21.667 58.5 -39s29.667 -39.333 39 -66s14 -58 14 -94v-13.5c0 -3.66699 -0.333008 -8.16699 -1 -13.5h-336c0.666992 -32.667 5.33398 -61.167 14.001 -85.5s20.334 -44.5 35.001 -60.5s32 -28 52 -36s42 -12 66 -12c19.333 0 36.666 2.33301 51.999 7
s29.333 11.5 42 20.5s24.334 19.5 35.001 31.5l30 -27c-12.667 -15.333 -27.167 -28.5 -43.5 -39.5s-34.166 -19.333 -53.499 -25s-40.333 -8.5 -63 -8.5zM103.998 265l286 0.000976562c0 25.333 -3.33301 48 -10 68s-16 36.833 -28 50.5s-26.333 24 -43 31
s-35 10.5 -55 10.5c-21.333 0 -40.666 -3.66699 -57.999 -11s-32.5 -18 -45.5 -32s-23.333 -30.833 -31 -50.5s-12.834 -41.834 -15.501 -66.501zM177.998 577.001c-10.667 0 -19.667 3.66504 -27 10.998s-11 16 -11 26c0 10.667 3.66699 19.834 11 27.501
s16.333 11.5 27 11.5c10 0 18.833 -3.66699 26.5 -11s11.5 -16.666 11.5 -27.999c0 -10 -3.83301 -18.667 -11.5 -26s-16.5 -11 -26.5 -11zM343.998 576.999c-10.667 0 -19.5 3.49805 -26.5 10.498s-10.5 15.833 -10.5 26.5s3.5 19.834 10.5 27.501s15.833 11.5 26.5 11.5
c10 0 18.833 -3.66699 26.5 -11s11.5 -16.666 11.5 -27.999c0 -10 -3.83301 -18.667 -11.5 -26s-16.5 -11 -26.5 -11z" />
    <glyph glyph-name="igrave" unicode="&#xec;" 
d="M105 0v41h124v372h-118v40h166v-412h114v-41h-286zM250 510l-103 134l40 30l89 -146z" />
    <glyph glyph-name="iacute" unicode="&#xed;" 
d="M105 0v41h124v372h-118v40h166v-412h114v-41h-286zM240 525l-25 18l88 146l40 -30z" />
    <glyph glyph-name="icircumflex" unicode="&#xee;" 
d="M105 0v41h124v372h-118v40h166v-412h114v-41h-286zM127 516l-28 23l141 140h20l141 -140l-27 -23l-124 119z" />
    <glyph glyph-name="idieresis" unicode="&#xef;" 
d="M105 0v41h124v372h-118v40h166v-412h114v-41h-286zM161 577c-10.667 0 -19.667 3.66504 -27 10.998s-11 16 -11 26c0 10.667 3.66699 19.834 11 27.501s16.333 11.5 27 11.5c10 0 18.833 -3.66699 26.5 -11s11.5 -16.666 11.5 -27.999c0 -10 -3.83301 -18.667 -11.5 -26
s-16.5 -11 -26.5 -11zM327 576.998c-10.667 0 -19.5 3.49805 -26.5 10.498s-10.5 15.833 -10.5 26.5s3.5 19.834 10.5 27.501s15.833 11.5 26.5 11.5c10 0 18.833 -3.66699 26.5 -11s11.5 -16.666 11.5 -27.999c0 -10 -3.83301 -18.667 -11.5 -26s-16.5 -11 -26.5 -11z" />
    <glyph glyph-name="eth" unicode="&#xf0;" 
d="M256 -12c-28.667 0 -55.6689 5.83594 -81.002 17.5029s-47.833 28 -67.5 49s-35 45.833 -46 74.5s-16.5 60 -16.5 94s5.5 65.5 16.5 94.5s25.667 54.5 44 76.5s39.333 39.167 63 51.5s48.167 18.5 73.5 18.5c21.333 0 41 -2.83301 59 -8.5s34.5 -13.667 49.5 -24
s27.833 -22.5 38.5 -36.5c-10 27.333 -23.167 54.833 -39.5 82.5s-36.5 54.5 -60.5 80.5l-134 -38l-13 35l117 32l-30.5 26c-10.333 8.66699 -21 17.167 -32 25.5s-22.833 15.166 -35.5 20.499l52 14c15.333 -8.66699 30.833 -20 46.5 -34l44.5 -40l114 32l12 -32l-97 -29
c18.667 -21.333 35.5 -43.833 50.5 -67.5s27.833 -48.834 38.5 -75.501s18.834 -54.5 24.501 -83.5s8.5 -59.167 8.5 -90.5c0 -40.667 -4.16699 -77.334 -12.5 -110.001s-20.666 -60.5 -36.999 -83.5s-37 -40.667 -62 -53s-54.167 -18.5 -87.5 -18.5zM256.998 31.0029
c22.667 0 43.165 4.33301 61.498 13s34 22 47 40s23 40 30 66s10.5 56 10.5 90c0 26 -3 49 -9 69s-14.333 37 -25 51s-22.667 25.667 -36 35s-27.5 16.166 -42.5 20.499s-29.833 6.5 -44.5 6.5c-19.333 0 -38.166 -4.33301 -56.499 -13s-34.666 -21.334 -48.999 -38.001
s-25.833 -37.167 -34.5 -61.5s-13 -51.833 -13 -82.5c0 -28.667 4.16699 -55.167 12.5 -79.5s19.666 -45.166 33.999 -62.499s31.333 -30.666 51 -39.999s40.834 -14 63.501 -14z" />
    <glyph glyph-name="ntilde" unicode="&#xf1;" 
d="M79 0l0.000976562 452.996h48v-96c10 22 23.167 40.833 39.5 56.5s35.166 27.834 56.499 36.501s43.666 13 66.999 13c24.667 0 47.167 -5.83301 67.5 -17.5s36.833 -31.167 49.5 -58.5s19 -65.333 19 -114v-273h-48v271c0 37.333 -4 66.833 -12 88.5
s-19.667 37.167 -35 46.5s-33.666 14 -54.999 14c-20 0 -38.833 -4.16699 -56.5 -12.5s-33.5 -19.666 -47.5 -33.999s-25 -31.166 -33 -50.499s-12 -40.666 -12 -63.999v-259h-48zM402.001 667.996l35.001 -19.001c-14.667 -26 -28.5 -44 -41.5 -54s-29.5 -15 -49.5 -15
c-14.667 0 -28 2.83301 -40 8.5s-23.167 12.334 -33.5 20.001s-20.333 14.334 -30 20.001s-19.834 8.5 -30.501 8.5c-12.667 0 -24 -3.5 -34 -10.5s-19.667 -19.167 -29 -36.5l-37 14c10.667 21.333 23.667 38.666 39 51.999s35 20 59 20c14.667 0 27.5 -2.83301 38.5 -8.5
s21.5 -12.5 31.5 -20.5s20.167 -14.833 30.5 -20.5s21.5 -8.5 33.5 -8.5s22.167 3.33301 30.5 10s17.5 20 27.5 40z" />
    <glyph glyph-name="ograve" unicode="&#xf2;" 
d="M250 -8c-41.333 0 -77 10 -107 30s-53.167 47.667 -69.5 83s-24.5 76 -24.5 122c0 46.667 8.16699 87.667 24.5 123s39.5 63 69.5 83s65.667 30 107 30s77 -10 107 -30s53.167 -47.667 69.5 -83s24.5 -76.333 24.5 -123c0 -46 -8.16699 -86.667 -24.5 -122
s-39.5 -63 -69.5 -83s-65.667 -30 -107 -30zM250 34c32 0 59.167 8.33301 81.5 25s39.5 39.667 51.5 69s18 62.666 18 99.999c0 39.333 -6.5 73.5 -19.5 102.5s-30.667 51.5 -53 67.5s-48.5 24 -78.5 24c-30.667 0 -57.334 -8.33301 -80.001 -25s-40 -39.5 -52 -68.5
s-18 -62.5 -18 -100.5s6 -71.667 18 -101s29.333 -52.166 52 -68.499s49.334 -24.5 80.001 -24.5zM250 510l-103 134l40 30l89 -146z" />
    <glyph glyph-name="oacute" unicode="&#xf3;" 
d="M250 -8c-41.333 0 -77 10 -107 30s-53.167 47.667 -69.5 83s-24.5 76 -24.5 122c0 46.667 8.16699 87.667 24.5 123s39.5 63 69.5 83s65.667 30 107 30s77 -10 107 -30s53.167 -47.667 69.5 -83s24.5 -76.333 24.5 -123c0 -46 -8.16699 -86.667 -24.5 -122
s-39.5 -63 -69.5 -83s-65.667 -30 -107 -30zM250 34c32 0 59.167 8.33301 81.5 25s39.5 39.667 51.5 69s18 62.666 18 99.999c0 39.333 -6.5 73.5 -19.5 102.5s-30.667 51.5 -53 67.5s-48.5 24 -78.5 24c-30.667 0 -57.334 -8.33301 -80.001 -25s-40 -39.5 -52 -68.5
s-18 -62.5 -18 -100.5s6 -71.667 18 -101s29.333 -52.166 52 -68.499s49.334 -24.5 80.001 -24.5zM237 510l-25 18l88 146l40 -30z" />
    <glyph glyph-name="ocircumflex" unicode="&#xf4;" 
d="M250 -8c-41.333 0 -77 10 -107 30s-53.167 47.667 -69.5 83s-24.5 76 -24.5 122c0 46.667 8.16699 87.667 24.5 123s39.5 63 69.5 83s65.667 30 107 30s77 -10 107 -30s53.167 -47.667 69.5 -83s24.5 -76.333 24.5 -123c0 -46 -8.16699 -86.667 -24.5 -122
s-39.5 -63 -69.5 -83s-65.667 -30 -107 -30zM250 34c32 0 59.167 8.33301 81.5 25s39.5 39.667 51.5 69s18 62.666 18 99.999c0 39.333 -6.5 73.5 -19.5 102.5s-30.667 51.5 -53 67.5s-48.5 24 -78.5 24c-30.667 0 -57.334 -8.33301 -80.001 -25s-40 -39.5 -52 -68.5
s-18 -62.5 -18 -100.5s6 -71.667 18 -101s29.333 -52.166 52 -68.499s49.334 -24.5 80.001 -24.5zM127 516l-28 23l141 140h20l141 -140l-27 -23l-124 119z" />
    <glyph glyph-name="otilde" unicode="&#xf5;" 
d="M250 -8c-41.333 0 -77 10 -107 30s-53.167 47.667 -69.5 83s-24.5 76 -24.5 122c0 46.667 8.16699 87.667 24.5 123s39.5 63 69.5 83s65.667 30 107 30s77 -10 107 -30s53.167 -47.667 69.5 -83s24.5 -76.333 24.5 -123c0 -46 -8.16699 -86.667 -24.5 -122
s-39.5 -63 -69.5 -83s-65.667 -30 -107 -30zM250 34c32 0 59.167 8.33301 81.5 25s39.5 39.667 51.5 69s18 62.666 18 99.999c0 39.333 -6.5 73.5 -19.5 102.5s-30.667 51.5 -53 67.5s-48.5 24 -78.5 24c-30.667 0 -57.334 -8.33301 -80.001 -25s-40 -39.5 -52 -68.5
s-18 -62.5 -18 -100.5s6 -71.667 18 -101s29.333 -52.166 52 -68.499s49.334 -24.5 80.001 -24.5zM387 668l35.001 -19.001c-14.667 -26 -28.5 -44 -41.5 -54s-29.5 -15 -49.5 -15c-14.667 0 -28 2.83301 -40 8.5s-23.167 12.334 -33.5 20.001s-20.333 14.334 -30 20.001
s-19.834 8.5 -30.501 8.5c-12.667 0 -24 -3.5 -34 -10.5s-19.667 -19.167 -29 -36.5l-37 14c10.667 21.333 23.667 38.666 39 51.999s35 20 59 20c14.667 0 27.5 -2.83301 38.5 -8.5s21.5 -12.5 31.5 -20.5s20.167 -14.833 30.5 -20.5s21.5 -8.5 33.5 -8.5
s22.167 3.33301 30.5 10s17.5 20 27.5 40z" />
    <glyph glyph-name="odieresis" unicode="&#xf6;" 
d="M250 -8c-41.333 0 -77 10 -107 30s-53.167 47.667 -69.5 83s-24.5 76 -24.5 122c0 46.667 8.16699 87.667 24.5 123s39.5 63 69.5 83s65.667 30 107 30s77 -10 107 -30s53.167 -47.667 69.5 -83s24.5 -76.333 24.5 -123c0 -46 -8.16699 -86.667 -24.5 -122
s-39.5 -63 -69.5 -83s-65.667 -30 -107 -30zM250 34c32 0 59.167 8.33301 81.5 25s39.5 39.667 51.5 69s18 62.666 18 99.999c0 39.333 -6.5 73.5 -19.5 102.5s-30.667 51.5 -53 67.5s-48.5 24 -78.5 24c-30.667 0 -57.334 -8.33301 -80.001 -25s-40 -39.5 -52 -68.5
s-18 -62.5 -18 -100.5s6 -71.667 18 -101s29.333 -52.166 52 -68.499s49.334 -24.5 80.001 -24.5zM168 577c-10.667 0 -19.667 3.66504 -27 10.998s-11 16 -11 26c0 10.667 3.66699 19.834 11 27.501s16.333 11.5 27 11.5c10 0 18.833 -3.66699 26.5 -11
s11.5 -16.666 11.5 -27.999c0 -10 -3.83301 -18.667 -11.5 -26s-16.5 -11 -26.5 -11zM334 576.998c-10.667 0 -19.5 3.49805 -26.5 10.498s-10.5 15.833 -10.5 26.5s3.5 19.834 10.5 27.501s15.833 11.5 26.5 11.5c10 0 18.833 -3.66699 26.5 -11s11.5 -16.666 11.5 -27.999
c0 -10 -3.83301 -18.667 -11.5 -26s-16.5 -11 -26.5 -11z" />
    <glyph glyph-name="divide" unicode="&#xf7;" 
d="M74 292v46h355v-46h-355zM255 444c-8.66699 0 -16.167 3.16699 -22.5 9.5s-9.5 13.833 -9.5 22.5c0 10 3.16699 18.333 9.5 25s13.833 10 22.5 10c9.33301 0 17.333 -3.5 24 -10.5s10 -15.167 10 -24.5c0 -8.66699 -3.33301 -16.167 -10 -22.5s-14.667 -9.5 -24 -9.5z
M256 115c-9.33301 0 -17.332 3.16895 -23.999 9.50195s-10 14.166 -10 23.499c0 10 3.5 18.167 10.5 24.5s14.833 9.5 23.5 9.5c8 0 15.5 -3.5 22.5 -10.5s10.5 -14.833 10.5 -23.5s-3.33301 -16.334 -10 -23.001s-14.334 -10 -23.001 -10z" />
    <glyph glyph-name="oslash" unicode="&#xf8;" 
d="M112 -59l-34 19l305 557l36 -19zM250 -8c-41.333 0 -77 10 -107 30s-53.167 47.667 -69.5 83s-24.5 76 -24.5 122c0 46.667 8.16699 87.667 24.5 123s39.5 63 69.5 83s65.667 30 107 30s77 -10 107 -30s53.167 -47.667 69.5 -83s24.5 -76.333 24.5 -123
c0 -46 -8.16699 -86.667 -24.5 -122s-39.5 -63 -69.5 -83s-65.667 -30 -107 -30zM250 34c32 0 59.167 8.33301 81.5 25s39.5 39.667 51.5 69s18 62.666 18 99.999c0 39.333 -6.5 73.5 -19.5 102.5s-30.667 51.5 -53 67.5s-48.5 24 -78.5 24
c-30.667 0 -57.334 -8.33301 -80.001 -25s-40 -39.5 -52 -68.5s-18 -62.5 -18 -100.5s6 -71.667 18 -101s29.333 -52.166 52 -68.499s49.334 -24.5 80.001 -24.5z" />
    <glyph glyph-name="ugrave" unicode="&#xf9;" 
d="M228 -11c-17.333 0 -33.835 2.50391 -49.502 7.50391s-30 12.833 -43 23.5s-24.167 24.167 -33.5 40.5s-16.5 35.833 -21.5 58.5s-7.5 48.667 -7.5 78l1 256h47v-256c0 -31.333 3.16699 -57.833 9.5 -79.5s15 -38.834 26 -51.501s23.833 -21.834 38.5 -27.501
s30.667 -8.5 48 -8.5c18.667 0 36.167 3.5 52.5 10.5s30.833 17.667 43.5 32s22.667 32.166 30 53.499s11 46.333 11 75v252h47v-371c0 -12 0.5 -25.667 1.5 -41s3.83301 -29 8.5 -41h-47c-3.33301 8 -5.66602 16.667 -6.99902 26s-2.16602 18.833 -2.49902 28.5
s-0.5 18.167 -0.5 25.5c-6.66699 -12.667 -14.5 -24.334 -23.5 -35.001s-19.667 -20.167 -32 -28.5s-26.5 -15 -42.5 -20s-34 -7.5 -54 -7.5zM249.998 510.004l-103 134l40 30l89 -146z" />
    <glyph glyph-name="uacute" unicode="&#xfa;" 
d="M228 -11c-17.333 0 -33.835 2.50391 -49.502 7.50391s-30 12.833 -43 23.5s-24.167 24.167 -33.5 40.5s-16.5 35.833 -21.5 58.5s-7.5 48.667 -7.5 78l1 256h47v-256c0 -31.333 3.16699 -57.833 9.5 -79.5s15 -38.834 26 -51.501s23.833 -21.834 38.5 -27.501
s30.667 -8.5 48 -8.5c18.667 0 36.167 3.5 52.5 10.5s30.833 17.667 43.5 32s22.667 32.166 30 53.499s11 46.333 11 75v252h47v-371c0 -12 0.5 -25.667 1.5 -41s3.83301 -29 8.5 -41h-47c-3.33301 8 -5.66602 16.667 -6.99902 26s-2.16602 18.833 -2.49902 28.5
s-0.5 18.167 -0.5 25.5c-6.66699 -12.667 -14.5 -24.334 -23.5 -35.001s-19.667 -20.167 -32 -28.5s-26.5 -15 -42.5 -20s-34 -7.5 -54 -7.5zM236.998 510.004l-25 18l88 146l40 -30z" />
    <glyph glyph-name="ucircumflex" unicode="&#xfb;" 
d="M228 -11c-17.333 0 -33.835 2.50391 -49.502 7.50391s-30 12.833 -43 23.5s-24.167 24.167 -33.5 40.5s-16.5 35.833 -21.5 58.5s-7.5 48.667 -7.5 78l1 256h47v-256c0 -31.333 3.16699 -57.833 9.5 -79.5s15 -38.834 26 -51.501s23.833 -21.834 38.5 -27.501
s30.667 -8.5 48 -8.5c18.667 0 36.167 3.5 52.5 10.5s30.833 17.667 43.5 32s22.667 32.166 30 53.499s11 46.333 11 75v252h47v-371c0 -12 0.5 -25.667 1.5 -41s3.83301 -29 8.5 -41h-47c-3.33301 8 -5.66602 16.667 -6.99902 26s-2.16602 18.833 -2.49902 28.5
s-0.5 18.167 -0.5 25.5c-6.66699 -12.667 -14.5 -24.334 -23.5 -35.001s-19.667 -20.167 -32 -28.5s-26.5 -15 -42.5 -20s-34 -7.5 -54 -7.5zM126.998 516.004l-28 23l141 140h20l141 -140l-27 -23l-124 119z" />
    <glyph glyph-name="udieresis" unicode="&#xfc;" 
d="M228 -11c-17.333 0 -33.835 2.50391 -49.502 7.50391s-30 12.833 -43 23.5s-24.167 24.167 -33.5 40.5s-16.5 35.833 -21.5 58.5s-7.5 48.667 -7.5 78l1 256h47v-256c0 -31.333 3.16699 -57.833 9.5 -79.5s15 -38.834 26 -51.501s23.833 -21.834 38.5 -27.501
s30.667 -8.5 48 -8.5c18.667 0 36.167 3.5 52.5 10.5s30.833 17.667 43.5 32s22.667 32.166 30 53.499s11 46.333 11 75v252h47v-371c0 -12 0.5 -25.667 1.5 -41s3.83301 -29 8.5 -41h-47c-3.33301 8 -5.66602 16.667 -6.99902 26s-2.16602 18.833 -2.49902 28.5
s-0.5 18.167 -0.5 25.5c-6.66699 -12.667 -14.5 -24.334 -23.5 -35.001s-19.667 -20.167 -32 -28.5s-26.5 -15 -42.5 -20s-34 -7.5 -54 -7.5zM167.998 577.004c-10.667 0 -19.667 3.66504 -27 10.998s-11 16 -11 26c0 10.667 3.66699 19.834 11 27.501s16.333 11.5 27 11.5
c10 0 18.833 -3.66699 26.5 -11s11.5 -16.666 11.5 -27.999c0 -10 -3.83301 -18.667 -11.5 -26s-16.5 -11 -26.5 -11zM333.998 577.002c-10.667 0 -19.5 3.49805 -26.5 10.498s-10.5 15.833 -10.5 26.5s3.5 19.834 10.5 27.501s15.833 11.5 26.5 11.5
c10 0 18.833 -3.66699 26.5 -11s11.5 -16.666 11.5 -27.999c0 -10 -3.83301 -18.667 -11.5 -26s-16.5 -11 -26.5 -11z" />
    <glyph glyph-name="yacute" unicode="&#xfd;" 
d="M125 -174c-21.333 0 -40.498 3.33008 -57.498 9.99707s-32.167 16.334 -45.5 29.001l26 34l6 7l5 -4c0 -4.66699 1.66699 -8.66699 5 -12s9.66602 -8 18.999 -14c6.66699 -3.33301 14 -5.66602 22 -6.99902s16 -2 24 -2c18 0 33.5 4 46.5 12s25.167 22 36.5 42
s23 48.333 35 85l92 269l29 89c9.33301 28.667 15.666 58.334 18.999 89.001h51c-4.66699 -30.667 -12 -61 -22 -91l-32 -92l-114 -322c-16.667 -45.333 -37 -77 -61 -95s-52 -27 -84 -27v0zM54.002 452.997h51l164 -415l-23 -60zM240.002 509.997l-25 18l88 146l40 -30z
" />
    <glyph glyph-name="thorn" unicode="&#xfe;" 
d="M67 665l47.002 -0.00195312h9v-7c-3.33301 -2.66699 -5.5 -6.16699 -6.5 -10.5s-1.5 -12.166 -1.5 -23.499v-268c8 22 19.167 41 33.5 57s31.666 28.333 51.999 37s43.166 13 68.499 13c24 0 47.167 -4.66699 69.5 -14s42.166 -23.5 59.499 -42.5s31 -43 41 -72
s15 -63.167 15 -102.5c0 -41.333 -5.16699 -77.5 -15.5 -108.5s-24.333 -56.333 -42 -76s-37.667 -34.5 -60 -44.5s-45.5 -15 -69.5 -15c-21.333 0 -41.833 3.83301 -61.5 11.5s-37.167 18.834 -52.5 33.501s-27.666 32 -36.999 52v-252h-49v832zM258.002 30.998
c18.667 0 36.667 3.5 54 10.5s33 18.333 47 34s25 36.167 33 61.5s12 56 12 92c0 42 -5.83301 77 -17.5 105s-27.834 49.333 -48.501 64s-44.667 22.334 -72 23.001c-21.333 0.666992 -41.166 -2.83301 -59.499 -10.5s-34.333 -19.834 -48 -36.501
s-24.334 -38.334 -32.001 -65.001s-11.5 -58.667 -11.5 -96c0.666992 -26.667 3.83398 -50.167 9.50098 -70.5s13.334 -37.666 23.001 -51.999s20.667 -25.833 33 -34.5s25.166 -15 38.499 -19s26.333 -6 39 -6v0z" />
    <glyph glyph-name="ydieresis" unicode="&#xff;" 
d="M125 -174c-21.333 0 -40.498 3.33008 -57.498 9.99707s-32.167 16.334 -45.5 29.001l26 34l6 7l5 -4c0 -4.66699 1.66699 -8.66699 5 -12s9.66602 -8 18.999 -14c6.66699 -3.33301 14 -5.66602 22 -6.99902s16 -2 24 -2c18 0 33.5 4 46.5 12s25.167 22 36.5 42
s23 48.333 35 85l92 269l29 89c9.33301 28.667 15.666 58.334 18.999 89.001h51c-4.66699 -30.667 -12 -61 -22 -91l-32 -92l-114 -322c-16.667 -45.333 -37 -77 -61 -95s-52 -27 -84 -27v0zM54.002 452.997h51l164 -415l-23 -60zM171.002 576.997
c-10.667 0 -19.667 3.66504 -27 10.998s-11 16 -11 26c0 10.667 3.66699 19.834 11 27.501s16.333 11.5 27 11.5c10 0 18.833 -3.66699 26.5 -11s11.5 -16.666 11.5 -27.999c0 -10 -3.83301 -18.667 -11.5 -26s-16.5 -11 -26.5 -11zM337.002 576.995
c-10.667 0 -19.5 3.49805 -26.5 10.498s-10.5 15.833 -10.5 26.5s3.5 19.834 10.5 27.501s15.833 11.5 26.5 11.5c10 0 18.833 -3.66699 26.5 -11s11.5 -16.666 11.5 -27.999c0 -10 -3.83301 -18.667 -11.5 -26s-16.5 -11 -26.5 -11z" />
    <glyph glyph-name="Amacron" unicode="&#x100;" 
d="M367 197h-242l10 39h220zM250 522l-175 -522h-49l220 634h8l220 -634h-51zM128 750v38h246v-38h-246z" />
    <glyph glyph-name="amacron" unicode="&#x101;" 
d="M211 -11c-48 0 -85.002 12.167 -111.002 36.5s-39 54.166 -39 89.499c0 24 5.5 45.333 16.5 64s26.333 34.5 46 47.5s42.834 22.833 69.501 29.5s55.334 10 86.001 10c11.333 0 23.5 -0.166992 36.5 -0.5s26.667 -1 41 -2s28.5 -2.5 42.5 -4.5l4 -38
c-12 2 -25 3.5 -39 4.5s-27.833 1.83301 -41.5 2.5s-26.167 1 -37.5 1c-27.333 0 -51.833 -2.5 -73.5 -7.5s-40.167 -12.167 -55.5 -21.5s-26.833 -21 -34.5 -35s-11.5 -30 -11.5 -48c0 -14.667 2.33301 -27.667 7 -39s11.667 -20.666 21 -27.999s20.5 -13 33.5 -17
s28.167 -6 45.5 -6c28 0 52.833 4.66699 74.5 14s40 22.666 55 39.999s26.333 38.166 34 62.499s11.5 51.833 11.5 82.5c0 48 -4.66699 86.333 -14 115s-24.666 49.5 -45.999 62.5s-50 19.5 -86 19.5c-22.667 0 -44.834 -4.5 -66.501 -13.5s-42.5 -23.167 -62.5 -42.5
l-26 31c21.333 21.333 45 37.5 71 48.5s54.667 16.5 86 16.5c30.667 0 57.5 -3.83301 80.5 -11.5s42.333 -20.167 58 -37.5s27.667 -40.166 36 -68.499s12.5 -63.166 12.5 -104.499v-241h-52v92c-6.66699 -16.667 -15.667 -31.5 -27 -44.5s-24.5 -23.833 -39.5 -32.5
s-31.5 -15.167 -49.5 -19.5s-36.667 -6.5 -56 -6.5zM127.998 584v38h246v-38h-246z" />
    <glyph glyph-name="Abreve" unicode="&#x102;" 
d="M367 197h-242l10 39h220zM250 522l-175 -522h-49l220 634h8l220 -634h-51zM348 778l36.002 -14.999c-14.667 -28 -33.334 -49 -56.001 -63s-48.667 -21 -78 -21c-28 0 -53.5 7.16699 -76.5 21.5s-41.833 35.166 -56.5 62.499l36 17
c11.333 -22.667 25.166 -39.5 41.499 -50.5s34.833 -16.5 55.5 -16.5c14 0 27 2.16699 39 6.5s23 11.5 33 21.5s18.667 22.333 26 37z" />
    <glyph glyph-name="abreve" unicode="&#x103;" 
d="M211 -11c-48 0 -85.002 12.167 -111.002 36.5s-39 54.166 -39 89.499c0 24 5.5 45.333 16.5 64s26.333 34.5 46 47.5s42.834 22.833 69.501 29.5s55.334 10 86.001 10c11.333 0 23.5 -0.166992 36.5 -0.5s26.667 -1 41 -2s28.5 -2.5 42.5 -4.5l4 -38
c-12 2 -25 3.5 -39 4.5s-27.833 1.83301 -41.5 2.5s-26.167 1 -37.5 1c-27.333 0 -51.833 -2.5 -73.5 -7.5s-40.167 -12.167 -55.5 -21.5s-26.833 -21 -34.5 -35s-11.5 -30 -11.5 -48c0 -14.667 2.33301 -27.667 7 -39s11.667 -20.666 21 -27.999s20.5 -13 33.5 -17
s28.167 -6 45.5 -6c28 0 52.833 4.66699 74.5 14s40 22.666 55 39.999s26.333 38.166 34 62.499s11.5 51.833 11.5 82.5c0 48 -4.66699 86.333 -14 115s-24.666 49.5 -45.999 62.5s-50 19.5 -86 19.5c-22.667 0 -44.834 -4.5 -66.501 -13.5s-42.5 -23.167 -62.5 -42.5
l-26 31c21.333 21.333 45 37.5 71 48.5s54.667 16.5 86 16.5c30.667 0 57.5 -3.83301 80.5 -11.5s42.333 -20.167 58 -37.5s27.667 -40.166 36 -68.499s12.5 -63.166 12.5 -104.499v-241h-52v92c-6.66699 -16.667 -15.667 -31.5 -27 -44.5s-24.5 -23.833 -39.5 -32.5
s-31.5 -15.167 -49.5 -19.5s-36.667 -6.5 -56 -6.5zM347.998 645l36.002 -14.999c-14.667 -28 -33.334 -49 -56.001 -63s-48.667 -21 -78 -21c-28 0 -53.5 7.16699 -76.5 21.5s-41.833 35.166 -56.5 62.499l36 17c11.333 -22.667 25.166 -39.5 41.499 -50.5
s34.833 -16.5 55.5 -16.5c14 0 27 2.16699 39 6.5s23 11.5 33 21.5s18.667 22.333 26 37z" />
    <glyph glyph-name="Aogonek" unicode="&#x104;" 
d="M367 197h-242l10 39h220zM250 522l-175 -522h-49l220 634h8l220 -634h-51zM442 -188l-10 -35.0039c-19.333 1.33301 -37 5.33301 -53 12s-28.667 15.834 -38 27.501s-14 26.167 -14 43.5c0 18 5 36 15 54s23.833 35.5 41.5 52.5s37.167 32.833 58.5 47.5l23 -14
c-17.333 -13.333 -33 -27.666 -47 -42.999s-25.167 -30.666 -33.5 -45.999s-12.5 -29.666 -12.5 -42.999c0 -17.333 5.66699 -30.5 17 -39.5s29 -14.5 53 -16.5z" />
    <glyph glyph-name="aogonek" unicode="&#x105;" 
d="M211 -11c-48 0 -85.002 12.167 -111.002 36.5s-39 54.166 -39 89.499c0 24 5.5 45.333 16.5 64s26.333 34.5 46 47.5s42.834 22.833 69.501 29.5s55.334 10 86.001 10c11.333 0 23.5 -0.166992 36.5 -0.5s26.667 -1 41 -2s28.5 -2.5 42.5 -4.5l4 -38
c-12 2 -25 3.5 -39 4.5s-27.833 1.83301 -41.5 2.5s-26.167 1 -37.5 1c-27.333 0 -51.833 -2.5 -73.5 -7.5s-40.167 -12.167 -55.5 -21.5s-26.833 -21 -34.5 -35s-11.5 -30 -11.5 -48c0 -14.667 2.33301 -27.667 7 -39s11.667 -20.666 21 -27.999s20.5 -13 33.5 -17
s28.167 -6 45.5 -6c28 0 52.833 4.66699 74.5 14s40 22.666 55 39.999s26.333 38.166 34 62.499s11.5 51.833 11.5 82.5c0 48 -4.66699 86.333 -14 115s-24.666 49.5 -45.999 62.5s-50 19.5 -86 19.5c-22.667 0 -44.834 -4.5 -66.501 -13.5s-42.5 -23.167 -62.5 -42.5
l-26 31c21.333 21.333 45 37.5 71 48.5s54.667 16.5 86 16.5c30.667 0 57.5 -3.83301 80.5 -11.5s42.333 -20.167 58 -37.5s27.667 -40.166 36 -68.499s12.5 -63.166 12.5 -104.499v-241h-52v92c-6.66699 -16.667 -15.667 -31.5 -27 -44.5s-24.5 -23.833 -39.5 -32.5
s-31.5 -15.167 -49.5 -19.5s-36.667 -6.5 -56 -6.5zM389.998 -188l-9.99902 -35.0039c-19.333 1.33301 -36.833 5.33301 -52.5 12s-28.334 15.834 -38.001 27.501s-14.5 26.167 -14.5 43.5c0 18 5.16699 36 15.5 54s24.166 35.5 41.499 52.5s37 32.833 59 47.5l22 -14
c-16.667 -13.333 -32.167 -27.666 -46.5 -42.999s-25.666 -30.666 -33.999 -45.999s-12.5 -29.666 -12.5 -42.999c0 -17.333 5.83301 -30.5 17.5 -39.5s29.167 -14.5 52.5 -16.5z" />
    <glyph glyph-name="Cacute" unicode="&#x106;" 
d="M285 -10c-34 0 -65.3301 6.16504 -93.9971 18.498s-53.834 31.5 -75.501 57.5s-38.667 59 -51 99s-18.5 87.667 -18.5 143c0 48.667 4.5 91.167 13.5 127.5s21.333 66.833 37 91.5s33.5 44.334 53.5 59.001s41.167 25.334 63.5 32.001s44.833 10 67.5 10
c45.333 0 83.166 -11.167 113.499 -33.5s53.5 -52.166 69.5 -89.499l-40 -19l-8 -3l-3 6c2 4.66699 2 9 0 13s-5.66699 10.667 -11 20c-17.333 24.667 -36.333 42 -57 52s-42.667 14.667 -66 14c-25.333 0 -49.333 -5.33301 -72 -16s-42.5 -27.167 -59.5 -49.5
s-30.167 -50.833 -39.5 -85.5s-14 -76 -14 -124c0 -44.667 4.5 -84.334 13.5 -119.001s22 -64 39 -88s37 -42.333 60 -55s48.167 -19 75.5 -19c20 0 38.5 3.33301 55.5 10s32.333 16.167 46 28.5s25.5 27.166 35.5 44.499l36 -23
c-19.333 -33.333 -42.333 -58.666 -69 -75.999s-60.334 -26 -101.001 -26v0zM196.003 666.998l-15 30l153 79l27 -50z" />
    <glyph glyph-name="cacute" unicode="&#x107;" 
d="M280 -11c-32.667 0 -62.3311 6.00195 -88.998 18.002s-49.5 28.667 -68.5 50s-33.833 46.5 -44.5 75.5s-16 60.833 -16 95.5c0 34 5.5 65.333 16.5 94s26.333 53.5 46 74.5s42.834 37.167 69.501 48.5s55.667 17 87 17c39.333 0 73 -6.83301 101 -20.5
s51.333 -33.834 70 -60.501l-30 -29l-6 -7l-5 5c0.666992 4.66699 -0.166016 9.16699 -2.49902 13.5s-7.5 10.5 -15.5 18.5c-14 13.333 -30 23 -48 29s-41.333 9 -70 9c-21.333 0 -41.833 -4.33301 -61.5 -13s-37.167 -21.167 -52.5 -37.5s-27.333 -36 -36 -59
s-13 -48.833 -13 -77.5c0 -30 4.16699 -57.167 12.5 -81.5s20.166 -45.333 35.499 -63s33.666 -31.334 54.999 -41.001s44.333 -14.5 69 -14.5c16.667 0 33 2.5 49 7.5s31.167 12.167 45.5 21.5s27.166 20.333 38.499 33l28 -34c-22.667 -24 -47.834 -42 -75.501 -54
s-57.5 -18 -89.5 -18v0zM273.003 510.002l-25 18l88 146l40 -30z" />
    <glyph glyph-name="Ccircumflex" unicode="&#x108;" 
d="M285 -10c-34 0 -65.3301 6.16504 -93.9971 18.498s-53.834 31.5 -75.501 57.5s-38.667 59 -51 99s-18.5 87.667 -18.5 143c0 48.667 4.5 91.167 13.5 127.5s21.333 66.833 37 91.5s33.5 44.334 53.5 59.001s41.167 25.334 63.5 32.001s44.833 10 67.5 10
c45.333 0 83.166 -11.167 113.499 -33.5s53.5 -52.166 69.5 -89.499l-40 -19l-8 -3l-3 6c2 4.66699 2 9 0 13s-5.66699 10.667 -11 20c-17.333 24.667 -36.333 42 -57 52s-42.667 14.667 -66 14c-25.333 0 -49.333 -5.33301 -72 -16s-42.5 -27.167 -59.5 -49.5
s-30.167 -50.833 -39.5 -85.5s-14 -76 -14 -124c0 -44.667 4.5 -84.334 13.5 -119.001s22 -64 39 -88s37 -42.333 60 -55s48.167 -19 75.5 -19c20 0 38.5 3.33301 55.5 10s32.333 16.167 46 28.5s25.5 27.166 35.5 44.499l36 -23
c-19.333 -33.333 -42.333 -58.666 -69 -75.999s-60.334 -26 -101.001 -26v0zM141.003 666.998l-23 27l138 89h16l144 -90l-22 -26l-128 71z" />
    <glyph glyph-name="ccircumflex" unicode="&#x109;" 
d="M280 -11c-32.667 0 -62.3311 6.00195 -88.998 18.002s-49.5 28.667 -68.5 50s-33.833 46.5 -44.5 75.5s-16 60.833 -16 95.5c0 34 5.5 65.333 16.5 94s26.333 53.5 46 74.5s42.834 37.167 69.501 48.5s55.667 17 87 17c39.333 0 73 -6.83301 101 -20.5
s51.333 -33.834 70 -60.501l-30 -29l-6 -7l-5 5c0.666992 4.66699 -0.166016 9.16699 -2.49902 13.5s-7.5 10.5 -15.5 18.5c-14 13.333 -30 23 -48 29s-41.333 9 -70 9c-21.333 0 -41.833 -4.33301 -61.5 -13s-37.167 -21.167 -52.5 -37.5s-27.333 -36 -36 -59
s-13 -48.833 -13 -77.5c0 -30 4.16699 -57.167 12.5 -81.5s20.166 -45.333 35.499 -63s33.666 -31.334 54.999 -41.001s44.333 -14.5 69 -14.5c16.667 0 33 2.5 49 7.5s31.167 12.167 45.5 21.5s27.166 20.333 38.499 33l28 -34c-22.667 -24 -47.834 -42 -75.501 -54
s-57.5 -18 -89.5 -18v0zM163.003 516.002l-28 23l141 140h20l141 -140l-27 -23l-124 119z" />
    <glyph glyph-name="Cdotaccent" unicode="&#x10a;" 
d="M285 -10c-34 0 -65.3301 6.16504 -93.9971 18.498s-53.834 31.5 -75.501 57.5s-38.667 59 -51 99s-18.5 87.667 -18.5 143c0 48.667 4.5 91.167 13.5 127.5s21.333 66.833 37 91.5s33.5 44.334 53.5 59.001s41.167 25.334 63.5 32.001s44.833 10 67.5 10
c45.333 0 83.166 -11.167 113.499 -33.5s53.5 -52.166 69.5 -89.499l-40 -19l-8 -3l-3 6c2 4.66699 2 9 0 13s-5.66699 10.667 -11 20c-17.333 24.667 -36.333 42 -57 52s-42.667 14.667 -66 14c-25.333 0 -49.333 -5.33301 -72 -16s-42.5 -27.167 -59.5 -49.5
s-30.167 -50.833 -39.5 -85.5s-14 -76 -14 -124c0 -44.667 4.5 -84.334 13.5 -119.001s22 -64 39 -88s37 -42.333 60 -55s48.167 -19 75.5 -19c20 0 38.5 3.33301 55.5 10s32.333 16.167 46 28.5s25.5 27.166 35.5 44.499l36 -23
c-19.333 -33.333 -42.333 -58.666 -69 -75.999s-60.334 -26 -101.001 -26v0zM270.003 695.998c-10 0 -18.833 3.66895 -26.5 11.002s-11.5 16.333 -11.5 27c0 11.333 3.66699 20.666 11 27.999s16.333 11 27 11s19.834 -3.83301 27.501 -11.5s11.5 -16.834 11.5 -27.501
c0 -10 -3.83301 -18.833 -11.5 -26.5s-16.834 -11.5 -27.501 -11.5z" />
    <glyph glyph-name="cdotaccent" unicode="&#x10b;" 
d="M280 -11c-32.667 0 -62.3311 6.00195 -88.998 18.002s-49.5 28.667 -68.5 50s-33.833 46.5 -44.5 75.5s-16 60.833 -16 95.5c0 34 5.5 65.333 16.5 94s26.333 53.5 46 74.5s42.834 37.167 69.501 48.5s55.667 17 87 17c39.333 0 73 -6.83301 101 -20.5
s51.333 -33.834 70 -60.501l-30 -29l-6 -7l-5 5c0.666992 4.66699 -0.166016 9.16699 -2.49902 13.5s-7.5 10.5 -15.5 18.5c-14 13.333 -30 23 -48 29s-41.333 9 -70 9c-21.333 0 -41.833 -4.33301 -61.5 -13s-37.167 -21.167 -52.5 -37.5s-27.333 -36 -36 -59
s-13 -48.833 -13 -77.5c0 -30 4.16699 -57.167 12.5 -81.5s20.166 -45.333 35.499 -63s33.666 -31.334 54.999 -41.001s44.333 -14.5 69 -14.5c16.667 0 33 2.5 49 7.5s31.167 12.167 45.5 21.5s27.166 20.333 38.499 33l28 -34c-22.667 -24 -47.834 -42 -75.501 -54
s-57.5 -18 -89.5 -18v0zM285.003 566.002c-10 0 -18.833 3.66895 -26.5 11.002s-11.5 16.333 -11.5 27c0 11.333 3.66699 20.666 11 27.999s16.333 11 27 11s19.834 -3.83301 27.501 -11.5s11.5 -16.834 11.5 -27.501c0 -10 -3.83301 -18.833 -11.5 -26.5
s-16.834 -11.5 -27.501 -11.5z" />
    <glyph glyph-name="Ccaron" unicode="&#x10c;" 
d="M285 -10c-34 0 -65.3301 6.16504 -93.9971 18.498s-53.834 31.5 -75.501 57.5s-38.667 59 -51 99s-18.5 87.667 -18.5 143c0 48.667 4.5 91.167 13.5 127.5s21.333 66.833 37 91.5s33.5 44.334 53.5 59.001s41.167 25.334 63.5 32.001s44.833 10 67.5 10
c45.333 0 83.166 -11.167 113.499 -33.5s53.5 -52.166 69.5 -89.499l-40 -19l-8 -3l-3 6c2 4.66699 2 9 0 13s-5.66699 10.667 -11 20c-17.333 24.667 -36.333 42 -57 52s-42.667 14.667 -66 14c-25.333 0 -49.333 -5.33301 -72 -16s-42.5 -27.167 -59.5 -49.5
s-30.167 -50.833 -39.5 -85.5s-14 -76 -14 -124c0 -44.667 4.5 -84.334 13.5 -119.001s22 -64 39 -88s37 -42.333 60 -55s48.167 -19 75.5 -19c20 0 38.5 3.33301 55.5 10s32.333 16.167 46 28.5s25.5 27.166 35.5 44.499l36 -23
c-19.333 -33.333 -42.333 -58.666 -69 -75.999s-60.334 -26 -101.001 -26v0zM392.003 779.998l23 -27l-138 -90h-16l-144 90l22 26l128 -71z" />
    <glyph glyph-name="ccaron" unicode="&#x10d;" 
d="M280 -11c-32.667 0 -62.3311 6.00195 -88.998 18.002s-49.5 28.667 -68.5 50s-33.833 46.5 -44.5 75.5s-16 60.833 -16 95.5c0 34 5.5 65.333 16.5 94s26.333 53.5 46 74.5s42.834 37.167 69.501 48.5s55.667 17 87 17c39.333 0 73 -6.83301 101 -20.5
s51.333 -33.834 70 -60.501l-30 -29l-6 -7l-5 5c0.666992 4.66699 -0.166016 9.16699 -2.49902 13.5s-7.5 10.5 -15.5 18.5c-14 13.333 -30 23 -48 29s-41.333 9 -70 9c-21.333 0 -41.833 -4.33301 -61.5 -13s-37.167 -21.167 -52.5 -37.5s-27.333 -36 -36 -59
s-13 -48.833 -13 -77.5c0 -30 4.16699 -57.167 12.5 -81.5s20.166 -45.333 35.499 -63s33.666 -31.334 54.999 -41.001s44.333 -14.5 69 -14.5c16.667 0 33 2.5 49 7.5s31.167 12.167 45.5 21.5s27.166 20.333 38.499 33l28 -34c-22.667 -24 -47.834 -42 -75.501 -54
s-57.5 -18 -89.5 -18v0zM162.003 687.002l123 -118l124 118l27 -23l-141 -140h-20l-141 140z" />
    <glyph glyph-name="Dcaron" unicode="&#x10e;" 
d="M64 -1l0.00195312 624h135c36 0 66.167 -3.33301 90.5 -10s45.166 -16.167 62.499 -28.5s32.666 -27.833 45.999 -46.5c14 -18.667 25.167 -39.667 33.5 -63s14.333 -48.833 18 -76.5s5.5 -57.834 5.5 -90.501c-1.33301 -48.667 -7 -92.167 -17 -130.5
s-25.5 -70.666 -46.5 -96.999s-48.167 -46.5 -81.5 -60.5s-74.333 -21 -123 -21h-123zM111.002 39l72.999 -0.000976562c54 0 97.333 10.167 130 30.5s56.334 50.333 71.001 90s22 87.834 22 144.501c0 61.333 -6.83301 112.5 -20.5 153.5s-36 72 -67 93
s-72.5 31.5 -124.5 31.5h-84v-543zM342.001 779.999l23 -27l-138 -90h-16l-144 90l22 26l128 -71z" />
    <glyph glyph-name="dcaron" unicode="&#x10f;" 
d="M191 -9c-19.333 0 -38 4.33203 -56 12.999s-34.167 22.334 -48.5 41.001s-25.666 43.5 -33.999 74.5s-12.5 68.833 -12.5 113.5c0 42.667 4.33301 79 13 109s20.167 54 34.5 72s30.666 31 48.999 39s37.5 12 57.5 12c28 0 51.833 -8.5 71.5 -25.5
s33.167 -38.833 40.5 -65.5v291h42h9v-7c-4 -2.66699 -6.5 -6.16699 -7.5 -10.5s-1.16699 -12.166 -0.5 -23.499v-553c0 -12 0.333008 -23.833 1 -35.5s3 -23.5 7 -35.5l-44 1c-2.66699 6.66699 -4.5 14.5 -5.5 23.5s-1.66699 18.167 -2 27.5s-0.5 18 -0.5 26
c-6 -15.333 -14.167 -29.833 -24.5 -43.5s-23 -24.334 -38 -32.001s-32.167 -11.5 -51.5 -11.5v0zM198 32.999c23.333 0 42.833 7.50098 58.5 22.501s27.5 37.333 35.5 67s12 65.834 12 108.501c0 45.333 -5 82.166 -15 110.499s-23 49.166 -39 62.499s-34 20 -54 20
c-16 0 -31 -3.66699 -45 -11s-26 -18.333 -36 -33s-17.667 -33.5 -23 -56.5s-8 -50.5 -8 -82.5c0 -38 3 -70.333 9 -97s14.167 -48 24.5 -64s22.5 -27.833 36.5 -35.5s28.667 -11.5 44 -11.5v0zM433 664c11.333 0 20.167 -4.50098 26.5 -13.501s9.5 -19.167 9.5 -30.5
c0 -15.333 -2.16699 -31.333 -6.5 -48s-11 -33.834 -20 -51.501s-20.167 -35.5 -33.5 -53.5l-24 18c9.33301 12 16.833 22.833 22.5 32.5s10 18.834 13 27.501s4.5 17.667 4.5 27c0 8 -2.16699 14.167 -6.5 18.5s-8.83301 9.33301 -13.5 15s-7 13.834 -7 24.501
c0 8 3 15.667 9 23s14.667 11 26 11z" />
    <glyph glyph-name="Dcroat" unicode="&#x110;" 
d="M92 -1l-0.00195312 311.005h-53v41h53v272h131c29.333 0 54.833 -3.66699 76.5 -11s40.334 -16.833 56.001 -28.5s28.834 -24.334 39.501 -38.001s19.334 -26.834 26.001 -39.501c7.33301 -12 14.166 -27.333 20.499 -46s11.5 -40.334 15.5 -65.001s6 -53 6 -85
c0 -49.333 -6 -93.333 -18 -132s-29.167 -71.334 -51.5 -98.001s-49 -46.834 -80 -60.501s-65.833 -20.5 -104.5 -20.5h-117zM137.998 41.0049l69 0.000976562c44 0 81.5 10.833 112.5 32.5s54.833 52.5 71.5 92.5s25 87 25 141c0 55.333 -7.33301 103.666 -22 144.999
s-36.5 73.333 -65.5 96s-65.5 34 -109.5 34h-81v-231h111v-41h-111v-269z" />
    <glyph glyph-name="dcroat" unicode="&#x111;" 
d="M239 -10c-23.333 0 -46.3369 5.00098 -69.0039 15.001s-43 25 -61 45s-32.333 45.167 -43 75.5s-16 65.833 -16 106.5c0 42 5.66699 77.667 17 107s26.5 53.333 45.5 72s39.833 32.334 62.5 41.001s46 13 70 13c22.667 0 43.334 -4.33301 62.001 -13
s35 -20.334 49 -35.001s24.333 -31.334 31 -50.001v298h45h9v-7c-3.33301 -2.66699 -5.5 -6.16699 -6.5 -10.5s-1.5 -12.166 -1.5 -23.499l1 -553c0 -12 0.5 -23.833 1.5 -35.5s3.83301 -23.5 8.5 -35.5l-48 1c-3.33301 8 -5.66602 17.167 -6.99902 27.5
s-2.16602 20.666 -2.49902 30.999s-0.5 19.5 -0.5 27.5c-7.33301 -16 -17.666 -31.5 -30.999 -46.5s-29.5 -27.167 -48.5 -36.5s-41.5 -14 -67.5 -14v0zM246.996 33.001c24 0 44.499 4.83594 61.499 14.5029s31.167 23.5 42.5 41.5s19.833 39 25.5 63s8.5 50.333 8.5 79
c0 43.333 -6.33301 79.166 -19 107.499s-29.5 49.666 -50.5 63.999s-44.167 21.5 -69.5 21.5c-21.333 0 -41 -3.83301 -59 -11.5s-33.667 -19.334 -47 -35.001s-23.666 -35 -30.999 -58s-11 -49.833 -11 -80.5c0 -45.333 6.5 -83.333 19.5 -114s30.667 -53.667 53 -69
s47.833 -23 76.5 -23v0zM232.995 527.004v41h268v-41h-268z" />
    <glyph glyph-name="Emacron" unicode="&#x112;" 
d="M67 0v624h364v-43h-318v-234h263v-44h-263v-260h315v-43h-361zM134 750v38h246v-38h-246z" />
    <glyph glyph-name="emacron" unicode="&#x113;" 
d="M268 -10c-32 0 -61.002 5.33301 -87.002 16s-48.333 26.167 -67 46.5s-33.167 45 -43.5 74s-15.5 61.833 -15.5 98.5c0 38.667 5.16699 72.834 15.5 102.501s24.666 54.667 42.999 75s39.5 35.666 63.5 45.999s50 15.5 78 15.5c26 0 50.167 -4.33301 72.5 -13
s41.833 -21.667 58.5 -39s29.667 -39.333 39 -66s14 -58 14 -94v-13.5c0 -3.66699 -0.333008 -8.16699 -1 -13.5h-336c0.666992 -32.667 5.33398 -61.167 14.001 -85.5s20.334 -44.5 35.001 -60.5s32 -28 52 -36s42 -12 66 -12c19.333 0 36.666 2.33301 51.999 7
s29.333 11.5 42 20.5s24.334 19.5 35.001 31.5l30 -27c-12.667 -15.333 -27.167 -28.5 -43.5 -39.5s-34.166 -19.333 -53.499 -25s-40.333 -8.5 -63 -8.5zM103.998 265l286 0.000976562c0 25.333 -3.33301 48 -10 68s-16 36.833 -28 50.5s-26.333 24 -43 31
s-35 10.5 -55 10.5c-21.333 0 -40.666 -3.66699 -57.999 -11s-32.5 -18 -45.5 -32s-23.333 -30.833 -31 -50.5s-12.834 -41.834 -15.501 -66.501zM137.998 584.001v38h246v-38h-246z" />
    <glyph glyph-name="Ebreve" unicode="&#x114;" 
d="M67 0v624h364v-43h-318v-234h263v-44h-263v-260h315v-43h-361zM354 778l36.002 -14.999c-14.667 -28 -33.334 -49 -56.001 -63s-48.667 -21 -78 -21c-28 0 -53.5 7.16699 -76.5 21.5s-41.833 35.166 -56.5 62.499l36 17c11.333 -22.667 25.166 -39.5 41.499 -50.5
s34.833 -16.5 55.5 -16.5c14 0 27 2.16699 39 6.5s23 11.5 33 21.5s18.667 22.333 26 37z" />
    <glyph glyph-name="ebreve" unicode="&#x115;" 
d="M268 -10c-32 0 -61.002 5.33301 -87.002 16s-48.333 26.167 -67 46.5s-33.167 45 -43.5 74s-15.5 61.833 -15.5 98.5c0 38.667 5.16699 72.834 15.5 102.501s24.666 54.667 42.999 75s39.5 35.666 63.5 45.999s50 15.5 78 15.5c26 0 50.167 -4.33301 72.5 -13
s41.833 -21.667 58.5 -39s29.667 -39.333 39 -66s14 -58 14 -94v-13.5c0 -3.66699 -0.333008 -8.16699 -1 -13.5h-336c0.666992 -32.667 5.33398 -61.167 14.001 -85.5s20.334 -44.5 35.001 -60.5s32 -28 52 -36s42 -12 66 -12c19.333 0 36.666 2.33301 51.999 7
s29.333 11.5 42 20.5s24.334 19.5 35.001 31.5l30 -27c-12.667 -15.333 -27.167 -28.5 -43.5 -39.5s-34.166 -19.333 -53.499 -25s-40.333 -8.5 -63 -8.5zM103.998 265l286 0.000976562c0 25.333 -3.33301 48 -10 68s-16 36.833 -28 50.5s-26.333 24 -43 31
s-35 10.5 -55 10.5c-21.333 0 -40.666 -3.66699 -57.999 -11s-32.5 -18 -45.5 -32s-23.333 -30.833 -31 -50.5s-12.834 -41.834 -15.501 -66.501zM357.998 645.001l36.002 -14.999c-14.667 -28 -33.334 -49 -56.001 -63s-48.667 -21 -78 -21c-28 0 -53.5 7.16699 -76.5 21.5
s-41.833 35.166 -56.5 62.499l36 17c11.333 -22.667 25.166 -39.5 41.499 -50.5s34.833 -16.5 55.5 -16.5c14 0 27 2.16699 39 6.5s23 11.5 33 21.5s18.667 22.333 26 37z" />
    <glyph glyph-name="Edotaccent" unicode="&#x116;" 
d="M67 0v624h364v-43h-318v-234h263v-44h-263v-260h315v-43h-361zM256 696c-10 0 -18.833 3.66895 -26.5 11.002s-11.5 16.333 -11.5 27c0 11.333 3.66699 20.666 11 27.999s16.333 11 27 11s19.834 -3.83301 27.501 -11.5s11.5 -16.834 11.5 -27.501
c0 -10 -3.83301 -18.833 -11.5 -26.5s-16.834 -11.5 -27.501 -11.5z" />
    <glyph glyph-name="edotaccent" unicode="&#x117;" 
d="M268 -10c-32 0 -61.002 5.33301 -87.002 16s-48.333 26.167 -67 46.5s-33.167 45 -43.5 74s-15.5 61.833 -15.5 98.5c0 38.667 5.16699 72.834 15.5 102.501s24.666 54.667 42.999 75s39.5 35.666 63.5 45.999s50 15.5 78 15.5c26 0 50.167 -4.33301 72.5 -13
s41.833 -21.667 58.5 -39s29.667 -39.333 39 -66s14 -58 14 -94v-13.5c0 -3.66699 -0.333008 -8.16699 -1 -13.5h-336c0.666992 -32.667 5.33398 -61.167 14.001 -85.5s20.334 -44.5 35.001 -60.5s32 -28 52 -36s42 -12 66 -12c19.333 0 36.666 2.33301 51.999 7
s29.333 11.5 42 20.5s24.334 19.5 35.001 31.5l30 -27c-12.667 -15.333 -27.167 -28.5 -43.5 -39.5s-34.166 -19.333 -53.499 -25s-40.333 -8.5 -63 -8.5zM103.998 265l286 0.000976562c0 25.333 -3.33301 48 -10 68s-16 36.833 -28 50.5s-26.333 24 -43 31
s-35 10.5 -55 10.5c-21.333 0 -40.666 -3.66699 -57.999 -11s-32.5 -18 -45.5 -32s-23.333 -30.833 -31 -50.5s-12.834 -41.834 -15.501 -66.501zM258.998 566.001c-10 0 -18.833 3.66895 -26.5 11.002s-11.5 16.333 -11.5 27c0 11.333 3.66699 20.666 11 27.999
s16.333 11 27 11s19.834 -3.83301 27.501 -11.5s11.5 -16.834 11.5 -27.501c0 -10 -3.83301 -18.833 -11.5 -26.5s-16.834 -11.5 -27.501 -11.5z" />
    <glyph glyph-name="Eogonek" unicode="&#x118;" 
d="M67 0v624h364v-43h-318v-234h263v-44h-263v-260h315v-43h-361zM387 -188l-9.99902 -35.0039c-19.333 1.33301 -36.833 5.33301 -52.5 12s-28.334 15.834 -38.001 27.501s-14.5 26.167 -14.5 43.5c0 18 5.16699 36 15.5 54s24.166 35.5 41.499 52.5s37 32.833 59 47.5
l22 -14c-16.667 -13.333 -32.167 -27.666 -46.5 -42.999s-25.666 -30.666 -33.999 -45.999s-12.5 -29.666 -12.5 -42.999c0 -17.333 5.83301 -30.5 17.5 -39.5s29.167 -14.5 52.5 -16.5z" />
    <glyph glyph-name="eogonek" unicode="&#x119;" 
d="M268 -10c-32 0 -61.002 5.33301 -87.002 16s-48.333 26.167 -67 46.5s-33.167 45 -43.5 74s-15.5 61.833 -15.5 98.5c0 38.667 5.16699 72.834 15.5 102.501s24.666 54.667 42.999 75s39.5 35.666 63.5 45.999s50 15.5 78 15.5c26 0 50.167 -4.33301 72.5 -13
s41.833 -21.667 58.5 -39s29.667 -39.333 39 -66s14 -58 14 -94v-13.5c0 -3.66699 -0.333008 -8.16699 -1 -13.5h-336c0.666992 -32.667 5.33398 -61.167 14.001 -85.5s20.334 -44.5 35.001 -60.5s32 -28 52 -36s42 -12 66 -12c19.333 0 36.666 2.33301 51.999 7
s29.333 11.5 42 20.5s24.334 19.5 35.001 31.5l30 -27c-12.667 -15.333 -27.167 -28.5 -43.5 -39.5s-34.166 -19.333 -53.499 -25s-40.333 -8.5 -63 -8.5zM103.998 265l286 0.000976562c0 25.333 -3.33301 48 -10 68s-16 36.833 -28 50.5s-26.333 24 -43 31
s-35 10.5 -55 10.5c-21.333 0 -40.666 -3.66699 -57.999 -11s-32.5 -18 -45.5 -32s-23.333 -30.833 -31 -50.5s-12.834 -41.834 -15.501 -66.501zM333.998 -178.999l-9.99902 -35.0039c-19.333 1.33301 -36.833 5.33301 -52.5 12s-28.334 15.834 -38.001 27.501
s-14.5 26.167 -14.5 43.5c0 18 5.16699 36 15.5 54s24.166 35.5 41.499 52.5s37 32.833 59 47.5l22 -14c-16.667 -13.333 -32.167 -27.666 -46.5 -42.999s-25.666 -30.666 -33.999 -45.999s-12.5 -29.666 -12.5 -42.999c0 -17.333 5.83301 -30.5 17.5 -39.5
s29.167 -14.5 52.5 -16.5z" />
    <glyph glyph-name="Ecaron" unicode="&#x11a;" 
d="M67 0v624h364v-43h-318v-234h263v-44h-263v-260h315v-43h-361zM378 780l23 -27l-138 -90h-16l-144 90l22 26l128 -71z" />
    <glyph glyph-name="ecaron" unicode="&#x11b;" 
d="M268 -10c-32 0 -61.002 5.33301 -87.002 16s-48.333 26.167 -67 46.5s-33.167 45 -43.5 74s-15.5 61.833 -15.5 98.5c0 38.667 5.16699 72.834 15.5 102.501s24.666 54.667 42.999 75s39.5 35.666 63.5 45.999s50 15.5 78 15.5c26 0 50.167 -4.33301 72.5 -13
s41.833 -21.667 58.5 -39s29.667 -39.333 39 -66s14 -58 14 -94v-13.5c0 -3.66699 -0.333008 -8.16699 -1 -13.5h-336c0.666992 -32.667 5.33398 -61.167 14.001 -85.5s20.334 -44.5 35.001 -60.5s32 -28 52 -36s42 -12 66 -12c19.333 0 36.666 2.33301 51.999 7
s29.333 11.5 42 20.5s24.334 19.5 35.001 31.5l30 -27c-12.667 -15.333 -27.167 -28.5 -43.5 -39.5s-34.166 -19.333 -53.499 -25s-40.333 -8.5 -63 -8.5zM103.998 265l286 0.000976562c0 25.333 -3.33301 48 -10 68s-16 36.833 -28 50.5s-26.333 24 -43 31
s-35 10.5 -55 10.5c-21.333 0 -40.666 -3.66699 -57.999 -11s-32.5 -18 -45.5 -32s-23.333 -30.833 -31 -50.5s-12.834 -41.834 -15.501 -66.501zM135.998 687.001l123 -118l124 118l27 -23l-141 -140h-20l-141 140z" />
    <glyph glyph-name="Gcircumflex" unicode="&#x11c;" 
d="M277 -10c-49.333 0 -91.3311 12.9941 -125.998 38.9941s-60.834 62.667 -78.501 110s-26.5 102.333 -26.5 165c-0.666992 54 3.83301 99.833 13.5 137.5s22.667 68.834 39 93.501s34.666 44 54.999 58s41 23.667 62 29s40.5 8 58.5 8c24.667 0 48 -4.5 70 -13.5
s42 -21.167 60 -36.5s32.667 -33.666 44 -54.999l-31 -27l-7 -6l-5 5c1.33301 4.66699 1 9.16699 -1 13.5s-6.66699 10.833 -14 19.5c-10.667 12.667 -22 23.334 -34 32.001s-24.833 15 -38.5 19s-28.5 6 -44.5 6c-18 0 -35.667 -2.66699 -53 -8
s-33.5 -14.166 -48.5 -26.499s-28.333 -28.833 -40 -49.5s-20.834 -46.167 -27.501 -76.5s-10 -66.166 -10 -107.499c0 -45.333 4 -85.666 12 -120.999s19.667 -65.166 35 -89.499s34.333 -43 57 -56s49 -19.5 79 -19.5c11.333 0 22.666 1 33.999 3s22.5 5 33.5 9
s21.667 9.16699 32 15.5s19.833 13.166 28.5 20.499v167h-123v43h168v-236c-29.333 -21.333 -57.666 -37.5 -84.999 -48.5s-56.666 -16.5 -87.999 -16.5v0zM145.002 666.994l-23 27l138 89h16l144 -90l-22 -26l-128 71z" />
    <glyph glyph-name="gcircumflex" unicode="&#x11d;" 
d="M248 -172c-34 0 -63.665 2.66504 -88.998 7.99805s-46.5 13 -63.5 23s-29.833 22.333 -38.5 37s-13 31 -13 49c0 20 3.83301 37.167 11.5 51.5s17.667 26.5 30 36.5s26.166 18.667 41.499 26l26 -14c-12.667 -7.33301 -23.667 -15.166 -33 -23.499
s-16.666 -18.333 -21.999 -30s-8 -25.834 -8 -42.501c0 -12.667 3.16699 -24 9.5 -34s16 -18.5 29 -25.5s29.333 -12.5 49 -16.5s43.167 -6 70.5 -6c34.667 0 63 4 85 12s38.667 18.833 50 32.5s17 28.834 17 45.501c0.666992 16.667 -1.83301 30.167 -7.5 40.5
s-17.5 18 -35.5 23s-45.667 7.5 -83 7.5c-23.333 0 -45 0.833008 -65 2.5s-37.833 4.33398 -53.5 8.00098s-29 8.83398 -40 15.501s-19.5 14.667 -25.5 24s-9 20.666 -9 33.999c0 16.667 5 31.834 15 45.501s23.333 27.834 40 42.501l24 -20
c-8.66699 -8.66699 -15.667 -16 -21 -22s-9.16602 -11.5 -11.499 -16.5s-3.5 -11.167 -3.5 -18.5c0 -14 6 -24.833 18 -32.5s30.167 -12.834 54.5 -15.501s54.166 -4 89.499 -4c33.333 0 60.5 -2.5 81.5 -7.5s37.167 -12 48.5 -21s19.166 -20.167 23.499 -33.5
s6.5 -28.333 6.5 -45c0 -18 -4 -35 -12 -51s-20 -30.333 -36 -43s-36.333 -22.834 -61 -30.501s-54.334 -11.5 -89.001 -11.5zM232.002 151.998c-30.667 0 -57.834 7 -81.501 21s-42.167 33 -55.5 57s-20 50.667 -20 80c0 28.667 6.66699 54.834 20 78.501
s31.833 42.5 55.5 56.5s50.834 21 81.501 21c32 0 59.667 -7 83 -21s41.5 -32.833 54.5 -56.5s19.5 -49.834 19.5 -78.501c0 -29.333 -6.33301 -56 -19 -80s-30.667 -43 -54 -57s-51.333 -21 -84 -21zM232.002 193.998c23.333 0 43.668 4.83203 61.001 14.499
s30.666 23.167 39.999 40.5s14 37.333 14 60s-5 42.667 -15 60s-23.667 31 -41 41s-37 15 -59 15c-21.333 0 -40.666 -5 -57.999 -15s-31 -23.667 -41 -41s-15 -37 -15 -59c0 -24 5 -44.667 15 -62s23.667 -30.666 41 -39.999s36.666 -14 57.999 -14zM361.004 386.997
l-19.999 25c16 18.667 33.667 32 53 40s42.666 11 69.999 9l5 -39c-22.667 2 -42.667 0.666992 -60 -4s-33.333 -15 -48 -31zM103.005 515.997l-28 23l141 140h20l141 -140l-27 -23l-124 119z" />
    <glyph glyph-name="Gbreve" unicode="&#x11e;" 
d="M277 -10c-49.333 0 -91.3311 12.9941 -125.998 38.9941s-60.834 62.667 -78.501 110s-26.5 102.333 -26.5 165c-0.666992 54 3.83301 99.833 13.5 137.5s22.667 68.834 39 93.501s34.666 44 54.999 58s41 23.667 62 29s40.5 8 58.5 8c24.667 0 48 -4.5 70 -13.5
s42 -21.167 60 -36.5s32.667 -33.666 44 -54.999l-31 -27l-7 -6l-5 5c1.33301 4.66699 1 9.16699 -1 13.5s-6.66699 10.833 -14 19.5c-10.667 12.667 -22 23.334 -34 32.001s-24.833 15 -38.5 19s-28.5 6 -44.5 6c-18 0 -35.667 -2.66699 -53 -8
s-33.5 -14.166 -48.5 -26.499s-28.333 -28.833 -40 -49.5s-20.834 -46.167 -27.501 -76.5s-10 -66.166 -10 -107.499c0 -45.333 4 -85.666 12 -120.999s19.667 -65.166 35 -89.499s34.333 -43 57 -56s49 -19.5 79 -19.5c11.333 0 22.666 1 33.999 3s22.5 5 33.5 9
s21.667 9.16699 32 15.5s19.833 13.166 28.5 20.499v167h-123v43h168v-236c-29.333 -21.333 -57.666 -37.5 -84.999 -48.5s-56.666 -16.5 -87.999 -16.5v0zM372.002 777.994l36.002 -14.999c-14.667 -28 -33.334 -49 -56.001 -63s-48.667 -21 -78 -21
c-28 0 -53.5 7.16699 -76.5 21.5s-41.833 35.166 -56.5 62.499l36 17c11.333 -22.667 25.166 -39.5 41.499 -50.5s34.833 -16.5 55.5 -16.5c14 0 27 2.16699 39 6.5s23 11.5 33 21.5s18.667 22.333 26 37z" />
    <glyph glyph-name="gbreve" unicode="&#x11f;" 
d="M248 -172c-34 0 -63.665 2.66504 -88.998 7.99805s-46.5 13 -63.5 23s-29.833 22.333 -38.5 37s-13 31 -13 49c0 20 3.83301 37.167 11.5 51.5s17.667 26.5 30 36.5s26.166 18.667 41.499 26l26 -14c-12.667 -7.33301 -23.667 -15.166 -33 -23.499
s-16.666 -18.333 -21.999 -30s-8 -25.834 -8 -42.501c0 -12.667 3.16699 -24 9.5 -34s16 -18.5 29 -25.5s29.333 -12.5 49 -16.5s43.167 -6 70.5 -6c34.667 0 63 4 85 12s38.667 18.833 50 32.5s17 28.834 17 45.501c0.666992 16.667 -1.83301 30.167 -7.5 40.5
s-17.5 18 -35.5 23s-45.667 7.5 -83 7.5c-23.333 0 -45 0.833008 -65 2.5s-37.833 4.33398 -53.5 8.00098s-29 8.83398 -40 15.501s-19.5 14.667 -25.5 24s-9 20.666 -9 33.999c0 16.667 5 31.834 15 45.501s23.333 27.834 40 42.501l24 -20
c-8.66699 -8.66699 -15.667 -16 -21 -22s-9.16602 -11.5 -11.499 -16.5s-3.5 -11.167 -3.5 -18.5c0 -14 6 -24.833 18 -32.5s30.167 -12.834 54.5 -15.501s54.166 -4 89.499 -4c33.333 0 60.5 -2.5 81.5 -7.5s37.167 -12 48.5 -21s19.166 -20.167 23.499 -33.5
s6.5 -28.333 6.5 -45c0 -18 -4 -35 -12 -51s-20 -30.333 -36 -43s-36.333 -22.834 -61 -30.501s-54.334 -11.5 -89.001 -11.5zM232.002 151.998c-30.667 0 -57.834 7 -81.501 21s-42.167 33 -55.5 57s-20 50.667 -20 80c0 28.667 6.66699 54.834 20 78.501
s31.833 42.5 55.5 56.5s50.834 21 81.501 21c32 0 59.667 -7 83 -21s41.5 -32.833 54.5 -56.5s19.5 -49.834 19.5 -78.501c0 -29.333 -6.33301 -56 -19 -80s-30.667 -43 -54 -57s-51.333 -21 -84 -21zM232.002 193.998c23.333 0 43.668 4.83203 61.001 14.499
s30.666 23.167 39.999 40.5s14 37.333 14 60s-5 42.667 -15 60s-23.667 31 -41 41s-37 15 -59 15c-21.333 0 -40.666 -5 -57.999 -15s-31 -23.667 -41 -41s-15 -37 -15 -59c0 -24 5 -44.667 15 -62s23.667 -30.666 41 -39.999s36.666 -14 57.999 -14zM361.004 386.997
l-19.999 25c16 18.667 33.667 32 53 40s42.666 11 69.999 9l5 -39c-22.667 2 -42.667 0.666992 -60 -4s-33.333 -15 -48 -31zM261.005 525.997c-30 0 -56.833 6.5 -80.5 19.5s-45.167 31.5 -64.5 55.5l27 36c12 -18.667 28 -35 48 -49s42.333 -21 67 -21
c22.667 0 44 6 64 18s39.333 29.333 58 52l22 -32c-11.333 -15.333 -24.5 -29 -39.5 -41s-31 -21.333 -48 -28s-34.833 -10 -53.5 -10z" />
    <glyph glyph-name="Gdotaccent" unicode="&#x120;" 
d="M277 -10c-49.333 0 -91.3311 12.9941 -125.998 38.9941s-60.834 62.667 -78.501 110s-26.5 102.333 -26.5 165c-0.666992 54 3.83301 99.833 13.5 137.5s22.667 68.834 39 93.501s34.666 44 54.999 58s41 23.667 62 29s40.5 8 58.5 8c24.667 0 48 -4.5 70 -13.5
s42 -21.167 60 -36.5s32.667 -33.666 44 -54.999l-31 -27l-7 -6l-5 5c1.33301 4.66699 1 9.16699 -1 13.5s-6.66699 10.833 -14 19.5c-10.667 12.667 -22 23.334 -34 32.001s-24.833 15 -38.5 19s-28.5 6 -44.5 6c-18 0 -35.667 -2.66699 -53 -8
s-33.5 -14.166 -48.5 -26.499s-28.333 -28.833 -40 -49.5s-20.834 -46.167 -27.501 -76.5s-10 -66.166 -10 -107.499c0 -45.333 4 -85.666 12 -120.999s19.667 -65.166 35 -89.499s34.333 -43 57 -56s49 -19.5 79 -19.5c11.333 0 22.666 1 33.999 3s22.5 5 33.5 9
s21.667 9.16699 32 15.5s19.833 13.166 28.5 20.499v167h-123v43h168v-236c-29.333 -21.333 -57.666 -37.5 -84.999 -48.5s-56.666 -16.5 -87.999 -16.5v0zM274.002 695.994c-10 0 -18.833 3.66895 -26.5 11.002s-11.5 16.333 -11.5 27c0 11.333 3.66699 20.666 11 27.999
s16.333 11 27 11s19.834 -3.83301 27.501 -11.5s11.5 -16.834 11.5 -27.501c0 -10 -3.83301 -18.833 -11.5 -26.5s-16.834 -11.5 -27.501 -11.5z" />
    <glyph glyph-name="gdotaccent" unicode="&#x121;" 
d="M248 -172c-34 0 -63.665 2.66504 -88.998 7.99805s-46.5 13 -63.5 23s-29.833 22.333 -38.5 37s-13 31 -13 49c0 20 3.83301 37.167 11.5 51.5s17.667 26.5 30 36.5s26.166 18.667 41.499 26l26 -14c-12.667 -7.33301 -23.667 -15.166 -33 -23.499
s-16.666 -18.333 -21.999 -30s-8 -25.834 -8 -42.501c0 -12.667 3.16699 -24 9.5 -34s16 -18.5 29 -25.5s29.333 -12.5 49 -16.5s43.167 -6 70.5 -6c34.667 0 63 4 85 12s38.667 18.833 50 32.5s17 28.834 17 45.501c0.666992 16.667 -1.83301 30.167 -7.5 40.5
s-17.5 18 -35.5 23s-45.667 7.5 -83 7.5c-23.333 0 -45 0.833008 -65 2.5s-37.833 4.33398 -53.5 8.00098s-29 8.83398 -40 15.501s-19.5 14.667 -25.5 24s-9 20.666 -9 33.999c0 16.667 5 31.834 15 45.501s23.333 27.834 40 42.501l24 -20
c-8.66699 -8.66699 -15.667 -16 -21 -22s-9.16602 -11.5 -11.499 -16.5s-3.5 -11.167 -3.5 -18.5c0 -14 6 -24.833 18 -32.5s30.167 -12.834 54.5 -15.501s54.166 -4 89.499 -4c33.333 0 60.5 -2.5 81.5 -7.5s37.167 -12 48.5 -21s19.166 -20.167 23.499 -33.5
s6.5 -28.333 6.5 -45c0 -18 -4 -35 -12 -51s-20 -30.333 -36 -43s-36.333 -22.834 -61 -30.501s-54.334 -11.5 -89.001 -11.5zM232.002 151.998c-30.667 0 -57.834 7 -81.501 21s-42.167 33 -55.5 57s-20 50.667 -20 80c0 28.667 6.66699 54.834 20 78.501
s31.833 42.5 55.5 56.5s50.834 21 81.501 21c32 0 59.667 -7 83 -21s41.5 -32.833 54.5 -56.5s19.5 -49.834 19.5 -78.501c0 -29.333 -6.33301 -56 -19 -80s-30.667 -43 -54 -57s-51.333 -21 -84 -21zM232.002 193.998c23.333 0 43.668 4.83203 61.001 14.499
s30.666 23.167 39.999 40.5s14 37.333 14 60s-5 42.667 -15 60s-23.667 31 -41 41s-37 15 -59 15c-21.333 0 -40.666 -5 -57.999 -15s-31 -23.667 -41 -41s-15 -37 -15 -59c0 -24 5 -44.667 15 -62s23.667 -30.666 41 -39.999s36.666 -14 57.999 -14zM361.004 386.997
l-19.999 25c16 18.667 33.667 32 53 40s42.666 11 69.999 9l5 -39c-22.667 2 -42.667 0.666992 -60 -4s-33.333 -15 -48 -31zM225.005 565.997c-10 0 -18.833 3.66895 -26.5 11.002s-11.5 16.333 -11.5 27c0 11.333 3.66699 20.666 11 27.999s16.333 11 27 11
s19.834 -3.83301 27.501 -11.5s11.5 -16.834 11.5 -27.501c0 -10 -3.83301 -18.833 -11.5 -26.5s-16.834 -11.5 -27.501 -11.5z" />
    <glyph glyph-name="uni0122" unicode="&#x122;" 
d="M277 -10c-49.333 0 -91.3311 12.9941 -125.998 38.9941s-60.834 62.667 -78.501 110s-26.5 102.333 -26.5 165c-0.666992 54 3.83301 99.833 13.5 137.5s22.667 68.834 39 93.501s34.666 44 54.999 58s41 23.667 62 29s40.5 8 58.5 8c24.667 0 48 -4.5 70 -13.5
s42 -21.167 60 -36.5s32.667 -33.666 44 -54.999l-31 -27l-7 -6l-5 5c1.33301 4.66699 1 9.16699 -1 13.5s-6.66699 10.833 -14 19.5c-10.667 12.667 -22 23.334 -34 32.001s-24.833 15 -38.5 19s-28.5 6 -44.5 6c-18 0 -35.667 -2.66699 -53 -8
s-33.5 -14.166 -48.5 -26.499s-28.333 -28.833 -40 -49.5s-20.834 -46.167 -27.501 -76.5s-10 -66.166 -10 -107.499c0 -45.333 4 -85.666 12 -120.999s19.667 -65.166 35 -89.499s34.333 -43 57 -56s49 -19.5 79 -19.5c11.333 0 22.666 1 33.999 3s22.5 5 33.5 9
s21.667 9.16699 32 15.5s19.833 13.166 28.5 20.499v167h-123v43h168v-236c-29.333 -21.333 -57.666 -37.5 -84.999 -48.5s-56.666 -16.5 -87.999 -16.5v0zM242.002 -275.006l-21.998 20.999c19.333 20 33.166 38.333 41.499 55s12.5 31.334 12.5 44.001
c0 7.33301 -2.83301 13.833 -8.5 19.5l-17.5 17c-6 5.66699 -9 12.834 -9 21.501c0 11.333 3.66699 20.833 11 28.5s16.666 11.5 27.999 11.5c12 0 22.333 -5.33301 31 -16s13 -24.334 13 -41.001c0 -14.667 -2.33301 -30.5 -7 -47.5s-13 -35 -25 -54s-28 -38.833 -48 -59.5
z" />
    <glyph glyph-name="uni0123" unicode="&#x123;" 
d="M248 -172c-34 0 -63.665 2.66504 -88.998 7.99805s-46.5 13 -63.5 23s-29.833 22.333 -38.5 37s-13 31 -13 49c0 20 3.83301 37.167 11.5 51.5s17.667 26.5 30 36.5s26.166 18.667 41.499 26l26 -14c-12.667 -7.33301 -23.667 -15.166 -33 -23.499
s-16.666 -18.333 -21.999 -30s-8 -25.834 -8 -42.501c0 -12.667 3.16699 -24 9.5 -34s16 -18.5 29 -25.5s29.333 -12.5 49 -16.5s43.167 -6 70.5 -6c34.667 0 63 4 85 12s38.667 18.833 50 32.5s17 28.834 17 45.501c0.666992 16.667 -1.83301 30.167 -7.5 40.5
s-17.5 18 -35.5 23s-45.667 7.5 -83 7.5c-23.333 0 -45 0.833008 -65 2.5s-37.833 4.33398 -53.5 8.00098s-29 8.83398 -40 15.501s-19.5 14.667 -25.5 24s-9 20.666 -9 33.999c0 16.667 5 31.834 15 45.501s23.333 27.834 40 42.501l24 -20
c-8.66699 -8.66699 -15.667 -16 -21 -22s-9.16602 -11.5 -11.499 -16.5s-3.5 -11.167 -3.5 -18.5c0 -14 6 -24.833 18 -32.5s30.167 -12.834 54.5 -15.501s54.166 -4 89.499 -4c33.333 0 60.5 -2.5 81.5 -7.5s37.167 -12 48.5 -21s19.166 -20.167 23.499 -33.5
s6.5 -28.333 6.5 -45c0 -18 -4 -35 -12 -51s-20 -30.333 -36 -43s-36.333 -22.834 -61 -30.501s-54.334 -11.5 -89.001 -11.5zM232.002 151.998c-30.667 0 -57.834 7 -81.501 21s-42.167 33 -55.5 57s-20 50.667 -20 80c0 28.667 6.66699 54.834 20 78.501
s31.833 42.5 55.5 56.5s50.834 21 81.501 21c32 0 59.667 -7 83 -21s41.5 -32.833 54.5 -56.5s19.5 -49.834 19.5 -78.501c0 -29.333 -6.33301 -56 -19 -80s-30.667 -43 -54 -57s-51.333 -21 -84 -21zM232.002 193.998c23.333 0 43.668 4.83203 61.001 14.499
s30.666 23.167 39.999 40.5s14 37.333 14 60s-5 42.667 -15 60s-23.667 31 -41 41s-37 15 -59 15c-21.333 0 -40.666 -5 -57.999 -15s-31 -23.667 -41 -41s-15 -37 -15 -59c0 -24 5 -44.667 15 -62s23.667 -30.666 41 -39.999s36.666 -14 57.999 -14zM361.004 386.997
l-19.999 25c16 18.667 33.667 32 53 40s42.666 11 69.999 9l5 -39c-22.667 2 -42.667 0.666992 -60 -4s-33.333 -15 -48 -31zM258.005 810.997l24.998 -23c-22 -22.667 -37.667 -43.167 -47 -61.5s-14 -34.5 -14 -48.5c0 -6.66699 2 -12.334 6 -17.001
s8.66699 -9.33398 14 -14.001s9.83301 -9.5 13.5 -14.5s5.5 -11.5 5.5 -19.5c0 -12 -4 -22.333 -12 -31s-18.333 -13 -31 -13c-13.333 0 -24.833 5.83301 -34.5 17.5s-14.5 26.834 -14.5 45.501c0 12.667 1.5 25.834 4.5 39.501s7.83301 28 14.5 43s15.834 30.667 27.501 47
s25.834 32.833 42.501 49.5z" />
    <glyph glyph-name="Hcircumflex" unicode="&#x124;" 
d="M55 623l49 -0.00195312h9v-7c-3.33301 -2.66699 -5.5 -6.16699 -6.5 -10.5s-1.5 -12.166 -1.5 -23.499v-226h281v267h48h9v-7c-3.33301 -2.66699 -5.5 -6.16699 -6.5 -10.5s-1.5 -12.166 -1.5 -23.499v-582h-50v314h-280v-314h-50v623zM121 666.998l-23 27l138 89h16
l144 -90l-22 -26l-128 71z" />
    <glyph glyph-name="hcircumflex" unicode="&#x125;" 
d="M80 665l45.999 -0.00683594h9v-7c-3.33301 -2.66699 -5.5 -6.16699 -6.5 -10.5s-1.5 -12.166 -1.5 -23.499v-267c12 22 26.333 40.833 43 56.5s35 27.834 55 36.501s41 13 63 13c27.333 0 51.333 -5.66699 72 -17s36.834 -30.666 48.501 -57.999
s17.5 -65.666 17.5 -114.999v-273h-47v271c0 38 -3.83301 67.833 -11.5 89.5s-19.167 37 -34.5 46s-34 13.5 -56 13.5c-14.667 0 -29.167 -2.66699 -43.5 -8s-27.833 -12.666 -40.5 -21.999s-24 -20.666 -34 -33.999s-17.833 -28.166 -23.5 -44.499s-8.5 -33.833 -8.5 -52.5
v-259h-47v665zM-11.001 708.993l-23 27l138 89h16l144 -90l-22 -26l-128 71z" />
    <glyph glyph-name="Hbar" unicode="&#x126;" 
d="M11 505v40h473v-40h-473zM55 623l49 -0.00195312h9v-7c-3.33301 -2.66699 -5.5 -6.16699 -6.5 -10.5s-1.5 -12.166 -1.5 -23.499v-226h281v267h48h9v-7c-3.33301 -2.66699 -5.5 -6.16699 -6.5 -10.5s-1.5 -12.166 -1.5 -23.499v-582h-50v314h-280v-314h-50v623z" />
    <glyph glyph-name="hbar" unicode="&#x127;" 
d="M80 665l45.999 -0.00683594h9v-7c-3.33301 -2.66699 -5.5 -6.16699 -6.5 -10.5s-1.5 -12.166 -1.5 -23.499v-267c12 22 26.333 40.833 43 56.5s35 27.834 55 36.501s41 13 63 13c27.333 0 51.333 -5.66699 72 -17s36.834 -30.666 48.501 -57.999
s17.5 -65.666 17.5 -114.999v-273h-47v271c0 38 -3.83301 67.833 -11.5 89.5s-19.167 37 -34.5 46s-34 13.5 -56 13.5c-14.667 0 -29.167 -2.66699 -43.5 -8s-27.833 -12.666 -40.5 -21.999s-24 -20.666 -34 -33.999s-17.833 -28.166 -23.5 -44.499s-8.5 -33.833 -8.5 -52.5
v-259h-47v665zM2.99902 526.993v41h268v-41h-268z" />
    <glyph glyph-name="Itilde" unicode="&#x128;" 
d="M91 0v42h124v540h-117v41h289v-41h-124v-541h130v-41h-302zM376 834l35.001 -19.001c-14.667 -26 -28.5 -44 -41.5 -54s-29.5 -15 -49.5 -15c-14.667 0 -28 2.83301 -40 8.5s-23.167 12.334 -33.5 20.001s-20.333 14.334 -30 20.001s-19.834 8.5 -30.501 8.5
c-12.667 0 -24 -3.5 -34 -10.5s-19.667 -19.167 -29 -36.5l-37 14c10.667 21.333 23.667 38.666 39 51.999s35 20 59 20c14.667 0 27.5 -2.83301 38.5 -8.5s21.5 -12.5 31.5 -20.5s20.167 -14.833 30.5 -20.5s21.5 -8.5 33.5 -8.5s22.167 3.33301 30.5 10s17.5 20 27.5 40z
" />
    <glyph glyph-name="itilde" unicode="&#x129;" 
d="M105 0v41h124v372h-118v40h166v-412h114v-41h-286zM355 667l32.998 -14.998c-10 -24 -21.5 -41.5 -34.5 -52.5s-27.5 -16.5 -43.5 -16.5c-12 0 -23 2.66699 -33 8s-19.5 11.666 -28.5 18.999s-17.833 13.666 -26.5 18.999s-17.334 8 -26.001 8
c-11.333 0 -21.166 -4.5 -29.499 -13.5s-15.166 -20.5 -20.499 -34.5l-33 14c6.66699 20.667 17.5 37.667 32.5 51s30.5 20 46.5 20c12 0 23.333 -2.66699 34 -8s20.667 -11.5 30 -18.5s18.333 -13.333 27 -19s17.334 -8.5 26.001 -8.5c10 0 18.667 4.16699 26 12.5
s14 19.833 20 34.5z" />
    <glyph glyph-name="Imacron" unicode="&#x12a;" 
d="M91 0v42h124v540h-117v41h289v-41h-124v-541h130v-41h-302zM117 750v38h246v-38h-246z" />
    <glyph glyph-name="imacron" unicode="&#x12b;" 
d="M105 0v41h124v372h-118v40h166v-412h114v-41h-286zM128 584v38h246v-38h-246z" />
    <glyph glyph-name="Ibreve" unicode="&#x12c;" 
d="M91 0v42h124v540h-117v41h289v-41h-124v-541h130v-41h-302zM337 778l36.002 -14.999c-14.667 -28 -33.334 -49 -56.001 -63s-48.667 -21 -78 -21c-28 0 -53.5 7.16699 -76.5 21.5s-41.833 35.166 -56.5 62.499l36 17c11.333 -22.667 25.166 -39.5 41.499 -50.5
s34.833 -16.5 55.5 -16.5c14 0 27 2.16699 39 6.5s23 11.5 33 21.5s18.667 22.333 26 37z" />
    <glyph glyph-name="ibreve" unicode="&#x12d;" 
d="M105 0v41h124v372h-118v40h166v-412h114v-41h-286zM348 645l36.002 -14.999c-14.667 -28 -33.334 -49 -56.001 -63s-48.667 -21 -78 -21c-28 0 -53.5 7.16699 -76.5 21.5s-41.833 35.166 -56.5 62.499l36 17c11.333 -22.667 25.166 -39.5 41.499 -50.5
s34.833 -16.5 55.5 -16.5c14 0 27 2.16699 39 6.5s23 11.5 33 21.5s18.667 22.333 26 37z" />
    <glyph glyph-name="Iogonek" unicode="&#x12e;" 
d="M91 0v42h124v540h-117v41h289v-41h-124v-541h130v-41h-302zM369 -188l-10 -35.0039c-19.333 1.33301 -37 5.33301 -53 12s-28.667 15.834 -38 27.501s-14 26.167 -14 43.5c0 18 5 36 15 54s23.833 35.5 41.5 52.5s37.167 32.833 58.5 47.5l23 -14
c-17.333 -13.333 -33 -27.666 -47 -42.999s-25.167 -30.666 -33.5 -45.999s-12.5 -29.666 -12.5 -42.999c0 -17.333 5.66699 -30.5 17 -39.5s29 -14.5 53 -16.5z" />
    <glyph glyph-name="iogonek" unicode="&#x12f;" 
d="M105 0v41h124v372h-118v40h166v-412h114v-41h-286zM249 566c-10 0 -18.833 3.66895 -26.5 11.002s-11.5 16.333 -11.5 27c0 11.333 3.66699 20.666 11 27.999s16.333 11 27 11s19.834 -3.83301 27.501 -11.5s11.5 -16.834 11.5 -27.501
c0 -10 -3.83301 -18.833 -11.5 -26.5s-16.834 -11.5 -27.501 -11.5zM362 -187.998l-10 -35.0039c-19.333 1.33301 -37 5.33301 -53 12s-28.667 15.834 -38 27.501s-14 26.167 -14 43.5c0 18 5 36 15 54s23.833 35.5 41.5 52.5s37.167 32.833 58.5 47.5l23 -14
c-17.333 -13.333 -33 -27.666 -47 -42.999s-25.167 -30.666 -33.5 -45.999s-12.5 -29.666 -12.5 -42.999c0 -17.333 5.66699 -30.5 17 -39.5s29 -14.5 53 -16.5z" />
    <glyph glyph-name="Idotaccent" unicode="&#x130;" 
d="M91 0v42h124v540h-117v41h289v-41h-124v-541h130v-41h-302zM239 696c-10 0 -18.833 3.66895 -26.5 11.002s-11.5 16.333 -11.5 27c0 11.333 3.66699 20.666 11 27.999s16.333 11 27 11s19.834 -3.83301 27.501 -11.5s11.5 -16.834 11.5 -27.501
c0 -10 -3.83301 -18.833 -11.5 -26.5s-16.834 -11.5 -27.501 -11.5z" />
    <glyph glyph-name="dotlessi" unicode="&#x131;" 
d="M105 0v41h124v372h-118v40h166v-412h114v-41h-286z" />
    <glyph glyph-name="Jcircumflex" unicode="&#x134;" 
d="M196 -11c-29.333 0 -56.335 5.83203 -81.002 17.499s-46.667 28.834 -66 51.501l29 33l6 7l5 -4c0 -4.66699 1.16699 -9.16699 3.5 -13.5s7.83301 -10.166 16.5 -17.499c13.333 -10 27.333 -17.833 42 -23.5s29.667 -8.5 45 -8.5c24.667 0 44.834 6 60.501 18
s27.334 31 35.001 57s11.5 60 11.5 102v374h-121v41h265v-41h-96v-373c0.666992 -40 -2.83301 -74 -10.5 -102s-18.667 -50.833 -33 -68.5s-31 -30.334 -50 -38.001s-39.5 -11.5 -61.5 -11.5v0zM200.998 666.999l-23 27l138 89h16l144 -90l-22 -26l-128 71z" />
    <glyph glyph-name="jcircumflex" unicode="&#x135;" 
d="M194 -174c-28.667 0 -55.8359 5.33398 -81.5029 16.001s-47.167 26.667 -64.5 48l28 37l5 8l6 -5c0.666992 -4 2 -8.33301 4 -13s6.66699 -11 14 -19c12.667 -9.33301 26.334 -16.5 41.001 -21.5s30.334 -7.5 47.001 -7.5c28 0 51 5.83301 69 17.5s31.333 28.667 40 51
s13 49.166 13 80.499v394h-189v41h238v-431c0 -40 -6.16699 -74.667 -18.5 -104s-31.166 -52 -56.499 -68s-57 -24 -95 -24v0zM204.998 516.001l-28 23l141 140h20l141 -140l-27 -23l-124 119z" />
    <glyph glyph-name="uni0136" unicode="&#x136;" 
d="M151 323l-48.001 -49.002v-274h-51v623h50h9v-7c-3.33301 -2.66699 -5.5 -6.16699 -6.5 -10.5s-1.5 -12.166 -1.5 -23.499v-254l288 299c2.66699 -0.666992 5.33398 -1.16699 8.00098 -1.5s5.66699 -0.666016 9 -0.999023l10 -1c3.33301 -0.333008 6.33301 -0.5 9 -0.5
h18l-257 -270l273 -353l-60 -3zM211.999 -275.002l-21.998 20.999c19.333 20 33.166 38.333 41.499 55s12.5 31.334 12.5 44.001c0 7.33301 -2.83301 13.833 -8.5 19.5l-17.5 17c-6 5.66699 -9 12.834 -9 21.501c0 11.333 3.66699 20.833 11 28.5s16.666 11.5 27.999 11.5
c12 0 22.333 -5.33301 31 -16s13 -24.334 13 -41.001c0 -14.667 -2.33301 -30.5 -7 -47.5s-13 -35 -25 -54s-28 -38.833 -48 -59.5z" />
    <glyph glyph-name="uni0137" unicode="&#x137;" 
d="M192 241l-67 -58v-183h-49v665h48h9v-7c-3.33301 -2.66699 -5.5 -6.16699 -6.5 -10.5s-1.5 -12.166 -1.5 -23.499v-389l255 220c3.33301 -0.666992 6.5 -1.33398 9.5 -2.00098s6 -1 9 -1s6.33301 -0.166992 10 -0.5s7.16699 -0.5 10.5 -0.5h18l-208 -180l235 -271l-61 -4
zM226 -275l-21.998 20.999c19.333 20 33.166 38.333 41.499 55s12.5 31.334 12.5 44.001c0 7.33301 -2.83301 13.833 -8.5 19.5l-17.5 17c-6 5.66699 -9 12.834 -9 21.501c0 11.333 3.66699 20.833 11 28.5s16.666 11.5 27.999 11.5c12 0 22.333 -5.33301 31 -16
s13 -24.334 13 -41.001c0 -14.667 -2.33301 -30.5 -7 -47.5s-13 -35 -25 -54s-28 -38.833 -48 -59.5z" />
    <glyph glyph-name="kgreenlandic" unicode="&#x138;" 
d="M192 241l-67 -58v-183h-49v453h48h9v-7c-3.33301 -2.66699 -5.5 -6.16699 -6.5 -10.5s-1.5 -12.166 -1.5 -23.499v-177l255 220c3.33301 -0.666992 6.5 -1.33398 9.5 -2.00098s6 -1 9 -1s6.33301 -0.166992 10 -0.5s7.16699 -0.5 10.5 -0.5h18l-208 -180l235 -271l-61 -4
z" />
    <glyph glyph-name="Lacute" unicode="&#x139;" 
d="M76 623l49 -0.000976562h9v-7c-3.33301 -2.66699 -5.5 -6.16699 -6.5 -10.5s-1.5 -12.166 -1.5 -23.499v-540h303v-42h-353v623zM126 666.999l-15 30l153 79l27 -50z" />
    <glyph glyph-name="lacute" unicode="&#x13a;" 
d="M84 0v41h142v584h-136v40h185v-624h141v-41h-332zM176 709l-15 30l153 79l27 -50z" />
    <glyph glyph-name="uni013B" unicode="&#x13b;" 
d="M76 623l49 -0.000976562h9v-7c-3.33301 -2.66699 -5.5 -6.16699 -6.5 -10.5s-1.5 -12.166 -1.5 -23.499v-540h303v-42h-353v623zM226 -275.001l-21.998 20.999c19.333 20 33.166 38.333 41.499 55s12.5 31.334 12.5 44.001c0 7.33301 -2.83301 13.833 -8.5 19.5l-17.5 17
c-6 5.66699 -9 12.834 -9 21.501c0 11.333 3.66699 20.833 11 28.5s16.666 11.5 27.999 11.5c12 0 22.333 -5.33301 31 -16s13 -24.334 13 -41.001c0 -14.667 -2.33301 -30.5 -7 -47.5s-13 -35 -25 -54s-28 -38.833 -48 -59.5z" />
    <glyph glyph-name="uni013C" unicode="&#x13c;" 
d="M84 0v41h142v584h-136v40h185v-624h141v-41h-332zM226 -275l-21.998 20.999c19.333 20 33.166 38.333 41.499 55s12.5 31.334 12.5 44.001c0 7.33301 -2.83301 13.833 -8.5 19.5l-17.5 17c-6 5.66699 -9 12.834 -9 21.501c0 11.333 3.66699 20.833 11 28.5
s16.666 11.5 27.999 11.5c12 0 22.333 -5.33301 31 -16s13 -24.334 13 -41.001c0 -14.667 -2.33301 -30.5 -7 -47.5s-13 -35 -25 -54s-28 -38.833 -48 -59.5z" />
    <glyph glyph-name="Lcaron" unicode="&#x13d;" 
d="M340 422l-20.001 19.001c18 18 30.5 34.5 37.5 49.5s10.5 27.833 10.5 38.5c0 7.33301 -2.5 13.333 -7.5 18l-15.5 15c-5.33301 5.33301 -8 11.666 -8 18.999c0 10 3.33301 18.333 10 25s15 10 25 10c10.667 0 19.834 -4.66699 27.501 -14s11.5 -21.333 11.5 -36
c0 -13.333 -2.16699 -27.666 -6.5 -42.999s-11.5 -31.333 -21.5 -48s-24.333 -34.334 -43 -53.001zM75.999 623.001l49 -0.000976562h9v-7c-3.33301 -2.66699 -5.5 -6.16699 -6.5 -10.5s-1.5 -12.166 -1.5 -23.499v-540h303v-42h-353v623z" />
    <glyph glyph-name="lcaron" unicode="&#x13e;" 
d="M84 0v41h142v584h-136v40h185v-624h141v-41h-332zM370 462l-21.001 20.999c10.667 10 19.5 20.167 26.5 30.5s12.333 20 16 29s5.5 17.167 5.5 24.5c0 6.66699 -1.5 12 -4.5 16s-6.66699 7.83301 -11 11.5s-8.16602 7.83398 -11.499 12.501s-5 10.667 -5 18
c0 12 3.5 21.333 10.5 28s16.167 10 27.5 10c10 0 19 -4.83301 27 -14.5s12 -21.834 12 -36.501c0 -15.333 -2.33301 -31.166 -7 -47.499s-12.167 -33 -22.5 -50s-24.5 -34.5 -42.5 -52.5z" />
    <glyph glyph-name="Ldot" unicode="&#x13f;" 
d="M76 623l49 -0.000976562h9v-7c-3.33301 -2.66699 -5.5 -6.16699 -6.5 -10.5s-1.5 -12.166 -1.5 -23.499v-540h303v-42h-353v623zM298 287.999c-12 0 -22.166 4.16699 -30.499 12.5s-12.5 18.5 -12.5 30.5s4.33301 22.167 13 30.5s18.667 12.5 30 12.5
c12 0 22.5 -4.16699 31.5 -12.5s13.5 -18.5 13.5 -30.5c0 -11.333 -4.33301 -21.333 -13 -30s-19.334 -13 -32.001 -13z" />
    <glyph glyph-name="ldot" unicode="&#x140;" 
d="M73 0v41h123v584h-117v40h166v-624h162v-41h-334zM388 288c-12 0 -22.166 4.16699 -30.499 12.5s-12.5 18.5 -12.5 30.5s4.33301 22.167 13 30.5s18.667 12.5 30 12.5c12 0 22.5 -4.16699 31.5 -12.5s13.5 -18.5 13.5 -30.5c0 -11.333 -4.33301 -21.333 -13 -30
s-19.334 -13 -32.001 -13z" />
    <glyph glyph-name="Lslash" unicode="&#x141;" 
d="M82 0v255.999l-57 -18v42l57 19v324h58c0.666992 0 1.16699 -0.166992 1.5 -0.5s0.5 -0.833008 0.5 -1.5c0 -3.33301 -1.5 -6.16602 -4.5 -8.49902s-4.83301 -9.83301 -5.5 -22.5v-275l180 58l12.5 5.5c3.66699 1.66699 6.5 2.5 8.5 2.5v-45l-201 -64v-230h310v-42h-360z
" />
    <glyph glyph-name="lslash" unicode="&#x142;" 
d="M83 0v41h143v253l-86 -28v45l86 29v285h-137v40h186v-309l99 36v-47l-99 -34v-270h142v-41h-334z" />
    <glyph glyph-name="Nacute" unicode="&#x143;" 
d="M60 623l46 -0.000976562l284 -510v510h46h9v-7c-3.33301 -2.66699 -5.5 -6.16699 -6.5 -10.5s-1.5 -12.166 -1.5 -23.499v-582h-37l-293 527v-527h-47v623zM176 666.999l-15 30l153 79l27 -50z" />
    <glyph glyph-name="nacute" unicode="&#x144;" 
d="M79 0l0.000976562 452.996h48v-96c10 22 23.167 40.833 39.5 56.5s35.166 27.834 56.499 36.501s43.666 13 66.999 13c24.667 0 47.167 -5.83301 67.5 -17.5s36.833 -31.167 49.5 -58.5s19 -65.333 19 -114v-273h-48v271c0 37.333 -4 66.833 -12 88.5
s-19.667 37.167 -35 46.5s-33.666 14 -54.999 14c-20 0 -38.833 -4.16699 -56.5 -12.5s-33.5 -19.666 -47.5 -33.999s-25 -31.166 -33 -50.499s-12 -40.666 -12 -63.999v-259h-48zM252.001 509.996l-25 18l88 146l40 -30z" />
    <glyph glyph-name="uni0145" unicode="&#x145;" 
d="M60 623l46 -0.000976562l284 -510v510h46h9v-7c-3.33301 -2.66699 -5.5 -6.16699 -6.5 -10.5s-1.5 -12.166 -1.5 -23.499v-582h-37l-293 527v-527h-47v623zM226 -275.001l-21.998 20.999c19.333 20 33.166 38.333 41.499 55s12.5 31.334 12.5 44.001
c0 7.33301 -2.83301 13.833 -8.5 19.5l-17.5 17c-6 5.66699 -9 12.834 -9 21.501c0 11.333 3.66699 20.833 11 28.5s16.666 11.5 27.999 11.5c12 0 22.333 -5.33301 31 -16s13 -24.334 13 -41.001c0 -14.667 -2.33301 -30.5 -7 -47.5s-13 -35 -25 -54s-28 -38.833 -48 -59.5
z" />
    <glyph glyph-name="uni0146" unicode="&#x146;" 
d="M79 0l0.000976562 452.996h48v-96c10 22 23.167 40.833 39.5 56.5s35.166 27.834 56.499 36.501s43.666 13 66.999 13c24.667 0 47.167 -5.83301 67.5 -17.5s36.833 -31.167 49.5 -58.5s19 -65.333 19 -114v-273h-48v271c0 37.333 -4 66.833 -12 88.5
s-19.667 37.167 -35 46.5s-33.666 14 -54.999 14c-20 0 -38.833 -4.16699 -56.5 -12.5s-33.5 -19.666 -47.5 -33.999s-25 -31.166 -33 -50.499s-12 -40.666 -12 -63.999v-259h-48zM236.001 -275.004l-21.998 20.999c19.333 20 33.166 38.333 41.499 55
s12.5 31.334 12.5 44.001c0 7.33301 -2.83301 13.833 -8.5 19.5l-17.5 17c-6 5.66699 -9 12.834 -9 21.501c0 11.333 3.66699 20.833 11 28.5s16.666 11.5 27.999 11.5c12 0 22.333 -5.33301 31 -16s13 -24.334 13 -41.001c0 -14.667 -2.33301 -30.5 -7 -47.5
s-13 -35 -25 -54s-28 -38.833 -48 -59.5z" />
    <glyph glyph-name="Ncaron" unicode="&#x147;" 
d="M60 623l46 -0.000976562l284 -510v510h46h9v-7c-3.33301 -2.66699 -5.5 -6.16699 -6.5 -10.5s-1.5 -12.166 -1.5 -23.499v-582h-37l-293 527v-527h-47v623zM372 779.999l23 -27l-138 -90h-16l-144 90l22 26l128 -71z" />
    <glyph glyph-name="ncaron" unicode="&#x148;" 
d="M79 0l0.000976562 452.996h48v-96c10 22 23.167 40.833 39.5 56.5s35.166 27.834 56.499 36.501s43.666 13 66.999 13c24.667 0 47.167 -5.83301 67.5 -17.5s36.833 -31.167 49.5 -58.5s19 -65.333 19 -114v-273h-48v271c0 37.333 -4 66.833 -12 88.5
s-19.667 37.167 -35 46.5s-33.666 14 -54.999 14c-20 0 -38.833 -4.16699 -56.5 -12.5s-33.5 -19.666 -47.5 -33.999s-25 -31.166 -33 -50.499s-12 -40.666 -12 -63.999v-259h-48zM141.001 686.996l123 -118l124 118l27 -23l-141 -140h-20l-141 140z" />
    <glyph glyph-name="Eng" unicode="&#x14a;" 
d="M388 623l53.999 -0.00195312c0 -2 -1.16699 -4.5 -3.5 -7.5s-3.5 -7.5 -3.5 -13.5v-602c0 -41.333 -5.33301 -75.333 -16 -102s-26.667 -46.334 -48 -59.001s-48 -19 -80 -19c-14 0 -27.5 1.5 -40.5 4.5s-25.167 7.83301 -36.5 14.5l26 45c4 -2 7.33301 -4.16699 10 -6.5
s5.5 -4.66602 8.5 -6.99902s7.5 -4.16602 13.5 -5.49902s14.333 -2 25 -2c22.667 0 40.334 5.33301 53.001 16s22 27.334 28 50.001s9.33301 52 10 88l-280 510v-527h-47v623h46l281 -510v510z" />
    <glyph glyph-name="eng" unicode="&#x14b;" 
d="M261 -175c-16.667 0 -32.667 2.50293 -48 7.50293s-29.333 12.833 -42 23.5l28 43c2 -0.666992 3.66699 -2.5 5 -5.5s3.66602 -6.33301 6.99902 -10s9 -6.83398 17 -9.50098s19.667 -4 35 -4c24.667 0 45.334 6.33301 62.001 19s29.5 32 38.5 58s13.5 59 13.5 99v227
c0 28.667 -2.83301 52.667 -8.5 72s-13.334 34.5 -23.001 45.5s-20.667 19 -33 24s-25.166 7.5 -38.499 7.5c-14.667 0 -29.167 -2.83301 -43.5 -8.5s-27.666 -13.5 -39.999 -23.5s-23.166 -21.833 -32.499 -35.5s-16.833 -28.334 -22.5 -44.001s-8.5 -32.167 -8.5 -49.5
v-261h-49v453h49v-96c8 16.667 17.833 31.667 29.5 45s24.334 24.666 38.001 33.999s28 16.5 43 21.5s29.833 7.5 44.5 7.5c19.333 0 37.666 -3.5 54.999 -10.5s32.666 -18 45.999 -33s23.666 -34.5 30.999 -58.5s11 -53.333 11 -88v-218c0 -40.667 -4 -75.667 -12 -105
s-19.333 -53.333 -34 -72s-32 -32.5 -52 -41.5s-42 -13.5 -66 -13.5z" />
    <glyph glyph-name="Omacron" unicode="&#x14c;" 
d="M250 -11c-45.333 0 -84 12.333 -116 37s-56.167 60.834 -72.5 108.501s-24.5 105.5 -24.5 173.5c0 66 8.16699 122.833 24.5 170.5s40.5 84.334 72.5 110.001s70.667 38.5 116 38.5c46.667 0 85.667 -12.833 117 -38.5s55.166 -62.334 71.499 -110.001
s24.5 -104.5 24.5 -170.5c0 -68 -8.16699 -125.833 -24.5 -173.5s-40.166 -83.834 -71.499 -108.501s-70.333 -37 -117 -37zM250 32c35.333 0 65.166 10.667 89.499 32s42.833 52.666 55.5 93.999s19 91.333 19 150c0 56.667 -6.33301 105.667 -19 147
s-31.167 73.333 -55.5 96s-54.166 34 -89.499 34c-34.667 0 -64.167 -11.333 -88.5 -34s-42.833 -54.667 -55.5 -96s-19 -90.333 -19 -147c0 -58.667 6.33301 -108.667 19 -150s31.167 -72.666 55.5 -93.999s53.833 -32 88.5 -32zM128 750v38h246v-38h-246z" />
    <glyph glyph-name="omacron" unicode="&#x14d;" 
d="M250 -8c-41.333 0 -77 10 -107 30s-53.167 47.667 -69.5 83s-24.5 76 -24.5 122c0 46.667 8.16699 87.667 24.5 123s39.5 63 69.5 83s65.667 30 107 30s77 -10 107 -30s53.167 -47.667 69.5 -83s24.5 -76.333 24.5 -123c0 -46 -8.16699 -86.667 -24.5 -122
s-39.5 -63 -69.5 -83s-65.667 -30 -107 -30zM250 34c32 0 59.167 8.33301 81.5 25s39.5 39.667 51.5 69s18 62.666 18 99.999c0 39.333 -6.5 73.5 -19.5 102.5s-30.667 51.5 -53 67.5s-48.5 24 -78.5 24c-30.667 0 -57.334 -8.33301 -80.001 -25s-40 -39.5 -52 -68.5
s-18 -62.5 -18 -100.5s6 -71.667 18 -101s29.333 -52.166 52 -68.499s49.334 -24.5 80.001 -24.5zM128 584v38h246v-38h-246z" />
    <glyph glyph-name="Obreve" unicode="&#x14e;" 
d="M250 -11c-45.333 0 -84 12.333 -116 37s-56.167 60.834 -72.5 108.501s-24.5 105.5 -24.5 173.5c0 66 8.16699 122.833 24.5 170.5s40.5 84.334 72.5 110.001s70.667 38.5 116 38.5c46.667 0 85.667 -12.833 117 -38.5s55.166 -62.334 71.499 -110.001
s24.5 -104.5 24.5 -170.5c0 -68 -8.16699 -125.833 -24.5 -173.5s-40.166 -83.834 -71.499 -108.501s-70.333 -37 -117 -37zM250 32c35.333 0 65.166 10.667 89.499 32s42.833 52.666 55.5 93.999s19 91.333 19 150c0 56.667 -6.33301 105.667 -19 147
s-31.167 73.333 -55.5 96s-54.166 34 -89.499 34c-34.667 0 -64.167 -11.333 -88.5 -34s-42.833 -54.667 -55.5 -96s-19 -90.333 -19 -147c0 -58.667 6.33301 -108.667 19 -150s31.167 -72.666 55.5 -93.999s53.833 -32 88.5 -32zM348 778l36.002 -14.999
c-14.667 -28 -33.334 -49 -56.001 -63s-48.667 -21 -78 -21c-28 0 -53.5 7.16699 -76.5 21.5s-41.833 35.166 -56.5 62.499l36 17c11.333 -22.667 25.166 -39.5 41.499 -50.5s34.833 -16.5 55.5 -16.5c14 0 27 2.16699 39 6.5s23 11.5 33 21.5s18.667 22.333 26 37z" />
    <glyph glyph-name="obreve" unicode="&#x14f;" 
d="M250 -8c-41.333 0 -77 10 -107 30s-53.167 47.667 -69.5 83s-24.5 76 -24.5 122c0 46.667 8.16699 87.667 24.5 123s39.5 63 69.5 83s65.667 30 107 30s77 -10 107 -30s53.167 -47.667 69.5 -83s24.5 -76.333 24.5 -123c0 -46 -8.16699 -86.667 -24.5 -122
s-39.5 -63 -69.5 -83s-65.667 -30 -107 -30zM250 34c32 0 59.167 8.33301 81.5 25s39.5 39.667 51.5 69s18 62.666 18 99.999c0 39.333 -6.5 73.5 -19.5 102.5s-30.667 51.5 -53 67.5s-48.5 24 -78.5 24c-30.667 0 -57.334 -8.33301 -80.001 -25s-40 -39.5 -52 -68.5
s-18 -62.5 -18 -100.5s6 -71.667 18 -101s29.333 -52.166 52 -68.499s49.334 -24.5 80.001 -24.5zM348 645l36.002 -14.999c-14.667 -28 -33.334 -49 -56.001 -63s-48.667 -21 -78 -21c-28 0 -53.5 7.16699 -76.5 21.5s-41.833 35.166 -56.5 62.499l36 17
c11.333 -22.667 25.166 -39.5 41.499 -50.5s34.833 -16.5 55.5 -16.5c14 0 27 2.16699 39 6.5s23 11.5 33 21.5s18.667 22.333 26 37z" />
    <glyph glyph-name="Ohungarumlaut" unicode="&#x150;" 
d="M250 -11c-45.333 0 -84 12.333 -116 37s-56.167 60.834 -72.5 108.501s-24.5 105.5 -24.5 173.5c0 66 8.16699 122.833 24.5 170.5s40.5 84.334 72.5 110.001s70.667 38.5 116 38.5c46.667 0 85.667 -12.833 117 -38.5s55.166 -62.334 71.499 -110.001
s24.5 -104.5 24.5 -170.5c0 -68 -8.16699 -125.833 -24.5 -173.5s-40.166 -83.834 -71.499 -108.501s-70.333 -37 -117 -37zM250 32c35.333 0 65.166 10.667 89.499 32s42.833 52.666 55.5 93.999s19 91.333 19 150c0 56.667 -6.33301 105.667 -19 147
s-31.167 73.333 -55.5 96s-54.166 34 -89.499 34c-34.667 0 -64.167 -11.333 -88.5 -34s-42.833 -54.667 -55.5 -96s-19 -90.333 -19 -147c0 -58.667 6.33301 -108.667 19 -150s31.167 -72.666 55.5 -93.999s53.833 -32 88.5 -32zM286 653l-22 28l132 117l31 -45zM108 653
l-22 28l132 117l33 -45z" />
    <glyph glyph-name="ohungarumlaut" unicode="&#x151;" 
d="M250 -8c-41.333 0 -77 10 -107 30s-53.167 47.667 -69.5 83s-24.5 76 -24.5 122c0 46.667 8.16699 87.667 24.5 123s39.5 63 69.5 83s65.667 30 107 30s77 -10 107 -30s53.167 -47.667 69.5 -83s24.5 -76.333 24.5 -123c0 -46 -8.16699 -86.667 -24.5 -122
s-39.5 -63 -69.5 -83s-65.667 -30 -107 -30zM250 34c32 0 59.167 8.33301 81.5 25s39.5 39.667 51.5 69s18 62.666 18 99.999c0 39.333 -6.5 73.5 -19.5 102.5s-30.667 51.5 -53 67.5s-48.5 24 -78.5 24c-30.667 0 -57.334 -8.33301 -80.001 -25s-40 -39.5 -52 -68.5
s-18 -62.5 -18 -100.5s6 -71.667 18 -101s29.333 -52.166 52 -68.499s49.334 -24.5 80.001 -24.5zM327 524l-32 20l89 143l43 -30zM172 524l-32 20l89 143l43 -30z" />
    <glyph glyph-name="OE" unicode="&#x152;" 
d="M171 -7c-24.667 0 -46.834 6.33398 -66.501 19.001s-36.167 32.167 -49.5 58.5s-23.666 59.5 -30.999 99.5s-11 87.333 -11 142c0 73.333 6.16699 133.666 18.5 180.999s30.166 82.333 53.499 105s52 34 86 34c15.333 0 31.333 -3.66699 48 -11s30.667 -19 42 -35v38h220
v-43h-175v-234h149v-44h-149v-260h173v-43h-218v36c-12 -15.333 -25.667 -26.333 -41 -33s-31.666 -10 -48.999 -10zM176 36.001c20 0 37.6689 6.66699 53.002 20s26 31.666 32 54.999v394c-8 25.333 -19.833 46 -35.5 62s-34.834 24 -57.501 24c-16 0 -30.667 -5 -44 -15
s-24.833 -25.833 -34.5 -47.5s-17.167 -50.167 -22.5 -85.5s-8 -78.666 -8 -129.999c0 -61.333 4.5 -112.5 13.5 -153.5s22.167 -71.833 39.5 -92.5s38.666 -31 63.999 -31z" />
    <glyph glyph-name="oe" unicode="&#x153;" 
d="M372 -12c-26.667 0 -49.499 4.66895 -68.499 14.002s-35.167 21.333 -48.5 36c-12 -14.667 -26 -26.5 -42 -35.5s-35.667 -13.5 -59 -13.5c-16.667 0 -33.334 3.83301 -50.001 11.5s-32 20.667 -46 39s-25.333 42.833 -34 73.5s-13 69 -13 115
c0 58.667 7 105.167 21 139.5s32.333 58.833 55 73.5s47.334 22 74.001 22c20 0 37.833 -4.33301 53.5 -13s29.167 -20.667 40.5 -36c13.333 16.667 28.333 29 45 37s35.334 12 56.001 12c26.667 0 49.667 -6.5 69 -19.5s34.166 -32.833 44.499 -59.5
s15.5 -60.334 15.5 -101.001v-52h-233c1.33301 -50 6.16602 -90 14.499 -120s20.833 -51.333 37.5 -64s37.334 -19.334 62.001 -20.001c20.667 0 39.167 4 55.5 12s29.833 18.667 40.5 32l26 -29c-16.667 -18 -34.334 -31.5 -53.001 -40.5s-39.667 -13.5 -63 -13.5z
M163.001 30.002c8 0 15.6641 1.33496 22.9971 4.00195s13.833 6.33398 19.5 11.001s10.334 10.167 14.001 16.5s5.5 13.166 5.5 20.499c0 1.33301 -0.166992 3.83301 -0.5 7.5s-1.16602 8.83398 -2.49902 15.501c-3.33301 18 -6 34.333 -8 49s-3.33301 28.667 -4 42
s-1 27.333 -1 42c0 29.333 1.16699 53.166 3.5 71.499s4.83301 32.5 7.5 42.5s4 16.333 4 19c0 7.33301 -1.83301 14 -5.5 20s-8.5 11.333 -14.5 16s-12.833 8.33398 -20.5 11.001s-15.167 4 -22.5 4c-19.333 0 -37.166 -6 -53.499 -18s-29.333 -31.333 -39 -58
s-14.5 -62.334 -14.5 -107.001c0 -48.667 4.5 -88.334 13.5 -119.001s21.667 -53.334 38 -68.001s35.5 -22 57.5 -22zM252.998 270.004l191.001 0.000976562c0 38 -3.16699 68.167 -9.5 90.5s-16.333 38.666 -30 48.999s-31.834 15.5 -54.501 15.5
c-19.333 0 -36.333 -6.16699 -51 -18.5s-26 -30 -34 -53s-12 -50.833 -12 -83.5z" />
    <glyph glyph-name="Racute" unicode="&#x154;" 
d="M66 0v623h174c48 0 86.333 -6.83301 115 -20.5s49.5 -33.5 62.5 -59.5s19.5 -57 19.5 -93c0 -24.667 -5.66699 -48.5 -17 -71.5s-27 -42.5 -47 -58.5s-43 -26.667 -69 -32l150 -288h-53l-148 285h-138v-285h-49zM115 328h132.999c48 0 83.333 11.667 106 35
s34 52.333 34 87c0 26 -4.66699 48.5 -14 67.5s-24.166 33.833 -44.499 44.5s-47.5 16 -81.5 16h-133v-250zM175.999 667l-15 30l153 79l27 -50z" />
    <glyph glyph-name="racute" unicode="&#x155;" 
d="M124 453h50.999l-3 -133l-8 7c4 21.333 11.167 40.5 21.5 57.5s23 31.5 38 43.5s31.333 21 49 27s35.834 9 54.501 9c22.667 0 45.334 -4.16699 68.001 -12.5s42 -20.833 58 -37.5l-23 -37l-4 -8l-7 4c0 4.66699 -1.33301 9 -4 13s-8.66699 9.33301 -18 16
c-12 7.33301 -23.5 12.5 -34.5 15.5s-22.833 4.5 -35.5 4.5c-20.667 0 -40.334 -4 -59.001 -12s-35.167 -19.667 -49.5 -35s-25.5 -33.833 -33.5 -55.5s-12 -46.5 -12 -74.5v-246h-49v454zM276.999 510l-25 18l88 146l40 -30z" />
    <glyph glyph-name="uni0156" unicode="&#x156;" 
d="M66 0v623h174c48 0 86.333 -6.83301 115 -20.5s49.5 -33.5 62.5 -59.5s19.5 -57 19.5 -93c0 -24.667 -5.66699 -48.5 -17 -71.5s-27 -42.5 -47 -58.5s-43 -26.667 -69 -32l150 -288h-53l-148 285h-138v-285h-49zM115 328h132.999c48 0 83.333 11.667 106 35
s34 52.333 34 87c0 26 -4.66699 48.5 -14 67.5s-24.166 33.833 -44.499 44.5s-47.5 16 -81.5 16h-133v-250zM225.999 -275l-21.998 20.999c19.333 20 33.166 38.333 41.499 55s12.5 31.334 12.5 44.001c0 7.33301 -2.83301 13.833 -8.5 19.5l-17.5 17
c-6 5.66699 -9 12.834 -9 21.501c0 11.333 3.66699 20.833 11 28.5s16.666 11.5 27.999 11.5c12 0 22.333 -5.33301 31 -16s13 -24.334 13 -41.001c0 -14.667 -2.33301 -30.5 -7 -47.5s-13 -35 -25 -54s-28 -38.833 -48 -59.5z" />
    <glyph glyph-name="uni0157" unicode="&#x157;" 
d="M124 453h50.999l-3 -133l-8 7c4 21.333 11.167 40.5 21.5 57.5s23 31.5 38 43.5s31.333 21 49 27s35.834 9 54.501 9c22.667 0 45.334 -4.16699 68.001 -12.5s42 -20.833 58 -37.5l-23 -37l-4 -8l-7 4c0 4.66699 -1.33301 9 -4 13s-8.66699 9.33301 -18 16
c-12 7.33301 -23.5 12.5 -34.5 15.5s-22.833 4.5 -35.5 4.5c-20.667 0 -40.334 -4 -59.001 -12s-35.167 -19.667 -49.5 -35s-25.5 -33.833 -33.5 -55.5s-12 -46.5 -12 -74.5v-246h-49v454zM245.999 -275l-21.998 20.999c19.333 20 33.166 38.333 41.499 55
s12.5 31.334 12.5 44.001c0 7.33301 -2.83301 13.833 -8.5 19.5l-17.5 17c-6 5.66699 -9 12.834 -9 21.501c0 11.333 3.66699 20.833 11 28.5s16.666 11.5 27.999 11.5c12 0 22.333 -5.33301 31 -16s13 -24.334 13 -41.001c0 -14.667 -2.33301 -30.5 -7 -47.5
s-13 -35 -25 -54s-28 -38.833 -48 -59.5z" />
    <glyph glyph-name="Rcaron" unicode="&#x158;" 
d="M66 0v623h174c48 0 86.333 -6.83301 115 -20.5s49.5 -33.5 62.5 -59.5s19.5 -57 19.5 -93c0 -24.667 -5.66699 -48.5 -17 -71.5s-27 -42.5 -47 -58.5s-43 -26.667 -69 -32l150 -288h-53l-148 285h-138v-285h-49zM115 328h132.999c48 0 83.333 11.667 106 35
s34 52.333 34 87c0 26 -4.66699 48.5 -14 67.5s-24.166 33.833 -44.499 44.5s-47.5 16 -81.5 16h-133v-250zM371.999 780l23 -27l-138 -90h-16l-144 90l22 26l128 -71z" />
    <glyph glyph-name="rcaron" unicode="&#x159;" 
d="M124 453h50.999l-3 -133l-8 7c4 21.333 11.167 40.5 21.5 57.5s23 31.5 38 43.5s31.333 21 49 27s35.834 9 54.501 9c22.667 0 45.334 -4.16699 68.001 -12.5s42 -20.833 58 -37.5l-23 -37l-4 -8l-7 4c0 4.66699 -1.33301 9 -4 13s-8.66699 9.33301 -18 16
c-12 7.33301 -23.5 12.5 -34.5 15.5s-22.833 4.5 -35.5 4.5c-20.667 0 -40.334 -4 -59.001 -12s-35.167 -19.667 -49.5 -35s-25.5 -33.833 -33.5 -55.5s-12 -46.5 -12 -74.5v-246h-49v454zM165.999 687l123 -118l124 118l27 -23l-141 -140h-20l-141 140z" />
    <glyph glyph-name="Sacute" unicode="&#x15a;" 
d="M253 -10c-40.667 0 -76.4951 6.66992 -107.495 20.0029s-58.833 33 -83.5 59l29 42l5 7l6 -4c0 -4 1.16699 -8.5 3.5 -13.5s7.16602 -11.167 14.499 -18.5c17.333 -14.667 37.833 -26.334 61.5 -35.001s49.5 -13 77.5 -13c20.667 0 39.5 3.16699 56.5 9.5
s31.667 15.166 44 26.499s21.666 24.666 27.999 39.999s9.5 31.666 9.5 48.999c0 12 -1.16699 23 -3.5 33s-6.66602 19.5 -12.999 28.5s-15 17.833 -26 26.5s-25.167 17.5 -42.5 26.5s-38 18.5 -62 28.5c-39.333 15.333 -71.5 32 -96.5 50s-43.167 37.5 -54.5 58.5
s-17 43.167 -17 66.5c0 30.667 7.16699 57.5 21.5 80.5s35 41 62 54s59.167 19.5 96.5 19.5c22.667 0 44.167 -3 64.5 -9s38.833 -14.667 55.5 -26s31 -25 43 -41l-27 -34l-6 -7l-5 4c0 4.66699 -1 9.33398 -3 14.001s-6.66699 11 -14 19c-15.333 14 -32.5 24 -51.5 30
s-41.167 9.33301 -66.5 10c-18 0 -34.333 -2.83301 -49 -8.5s-27.334 -13.5 -38.001 -23.5s-18.834 -21.5 -24.501 -34.5s-8.5 -27.167 -8.5 -42.5c0 -12 1.5 -23 4.5 -33s8.16699 -19.833 15.5 -29.5s17.166 -19 29.499 -28s27.833 -18.167 46.5 -27.5s41 -19.333 67 -30
c28 -11.333 51.667 -23 71 -35s34.666 -24.833 45.999 -38.5s19.666 -28.167 24.999 -43.5s8 -32 8 -50c0 -30 -7 -58.5 -21 -85.5s-35.167 -49 -63.5 -66s-64.166 -25.5 -107.499 -25.5v0zM187.005 667.003l-15 30l153 79l27 -50z" />
    <glyph glyph-name="sacute" unicode="&#x15b;" 
d="M252 -10c-24.667 0.666992 -48.1689 3.49902 -70.502 8.49902s-43.5 12.833 -63.5 23.5s-38.667 24 -56 40l28 44l6 7l6 -4c0 -4 1 -8.33301 3 -13s7 -11 15 -19c16 -13.333 35.167 -24.166 57.5 -32.499s47.833 -12.5 76.5 -12.5c30 0 54.667 3.33301 74 10
s34 16.5 44 29.5s15 28.833 15 47.5c0 11.333 -2.66699 21.666 -8 30.999s-13.5 17.833 -24.5 25.5s-24.833 14.834 -41.5 21.501s-36.334 13 -59.001 19c-32.667 8.66699 -61.5 19.334 -86.5 32.001s-44.667 27.5 -59 44.5s-21.5 36.5 -21.5 58.5
c0 22.667 6.5 42.5 19.5 59.5s31.667 30.167 56 39.5s54.166 14 89.499 14c21.333 0 40.333 -1.33301 57 -4s32 -6.83398 46 -12.501s26.833 -12.667 38.5 -21s22.834 -18.166 33.501 -29.499l-28 -35l-6 -8l-5 5c0 4.66699 -1.16699 9.16699 -3.5 13.5
s-7.5 10.5 -15.5 18.5c-14.667 11.333 -31.667 20 -51 26s-40.333 9 -63 9c-37.333 0 -66.5 -6.33301 -87.5 -19s-31.5 -30.667 -31.5 -54c0 -14 4.83301 -26.667 14.5 -38s24.834 -22 45.501 -32s47.334 -19.333 80.001 -28c35.333 -9.33301 64.833 -20 88.5 -32
s41.334 -25.833 53.001 -41.5s17.5 -34.5 17.5 -56.5c0 -25.333 -6.16699 -48.333 -18.5 -69s-32 -36.834 -59 -48.501s-62.167 -17.5 -105.5 -17.5v0zM247.998 509.999l-25 18l88 146l40 -30z" />
    <glyph glyph-name="Scircumflex" unicode="&#x15c;" 
d="M253 -10c-40.667 0 -76.4951 6.66992 -107.495 20.0029s-58.833 33 -83.5 59l29 42l5 7l6 -4c0 -4 1.16699 -8.5 3.5 -13.5s7.16602 -11.167 14.499 -18.5c17.333 -14.667 37.833 -26.334 61.5 -35.001s49.5 -13 77.5 -13c20.667 0 39.5 3.16699 56.5 9.5
s31.667 15.166 44 26.499s21.666 24.666 27.999 39.999s9.5 31.666 9.5 48.999c0 12 -1.16699 23 -3.5 33s-6.66602 19.5 -12.999 28.5s-15 17.833 -26 26.5s-25.167 17.5 -42.5 26.5s-38 18.5 -62 28.5c-39.333 15.333 -71.5 32 -96.5 50s-43.167 37.5 -54.5 58.5
s-17 43.167 -17 66.5c0 30.667 7.16699 57.5 21.5 80.5s35 41 62 54s59.167 19.5 96.5 19.5c22.667 0 44.167 -3 64.5 -9s38.833 -14.667 55.5 -26s31 -25 43 -41l-27 -34l-6 -7l-5 4c0 4.66699 -1 9.33398 -3 14.001s-6.66699 11 -14 19c-15.333 14 -32.5 24 -51.5 30
s-41.167 9.33301 -66.5 10c-18 0 -34.333 -2.83301 -49 -8.5s-27.334 -13.5 -38.001 -23.5s-18.834 -21.5 -24.501 -34.5s-8.5 -27.167 -8.5 -42.5c0 -12 1.5 -23 4.5 -33s8.16699 -19.833 15.5 -29.5s17.166 -19 29.499 -28s27.833 -18.167 46.5 -27.5s41 -19.333 67 -30
c28 -11.333 51.667 -23 71 -35s34.666 -24.833 45.999 -38.5s19.666 -28.167 24.999 -43.5s8 -32 8 -50c0 -30 -7 -58.5 -21 -85.5s-35.167 -49 -63.5 -66s-64.166 -25.5 -107.499 -25.5v0zM132.005 667.003l-23 27l138 89h16l144 -90l-22 -26l-128 71z" />
    <glyph glyph-name="scircumflex" unicode="&#x15d;" 
d="M252 -10c-24.667 0.666992 -48.1689 3.49902 -70.502 8.49902s-43.5 12.833 -63.5 23.5s-38.667 24 -56 40l28 44l6 7l6 -4c0 -4 1 -8.33301 3 -13s7 -11 15 -19c16 -13.333 35.167 -24.166 57.5 -32.499s47.833 -12.5 76.5 -12.5c30 0 54.667 3.33301 74 10
s34 16.5 44 29.5s15 28.833 15 47.5c0 11.333 -2.66699 21.666 -8 30.999s-13.5 17.833 -24.5 25.5s-24.833 14.834 -41.5 21.501s-36.334 13 -59.001 19c-32.667 8.66699 -61.5 19.334 -86.5 32.001s-44.667 27.5 -59 44.5s-21.5 36.5 -21.5 58.5
c0 22.667 6.5 42.5 19.5 59.5s31.667 30.167 56 39.5s54.166 14 89.499 14c21.333 0 40.333 -1.33301 57 -4s32 -6.83398 46 -12.501s26.833 -12.667 38.5 -21s22.834 -18.166 33.501 -29.499l-28 -35l-6 -8l-5 5c0 4.66699 -1.16699 9.16699 -3.5 13.5
s-7.5 10.5 -15.5 18.5c-14.667 11.333 -31.667 20 -51 26s-40.333 9 -63 9c-37.333 0 -66.5 -6.33301 -87.5 -19s-31.5 -30.667 -31.5 -54c0 -14 4.83301 -26.667 14.5 -38s24.834 -22 45.501 -32s47.334 -19.333 80.001 -28c35.333 -9.33301 64.833 -20 88.5 -32
s41.334 -25.833 53.001 -41.5s17.5 -34.5 17.5 -56.5c0 -25.333 -6.16699 -48.333 -18.5 -69s-32 -36.834 -59 -48.501s-62.167 -17.5 -105.5 -17.5v0zM126.998 511.999l-28 23l141 140h20l141 -140l-27 -23l-124 119z" />
    <glyph glyph-name="Scedilla" unicode="&#x15e;" 
d="M253 -10c-40.667 0 -76.4951 6.66992 -107.495 20.0029s-58.833 33 -83.5 59l29 42l5 7l6 -4c0 -4 1.16699 -8.5 3.5 -13.5s7.16602 -11.167 14.499 -18.5c17.333 -14.667 37.833 -26.334 61.5 -35.001s49.5 -13 77.5 -13c20.667 0 39.5 3.16699 56.5 9.5
s31.667 15.166 44 26.499s21.666 24.666 27.999 39.999s9.5 31.666 9.5 48.999c0 12 -1.16699 23 -3.5 33s-6.66602 19.5 -12.999 28.5s-15 17.833 -26 26.5s-25.167 17.5 -42.5 26.5s-38 18.5 -62 28.5c-39.333 15.333 -71.5 32 -96.5 50s-43.167 37.5 -54.5 58.5
s-17 43.167 -17 66.5c0 30.667 7.16699 57.5 21.5 80.5s35 41 62 54s59.167 19.5 96.5 19.5c22.667 0 44.167 -3 64.5 -9s38.833 -14.667 55.5 -26s31 -25 43 -41l-27 -34l-6 -7l-5 4c0 4.66699 -1 9.33398 -3 14.001s-6.66699 11 -14 19c-15.333 14 -32.5 24 -51.5 30
s-41.167 9.33301 -66.5 10c-18 0 -34.333 -2.83301 -49 -8.5s-27.334 -13.5 -38.001 -23.5s-18.834 -21.5 -24.501 -34.5s-8.5 -27.167 -8.5 -42.5c0 -12 1.5 -23 4.5 -33s8.16699 -19.833 15.5 -29.5s17.166 -19 29.499 -28s27.833 -18.167 46.5 -27.5s41 -19.333 67 -30
c28 -11.333 51.667 -23 71 -35s34.666 -24.833 45.999 -38.5s19.666 -28.167 24.999 -43.5s8 -32 8 -50c0 -30 -7 -58.5 -21 -85.5s-35.167 -49 -63.5 -66s-64.166 -25.5 -107.499 -25.5v0zM244.005 -193.997c-16.667 0 -32.333 1.83301 -47 5.5s-29 9.5 -43 17.5l18 32
c11.333 -7.33301 24.166 -12.833 38.499 -16.5s29.833 -5.5 46.5 -5.5c19.333 0 34 3.5 44 10.5s15 17.167 15 30.5c0 11.333 -5.66699 20.333 -17 27s-25.666 10 -42.999 10h-25l11 83h33l-7 -53c21.333 -1.33301 38.333 -5.33301 51 -12s22 -14.5 28 -23.5
s9 -17.833 9 -26.5c0 -22 -9.16699 -40.667 -27.5 -56s-46.5 -23 -84.5 -23z" />
    <glyph glyph-name="scedilla" unicode="&#x15f;" 
d="M252 -10c-24.667 0.666992 -48.1689 3.49902 -70.502 8.49902s-43.5 12.833 -63.5 23.5s-38.667 24 -56 40l28 44l6 7l6 -4c0 -4 1 -8.33301 3 -13s7 -11 15 -19c16 -13.333 35.167 -24.166 57.5 -32.499s47.833 -12.5 76.5 -12.5c30 0 54.667 3.33301 74 10
s34 16.5 44 29.5s15 28.833 15 47.5c0 11.333 -2.66699 21.666 -8 30.999s-13.5 17.833 -24.5 25.5s-24.833 14.834 -41.5 21.501s-36.334 13 -59.001 19c-32.667 8.66699 -61.5 19.334 -86.5 32.001s-44.667 27.5 -59 44.5s-21.5 36.5 -21.5 58.5
c0 22.667 6.5 42.5 19.5 59.5s31.667 30.167 56 39.5s54.166 14 89.499 14c21.333 0 40.333 -1.33301 57 -4s32 -6.83398 46 -12.501s26.833 -12.667 38.5 -21s22.834 -18.166 33.501 -29.499l-28 -35l-6 -8l-5 5c0 4.66699 -1.16699 9.16699 -3.5 13.5
s-7.5 10.5 -15.5 18.5c-14.667 11.333 -31.667 20 -51 26s-40.333 9 -63 9c-37.333 0 -66.5 -6.33301 -87.5 -19s-31.5 -30.667 -31.5 -54c0 -14 4.83301 -26.667 14.5 -38s24.834 -22 45.501 -32s47.334 -19.333 80.001 -28c35.333 -9.33301 64.833 -20 88.5 -32
s41.334 -25.833 53.001 -41.5s17.5 -34.5 17.5 -56.5c0 -25.333 -6.16699 -48.333 -18.5 -69s-32 -36.834 -59 -48.501s-62.167 -17.5 -105.5 -17.5v0zM267.998 -194.001c-16.667 0 -32.333 1.83301 -47 5.5s-29 9.5 -43 17.5l18 32
c11.333 -7.33301 24.166 -12.833 38.499 -16.5s29.833 -5.5 46.5 -5.5c19.333 0 34 3.5 44 10.5s15 17.167 15 30.5c0 11.333 -5.66699 20.333 -17 27s-25.666 10 -42.999 10h-25l11 83h33l-7 -53c21.333 -1.33301 38.333 -5.33301 51 -12s22 -14.5 28 -23.5
s9 -17.833 9 -26.5c0 -22 -9.16699 -40.667 -27.5 -56s-46.5 -23 -84.5 -23z" />
    <glyph glyph-name="Scaron" unicode="&#x160;" 
d="M253 -10c-40.667 0 -76.4951 6.66992 -107.495 20.0029s-58.833 33 -83.5 59l29 42l5 7l6 -4c0 -4 1.16699 -8.5 3.5 -13.5s7.16602 -11.167 14.499 -18.5c17.333 -14.667 37.833 -26.334 61.5 -35.001s49.5 -13 77.5 -13c20.667 0 39.5 3.16699 56.5 9.5
s31.667 15.166 44 26.499s21.666 24.666 27.999 39.999s9.5 31.666 9.5 48.999c0 12 -1.16699 23 -3.5 33s-6.66602 19.5 -12.999 28.5s-15 17.833 -26 26.5s-25.167 17.5 -42.5 26.5s-38 18.5 -62 28.5c-39.333 15.333 -71.5 32 -96.5 50s-43.167 37.5 -54.5 58.5
s-17 43.167 -17 66.5c0 30.667 7.16699 57.5 21.5 80.5s35 41 62 54s59.167 19.5 96.5 19.5c22.667 0 44.167 -3 64.5 -9s38.833 -14.667 55.5 -26s31 -25 43 -41l-27 -34l-6 -7l-5 4c0 4.66699 -1 9.33398 -3 14.001s-6.66699 11 -14 19c-15.333 14 -32.5 24 -51.5 30
s-41.167 9.33301 -66.5 10c-18 0 -34.333 -2.83301 -49 -8.5s-27.334 -13.5 -38.001 -23.5s-18.834 -21.5 -24.501 -34.5s-8.5 -27.167 -8.5 -42.5c0 -12 1.5 -23 4.5 -33s8.16699 -19.833 15.5 -29.5s17.166 -19 29.499 -28s27.833 -18.167 46.5 -27.5s41 -19.333 67 -30
c28 -11.333 51.667 -23 71 -35s34.666 -24.833 45.999 -38.5s19.666 -28.167 24.999 -43.5s8 -32 8 -50c0 -30 -7 -58.5 -21 -85.5s-35.167 -49 -63.5 -66s-64.166 -25.5 -107.499 -25.5v0zM383.005 780.003l23 -27l-138 -90h-16l-144 90l22 26l128 -71z" />
    <glyph glyph-name="scaron" unicode="&#x161;" 
d="M252 -10c-24.667 0.666992 -48.1689 3.49902 -70.502 8.49902s-43.5 12.833 -63.5 23.5s-38.667 24 -56 40l28 44l6 7l6 -4c0 -4 1 -8.33301 3 -13s7 -11 15 -19c16 -13.333 35.167 -24.166 57.5 -32.499s47.833 -12.5 76.5 -12.5c30 0 54.667 3.33301 74 10
s34 16.5 44 29.5s15 28.833 15 47.5c0 11.333 -2.66699 21.666 -8 30.999s-13.5 17.833 -24.5 25.5s-24.833 14.834 -41.5 21.501s-36.334 13 -59.001 19c-32.667 8.66699 -61.5 19.334 -86.5 32.001s-44.667 27.5 -59 44.5s-21.5 36.5 -21.5 58.5
c0 22.667 6.5 42.5 19.5 59.5s31.667 30.167 56 39.5s54.166 14 89.499 14c21.333 0 40.333 -1.33301 57 -4s32 -6.83398 46 -12.501s26.833 -12.667 38.5 -21s22.834 -18.166 33.501 -29.499l-28 -35l-6 -8l-5 5c0 4.66699 -1.16699 9.16699 -3.5 13.5
s-7.5 10.5 -15.5 18.5c-14.667 11.333 -31.667 20 -51 26s-40.333 9 -63 9c-37.333 0 -66.5 -6.33301 -87.5 -19s-31.5 -30.667 -31.5 -54c0 -14 4.83301 -26.667 14.5 -38s24.834 -22 45.501 -32s47.334 -19.333 80.001 -28c35.333 -9.33301 64.833 -20 88.5 -32
s41.334 -25.833 53.001 -41.5s17.5 -34.5 17.5 -56.5c0 -25.333 -6.16699 -48.333 -18.5 -69s-32 -36.834 -59 -48.501s-62.167 -17.5 -105.5 -17.5v0zM131.998 686.999l123 -118l124 118l27 -23l-141 -140h-20l-141 140z" />
    <glyph glyph-name="uni0162" unicode="&#x162;" 
d="M219 0v581h-188v43h432v-43h-195v-581h-49zM247 -194c-16.667 0 -32.333 1.83301 -47 5.5s-29 9.5 -43 17.5l18 32c11.333 -7.33301 24.166 -12.833 38.499 -16.5s29.833 -5.5 46.5 -5.5c19.333 0 34 3.5 44 10.5s15 17.167 15 30.5c0 11.333 -5.66699 20.333 -17 27
s-25.666 10 -42.999 10h-25l11 83h33l-7 -53c21.333 -1.33301 38.333 -5.33301 51 -12s22 -14.5 28 -23.5s9 -17.833 9 -26.5c0 -22 -9.16699 -40.667 -27.5 -56s-46.5 -23 -84.5 -23z" />
    <glyph glyph-name="uni0163" unicode="&#x163;" 
d="M299 -7c-29.333 0 -52.832 4.99902 -70.499 14.999s-30.834 25.5 -39.501 46.5s-14 47.5 -16 79.5s-2.33301 70 -1 114l12 329l50 6l9 1l1 -7c-3.33301 -3.33301 -5.83301 -7.33301 -7.5 -12s-2.83398 -12.667 -3.50098 -24l-7 -107l1 -16l-7 -174
c-2 -53.333 -1 -95.166 3 -125.499s12.5 -51.666 25.5 -63.999s32.167 -18.833 57.5 -19.5c22 0 42.833 4.16699 62.5 12.5s38.834 19.166 57.501 32.499l18 -38c-22.667 -16.667 -46 -29 -70 -37s-49 -12 -75 -12v0zM70.001 451.999h329v-41h-329v41zM247.001 -194.001
c-16.667 0 -32.333 1.83301 -47 5.5s-29 9.5 -43 17.5l18 32c11.333 -7.33301 24.166 -12.833 38.499 -16.5s29.833 -5.5 46.5 -5.5c19.333 0 34 3.5 44 10.5s15 17.167 15 30.5c0 11.333 -5.66699 20.333 -17 27s-25.666 10 -42.999 10h-25l11 83h33l-7 -53
c21.333 -1.33301 38.333 -5.33301 51 -12s22 -14.5 28 -23.5s9 -17.833 9 -26.5c0 -22 -9.16699 -40.667 -27.5 -56s-46.5 -23 -84.5 -23z" />
    <glyph glyph-name="Tcaron" unicode="&#x164;" 
d="M219 0v581h-188v43h432v-43h-195v-581h-49zM372 780l23 -27l-138 -90h-16l-144 90l22 26l128 -71z" />
    <glyph glyph-name="tcaron" unicode="&#x165;" 
d="M299 -7c-29.333 0 -52.832 4.99902 -70.499 14.999s-30.834 25.5 -39.501 46.5s-14 47.5 -16 79.5s-2.33301 70 -1 114l12 329l50 6l9 1l1 -7c-3.33301 -3.33301 -5.83301 -7.33301 -7.5 -12s-2.83398 -12.667 -3.50098 -24l-7 -107l1 -16l-7 -174
c-2 -53.333 -1 -95.166 3 -125.499s12.5 -51.666 25.5 -63.999s32.167 -18.833 57.5 -19.5c22 0 42.833 4.16699 62.5 12.5s38.834 19.166 57.501 32.499l18 -38c-22.667 -16.667 -46 -29 -70 -37s-49 -12 -75 -12v0zM70.001 451.999h329v-41h-329v41zM380.001 496.999
l-21.001 20.999c10.667 10 19.5 20.167 26.5 30.5s12.333 20 16 29s5.5 17.167 5.5 24.5c0 6.66699 -1.5 12 -4.5 16s-6.66699 7.83301 -11 11.5s-8.16602 7.83398 -11.499 12.501s-5 10.667 -5 18c0 12 3.5 21.333 10.5 28s16.167 10 27.5 10c10 0 19 -4.83301 27 -14.5
s12 -21.834 12 -36.501c0 -15.333 -2.33301 -31.166 -7 -47.499s-12.167 -33 -22.5 -50s-24.5 -34.5 -42.5 -52.5z" />
    <glyph glyph-name="Tbar" unicode="&#x166;" 
d="M219 0v581h-188v43h432v-43h-195v-581h-49zM91 290v41h322v-41h-322z" />
    <glyph glyph-name="tbar" unicode="&#x167;" 
d="M66 227v40h326v-40h-326zM299 -7c-29.333 0 -52.832 4.99902 -70.499 14.999s-30.834 25.5 -39.501 46.5s-14 47.5 -16 79.5s-2.33301 70 -1 114l12 329l50 6l9 1l1 -7c-3.33301 -3.33301 -5.83301 -7.33301 -7.5 -12s-2.83398 -12.667 -3.50098 -24l-7 -107l1 -16
l-7 -174c-2 -53.333 -1 -95.166 3 -125.499s12.5 -51.666 25.5 -63.999s32.167 -18.833 57.5 -19.5c22 0 42.833 4.16699 62.5 12.5s38.834 19.166 57.501 32.499l18 -38c-22.667 -16.667 -46 -29 -70 -37s-49 -12 -75 -12v0zM70.001 451.999h329v-41h-329v41z" />
    <glyph glyph-name="Utilde" unicode="&#x168;" 
d="M251 -11c-62.667 0 -110.166 19.833 -142.499 59.5s-48.5 95.167 -48.5 166.5v408h48h9v-7c-4 -2.66699 -6.5 -6.16699 -7.5 -10.5s-1.16699 -12.166 -0.5 -23.499v-368c0 -56.667 11.333 -101.334 34 -134.001s59 -49 109 -49c50.667 0 87.667 15.833 111 47.5
s35 77.834 35 138.501v406h46v-405c0 -52.667 -7.66699 -95.834 -23 -129.501s-37.333 -58.667 -66 -75s-63.334 -24.5 -104.001 -24.5v0zM391.001 782l35.001 -19.001c-14.667 -26 -28.5 -44 -41.5 -54s-29.5 -15 -49.5 -15c-14.667 0 -28 2.83301 -40 8.5
s-23.167 12.334 -33.5 20.001s-20.333 14.334 -30 20.001s-19.834 8.5 -30.501 8.5c-12.667 0 -24 -3.5 -34 -10.5s-19.667 -19.167 -29 -36.5l-37 14c10.667 21.333 23.667 38.666 39 51.999s35 20 59 20c14.667 0 27.5 -2.83301 38.5 -8.5s21.5 -12.5 31.5 -20.5
s20.167 -14.833 30.5 -20.5s21.5 -8.5 33.5 -8.5s22.167 3.33301 30.5 10s17.5 20 27.5 40z" />
    <glyph glyph-name="utilde" unicode="&#x169;" 
d="M228 -11c-17.333 0 -33.835 2.50391 -49.502 7.50391s-30 12.833 -43 23.5s-24.167 24.167 -33.5 40.5s-16.5 35.833 -21.5 58.5s-7.5 48.667 -7.5 78l1 256h47v-256c0 -31.333 3.16699 -57.833 9.5 -79.5s15 -38.834 26 -51.501s23.833 -21.834 38.5 -27.501
s30.667 -8.5 48 -8.5c18.667 0 36.167 3.5 52.5 10.5s30.833 17.667 43.5 32s22.667 32.166 30 53.499s11 46.333 11 75v252h47v-371c0 -12 0.5 -25.667 1.5 -41s3.83301 -29 8.5 -41h-47c-3.33301 8 -5.66602 16.667 -6.99902 26s-2.16602 18.833 -2.49902 28.5
s-0.5 18.167 -0.5 25.5c-6.66699 -12.667 -14.5 -24.334 -23.5 -35.001s-19.667 -20.167 -32 -28.5s-26.5 -15 -42.5 -20s-34 -7.5 -54 -7.5zM386.998 668.004l35.001 -19.001c-14.667 -26 -28.5 -44 -41.5 -54s-29.5 -15 -49.5 -15c-14.667 0 -28 2.83301 -40 8.5
s-23.167 12.334 -33.5 20.001s-20.333 14.334 -30 20.001s-19.834 8.5 -30.501 8.5c-12.667 0 -24 -3.5 -34 -10.5s-19.667 -19.167 -29 -36.5l-37 14c10.667 21.333 23.667 38.666 39 51.999s35 20 59 20c14.667 0 27.5 -2.83301 38.5 -8.5s21.5 -12.5 31.5 -20.5
s20.167 -14.833 30.5 -20.5s21.5 -8.5 33.5 -8.5s22.167 3.33301 30.5 10s17.5 20 27.5 40z" />
    <glyph glyph-name="Umacron" unicode="&#x16a;" 
d="M251 -11c-62.667 0 -110.166 19.833 -142.499 59.5s-48.5 95.167 -48.5 166.5v408h48h9v-7c-4 -2.66699 -6.5 -6.16699 -7.5 -10.5s-1.16699 -12.166 -0.5 -23.499v-368c0 -56.667 11.333 -101.334 34 -134.001s59 -49 109 -49c50.667 0 87.667 15.833 111 47.5
s35 77.834 35 138.501v406h46v-405c0 -52.667 -7.66699 -95.834 -23 -129.501s-37.333 -58.667 -66 -75s-63.334 -24.5 -104.001 -24.5v0zM128.001 750v38h246v-38h-246z" />
    <glyph glyph-name="umacron" unicode="&#x16b;" 
d="M228 -11c-17.333 0 -33.835 2.50391 -49.502 7.50391s-30 12.833 -43 23.5s-24.167 24.167 -33.5 40.5s-16.5 35.833 -21.5 58.5s-7.5 48.667 -7.5 78l1 256h47v-256c0 -31.333 3.16699 -57.833 9.5 -79.5s15 -38.834 26 -51.501s23.833 -21.834 38.5 -27.501
s30.667 -8.5 48 -8.5c18.667 0 36.167 3.5 52.5 10.5s30.833 17.667 43.5 32s22.667 32.166 30 53.499s11 46.333 11 75v252h47v-371c0 -12 0.5 -25.667 1.5 -41s3.83301 -29 8.5 -41h-47c-3.33301 8 -5.66602 16.667 -6.99902 26s-2.16602 18.833 -2.49902 28.5
s-0.5 18.167 -0.5 25.5c-6.66699 -12.667 -14.5 -24.334 -23.5 -35.001s-19.667 -20.167 -32 -28.5s-26.5 -15 -42.5 -20s-34 -7.5 -54 -7.5zM127.998 584.004v38h246v-38h-246z" />
    <glyph glyph-name="Ubreve" unicode="&#x16c;" 
d="M251 -11c-62.667 0 -110.166 19.833 -142.499 59.5s-48.5 95.167 -48.5 166.5v408h48h9v-7c-4 -2.66699 -6.5 -6.16699 -7.5 -10.5s-1.16699 -12.166 -0.5 -23.499v-368c0 -56.667 11.333 -101.334 34 -134.001s59 -49 109 -49c50.667 0 87.667 15.833 111 47.5
s35 77.834 35 138.501v406h46v-405c0 -52.667 -7.66699 -95.834 -23 -129.501s-37.333 -58.667 -66 -75s-63.334 -24.5 -104.001 -24.5v0zM348.001 778l36.002 -14.999c-14.667 -28 -33.334 -49 -56.001 -63s-48.667 -21 -78 -21c-28 0 -53.5 7.16699 -76.5 21.5
s-41.833 35.166 -56.5 62.499l36 17c11.333 -22.667 25.166 -39.5 41.499 -50.5s34.833 -16.5 55.5 -16.5c14 0 27 2.16699 39 6.5s23 11.5 33 21.5s18.667 22.333 26 37z" />
    <glyph glyph-name="ubreve" unicode="&#x16d;" 
d="M228 -11c-17.333 0 -33.835 2.50391 -49.502 7.50391s-30 12.833 -43 23.5s-24.167 24.167 -33.5 40.5s-16.5 35.833 -21.5 58.5s-7.5 48.667 -7.5 78l1 256h47v-256c0 -31.333 3.16699 -57.833 9.5 -79.5s15 -38.834 26 -51.501s23.833 -21.834 38.5 -27.501
s30.667 -8.5 48 -8.5c18.667 0 36.167 3.5 52.5 10.5s30.833 17.667 43.5 32s22.667 32.166 30 53.499s11 46.333 11 75v252h47v-371c0 -12 0.5 -25.667 1.5 -41s3.83301 -29 8.5 -41h-47c-3.33301 8 -5.66602 16.667 -6.99902 26s-2.16602 18.833 -2.49902 28.5
s-0.5 18.167 -0.5 25.5c-6.66699 -12.667 -14.5 -24.334 -23.5 -35.001s-19.667 -20.167 -32 -28.5s-26.5 -15 -42.5 -20s-34 -7.5 -54 -7.5zM347.998 645.004l36.002 -14.999c-14.667 -28 -33.334 -49 -56.001 -63s-48.667 -21 -78 -21c-28 0 -53.5 7.16699 -76.5 21.5
s-41.833 35.166 -56.5 62.499l36 17c11.333 -22.667 25.166 -39.5 41.499 -50.5s34.833 -16.5 55.5 -16.5c14 0 27 2.16699 39 6.5s23 11.5 33 21.5s18.667 22.333 26 37z" />
    <glyph glyph-name="Uring" unicode="&#x16e;" 
d="M251 -11c-62.667 0 -110.166 19.833 -142.499 59.5s-48.5 95.167 -48.5 166.5v408h48h9v-7c-4 -2.66699 -6.5 -6.16699 -7.5 -10.5s-1.16699 -12.166 -0.5 -23.499v-368c0 -56.667 11.333 -101.334 34 -134.001s59 -49 109 -49c50.667 0 87.667 15.833 111 47.5
s35 77.834 35 138.501v406h46v-405c0 -52.667 -7.66699 -95.834 -23 -129.501s-37.333 -58.667 -66 -75s-63.334 -24.5 -104.001 -24.5v0zM250.001 620c-16 0 -30.665 4.00098 -43.998 12.001s-24 18.333 -32 31s-12 26.667 -12 42s4.16699 29.333 12.5 42
s19.166 22.834 32.499 30.501s27.666 11.5 42.999 11.5c16 0 30.5 -3.83301 43.5 -11.5s23.5 -17.834 31.5 -30.501s12 -27.334 12 -44.001c0 -14 -3.83301 -27.5 -11.5 -40.5s-18 -23.333 -31 -31s-27.833 -11.5 -44.5 -11.5zM251.003 652.001c14 0 25.833 5 35.5 15
s14.5 22.333 14.5 37c0 16 -4.83301 29 -14.5 39s-21.5 15 -35.5 15c-13.333 0 -25.333 -5 -36 -15s-16 -23 -16 -39c0 -14.667 5.33301 -27 16 -37s22.667 -15 36 -15z" />
    <glyph glyph-name="uring" unicode="&#x16f;" 
d="M228 -11c-17.333 0 -33.835 2.50391 -49.502 7.50391s-30 12.833 -43 23.5s-24.167 24.167 -33.5 40.5s-16.5 35.833 -21.5 58.5s-7.5 48.667 -7.5 78l1 256h47v-256c0 -31.333 3.16699 -57.833 9.5 -79.5s15 -38.834 26 -51.501s23.833 -21.834 38.5 -27.501
s30.667 -8.5 48 -8.5c18.667 0 36.167 3.5 52.5 10.5s30.833 17.667 43.5 32s22.667 32.166 30 53.499s11 46.333 11 75v252h47v-371c0 -12 0.5 -25.667 1.5 -41s3.83301 -29 8.5 -41h-47c-3.33301 8 -5.66602 16.667 -6.99902 26s-2.16602 18.833 -2.49902 28.5
s-0.5 18.167 -0.5 25.5c-6.66699 -12.667 -14.5 -24.334 -23.5 -35.001s-19.667 -20.167 -32 -28.5s-26.5 -15 -42.5 -20s-34 -7.5 -54 -7.5zM251.998 519.004c-15.333 0 -29.667 4 -43 12s-24 18.333 -32 31s-12 26.667 -12 42s4.16699 29.333 12.5 42s19 22.834 32 30.501
s27.167 11.5 42.5 11.5c16 0 30.5 -3.83301 43.5 -11.5s23.5 -17.834 31.5 -30.501s12 -27 12 -43c0 -14.667 -3.83301 -28.5 -11.5 -41.5s-18 -23.333 -31 -31s-27.833 -11.5 -44.5 -11.5zM252.997 551.004c14 0 25.999 5.16699 35.999 15.5s15 22.833 15 37.5
c0 15.333 -5.16699 28 -15.5 38s-22.166 15 -35.499 15s-25.333 -5 -36 -15s-16 -22.667 -16 -38c0 -14.667 5.33301 -27.167 16 -37.5s22.667 -15.5 36 -15.5z" />
    <glyph glyph-name="Uhungarumlaut" unicode="&#x170;" 
d="M251 -11c-62.667 0 -110.166 19.833 -142.499 59.5s-48.5 95.167 -48.5 166.5v408h48h9v-7c-4 -2.66699 -6.5 -6.16699 -7.5 -10.5s-1.16699 -12.166 -0.5 -23.499v-368c0 -56.667 11.333 -101.334 34 -134.001s59 -49 109 -49c50.667 0 87.667 15.833 111 47.5
s35 77.834 35 138.501v406h46v-405c0 -52.667 -7.66699 -95.834 -23 -129.501s-37.333 -58.667 -66 -75s-63.334 -24.5 -104.001 -24.5v0zM286.001 653l-22 28l132 117l31 -45zM108.001 653l-22 28l132 117l33 -45z" />
    <glyph glyph-name="uhungarumlaut" unicode="&#x171;" 
d="M228 -11c-17.333 0 -33.835 2.50391 -49.502 7.50391s-30 12.833 -43 23.5s-24.167 24.167 -33.5 40.5s-16.5 35.833 -21.5 58.5s-7.5 48.667 -7.5 78l1 256h47v-256c0 -31.333 3.16699 -57.833 9.5 -79.5s15 -38.834 26 -51.501s23.833 -21.834 38.5 -27.501
s30.667 -8.5 48 -8.5c18.667 0 36.167 3.5 52.5 10.5s30.833 17.667 43.5 32s22.667 32.166 30 53.499s11 46.333 11 75v252h47v-371c0 -12 0.5 -25.667 1.5 -41s3.83301 -29 8.5 -41h-47c-3.33301 8 -5.66602 16.667 -6.99902 26s-2.16602 18.833 -2.49902 28.5
s-0.5 18.167 -0.5 25.5c-6.66699 -12.667 -14.5 -24.334 -23.5 -35.001s-19.667 -20.167 -32 -28.5s-26.5 -15 -42.5 -20s-34 -7.5 -54 -7.5zM326.998 524.004l-32 20l89 143l43 -30zM171.998 524.004l-32 20l89 143l43 -30z" />
    <glyph glyph-name="Uogonek" unicode="&#x172;" 
d="M251 -11c-62.667 0 -110.166 19.833 -142.499 59.5s-48.5 95.167 -48.5 166.5v408h48h9v-7c-4 -2.66699 -6.5 -6.16699 -7.5 -10.5s-1.16699 -12.166 -0.5 -23.499v-368c0 -56.667 11.333 -101.334 34 -134.001s59 -49 109 -49c50.667 0 87.667 15.833 111 47.5
s35 77.834 35 138.501v406h46v-405c0 -52.667 -7.66699 -95.834 -23 -129.501s-37.333 -58.667 -66 -75s-63.334 -24.5 -104.001 -24.5v0zM318.001 -178l-10 -35.0039c-19.333 1.33301 -37 5.33301 -53 12s-28.667 15.834 -38 27.501s-14 26.167 -14 43.5c0 18 5 36 15 54
s23.833 35.5 41.5 52.5s37.167 32.833 58.5 47.5l23 -14c-17.333 -13.333 -33 -27.666 -47 -42.999s-25.167 -30.666 -33.5 -45.999s-12.5 -29.666 -12.5 -42.999c0 -17.333 5.66699 -30.5 17 -39.5s29 -14.5 53 -16.5z" />
    </font>
</defs>
</svg>
