<?xml version="1.0" standalone="no"?>
<!DOCTYPE svg PUBLIC "-//W3C//DTD SVG 1.1//EN" "http://www.w3.org/Graphics/SVG/1.1/DTD/svg11.dtd" >
<svg>
<metadata>
Created by FontForge 20090914 at Sat Jan 16 11:14:59 2021
 By www-data
Copyright 2006 The Inconsolata Project Authors (https://github.com/cyrealtype/Inconsolata)
</metadata>
<defs>
<font id="Inconsolata-Regular" horiz-adv-x="500" >
  <font-face 
    font-family="Inconsolata"
    font-weight="400"
    font-stretch="normal"
    units-per-em="1000"
    panose-1="0 0 5 9 0 0 0 0 0 0"
    ascent="800"
    descent="-200"
    x-height="456.999"
    cap-height="623"
    bbox="-80 -400 1455 1000"
    underline-thickness="50"
    underline-position="-175"
    unicode-range="U+000D-U+FFFD"
  />
<missing-glyph 
 />
    <glyph glyph-name=".notdef" 
 />
    <glyph glyph-name="NULL" 
 />
    <glyph glyph-name="NULL" 
 />
    <glyph glyph-name="CR" unicode="&#xd;" 
 />
    <glyph glyph-name="space" unicode=" " 
 />
    <glyph glyph-name="exclam" unicode="!" 
d="M215 194l-25 400c0 16 2 29.5 6 40.5s9.83301 19.333 17.5 25s16.834 8.5 27.501 8.5s19.667 -2.83301 27 -8.5s13.166 -14.667 17.499 -27s6.5 -28.5 6.5 -48.5l-27 -390h-50zM239 -11c-16 0 -29.833 5.66699 -41.5 17s-17.5 25 -17.5 41s5.83301 30 17.5 42
s25.5 18 41.5 18s30 -6 42 -18s18 -26 18 -42c0 -15.333 -6 -28.833 -18 -40.5s-26 -17.5 -42 -17.5z" />
    <glyph glyph-name="quotedbl" unicode="&#x22;" 
d="M135 665h80.002c0 -40 -0.333008 -72 -1 -96s-1.83398 -44.167 -3.50098 -60.5s-3.5 -32 -5.5 -47s-4 -33.167 -6 -54.5h-48c-2 21.333 -4 39.5 -6 54.5s-3.83301 30.5 -5.5 46.5s-2.83398 36.167 -3.50098 60.5s-1 56.5 -1 96.5zM285.002 665h80.002
c0 -40 -0.333008 -72 -1 -96s-1.83398 -44.167 -3.50098 -60.5s-3.5 -32 -5.5 -47s-4 -33.167 -6 -54.5h-48c-2 21.333 -4 39.5 -6 54.5s-3.83301 30.5 -5.5 46.5s-2.83398 36.167 -3.50098 60.5s-1 56.5 -1 96.5z" />
    <glyph glyph-name="numbersign" unicode="#" 
d="M270 10l22 183h-111l-21 -179l-59 -1l21 178h-97l4 45h99l20 171h-109l3 46h111l20 171l61 2l-21 -171h110l20 167l62 1l-20 -166h91l-6 -47h-91l-21 -169h99l-5 -45h-99l-22 -182zM187 238h110l21 170h-111z" />
    <glyph glyph-name="dollar" unicode="$" 
d="M235 -47l-0.000976562 61.0059c-24 2 -46.5 6.16699 -67.5 12.5s-40.333 15.166 -58 26.499s-34.167 25 -49.5 41l43 60c2.66699 -2 4 -5.33301 4 -10s1 -8.33398 3 -11.001c11.333 -12 23.333 -22.167 36 -30.5s26.5 -15 41.5 -20s30.833 -8.5 47.5 -10.5v220
c-34.667 12 -63.5 25.167 -86.5 39.5s-40.333 31 -52 50s-17.5 40.5 -17.5 64.5c0 24.667 6.66699 47.167 20 67.5s31.666 37.333 54.999 51s50.333 22.5 81 26.5v60h64c0.666992 -0.666992 1 -1.16699 1 -1.5v-1.5c0 -1.33301 -1 -3.5 -3 -6.5s-3.33301 -6.83301 -4 -11.5
v-38c21.333 -2 40.833 -6.33301 58.5 -13s34.167 -15.334 49.5 -26.001s29 -23.334 41 -38.001l-43 -54c-3.33301 1.33301 -5.16602 4.33301 -5.49902 9s-2.16602 8.66699 -5.49902 12c-6 6.66699 -12.333 12.834 -19 18.501s-14 10.5 -22 14.5s-16.5 7.5 -25.5 10.5
s-18.5 5.5 -28.5 7.5v-193c38.667 -12 70.167 -25 94.5 -39s42.5 -30.5 54.5 -49.5s18 -42.5 18 -70.5c0 -24.667 -6.66699 -48.834 -20 -72.501s-32.5 -43.834 -57.5 -60.501s-54.833 -27.334 -89.5 -32.001v-63h-58zM292.999 74.0059c21.333 4 39.667 11.1689 55 21.502
s27 22.666 35 36.999s12 29.166 12 44.499c0 16 -3.5 29.667 -10.5 41s-18 21.5 -33 30.5s-34.5 17.167 -58.5 24.5v-199zM235 361.008v173c-20 -2 -36.667 -7 -50 -15s-23.333 -17.5 -30 -28.5s-10 -23.167 -10 -36.5c0 -12.667 3.33301 -24.5 10 -35.5
s16.667 -21.333 30 -31s30 -18.5 50 -26.5z" />
    <glyph glyph-name="percent" unicode="%" 
d="M46 0l345 623h57l-348 -623h-54zM371 -10c-20 0 -38.501 5.66797 -55.501 17.001s-30.667 26.833 -41 46.5s-15.5 41.5 -15.5 65.5c0 24.667 5.16699 46.667 15.5 66s24 34.833 41 46.5s35.5 17.5 55.5 17.5c20.667 0 39.334 -5.83301 56.001 -17.5
s30 -27.334 40 -47.001s15 -41.5 15 -65.5s-5 -45.833 -15 -65.5s-23.5 -35.167 -40.5 -46.5s-35.5 -17 -55.5 -17zM371.999 40.001c9.33301 0 17.833 2.83105 25.5 8.49805s13.834 14.334 18.501 26.001s7 26.167 7 43.5c0 15.333 -2.16699 29 -6.5 41
s-10.333 21.5 -18 28.5s-17.167 10.5 -28.5 10.5c-8.66699 0 -17 -2.66699 -25 -8s-14.5 -13.666 -19.5 -24.999s-7.5 -26.333 -7.5 -45s2.66699 -34 8 -46s12.166 -20.667 20.499 -26s16.833 -8 25.5 -8zM139.999 372.999c-20 0 -38.501 5.66895 -55.501 17.002
s-30.667 27 -41 47s-15.5 42.333 -15.5 67s5.16699 46.667 15.5 66s24 34.833 41 46.5s35.5 17.5 55.5 17.5c20.667 0 39.334 -5.83301 56.001 -17.5s30.167 -27.334 40.5 -47.001s15.5 -41.834 15.5 -66.501c0 -25.333 -4.83301 -47.833 -14.5 -67.5s-23 -35 -40 -46
s-36.167 -16.5 -57.5 -16.5zM139.998 426.001c8.66699 0 16.666 2.49707 23.999 7.49707s13.333 13.333 18 25s7 26.834 7 45.501c0 14 -1.5 26 -4.5 36s-6.83301 18.167 -11.5 24.5s-10.167 10.833 -16.5 13.5s-12.5 4 -18.5 4c-8 0 -15.667 -2.5 -23 -7.5
s-13.5 -13.167 -18.5 -24.5s-7.5 -26.666 -7.5 -45.999c0 -18.667 2.5 -33.667 7.5 -45s11.333 -19.666 19 -24.999s15.834 -8 24.501 -8z" />
    <glyph glyph-name="ampersand" unicode="&#x26;" 
d="M416 -12l-55.0039 88c-13.333 -17.333 -29 -32.5 -47 -45.5s-37.333 -23 -58 -30s-42 -10.5 -64 -10.5c-30 0 -56.833 6.83301 -80.5 20.5s-42.167 32 -55.5 55s-20 48.167 -20 75.5c0 21.333 3 41.666 9 60.999s14.5 37.666 25.5 54.999s24.333 33.333 40 48
s32.834 27.334 51.501 38.001c-23.333 28.667 -41 56 -53 82s-18 50.333 -18 73c0 18.667 3.5 36 10.5 52s16.833 29.833 29.5 41.5s27.334 20.834 44.001 27.501s34.334 10 53.001 10c27.333 0 51 -6.33301 71 -19s35.667 -28.834 47 -48.501s17 -40.834 17 -63.501
c0 -16 -2.66699 -32.5 -8 -49.5s-12.833 -33 -22.5 -48s-21 -28.667 -34 -41s-27.5 -22.166 -43.5 -29.499l112 -157c8.66699 10 15.667 19.333 21 28s9.66602 16.834 12.999 24.501s5.83301 15.5 7.5 23.5s2.83398 16.333 3.50098 25c0 2 0.333008 3.83301 1 5.5
s1.66699 3.16699 3 4.5l65 -45c-7.33301 -13.333 -15.166 -26.5 -23.499 -39.5l-25.5 -38.5l-27 -38l70 -91zM198.996 54c16 0 31.166 2.83203 45.499 8.49902s28.166 13.667 41.499 24s26 22.5 38 36.5l-127 173c-13.333 -8 -25.166 -17.667 -35.499 -29
s-19.166 -23.333 -26.499 -36s-13 -25.667 -17 -39s-6 -26.666 -6 -39.999c0 -14 2.33301 -26.833 7 -38.5s11 -22 19 -31s17.167 -16 27.5 -21s21.5 -7.5 33.5 -7.5zM220.995 372.999c12 6 22.6689 13.334 32.002 22.001s17.333 18.5 24 29.5s11.667 22.333 15 34
s5 22.834 5 33.501c0 22 -6.83301 40.5 -20.5 55.5s-29.5 22.5 -47.5 22.5c-12 0 -23.333 -3 -34 -9s-19.167 -14.5 -25.5 -25.5s-9.5 -23.833 -9.5 -38.5c0 -10.667 2.16699 -22.334 6.5 -35.001s11.166 -26.334 20.499 -41.001s20.666 -30.667 33.999 -48z" />
    <glyph glyph-name="quotesingle" unicode="'" 
d="M210 665h80.002c0 -40 -0.333008 -72 -1 -96s-1.83398 -44.167 -3.50098 -60.5s-3.5 -32 -5.5 -47s-4 -33.167 -6 -54.5h-48c-2 21.333 -4 39.5 -6 54.5s-3.83301 30.5 -5.5 46.5s-2.83398 36.167 -3.50098 60.5s-1 56.5 -1 96.5z" />
    <glyph glyph-name="parenleft" unicode="(" 
d="M395 -104c-55.333 26 -103.499 60.832 -144.499 104.499s-72.667 93 -95 148s-33.5 112.167 -33.5 171.5s11 115.833 33 169.5s53 101.667 93 144s87 76.166 141 101.499l19 -62c-32 -17.333 -61.167 -38.666 -87.5 -63.999s-49 -53.333 -68 -84s-33.667 -63.667 -44 -99
s-15.5 -71.666 -15.5 -108.999s5.16699 -73.666 15.5 -108.999s25.166 -68.833 44.499 -100.5s42.5 -60.334 69.5 -86.001s57.5 -47.5 91.5 -65.5z" />
    <glyph glyph-name="parenright" unicode=")" 
d="M133 -104l-18.999 60.001c34 18 64.5 39.833 91.5 65.5s50.167 54.334 69.5 86.001s34.166 65.167 44.499 100.5s15.5 71.666 15.5 108.999s-5.16699 73.666 -15.5 108.999s-25 68.333 -44 99s-41.667 58.667 -68 84s-55.5 46.666 -87.5 63.999l19 62
c54 -25.333 101 -59.166 141 -101.499s71 -90.333 93 -144s33 -110.167 33 -169.5s-11.167 -116.5 -33.5 -171.5s-54 -104.333 -95 -148s-89.167 -78.5 -144.5 -104.5z" />
    <glyph glyph-name="asterisk" unicode="*" 
d="M138 123l-54 44l130 150l-173 53l26 65l162 -76l-16 177h78l-18 -177l159 72l26 -61l-171 -52l126 -151l-55 -43l-108 166z" />
    <glyph glyph-name="plus" unicode="+" 
d="M222 104v187h-177v61h177v171h63v-171h171v-61h-171v-187h-63z" />
    <glyph glyph-name="comma" unicode="," 
d="M199 -168l-34 29.998c18.667 17.333 34.167 36 46.5 56s18.5 36.333 18.5 49c0 6.66699 -2.5 12.834 -7.5 18.501s-11 11.167 -18 16.5s-13 11.5 -18 18.5s-7.5 14.833 -7.5 23.5c0 16.667 5.5 30.667 16.5 42s25.167 17 42.5 17s33 -7.66699 47 -23s21 -35.333 21 -60
c0 -13.333 -2.16699 -27.166 -6.5 -41.499s-11 -29.333 -20 -45s-20.167 -32 -33.5 -49s-29 -34.5 -47 -52.5z" />
    <glyph glyph-name="hyphen" unicode="-" 
d="M111 281v67h280v-67h-280z" />
    <glyph glyph-name="period" unicode="." 
d="M238 -11c-16 0 -29.667 5.66699 -41 17s-17 24.666 -17 39.999s5.66699 28.666 17 39.999s25 17 41 17c15.333 0 28.666 -5.66699 39.999 -17s17 -24.666 17 -39.999s-5.66699 -28.666 -17 -39.999s-24.666 -17 -39.999 -17z" />
    <glyph glyph-name="slash" unicode="/" 
d="M123 -42l-59 29l313 678l60 -31z" />
    <glyph glyph-name="zero" unicode="0" 
d="M107 154l267 343l23 -47l-267 -339zM250 -11c-41.333 0 -76.333 12.333 -105 37s-50.5 60.834 -65.5 108.501s-22.5 105.5 -22.5 173.5c0 66 7.5 122.833 22.5 170.5s36.833 84.334 65.5 110.001s63.667 38.5 105 38.5s76.333 -12.833 105 -38.5
s50.5 -62.334 65.5 -110.001s22.5 -104.5 22.5 -170.5c0 -68 -7.5 -125.833 -22.5 -173.5s-36.833 -83.834 -65.5 -108.501s-63.667 -37 -105 -37zM250 50c25.333 0 47 10 65 30s31.833 49.167 41.5 87.5s14.5 85.166 14.5 140.499c0 52.667 -4.83301 98.167 -14.5 136.5
s-23.5 68.166 -41.5 89.499s-39.667 32 -65 32s-47 -10.667 -65 -32s-31.833 -51.166 -41.5 -89.499s-14.5 -83.833 -14.5 -136.5c0 -55.333 4.83301 -102.166 14.5 -140.499s23.5 -67.5 41.5 -87.5s39.667 -30 65 -30z" />
    <glyph glyph-name="one" unicode="1" 
d="M230 0v537l-126 -37l-16 39l163 85h49v-624h-70z" />
    <glyph glyph-name="two" unicode="2" 
d="M73 56l98.9951 100.003l80.5 83.5c23.667 25.667 43.834 50 60.501 73s29.334 45.667 38.001 68s13 45.833 13 70.5c0 21.333 -2.66699 39.333 -8 54s-12.833 26.5 -22.5 35.5s-21 15.5 -34 19.5s-26.833 6 -41.5 6c-16 0 -31.333 -2.33301 -46 -7
s-28.667 -11.5 -42 -20.5s-25.666 -20.833 -36.999 -35.5c-6 -9.33301 -9.66699 -16.5 -11 -21.5s-1.66602 -10.167 -0.999023 -15.5l-4 -5l-8 5l-51 40c13.333 26 30 48 50 66s42.667 31.667 68 41s52.333 14 81 14c35.333 0 66.333 -7.16699 93 -21.5
s47.667 -34.833 63 -61.5s23 -58.334 23 -95.001c0 -27.333 -5 -53.833 -15 -79.5s-23.667 -50.834 -41 -75.501s-37.666 -49.334 -60.999 -74.001l-74.5 -76.5l-81.5 -82.5h232c11.333 0 19.333 0.666992 24 2s9 4 13 8h7v-10v-61h-366v56z" />
    <glyph glyph-name="three" unicode="3" 
d="M240 -11c-32.667 0 -64.002 6 -94.002 18s-55.667 29.667 -77 53l46 55l7 8l5 -5c0.666992 -5.33301 2 -10.5 4 -15.5s6.66699 -11.5 14 -19.5c11.333 -10 24.333 -18.167 39 -24.5s32.334 -9.5 53.001 -9.5c26.667 0 48.667 5.33301 66 16s30.333 25.5 39 44.5
s13 40.5 13 64.5s-4.16699 44.333 -12.5 61s-20.166 29.834 -35.499 39.501s-33.666 16.334 -54.999 20.001s-45.333 4.16699 -72 1.5v56c32 0 58.167 3.33301 78.5 10s36 15.667 47 27s18.5 24.5 22.5 39.5s6 30.5 6 46.5c0 14 -2.16699 26.667 -6.5 38s-10.333 21 -18 29
s-17 14.167 -28 18.5s-23.167 6.5 -36.5 6.5s-26.5 -1.5 -39.5 -4.5s-25.667 -7.83301 -38 -14.5s-24.5 -15.667 -36.5 -27l-42 42c22.667 23.333 47.5 39.833 74.5 49.5s53.833 14.5 80.5 14.5c34 0 63 -6.5 87 -19.5s42.5 -31.167 55.5 -54.5s19.5 -50.333 19.5 -81
c0 -21.333 -3.5 -41.5 -10.5 -60.5s-17.833 -35.5 -32.5 -49.5s-33 -24.667 -55 -32c23.333 -7.33301 44 -18.166 62 -32.499s32 -31.833 42 -52.5s15 -45.334 15 -74.001c0 -32.667 -7.16699 -62.834 -21.5 -90.501s-35.333 -49.834 -63 -66.501s-61.834 -25 -102.501 -25
v0z" />
    <glyph glyph-name="four" unicode="4" 
d="M318 0v153h-270v51l285 420h59v-413h80v-59h-80v-152h-74zM129 212h189v286z" />
    <glyph glyph-name="five" unicode="5" 
d="M249 -11c-38 0 -73.167 8.33203 -105.5 24.999s-58.833 40.334 -79.5 71.001l56 42l8 6l4 -5c-0.666992 -5.33301 0.166016 -10.333 2.49902 -15s6.83301 -11.334 13.5 -20.001c13.333 -14.667 28.166 -25.5 44.499 -32.5s36.5 -10.5 60.5 -10.5c16 0 31.333 3.5 46 10.5
s27.5 16.833 38.5 29.5s19.833 28.334 26.5 47.001s10 39.334 10 62.001c0 23.333 -3.33301 44.166 -10 62.499s-15.834 33.833 -27.501 46.5s-25.167 22.334 -40.5 29.001s-32 10 -50 10c-14 0 -28.167 -2.33301 -42.5 -7s-27.666 -11.334 -39.999 -20.001
s-23.833 -19.334 -34.5 -32.001l-44 18l21 317h316v-63h-257l-10 -179c11.333 5.33301 22.5 9.83301 33.5 13.5s22.333 6.33398 34 8.00098s23.167 2.5 34.5 2.5c27.333 0 52.333 -4.83301 75 -14.5s42.5 -23.667 59.5 -42s30.167 -40.333 39.5 -66s14 -54.5 14 -86.5
c0 -42.667 -8.66699 -79.5 -26 -110.5s-40.666 -54.833 -69.999 -71.5s-62.666 -25 -99.999 -25v0z" />
    <glyph glyph-name="six" unicode="6" 
d="M261 -10c-41.333 0 -76.502 11.9971 -105.502 35.9971s-51 58 -66 102s-22.5 96 -22.5 156c0 74.667 9.16699 137.667 27.5 189s44 90.333 77 117s71.5 40 115.5 40c26 0 50.5 -4.66699 73.5 -14s44.167 -23.666 63.5 -42.999l-44 -50l-7 -8l-5 5
c-0.666992 5.33301 -2.16699 10.333 -4.5 15s-7.83301 10.667 -16.5 18c-5.33301 4 -11 7 -17 9s-12.333 3.5 -19 4.5s-14 1.5 -22 1.5c-10.667 0 -22.667 -2 -36 -6s-26.666 -11 -39.999 -21s-25.833 -24 -37.5 -42s-21 -41.167 -28 -69.5s-10.833 -62.5 -11.5 -102.5
c9.33301 16 21 29.5 35 40.5s29.333 19.5 46 25.5s33.667 9 51 9c23.333 0 45.333 -4.83301 66 -14.5s38.834 -23.5 54.501 -41.5s28 -39.5 37 -64.5s13.5 -52.833 13.5 -83.5c0 -41.333 -8 -77.666 -24 -108.999s-37.333 -55.666 -64 -72.999s-56.667 -26 -90 -26v0z
M263.998 51.9971c14 0 27.502 3.16602 40.502 9.49902s24.5 15.5 34.5 27.5s17.833 27 23.5 45s8.5 39 8.5 63c0 25.333 -3.16699 47 -9.5 65s-14.833 32.833 -25.5 44.5s-22.5 20.334 -35.5 26.001s-25.833 8.5 -38.5 8.5c-12 0 -23.833 -2.16699 -35.5 -6.5
s-22.834 -10.333 -33.501 -18s-20.5 -16.5 -29.5 -26.5s-16.833 -21 -23.5 -33c-2.66699 -22.667 -1.83398 -46 2.49902 -70s12 -46.167 23 -66.5s24.833 -36.833 41.5 -49.5s35.667 -19 57 -19v0z" />
    <glyph glyph-name="seven" unicode="7" 
d="M155 0l59.5 188.5l63 184.5l67.5 184h-266v66h353v-39l-55 -144l-52 -145c-16.667 -48.667 -32.5 -97.5 -47.5 -146.5l-43.5 -148.5h-79z" />
    <glyph glyph-name="eight" unicode="8" 
d="M250 -10c-39.333 0 -73.1689 7.50098 -101.502 22.501s-50.166 35.167 -65.499 60.5s-23 53.333 -23 84c0 24 5.16699 47 15.5 69s24.833 42.167 43.5 60.5s40.667 33.166 66 44.499c-18.667 10 -35.167 22.5 -49.5 37.5s-25.5 31.833 -33.5 50.5s-12 38 -12 58
c0 28.667 6.16699 54.5 18.5 77.5s30.666 41.5 54.999 55.5s54.833 21 91.5 21c38.667 0 70 -6.66699 94 -20s41.833 -31.166 53.5 -53.499s17.5 -47.166 17.5 -74.499c0 -14.667 -2.33301 -29.334 -7 -44.001s-11.334 -28.5 -20.001 -41.5s-19 -25 -31 -36
s-25.667 -20.5 -41 -28.5c18 -8 34.333 -18.167 49 -30.5s27.334 -26 38.001 -41s18.834 -31 24.501 -48s8.5 -34.5 8.5 -52.5c0 -32.667 -7.83301 -61.834 -23.5 -87.501s-37.667 -46 -66 -61s-62.166 -22.5 -101.499 -22.5zM251.997 53.001
c26 0 47.666 4.83496 64.999 14.502s30.5 22.667 39.5 39s13.5 34.5 13.5 54.5c0 15.333 -3.16699 30.166 -9.5 44.499s-15.333 27.666 -27 39.999s-25.667 23.5 -42 33.5s-34.5 18 -54.5 24c-14.667 -6 -28.5 -13.833 -41.5 -23.5s-24.167 -20.667 -33.5 -33
s-16.666 -25.333 -21.999 -39s-8 -28.167 -8 -43.5c0 -20 4.66699 -38.333 14 -55s23 -30.167 41 -40.5s39.667 -15.5 65 -15.5zM266.996 358.003c12 6.66699 23.168 14.6641 33.501 23.9971s19.333 19.333 27 30s13.667 21.834 18 33.501s6.5 23.5 6.5 35.5
c0 16 -3.66699 30.833 -11 44.5s-18.333 24.834 -33 33.501s-33 13 -55 13s-40 -4.16699 -54 -12.5s-24.5 -19.166 -31.5 -32.499s-10.5 -27.666 -10.5 -42.999s2.83301 -29 8.5 -41s13.5 -22.833 23.5 -32.5s21.667 -18.834 35 -27.501s27.666 -17 42.999 -25z" />
    <glyph glyph-name="nine" unicode="9" 
d="M228 -10c-30.667 0 -58.334 4.83008 -83.001 14.4971s-46.667 23.834 -66 42.501l43 49l7 8l5 -5c0.666992 -5.33301 2.33398 -10.166 5.00098 -14.499s8 -10.166 16 -17.499c9.33301 -6 19.333 -10.333 30 -13s23 -4 37 -4c26.667 0 49.5 7.66699 68.5 23
s34.5 36 46.5 62s20.833 55 26.5 87s8.5 64.667 8.5 98c0 55.333 -4.33301 101.166 -13 137.499s-22 63.5 -40 81.5s-41 27 -69 27c-16.667 0 -32 -3.16699 -46 -9.5s-26.167 -15.666 -36.5 -27.999s-18.166 -27.166 -23.499 -44.499s-8 -37 -8 -59c0 -20 3 -37.833 9 -53.5
s14.333 -29 25 -40s22.834 -19.5 36.501 -25.5s28.167 -9 43.5 -9c23.333 0 43.166 2.66699 59.499 8s31.166 14 44.499 26s26 27.667 38 47l5 -71c-12.667 -14 -26 -26.333 -40 -37s-29.833 -19 -47.5 -25s-37.834 -9 -60.501 -9c-26 0 -50 4.5 -72 13.5
s-41.167 21.833 -57.5 38.5s-29 36.5 -38 59.5s-13.5 48.5 -13.5 76.5c0 29.333 4.66699 56.333 14 81s22.166 46.167 38.499 64.5s35.333 32.5 57 42.5s44.834 15 69.501 15c39.333 0 73.333 -11.333 102 -34s50.834 -53.834 66.501 -93.501s23.5 -85.167 23.5 -136.5
c0 -84 -8.5 -153.333 -25.5 -208s-41.167 -95.5 -72.5 -122.5s-69 -41.167 -113 -42.5v0z" />
    <glyph glyph-name="colon" unicode=":" 
d="M238 308c-15.333 0 -28.999 5.66699 -40.999 17s-18 24.666 -18 39.999c0 16 6 29.667 18 41s25.667 17 41 17s29.166 -5.66699 41.499 -17s18.5 -25 18.5 -41c0 -15.333 -6 -28.666 -18 -39.999s-26 -17 -42 -17zM238.001 -11c-16.667 0 -30.665 5.49902 -41.998 16.499
s-17 24.5 -17 40.5s6 29.667 18 41s25.667 17 41 17s29.166 -5.66699 41.499 -17s18.5 -25 18.5 -41c0 -15.333 -5.83301 -28.666 -17.5 -39.999s-25.834 -17 -42.501 -17z" />
    <glyph glyph-name="semicolon" unicode=";" 
d="M199 -168l-34 30c18.667 17.333 34.167 36 46.5 56s18.5 36.333 18.5 49c0 6.66699 -2.5 12.834 -7.5 18.501s-11 11.167 -18 16.5s-13 11.5 -18 18.5s-7.5 14.833 -7.5 23.5c0 11.333 2.5 21.333 7.5 30s12 15.667 21 21s19.167 8 30.5 8c17.333 0 33 -7.66699 47 -23
s21 -35.333 21 -60c0 -17.333 -4 -36 -12 -56s-19.833 -40.833 -35.5 -62.5s-35.5 -44.834 -59.5 -69.501zM238 308c-15.333 0 -28.999 5.66699 -40.999 17s-18 24.666 -18 39.999c0 16 6 29.667 18 41s25.667 17 41 17s29.166 -5.66699 41.499 -17s18.5 -25 18.5 -41
c0 -15.333 -6 -28.666 -18 -39.999s-26 -17 -42 -17z" />
    <glyph glyph-name="less" unicode="&#x3c;" 
d="M461 47l-426 249v48l423 223v-71l-347 -177l350 -196v-76z" />
    <glyph glyph-name="equal" unicode="=" 
d="M45 389v61h411v-61h-411zM45 182v61h411v-61h-411z" />
    <glyph glyph-name="greater" unicode="&#x3e;" 
d="M40 47v76l349 196l-347 177v71l424 -223v-48z" />
    <glyph glyph-name="question" unicode="?" 
d="M226 226c0 24.667 3.32812 45.335 9.99512 62.002s15.334 31.334 26.001 44.001s21.834 24.667 33.501 36s22.834 23 33.501 35s19.334 26.167 26.001 42.5s10 35.833 10 58.5c0 15.333 -2.66699 29 -8 41s-13 22.5 -23 31.5s-21.833 15.833 -35.5 20.5s-28.5 7 -44.5 7
c-25.333 0 -47.5 -3.66699 -66.5 -11s-36.167 -19 -51.5 -35c-6.66699 -8.66699 -10.834 -15.334 -12.501 -20.001s-2.16699 -9.66699 -1.5 -15l-4 -6l-8 6l-46 38c14.667 22 30.5 40.667 47.5 56s37.333 27.166 61 35.499s51.834 12.5 84.501 12.5
c35.333 0 66.333 -6.33301 93 -19s47.334 -30.667 62.001 -54s22 -51 22 -83c0 -26.667 -3.5 -49.5 -10.5 -68.5s-15.833 -35.333 -26.5 -49s-22 -26.167 -34 -37.5s-23.333 -22.833 -34 -34.5s-19.5 -24.834 -26.5 -39.501s-10.5 -32.667 -10.5 -54v-41h-66v41z
M260.995 -10.999c-16 0 -29.667 5.66699 -41 17s-17 24.666 -17 39.999s5.66699 28.666 17 39.999s25 17 41 17c15.333 0 28.666 -5.66699 39.999 -17s17 -24.666 17 -39.999s-5.66699 -28.666 -17 -39.999s-24.666 -17 -39.999 -17z" />
    <glyph glyph-name="at" unicode="@" 
d="M295 -11c-32.667 0 -64.834 6.50098 -96.501 19.501s-60 32.667 -85 59s-45 59.833 -60 100.5s-22.5 89 -22.5 145c0 55.333 7 103.166 21 143.499s32.667 73.5 56 99.5s49.166 45.333 77.499 58s56.833 19 85.5 19c24.667 0 48.667 -4.66699 72 -14
s44.166 -23.333 62.499 -42s32.833 -42.167 43.5 -70.5s16 -61.166 16 -98.499v-233h-60v38c-12.667 -15.333 -27.167 -26.833 -43.5 -34.5s-34.166 -11.5 -53.499 -11.5c-25.333 0 -48 5.66699 -68 17s-35.833 27 -47.5 47s-17.5 42.667 -17.5 68
c0 22.667 4.66699 43.334 14 62.001s23.5 34.667 42.5 48s42.667 23.166 71 29.499s61.5 8.16602 99.5 5.49902c0 25.333 -5.33301 48.166 -16 68.499s-26 36.5 -46 48.5s-44 18 -72 18c-24 0 -46.667 -5 -68 -15s-40.333 -25.5 -57 -46.5s-29.834 -47.5 -39.501 -79.5
s-14.5 -70 -14.5 -114c0 -48 6 -89.333 18 -124s28.167 -63.5 48.5 -86.5s43 -40 68 -51s50.833 -16.5 77.5 -16.5c19.333 0 37.833 2.83301 55.5 8.5s34.834 13.834 51.501 24.501l27 -49c-21.333 -13.333 -43.666 -23.5 -66.999 -30.5s-47.666 -10.5 -72.999 -10.5z
M317 222.001c15.333 0 28.501 3.00293 39.501 9.00293s20.167 15.667 27.5 29s12.666 31 15.999 53s5 49 5 81c-36.667 3.33301 -67.5 1.66602 -92.5 -5.00098s-43.833 -17.334 -56.5 -32.001s-19 -32.667 -19 -54c0 -24.667 6.66699 -44.334 20 -59.001s33.333 -22 60 -22z
" />
    <glyph glyph-name="A" unicode="A" 
d="M357 182h-226l14 54h196zM249 474l-164 -474h-69l230 634h8l230 -634h-72z" />
    <glyph glyph-name="B" unicode="B" 
d="M48 0l0.00195312 622.996h177c36 0 67 -3.66699 93 -11s47.5 -17.666 64.5 -30.999s29.5 -29.333 37.5 -48s12 -39 12 -61c0 -19.333 -3.5 -38.333 -10.5 -57s-17.333 -35 -31 -49s-30.5 -24.667 -50.5 -32c17.333 -6 33.166 -14.333 47.499 -25
s26.666 -23.167 36.999 -37.5s18.333 -29.666 24 -45.999s8.5 -33.166 8.5 -50.499c0 -26 -4.66699 -49.833 -14 -71.5s-23.5 -40.167 -42.5 -55.5s-43.167 -27.166 -72.5 -35.499s-64 -12.5 -104 -12.5h-176zM117.002 60.9961h119.002c29.333 0 55 3.83301 77 11.5
s39.167 20.167 51.5 37.5s18.5 40.333 18.5 69c0 24.667 -5.33301 46.5 -16 65.5s-27.834 34 -51.501 45s-55.834 16.5 -96.501 16.5h-102v-245zM117.004 364.996h98.001c36.667 0 65.667 4.33301 87 13s36.666 20.5 45.999 35.5s14 31.833 14 50.5c0 14 -2.5 27 -7.5 39
s-12.833 22.5 -23.5 31.5s-24.667 16.167 -42 21.5s-38.333 8 -63 8h-109v-199z" />
    <glyph glyph-name="C" unicode="C" 
d="M285 -10c-34 0 -65.6689 6.16406 -95.002 18.4971s-55.166 31.5 -77.499 57.5s-39.833 59 -52.5 99s-19 87.667 -19 143c0 48.667 4.66699 91.167 14 127.5s22 66.833 38 91.5s34.333 44.334 55 59.001s42.334 25.334 65.001 32.001s45.334 10 68.001 10
c45.333 0 84 -11.167 116 -33.5s56 -52.166 72 -89.499l-60 -28l-9 -4l-3 7c2 5.33301 2 10.166 0 14.499s-5.66699 11.166 -11 20.499c-16.667 22.667 -33.834 37.834 -51.501 45.501s-36.167 11.5 -55.5 11.5c-26 0 -49.5 -5.83301 -70.5 -17.5s-39 -28.667 -54 -51
s-26.333 -49.5 -34 -81.5s-11.5 -68.333 -11.5 -109c0 -39.333 4.5 -75 13.5 -107s21.333 -59.667 37 -83s34 -41.333 55 -54s43.5 -19 67.5 -19c16.667 0 32.834 3 48.501 9s30.167 14.833 43.5 26.5s24.666 25.167 33.999 40.5l52 -34
c-20 -33.333 -44 -58.666 -72 -75.999s-62.333 -26 -103 -26v0z" />
    <glyph glyph-name="D" unicode="D" 
d="M54 -1l0.00195312 624.001h145c36 0 66.333 -3.33301 91 -10s45.667 -16.167 63 -28.5s32.666 -27.833 45.999 -46.5c14 -18.667 25.5 -39.667 34.5 -63s15.667 -48.833 20 -76.5s6.5 -57.834 6.5 -90.501c-2 -48 -8.33301 -91 -19 -129s-26.667 -70.333 -48 -97
s-48.833 -47.167 -82.5 -61.5s-74.834 -21.5 -123.501 -21.5h-133zM120.002 54.001h63.999c48 0 87.167 9.66699 117.5 29s52.833 47.666 67.5 84.999s21.667 82.666 21 135.999c0 54.667 -6.66699 101.334 -20 140.001s-34.166 68.334 -62.499 89.001s-65.833 31 -112.5 31
h-75v-510z" />
    <glyph glyph-name="E" unicode="E" 
d="M59 0v624h382v-62h-316v-205h261v-64h-261v-231h313v-62h-379z" />
    <glyph glyph-name="F" unicode="F" 
d="M78 0v624h359v-61h-289v-196h233v-61h-233v-306h-70z" />
    <glyph glyph-name="G" unicode="G" 
d="M277 -10c-49.333 0 -92.167 13.002 -128.5 39.002s-64.166 62.667 -83.499 110s-29 102.333 -29 165c-0.666992 54 4.16602 99.833 14.499 137.5s24.166 68.834 41.499 93.501s36.666 44 57.999 58s42.833 23.667 64.5 29s41.5 8 59.5 8
c24.667 0 48.834 -4.5 72.501 -13.5s45.334 -21.167 65.001 -36.5s35.167 -33.666 46.5 -54.999l-49 -39l-8 -7l-4 6c0.666992 5.33301 -0.166016 10.166 -2.49902 14.499s-7.16602 10.833 -14.499 19.5c-10 11.333 -20.333 20.666 -31 27.999s-22.167 12.666 -34.5 15.999
s-26.166 5 -41.499 5c-18 0 -35.333 -2.5 -52 -7.5s-32 -13.333 -46 -25s-26.333 -27.167 -37 -46.5s-18.834 -43 -24.501 -71s-8.5 -61 -8.5 -99c0 -43.333 4 -81.5 12 -114.5s19.5 -60.833 34.5 -83.5s33 -39.834 54 -51.501s44.833 -17.5 71.5 -17.5
c9.33301 0 19.166 0.666992 29.499 2s20.666 3.5 30.999 6.5s20.5 7 30.5 12s19 10.833 27 17.5v148h-113v61h178v-244c-29.333 -21.333 -59.333 -37.5 -90 -48.5s-61.667 -16.5 -93 -16.5v0z" />
    <glyph glyph-name="H" unicode="H" 
d="M50 623h72h10v-7c-4 -4 -6.5 -8.33301 -7.5 -13s-1.5 -12.667 -1.5 -24v-222h244v266h72h10v-7c-4 -4 -6.5 -8.33301 -7.5 -13s-1.5 -12.667 -1.5 -24v-579h-74v297h-243v-297h-73v623z" />
    <glyph glyph-name="I" unicode="I" 
d="M81 0v59h123v505h-116v59h309v-59h-123v-506h129v-58h-322z" />
    <glyph glyph-name="J" unicode="J" 
d="M196 -11c-29.333 0 -56.333 5.83398 -81 17.501s-46.667 28.834 -66 51.501l40 50l7 8l5 -4c0.666992 -6 2.16699 -11.333 4.5 -16s7.83301 -10.667 16.5 -18c11.333 -8.66699 22.833 -15.334 34.5 -20.001s24.834 -7 39.501 -7c22.667 0 41 5 55 15s24.333 26.5 31 49.5
s10 53.833 10 92.5v356h-120v59h285v-59h-96v-355c1.33301 -40 -2.33398 -74 -11.001 -102s-21 -50.833 -37 -68.5s-34 -30.334 -54 -38.001s-41 -11.5 -63 -11.5v0z" />
    <glyph glyph-name="K" unicode="K" 
d="M166 312l-49.001 -54v-258h-75v623h74h10v-7c-4 -4 -6.5 -8.33301 -7.5 -13s-1.5 -12.667 -1.5 -24v-243l260 292l12 -2c4 -0.666992 8.16699 -1.16699 12.5 -1.5l13.5 -1c4.66699 -0.333008 9.33398 -0.5 14.001 -0.5h26l-236 -269l252 -354l-90 -4z" />
    <glyph glyph-name="L" unicode="L" 
d="M66 623h72h10v-7c-4 -4 -6.5 -8.33301 -7.5 -13s-1.5 -12.667 -1.5 -24v-519h300v-60h-373v623z" />
    <glyph glyph-name="M" unicode="M" 
d="M41 0v623h55l154 -305l157 306h53v-624h-66v470l-135 -251h-27l-126 248v-467h-65z" />
    <glyph glyph-name="N" unicode="N" 
d="M50 623h68l262 -462v462h66h10v-7c-4 -4 -6.5 -8.33301 -7.5 -13s-1.5 -12.667 -1.5 -24v-579h-55l-275 490v-490h-67v623z" />
    <glyph glyph-name="O" unicode="O" 
d="M250 -11c-47.333 0 -87.666 12.333 -120.999 37s-58.666 60.834 -75.999 108.501s-26 105.5 -26 173.5c0 66 8.66699 122.833 26 170.5s42.666 84.334 75.999 110.001s73.666 38.5 120.999 38.5c48 0 88.5 -12.833 121.5 -38.5s58.167 -62.334 75.5 -110.001
s26 -104.5 26 -170.5c0 -68 -8.66699 -125.833 -26 -173.5s-42.5 -83.834 -75.5 -108.501s-73.5 -37 -121.5 -37zM250 50c32 0 59.167 10 81.5 30s39.5 49.167 51.5 87.5s18 85.166 18 140.499c0 52.667 -6 98.167 -18 136.5s-29.167 68.166 -51.5 89.499s-49.5 32 -81.5 32
c-31.333 0 -58.333 -10.667 -81 -32s-40 -51.166 -52 -89.499s-18 -83.833 -18 -136.5c0 -55.333 6 -102.166 18 -140.499s29.333 -67.5 52 -87.5s49.667 -30 81 -30z" />
    <glyph glyph-name="P" unicode="P" 
d="M59 0l-0.00195312 623h200c46.667 0 84.334 -8 113.001 -24s49.834 -37.167 63.501 -63.5s20.5 -55.833 20.5 -88.5c0 -24 -3.66699 -46.333 -11 -67s-18.833 -39 -34.5 -55s-35.5 -28.333 -59.5 -37s-53 -13 -87 -13h-133v-275h-72zM130.998 337h124.999
c30.667 0 55.334 4.5 74.001 13.5s32.334 21.667 41.001 38s13 35.166 13 56.499c0 20.667 -4.33301 39.334 -13 56.001s-22.334 30.167 -41.001 40.5s-43 15.5 -73 15.5h-126v-220z" />
    <glyph glyph-name="Q" unicode="Q" 
d="M401 -145c-32.667 -1.33301 -60.165 0.169922 -82.498 4.50293s-40.333 12.166 -54 23.499s-23.5 26 -29.5 44s-9 40 -9 66c-33.333 4.66699 -65 19 -95 43s-54.5 58.667 -73.5 104s-28.5 101.333 -28.5 168c0 62 7 113.833 21 155.5s32.333 74.667 55 99
s46.834 41.666 72.501 51.999s50.167 15.5 73.5 15.5c28 0 55.5 -6.16699 82.5 -18.5s51 -31.333 72 -57s37.5 -58.667 49.5 -99s17.333 -88.5 16 -144.5c0 -46 -3.83301 -87.167 -11.5 -123.5s-19.334 -67.833 -35.001 -94.5s-35 -48.334 -58 -65.001
s-49.5 -28.334 -79.5 -35.001c1.33301 -14.667 4.16602 -27.667 8.49902 -39s11.666 -20.166 21.999 -26.499s24.833 -9.5 43.5 -9.5l81 5l-2 -68h-39zM256.002 55.0029c17.333 0 34.6689 4.16699 52.002 12.5s33.166 22 47.499 41s26 43.667 35 74s13.5 67.5 13.5 111.5
c0 56 -4.83301 101.833 -14.5 137.5s-22.334 63.5 -38.001 83.5s-32.334 34 -50.001 42s-34.5 12 -50.5 12c-26 0 -48.667 -6.83301 -68 -20.5s-35.333 -32 -48 -55s-22.167 -49.167 -28.5 -78.5s-9.5 -60 -9.5 -92c0 -52.667 6.33301 -99.167 19 -139.5
s30.834 -71.833 54.501 -94.5s52.167 -34 85.5 -34z" />
    <glyph glyph-name="R" unicode="R" 
d="M56 0l0.000976562 622.999h184c49.333 0 89.166 -7.33301 119.499 -22s52.5 -35.334 66.5 -62.001s21 -58 21 -94c0 -23.333 -5.16699 -46.666 -15.5 -69.999s-25 -43.666 -44 -60.999s-41.5 -29.333 -67.5 -36l144 -278h-78l-138 275h-121v-275h-71zM127.001 336.999
l121.001 -0.000976562c44.667 0 77 9.83301 97 29.5s30 45.834 30 78.501c0 20.667 -4.33301 39.5 -13 56.5s-22.334 30.5 -41.001 40.5s-43 15 -73 15h-121v-220z" />
    <glyph glyph-name="S" unicode="S" 
d="M247 -10c-40.667 0 -77.1689 6.66895 -109.502 20.002s-60.833 33 -85.5 59l36 63l4 9l7 -4c1.33301 -4.66699 3 -9.83398 5 -15.501s6.66699 -12.5 14 -20.5c17.333 -14.667 37.5 -26.334 60.5 -35.001s49.167 -13 78.5 -13c18.667 0 35.834 2.83301 51.501 8.5
s29.334 13.334 41.001 23.001s20.667 21 27 34s9.5 26.833 9.5 41.5c0 11.333 -1.16699 21.666 -3.5 30.999s-6.66602 17.833 -12.999 25.5s-14.833 15.334 -25.5 23.001s-24.334 15.834 -41.001 24.501s-36.667 18 -60 28c-43.333 16.667 -77.5 34.834 -102.5 54.501
s-42.667 40.5 -53 62.5s-15.5 44.667 -15.5 68c0 30.667 7.66699 57.5 23 80.5s37.166 41 65.499 54s62.166 19.5 101.499 19.5c22.667 0 44.5 -3.16699 65.5 -9.5s40.667 -15.166 59 -26.499s34.5 -25.333 48.5 -42l-39 -52l-6 -8l-6 4
c-0.666992 5.33301 -2 10.666 -4 15.999s-6.66699 12 -14 20c-16 15.333 -33 25.833 -51 31.5s-39.333 8.5 -64 8.5c-16.667 0 -31.5 -2.33301 -44.5 -7s-24.167 -11.334 -33.5 -20.001s-16.5 -18.5 -21.5 -29.5s-7.5 -22.5 -7.5 -34.5c0 -11.333 1.33301 -21.666 4 -30.999
s7.33398 -18.333 14.001 -27s15.834 -17.334 27.501 -26.001s26.334 -17.334 44.001 -26.001s39.167 -18 64.5 -28c30.667 -12.667 56.167 -25.167 76.5 -37.5s36.333 -25.333 48 -39s20 -28.5 25 -44.5s7.5 -33.667 7.5 -53c0 -28.667 -7.16699 -56.834 -21.5 -84.501
s-36.833 -50.5 -67.5 -68.5s-70.334 -27 -119.001 -27v0z" />
    <glyph glyph-name="T" unicode="T" 
d="M208 0v561h-177v63h432v-63h-184v-561h-71z" />
    <glyph glyph-name="U" unicode="U" 
d="M251 -11c-66.667 0 -116.834 19.834 -150.501 59.501s-50.5 95.167 -50.5 166.5v408h68h10v-7c-4 -4 -6.5 -8.33301 -7.5 -13s-1.5 -12.667 -1.5 -24v-365c0 -50.667 9.83301 -91 29.5 -121s54.167 -45 103.5 -45c50 0 85 15 105 45s30 71.333 30 124v406h67v-405
c0 -52.667 -8.33301 -95.834 -25 -129.501s-40.167 -58.667 -70.5 -75s-66.166 -24.5 -107.499 -24.5v0z" />
    <glyph glyph-name="V" unicode="V" 
d="M237 -4l-212 628h73l160 -479l151 478h69l-209 -627h-32z" />
    <glyph glyph-name="W" unicode="W" 
d="M117 0l-100 623h65l67 -421l100 375h22l101 -377l57 423h59l-99 -623h-27l-107 407l-109 -407h-29z" />
    <glyph glyph-name="X" unicode="X" 
d="M41 0l170 318l-167 306h75l131 -237l129 237h70l-158 -305l177 -319h-79l-138 247l-134 -247h-76z" />
    <glyph glyph-name="Y" unicode="Y" 
d="M220 0v246l-192 377h80l153 -302l138 302h74l-177 -377v-246h-76z" />
    <glyph glyph-name="Z" unicode="Z" 
d="M50 49l314 511h-302v63h385v-49l-309 -512h281c11.333 0 19.333 0.666992 24 2s9 4 13 8h7v-10v-62h-413v49z" />
    <glyph glyph-name="bracketleft" unicode="[" 
d="M131 -89v759h286v-60h-222v-642h223v-57h-287z" />
    <glyph glyph-name="backslash" unicode="\" 
d="M378 -42l-314 676l59 31l314 -678z" />
    <glyph glyph-name="bracketright" unicode="]" 
d="M418 -89h-287v57h223v642h-222v60h286v-759z" />
    <glyph glyph-name="asciicircum" unicode="^" 
d="M143 343l-50 24l153 256h22l135 -255l-53 -25l-97 175z" />
    <glyph glyph-name="underscore" unicode="_" 
d="M35 -80v61h431v-61h-431z" />
    <glyph glyph-name="grave" unicode="`" 
d="M255 507l-101 135l55 40l84 -149z" />
    <glyph glyph-name="a" unicode="a" 
d="M211 -11c-52 0 -92.002 11.834 -120.002 35.501s-42 53.834 -42 90.501c0 24.667 6 46.834 18 66.501s28.5 36.334 49.5 50.001s45.5 24.167 73.5 31.5s57.667 11 89 11c11.333 0 22.833 -0.166992 34.5 -0.5s24 -1 37 -2s26.5 -2.5 40.5 -4.5l2 -55
c-12 2 -24.167 3.5 -36.5 4.5s-24.5 1.83301 -36.5 2.5s-23.667 1 -35 1c-24 0 -46 -2 -66 -6s-37.333 -10 -52 -18s-26 -18.333 -34 -31s-12 -28 -12 -46c0 -14 2.5 -25.833 7.5 -35.5s11.833 -17.334 20.5 -23.001s18.834 -9.83398 30.501 -12.501s24.5 -4 38.5 -4
c26 0 49.167 4.16699 69.5 12.5s37.666 20.5 51.999 36.5s25.166 35.667 32.499 59s11 50 11 80c0 45.333 -5.33301 80.666 -16 105.999s-26.5 43.333 -47.5 54s-47.833 16 -80.5 16c-22 0 -43.667 -4.16699 -65 -12.5s-40.666 -21.166 -57.999 -38.499l-35 46
c21.333 21.333 46 37.333 74 48s57.667 16 89 16c30 0 57.333 -3.66699 82 -11s45.834 -19.5 63.501 -36.5s31.334 -39.833 41.001 -68.5s14.5 -64.667 14.5 -108v-243h-78v70c-8.66699 -16.667 -19.167 -30.334 -31.5 -41.001s-25.5 -18.834 -39.5 -24.501
s-28.333 -9.66699 -43 -12s-28.667 -3.5 -42 -3.5z" />
    <glyph glyph-name="b" unicode="b" 
d="M266 -11c-18.667 0 -36.3311 2.83203 -52.998 8.49902s-31.834 13.834 -45.501 24.501s-25.834 23.334 -36.501 38.001l-25 -60h-46v665h72h10v-7c-4 -4 -6.5 -8.33301 -7.5 -13s-1.5 -12.667 -1.5 -24v-234c7.33301 12 16 23 26 33s21 18.667 33 26
s24.667 12.833 38 16.5s26.333 5.5 39 5.5c28 0 53.5 -4.83301 76.5 -14.5s42.833 -24.334 59.5 -44.001s29.5 -44.167 38.5 -73.5s13.5 -63.666 13.5 -102.999c0 -40.667 -5.33301 -76.334 -16 -107.001s-25.167 -56.167 -43.5 -76.5s-38.833 -35.5 -61.5 -45.5
s-46 -15 -70 -15v0zM257.003 52.999c16 0 31.4971 2.99609 46.4971 8.99609s28.5 15.833 40.5 29.5s21.5 31.834 28.5 54.501s10.5 50.334 10.5 83.001c0 30 -3 56.167 -9 78.5s-14.5 40.833 -25.5 55.5s-24.167 25.5 -39.5 32.5s-32 10.5 -50 10.5
c-24.667 0 -46.5 -7.5 -65.5 -22.5s-33.833 -36 -44.5 -63s-16 -58.167 -16 -93.5c0 -26 2.33301 -49.667 7 -71s11.834 -39.666 21.501 -54.999s22.334 -27.166 38.001 -35.499s34.834 -12.5 57.501 -12.5v0z" />
    <glyph glyph-name="c" unicode="c" 
d="M285 -11c-33.333 0 -64.002 6.00195 -92.002 18.002s-52.167 28.667 -72.5 50s-36.166 46.5 -47.499 75.5s-17 60.833 -17 95.5c0 34 5.66699 65.5 17 94.5s27.166 54.167 47.499 75.5s44.5 38 72.5 50s58.333 18 91 18c37.333 0 70.833 -7.5 100.5 -22.5
s53.834 -35.833 72.501 -62.5l-45 -44l-7 -7l-5 5c0 5.33301 -1.16699 10.333 -3.5 15s-7.5 11 -15.5 19c-14.667 13.333 -30.334 22.666 -47.001 27.999s-36 8 -58 8c-19.333 0 -37.666 -4 -54.999 -12s-32.833 -19.5 -46.5 -34.5s-24.5 -33.167 -32.5 -54.5
s-12 -45 -12 -71s4 -49.833 12 -71.5s19 -40.5 33 -56.5s30.833 -28.5 50.5 -37.5s40.834 -13.5 63.501 -13.5c15.333 0 30 2.16699 44 6.5s27.333 10.666 40 18.999s24.334 18.5 35.001 30.5l42 -49c-22.667 -24 -47.834 -42 -75.501 -54s-57.5 -18 -89.5 -18v0z" />
    <glyph glyph-name="d" unicode="d" 
d="M234 -10c-23.333 0 -46.1719 5 -68.5049 15s-42.666 25 -60.999 45s-32.833 45.333 -43.5 76s-16 66.334 -16 107.001c0 42 5.66699 77.833 17 107.5s26.333 54 45 73s39.334 33 62.001 42s45.667 13.5 69 13.5c21.333 0 40.5 -3.33301 57.5 -10s32 -15.834 45 -27.501
s23.167 -25.5 30.5 -41.5v275h66h10v-7c-4 -4 -6.5 -8.33301 -7.5 -13s-1.5 -12.667 -1.5 -24l1 -550c0 -12 0.5 -23.833 1.5 -35.5s3.83301 -23.5 8.5 -35.5h-71c-3.33301 8 -5.66602 16 -6.99902 24s-2.16602 15.833 -2.49902 23.5s-0.5 15.5 -0.5 23.5
c-9.33301 -16 -20.666 -30.167 -33.999 -42.5s-28.333 -21.833 -45 -28.5s-35 -10 -55 -10v0zM244.994 53c22 0 40.6689 4.49902 56.002 13.499s27.666 21.667 36.999 38s16.166 35.333 20.499 57s6.5 44.834 6.5 69.501c0 34 -4.33301 64.5 -13 91.5
s-22.334 48.333 -41.001 64s-42.667 23.5 -72 23.5c-20 0 -37.833 -3.83301 -53.5 -11.5s-28.667 -18.834 -39 -33.501s-18.166 -32.167 -23.499 -52.5s-8 -43.166 -8 -68.499c0 -38 5 -71.333 15 -100s24.667 -51 44 -67s43 -24 71 -24v0z" />
    <glyph glyph-name="e" unicode="e" 
d="M272 -10c-33.333 0 -63.6699 5.16797 -91.0029 15.501s-50.833 25.5 -70.5 45.5s-34.834 44.833 -45.501 74.5s-16 63.5 -16 101.5c0 38.667 5.5 73 16.5 103s26 55.167 45 75.5s41.333 35.833 67 46.5s52.834 16 81.501 16c26 0 50.333 -4.33301 73 -13
s42.334 -21.834 59.001 -39.501s29.834 -40.167 39.501 -67.5s14.5 -59.666 14.5 -96.999c0 -5.33301 -0.166992 -10.833 -0.5 -16.5s-0.833008 -11.167 -1.5 -16.5h-325c1.33301 -29.333 6.33301 -54.833 15 -76.5s20 -39.334 34 -53.001s30.167 -23.834 48.5 -30.501
s37.833 -10 58.5 -10c16 0 31 1.83301 45 5.5s27.167 9.33398 39.5 17.001s23.5 17.167 33.5 28.5l40 -39c-12.667 -15.333 -27.167 -28.333 -43.5 -39s-34.166 -18.5 -53.499 -23.5s-40.333 -7.5 -63 -7.5zM120.996 274.001l250.998 0.000976562
c0 21.333 -2.83301 40.5 -8.5 57.5s-13.667 31.667 -24 44s-22.666 21.666 -36.999 27.999s-30.5 9.5 -48.5 9.5c-16 0 -31.167 -2.66699 -45.5 -8s-27.5 -13.833 -39.5 -25.5s-22.167 -26.167 -30.5 -43.5s-14.166 -38 -17.499 -62z" />
    <glyph glyph-name="f" unicode="f" 
d="M162 400h-98.998v57h99v38c0 40.667 7.16699 74 21.5 100s34.166 45.167 59.499 57.5s54.333 18.5 87 18.5c28.667 0 55.5 -5.16699 80.5 -15.5s45.833 -26.166 62.5 -47.499l-38 -53l-6 -8l-6 4c-0.666992 5.33301 -2 10.666 -4 15.999s-6.66699 12 -14 20
c-10.667 9.33301 -21.334 16 -32.001 20s-24.334 6 -41.001 6c-19.333 0 -36.666 -3.83301 -51.999 -11.5s-27.333 -20 -36 -37s-13 -40.167 -13 -69.5v-38h150v-57h-150v-400h-69v400z" />
    <glyph glyph-name="g" unicode="g" 
d="M247 -172c-32 0 -60.8418 2.49707 -86.5088 7.49707s-47.667 12.333 -66 22s-32.333 21.834 -42 36.501s-14.5 32 -14.5 52c0 18.667 4 35.334 12 50.001s18.5 26.834 31.5 36.501s27.167 16.834 42.5 21.501l30 -18c-12 -7.33301 -21.667 -14.666 -29 -21.999
s-12.666 -15.833 -15.999 -25.5s-5 -21.167 -5 -34.5c0 -11.333 3.33301 -21.5 10 -30.5s16.167 -16.5 28.5 -22.5s27.333 -10.667 45 -14s37.834 -5 60.501 -5c30.667 0 55.5 3.16699 74.5 9.5s33.167 15 42.5 26s14 23.5 14 37.5c0 14.667 -2.66699 26.667 -8 36
s-16.333 16.333 -33 21s-42 7 -76 7c-23.333 0 -44.666 1 -63.999 3s-36.666 5.33301 -51.999 10s-28.166 10.5 -38.499 17.5s-18.166 15.5 -23.499 25.5s-8 21.667 -8 35c0 17.333 4.83301 34 14.5 50s22.834 31.333 39.501 46l34 -27
c-6.66699 -7.33301 -12 -13.833 -16 -19.5s-6.83301 -11 -8.5 -16s-2.5 -10.5 -2.5 -16.5c0 -10.667 4.16699 -19.334 12.5 -26.001s22.833 -11.5 43.5 -14.5s48.667 -4.5 84 -4.5s64 -2.83301 86 -8.5s38.833 -13.834 50.5 -24.501s19.834 -23 24.501 -37s7 -29.333 7 -46
c0 -18 -3.5 -35.167 -10.5 -51.5s-18.167 -31 -33.5 -44s-35.666 -23.333 -60.999 -31s-56.333 -11.5 -93 -11.5zM225.991 154.997c-32.667 0 -61 7.16699 -85 21.5s-42.5 33.666 -55.5 57.999s-19.5 51.166 -19.5 80.499s6.5 56 19.5 80s31.5 43.167 55.5 57.5
s52.333 21.5 85 21.5c33.333 0 61.833 -7.16699 85.5 -21.5s42 -33.5 55 -57.5s19.5 -50.667 19.5 -80s-6.5 -56.166 -19.5 -80.499s-31.333 -43.666 -55 -57.999s-52.167 -21.5 -85.5 -21.5zM225.991 214.997c19.333 0 36.5 4.5 51.5 13.5s26.833 21.167 35.5 36.5
s13 32 13 50c0 18.667 -4.33301 35.5 -13 50.5s-20.5 27 -35.5 36s-32.167 13.5 -51.5 13.5s-36.5 -4.5 -51.5 -13.5s-26.833 -21 -35.5 -36s-13 -31.833 -13 -50.5c0 -18 4.33301 -34.667 13 -50s20.5 -27.5 35.5 -36.5s32.167 -13.5 51.5 -13.5zM358.991 382.997
l-28 32.999c19.333 19.333 39.5 33.5 60.5 42.5s45.833 12.5 74.5 10.5l9 -59c-22 2 -42.667 1.33301 -62 -2s-37.333 -11.666 -54 -24.999z" />
    <glyph glyph-name="h" unicode="h" 
d="M73 665l69.001 -0.000976562h10v-7c-4 -4 -6.5 -8.33301 -7.5 -13s-1.5 -12.667 -1.5 -24v-245c12 18.667 26.167 34.834 42.5 48.501s33.666 24.334 51.999 32.001s36.833 11.5 55.5 11.5c27.333 0 51.5 -6.33301 72.5 -19s37.333 -33 49 -61s17.5 -65 17.5 -111v-277
h-70v275c0 32 -3.66699 57.5 -11 76.5s-17.333 32.667 -30 41s-27 12.5 -43 12.5c-12 0 -24.333 -2 -37 -6s-24.834 -10 -36.501 -18s-22.167 -17.833 -31.5 -29.5s-16.666 -24.834 -21.999 -39.501s-8 -31 -8 -49v-263h-70v665z" />
    <glyph glyph-name="i" unicode="i" 
d="M100 0v58h117v341h-111v58h183v-399h107v-58h-296zM249 553c-14 0 -26.001 5 -36.001 15s-15 22 -15 36c0 14.667 4.83301 27 14.5 37s21.834 15 36.501 15c14 0 26.167 -5.16699 36.5 -15.5s15.5 -22.5 15.5 -36.5s-5.16699 -26 -15.5 -36s-22.5 -15 -36.5 -15z" />
    <glyph glyph-name="j" unicode="j" 
d="M194 -174c-28.667 0 -55.832 5.33301 -81.499 16s-47.167 26.667 -64.5 48l40 54l6 8l6 -4c1.33301 -5.33301 3 -10.5 5 -15.5s6.66699 -11.5 14 -19.5c9.33301 -7.33301 20.166 -13.333 32.499 -18s26.166 -7 41.499 -7c20 0 37.833 4.5 53.5 13.5s27.834 23 36.501 42
s13 43.833 13 74.5v380h-170v59h243v-435c0 -46 -8 -83.5 -24 -112.5s-37.167 -50.167 -63.5 -63.5s-55.5 -20 -87.5 -20v0zM327.002 553c-14 0 -26.001 5 -36.001 15s-15 22 -15 36c0 14.667 4.83301 27 14.5 37s21.834 15 36.501 15c14 0 26.167 -5.16699 36.5 -15.5
s15.5 -22.5 15.5 -36.5s-5.16699 -26 -15.5 -36s-22.5 -15 -36.5 -15z" />
    <glyph glyph-name="k" unicode="k" 
d="M199 229l-60 -56.001v-173h-73v665h72h10v-7c-4 -4 -6.5 -8.33301 -7.5 -13s-1.5 -12.667 -1.5 -24v-374l229 212l12 -2c4 -0.666992 8.16699 -1.16699 12.5 -1.5s9 -0.666016 14 -0.999023s9.83301 -0.5 14.5 -0.5h26l-192 -181l224 -273l-93 -4z" />
    <glyph glyph-name="l" unicode="l" 
d="M79 0v58h135v549h-129v58h202v-607h134v-58h-342z" />
    <glyph glyph-name="m" unicode="m" 
d="M38 0l0.00390625 456.997h66v-45c7.33301 11.333 15.833 21.166 25.5 29.499s20.334 14.833 32.001 19.5s23.5 7 35.5 7c13.333 0 25.666 -2.83301 36.999 -8.5s20.833 -13.5 28.5 -23.5s12.834 -21.667 15.501 -35c6 13.333 14.167 25 24.5 35s22.333 17.833 36 23.5
s27.834 8.5 42.501 8.5c15.333 0 28.666 -3 39.999 -9s20.666 -14.167 27.999 -24.5s12.666 -22.666 15.999 -36.999s4.66602 -29.833 3.99902 -46.5v-351h-66v324c0 28 -1.83301 48.333 -5.5 61s-8.83398 20.834 -15.501 24.501s-14 5.5 -22 5.5
c-12.667 0 -24.5 -5.83301 -35.5 -17.5s-20 -26.167 -27 -43.5s-10.5 -34.666 -10.5 -51.999v-302h-67v318c0 38 -3.5 63.333 -10.5 76s-20.167 19 -39.5 19c-7.33301 0 -14.833 -2.5 -22.5 -7.5s-14.834 -12 -21.501 -21s-12 -20.167 -16 -33.5s-6 -28.666 -6 -45.999v-305
h-66z" />
    <glyph glyph-name="n" unicode="n" 
d="M72 0l-0.000976562 456.997h70v-81c12 18.667 26 34.834 42 48.501s33.667 24.334 53 32.001s39.333 11.5 60 11.5c25.333 0 48 -6.33301 68 -19s36 -33 48 -61s18 -65 18 -111v-277h-70v275c0 32 -3.66699 57.5 -11 76.5s-17.333 32.667 -30 41s-27 12.5 -43 12.5
c-15.333 0 -30.833 -3.33301 -46.5 -10s-30.167 -16.167 -43.5 -28.5s-24.166 -27.166 -32.499 -44.499s-12.5 -37 -12.5 -59v-263h-70z" />
    <glyph glyph-name="o" unicode="o" 
d="M250 -8c-41.333 0 -77.833 10.167 -109.5 30.5s-56.5 48.333 -74.5 84s-27 76.5 -27 122.5c0 46.667 9 87.834 27 123.501s42.833 63.667 74.5 84s68.167 30.5 109.5 30.5s77.833 -10.167 109.5 -30.5s56.5 -48.333 74.5 -84s27 -76.834 27 -123.501
c0 -46 -9 -86.833 -27 -122.5s-42.833 -63.667 -74.5 -84s-68.167 -30.5 -109.5 -30.5zM250 52c26.667 0 50 7.66699 70 23s35.833 36.333 47.5 63s17.5 57.334 17.5 92.001s-5.83301 65.334 -17.5 92.001s-27.5 47.5 -47.5 62.5s-43.333 22.5 -70 22.5
c-26 0 -49.167 -7.5 -69.5 -22.5s-36.333 -35.833 -48 -62.5s-17.5 -57.334 -17.5 -92.001s5.83301 -65.334 17.5 -92.001s27.667 -47.667 48 -63s43.5 -23 69.5 -23z" />
    <glyph glyph-name="p" unicode="p" 
d="M60 -167l0.000976562 623.998h73v-90c7.33301 23.333 17.833 42.333 31.5 57s29.667 25.5 48 32.5s38.166 10.5 59.499 10.5c25.333 0 49.5 -4.83301 72.5 -14.5s43.333 -24.167 61 -43.5s31.667 -43.666 42 -72.999s15.5 -64 15.5 -104s-5.5 -75.333 -16.5 -106
s-25.667 -56.167 -44 -76.5s-39 -35.666 -62 -45.999s-46.5 -15.5 -70.5 -15.5c-18 0 -35.5 2.83301 -52.5 8.5s-32.5 14 -46.5 25s-26.333 23.833 -37 38.5v-227h-74zM258.001 51.998c16 0 31.666 2.83105 46.999 8.49805s29.333 15.167 42 28.5s22.667 31.5 30 54.5
s11 51.5 11 85.5c0 36.667 -4.66699 67.834 -14 93.501s-22.833 45.5 -40.5 59.5s-39.167 21.667 -64.5 23c-18.667 1.33301 -36.167 -1.33398 -52.5 -8.00098s-30.833 -17.667 -43.5 -33s-22.5 -35.5 -29.5 -60.5s-10.5 -55.167 -10.5 -90.5
c0.666992 -21.333 3 -40.666 7 -57.999s9.66699 -32.5 17 -45.5s16 -23.667 26 -32s21.333 -14.666 34 -18.999s26.334 -6.5 41.001 -6.5z" />
    <glyph glyph-name="q" unicode="q" 
d="M370 -167l0.000976562 240.002c-9.33301 -16.667 -21.166 -31.334 -35.499 -44.001s-30.333 -22.334 -48 -29.001s-36.5 -10 -56.5 -10c-26 0 -50.5 5.83301 -73.5 17.5s-43 28 -60 49s-30.333 46.167 -40 75.5s-14.5 62 -14.5 98c0 38 5.33301 71.667 16 101
s25.167 54.333 43.5 75s39.666 36.334 63.999 47.001s50.166 16 77.499 16c16 0 30.667 -1.83301 44 -5.5s25.5 -8.83398 36.5 -15.501s20.667 -15 29 -25s15.5 -21 21.5 -33v67h68v-624h-72zM243.001 53.002c17.333 0 33.502 3.49902 48.502 10.499s28.333 18 40 33
s20.667 34.5 27 58.5s9.5 52.667 9.5 86c0 31.333 -2.83301 57.833 -8.5 79.5s-13.834 39 -24.501 52s-23 22.5 -37 28.5s-29.667 9 -47 9c-18.667 0 -36.334 -3.5 -53.001 -10.5s-31.167 -17.667 -43.5 -32s-22 -32.666 -29 -54.999s-10.5 -48.833 -10.5 -79.5
c0 -28 3 -53 9 -75s14.667 -40.833 26 -56.5s24.833 -27.667 40.5 -36s33.167 -12.5 52.5 -12.5z" />
    <glyph glyph-name="r" unicode="r" 
d="M119 457l75.0029 -0.000976562l-3 -133l-9 15c4 20.667 11 39 21 55s22 29.5 36 40.5s29.333 19.333 46 25s34 8.5 52 8.5c24 0 46.167 -4.16699 66.5 -12.5s38.5 -20.833 54.5 -37.5l-32 -56l-4 -9l-7 4c-1.33301 5.33301 -3.33301 10.333 -6 15
s-8.33398 10.334 -17.001 17.001c-10.667 6.66699 -20.5 11.167 -29.5 13.5s-19.167 3.5 -30.5 3.5c-16.667 0 -33.334 -3.16699 -50.001 -9.5s-31.834 -16.166 -45.501 -29.499s-24.5 -30.333 -32.5 -51s-12 -45.334 -12 -74.001v-243h-73v458z" />
    <glyph glyph-name="s" unicode="s" 
d="M251 -10c-25.333 0 -49.5029 2.66309 -72.5029 7.99609s-44.667 13.333 -65 24s-39.166 24 -56.499 40l40 68l6 9l6 -4c1.33301 -5.33301 2.83301 -10.833 4.5 -16.5s6.16699 -12.5 13.5 -20.5c14 -14 30.833 -25.5 50.5 -34.5s44.834 -13.5 75.501 -13.5
c24.667 0 45.5 3 62.5 9s30.167 14.5 39.5 25.5s14 23.833 14 38.5c0 10 -2 18.833 -6 26.5s-10.5 14.834 -19.5 21.501s-20.833 13.334 -35.5 20.001s-32.667 13.334 -54 20.001c-34.667 10 -65 21.667 -91 35s-46 28.833 -60 46.5s-21 37.834 -21 60.501
c0 23.333 6.33301 43.5 19 60.5s31.5 30.333 56.5 40s55.833 14.5 92.5 14.5c21.333 0 40.666 -1.5 57.999 -4.5s33.333 -7.5 48 -13.5s28.167 -13.5 40.5 -22.5s24.166 -19.5 35.499 -31.5l-41 -50l-7 -8l-5 5c-0.666992 5.33301 -2.16699 10.5 -4.5 15.5
s-7.16602 11.167 -14.499 18.5c-15.333 12 -32.666 21.167 -51.999 27.5s-38 9.5 -56 9.5c-26.667 0 -49.667 -4.66699 -69 -14s-29 -23.666 -29 -42.999c0 -10 3.5 -19.833 10.5 -29.5s19.833 -19.334 38.5 -29.001s45.334 -19.5 80.001 -29.5
c38 -12 68.5 -24.167 91.5 -36.5s39.667 -26.5 50 -42.5s15.5 -35 15.5 -57c0 -25.333 -6.83301 -49 -20.5 -71s-34.5 -39.5 -62.5 -52.5s-63.333 -19.5 -106 -19.5v0z" />
    <glyph glyph-name="t" unicode="t" 
d="M299 -7c-29.333 0 -53.335 5.00195 -72.002 15.002s-33 25.5 -43 46.5s-16.5 47.5 -19.5 79.5s-3.83301 70 -2.5 114l12 326l75 9l10 1l1 -7c-3.33301 -4.66699 -6.16602 -9.33398 -8.49902 -14.001s-4.16602 -12.667 -5.49902 -24l-9 -113l3 -18l-7 -165
c-2 -50.667 -0.666992 -89.834 4 -117.501s13 -46.667 25 -57s28 -15.5 48 -15.5c22 0 41.5 4.33301 58.5 13s34.833 19.667 53.5 33l22 -57c-22.667 -16.667 -46 -29 -70 -37s-49 -12 -75 -12v0zM69.998 457.002h329v-59h-329v59z" />
    <glyph glyph-name="u" unicode="u" 
d="M221 -11c-18 0 -35.0049 2.66797 -51.0049 8.00098s-30.5 13.5 -43.5 24.5s-24.167 24.833 -33.5 41.5s-16.5 36.667 -21.5 60s-7.5 49.666 -7.5 78.999l1 255h70v-255c0 -28.667 2.66699 -53 8 -73s12.833 -36 22.5 -48s20.834 -20.667 33.501 -26s26 -8 40 -8
c16 0 31.333 3.16699 46 9.5s27.834 15.833 39.501 28.5s20.834 29 27.501 49s10 43.667 10 71v252h70v-386c0 -12 0.5 -23.833 1.5 -35.5s3.83301 -23.5 8.5 -35.5h-69c-3.33301 8 -5.66602 15.833 -6.99902 23.5s-2.16602 15.5 -2.49902 23.5s-0.5 15.667 -0.5 23
c-7.33301 -12.667 -16 -24 -26 -34s-21.167 -18.5 -33.5 -25.5s-25.333 -12.333 -39 -16s-28.167 -5.5 -43.5 -5.5z" />
    <glyph glyph-name="v" unicode="v" 
d="M221 0l-181.002 457h72l148 -375h-14l81 186c16 36.667 28.833 70.667 38.5 102s16.834 60.333 21.501 87h68c-5.33301 -28 -13.666 -58.667 -24.999 -92s-25.333 -69.333 -42 -108l-111 -257h-56z" />
    <glyph glyph-name="w" unicode="w" 
d="M108 -1l-91.999 458h63l74 -367l78 324h44l97 -323l21.5 146c5.66699 38 10 69.167 13 93.5s5 44.833 6 61.5s1.5 33.334 1.5 50.001v15h67c-6.66699 -51.333 -13.834 -102.5 -21.501 -153.5s-16 -101.833 -25 -152.5s-18.833 -101.334 -29.5 -152.001h-68l-84 296
l-80 -296h-65z" />
    <glyph glyph-name="x" unicode="x" 
d="M47 0l161 232l-158 225h79l119 -169l114 169h74l-148 -222l168 -235h-82l-126 178l-119 -178h-82z" />
    <glyph glyph-name="y" unicode="y" 
d="M127 -174c-21.333 0 -40.8291 3.33105 -58.4961 9.99805s-33.167 16.334 -46.5 29.001l31 49l6 9l6 -4c1.33301 -5.33301 3.66602 -9.83301 6.99902 -13.5s9.66602 -8.5 18.999 -14.5c6 -2 12.333 -3.5 19 -4.5s13.667 -1.5 21 -1.5c18 0 33.167 4.33301 45.5 13
s23.166 22 32.499 40s18.333 40.667 27 68l87 269l29 91c9.33301 30 15.666 60.333 18.999 91h72c-4.66699 -30.667 -12 -61.667 -22 -93s-20.667 -62.666 -32 -93.999l-114 -322c-16 -44.667 -36.5 -76.167 -61.5 -94.5s-53.833 -27.5 -86.5 -27.5v0zM46.0039 456.998h75
l148 -381l-32 -89z" />
    <glyph glyph-name="z" unicode="z" 
d="M50 49l283 345h-262v63h355v-49l-278 -346h258c11.333 0 19.333 0.666992 24 2s9 4 13 8h7v-10v-62h-400v49z" />
    <glyph glyph-name="braceleft" unicode="{" 
d="M371 -95c-48 0 -88 4.83691 -120 14.5039s-55.833 27.167 -71.5 52.5s-22.5 61.333 -20.5 108l4 100c0 29.333 -3.5 52.166 -10.5 68.499s-17.167 27.666 -30.5 33.999s-29.666 9.5 -48.999 9.5h-20v56h19c20.667 0 37.834 3.66699 51.501 11s24 18.833 31 34.5
s10.5 36.167 10.5 61.5l-2 72c0 38.667 6.83301 70.834 20.5 96.501s34 45 61 58s60.5 19.5 100.5 19.5h63v-57h-82c-30.667 0 -53.834 -8.83301 -69.501 -26.5s-23.5 -44.167 -23.5 -79.5l2 -70c0 -24.667 -3.16699 -46.5 -9.5 -65.5s-16 -35.333 -29 -49
s-29.167 -24.834 -48.5 -33.501c19.333 -6 35.166 -15.833 47.499 -29.5s21.666 -30.834 27.999 -51.501s9.5 -45.334 9.5 -74.001l-3 -84c0 -30 4.33301 -53.833 13 -71.5s22.334 -30.167 41.001 -37.5s42.667 -11 72 -11h51v-56h-36z" />
    <glyph glyph-name="bar" unicode="|" 
d="M217 -151v803h67v-803h-67z" />
    <glyph glyph-name="braceright" unicode="}" 
d="M91 -95l-36.0039 -0.00390625v56h51c30 0 54.167 3.66699 72.5 11s31.833 19.833 40.5 37.5s13 41.5 13 71.5l-3 84c0 28.667 3.16699 53.334 9.5 74.001s15.833 37.834 28.5 51.501s28.334 23.5 47.001 29.5c-19.333 8.66699 -35.5 19.834 -48.5 33.501
s-22.667 30 -29 49s-9.5 40.833 -9.5 65.5l2 70c0 35.333 -7.66699 61.833 -23 79.5s-38.666 26.5 -69.999 26.5h-82v57h63c40.667 0 74.334 -6.5 101.001 -19.5s46.834 -32.333 60.501 -58s20.5 -57.834 20.5 -96.501l-2 -72c0 -25.333 3.5 -45.833 10.5 -61.5
s17.5 -27.167 31.5 -34.5s31 -11 51 -11h19v-56h-20c-18.667 0 -34.834 -3.16699 -48.501 -9.5s-24 -17.666 -31 -33.999s-10.5 -39.166 -10.5 -68.499l4 -100c2 -46.667 -4.66699 -82.667 -20 -108s-39.166 -42.833 -71.499 -52.5s-72.5 -14.5 -120.5 -14.5z" />
    <glyph glyph-name="asciitilde" unicode="~" 
d="M348 266c-17.333 0 -32.6699 2.66602 -46.0029 7.99902s-25.5 11.666 -36.5 18.999s-22 13.666 -33 18.999s-23.167 8 -36.5 8c-15.333 0 -29 -3.33301 -41 -10s-23.667 -19 -35 -37l-49 22c7.33301 15.333 16.5 29 27.5 41s24.5 21.5 40.5 28.5s34.333 10.5 55 10.5
c17.333 0 32.333 -2.66699 45 -8s24.334 -11.666 35.001 -18.999s21.5 -13.666 32.5 -18.999s23.5 -8 37.5 -8c14.667 0 27 3.33301 37 10s21.333 19.334 34 38.001l46 -28c-11.333 -18.667 -22.666 -33.5 -33.999 -44.5s-23.166 -18.833 -35.499 -23.5s-26.833 -7 -43.5 -7
z" />
    <glyph glyph-name="uni00A0" unicode="&#xa0;" 
 />
    <glyph glyph-name="exclamdown" unicode="&#xa1;" 
d="M215 393l50 0.000976562l27 -390c0 -20 -2.16699 -36.167 -6.5 -48.5s-10.166 -21.333 -17.499 -27s-16.333 -8.5 -27 -8.5s-19.834 2.83301 -27.501 8.5s-13.5 14.167 -17.5 25.5s-6 24.666 -6 39.999zM239 598.001c16 0 30 -5.83301 42 -17.5s18 -25.167 18 -40.5
c0 -16 -6 -30 -18 -42s-26 -18 -42 -18s-29.833 6 -41.5 18s-17.5 26 -17.5 42s5.83301 29.667 17.5 41s25.5 17 41.5 17z" />
    <glyph glyph-name="cent" unicode="&#xa2;" 
d="M246 -73h-52l95 696h49zM285 32c-33.333 0 -64.002 6.00195 -92.002 18.002s-52.167 28.667 -72.5 50s-36.166 46.5 -47.499 75.5s-17 60.833 -17 95.5c0 34 5.66699 65.5 17 94.5s27.166 54.167 47.499 75.5s44.5 38 72.5 50s58.333 18 91 18
c37.333 0 70.833 -7.5 100.5 -22.5s53.834 -35.833 72.501 -62.5l-45 -44l-7 -7l-5 5c0 5.33301 -1.16699 10.333 -3.5 15s-7.5 11 -15.5 19c-14.667 13.333 -30.334 22.666 -47.001 27.999s-36 8 -58 8c-19.333 0 -37.666 -4 -54.999 -12s-32.833 -19.5 -46.5 -34.5
s-24.5 -33.167 -32.5 -54.5s-12 -45 -12 -71s4 -49.833 12 -71.5s19 -40.5 33 -56.5s30.833 -28.5 50.5 -37.5s40.834 -13.5 63.501 -13.5c15.333 0 30 2.16699 44 6.5s27.333 10.666 40 18.999s24.334 18.5 35.001 30.5l42 -49c-22.667 -24 -47.834 -42 -75.501 -54
s-57.5 -18 -89.5 -18v0z" />
    <glyph glyph-name="sterling" unicode="&#xa3;" 
d="M65 -8l-26.0059 56.999c27.333 13.333 48.833 27.333 64.5 42s27 32.334 34 53.001s10.5 46.667 10.5 78c0 12.667 -1.16699 27.167 -3.5 43.5s-6.16602 34.833 -11.499 55.5h-66v57h52c-2.66699 11.333 -4.5 22.333 -5.5 33s-1.5 21 -1.5 31c0 36.667 8 68.5 24 95.5
s37.333 48 64 63s56 22.5 88 22.5c24.667 0 47.834 -4.16699 69.501 -12.5s41.834 -21.166 60.501 -38.499l-44 -55c-11.333 13.333 -24 24.833 -38 34.5s-36 14.5 -66 14.5c-18 0 -33.833 -5 -47.5 -15s-24.334 -24.167 -32.001 -42.5s-11.5 -40.166 -11.5 -65.499
c0 -8.66699 0.666992 -18.334 2 -29.001s3.33301 -22.667 6 -36h130v-57h-116c4.66699 -18.667 8 -36.167 10 -52.5s3 -31.166 3 -44.499c0 -16.667 -1.33301 -32.834 -4 -48.501s-6.66699 -30.5 -12 -44.5s-12 -27.667 -20 -41c18 2 35.667 1.16699 53 -2.5
s34 -8.33398 50 -14.001s31.667 -10.834 47 -15.501s30.333 -7 45 -7c12.667 0 24.834 2.33301 36.501 7s23.167 11.667 34.5 21l26 -52c-17.333 -14 -34.666 -24.5 -51.999 -31.5s-34.666 -10.5 -51.999 -10.5c-9.33301 0 -21.5 2.33301 -36.5 7l-49.5 15.5
c-18 5.66699 -35.667 10.834 -53 15.501s-33 7 -47 7c-14.667 0 -31.667 -3.16699 -51 -9.5s-40.666 -15.833 -63.999 -28.5z" />
    <glyph glyph-name="currency" unicode="&#xa4;" 
d="M104 164l-36 35.002l56 57c-9.33301 13.333 -16.333 27.666 -21 42.999s-7 30.666 -7 45.999c0 16 2.33301 31.667 7 47s12 29.666 22 42.999l-57 57l36 35l56 -56c13.333 9.33301 27.666 16.5 42.999 21.5s31.333 7.5 48 7.5c15.333 0 30.5 -2.33301 45.5 -7
s29.5 -11.667 43.5 -21l56 55l36 -35l-56 -55c10 -14 17.5 -28.667 22.5 -44s7.5 -31.333 7.5 -48s-2.5 -32.667 -7.5 -48s-12.167 -29.666 -21.5 -42.999l55 -55l-36 -35l-55 55c-13.333 -10 -27.666 -17.333 -42.999 -22s-31 -7 -47 -7c-16.667 0 -32.667 2.5 -48 7.5
s-30 12.5 -44 22.5zM250 245.002c22 0 40.5 4.66895 55.5 14.002s26.333 21.666 34 36.999s11.5 31.666 11.5 48.999c0 18.667 -3.83301 35.5 -11.5 50.5s-19 27.167 -34 36.5s-33.5 14 -55.5 14c-20.667 0 -38.5 -4.66699 -53.5 -14s-26.5 -21.5 -34.5 -36.5
s-12 -31.833 -12 -50.5c0 -18 3.83301 -34.5 11.5 -49.5s19 -27.167 34 -36.5s33.167 -14 54.5 -14z" />
    <glyph glyph-name="yen" unicode="&#xa5;" 
d="M238 217h-154v57h154v-57zM278 274h148v-57h-148v57zM238 98h-154v56h154v-56zM278 154h148v-56h-148v56zM292 0h-68v295l-188 329h78l145 -261l133 260h74l-174 -328v-295z" />
    <glyph glyph-name="brokenbar" unicode="&#xa6;" 
d="M217 295v357h67v-357h-67zM217 -151v347h67v-347h-67z" />
    <glyph glyph-name="section" unicode="&#xa7;" 
d="M238 -54c-34 0 -66.1699 7.16504 -96.5029 21.498s-55.833 35.5 -76.5 63.5l52 61c4 -1.33301 6.33301 -3 7 -5s1.5 -4.83301 2.5 -8.5s3.33301 -8.5 7 -14.5s10.5 -13.667 20.5 -23c7.33301 -6.66699 15 -12 23 -16s16.833 -7.16699 26.5 -9.5s19.834 -3.5 30.501 -3.5
c16 0 30.5 2 43.5 6s23.833 9.66699 32.5 17s15.334 15.833 20.001 25.5s7 19.834 7 30.501c0 15.333 -3.33301 28.5 -10 39.5s-18.5 21.167 -35.5 30.5s-40.833 18.333 -71.5 27c-34 11.333 -61.333 23 -82 35s-35.667 25.5 -45 40.5s-14 32.5 -14 52.5c0 11.333 2 22 6 32
s9.5 19.5 16.5 28.5s15.667 17 26 24s21.5 12.5 33.5 16.5c-22.667 13.333 -39.5 29.333 -50.5 48s-16.5 40.334 -16.5 65.001c0 25.333 7.16699 48.833 21.5 70.5s33.833 39 58.5 52s52.334 19.5 83.001 19.5c22 0 42.833 -3.5 62.5 -10.5s37.5 -17.167 53.5 -30.5
s29.333 -29.333 40 -48l-57 -50c-1.33301 1.33301 -2.5 3 -3.5 5s-1.83301 4 -2.5 6c-1.33301 8.66699 -4.66602 17.167 -9.99902 25.5s-12.166 15.666 -20.499 21.999s-17.833 11.5 -28.5 15.5s-22.334 6 -35.001 6c-16 0 -30.833 -3.5 -44.5 -10.5
s-24.5 -16.167 -32.5 -27.5s-12 -24.333 -12 -39c0 -15.333 3 -28 9 -38s15.5 -19 28.5 -27s29.5 -16 49.5 -24l72 -28c15.333 -7.33301 28.666 -15.166 39.999 -23.499s20.833 -17.166 28.5 -26.499s13.5 -19.333 17.5 -30s6 -22 6 -34
c0 -13.333 -3.16699 -26.333 -9.5 -39s-15 -23.834 -26 -33.501s-23.833 -17.5 -38.5 -23.5c21.333 -14.667 37.333 -31.167 48 -49.5s16 -38.833 16 -61.5c0 -22 -4.33301 -42.333 -13 -61s-20.667 -34.667 -36 -48s-33.333 -23.833 -54 -31.5s-43 -11.5 -67 -11.5z
M306.997 227.998c8 4.66699 14.6689 10.001 20.002 16.001s9.33301 13 12 21s4 17 4 27c0 11.333 -2 21.166 -6 29.499s-10.167 16.166 -18.5 23.499s-19 14.166 -32 20.499s-28.5 12.5 -46.5 18.5l-43 15c-6.66699 -2 -12.834 -5.16699 -18.501 -9.5
s-10.5 -9.16602 -14.5 -14.499s-7 -11.333 -9 -18s-3 -13.667 -3 -21c0 -10.667 2 -20.667 6 -30s10.167 -17.666 18.5 -24.999s19.166 -14 32.499 -20s29 -11.667 47 -17l30 -8.5c8.66699 -2.33301 15.667 -4.83301 21 -7.5z" />
    <glyph glyph-name="dieresis" unicode="&#xa8;" 
d="M163 564c-14 0 -26 5.00098 -36 15.001s-15 21.667 -15 35s5 25.166 15 35.499s22 15.5 36 15.5c13.333 0 25 -5 35 -15s15 -22 15 -36c0 -13.333 -5 -25 -15 -35s-21.667 -15 -35 -15zM341 564.001c-14 0 -25.833 4.83301 -35.5 14.5s-14.5 21.5 -14.5 35.5
s4.83301 26 14.5 36s21.5 15 35.5 15c13.333 0 25 -5 35 -15s15 -22 15 -36c0 -13.333 -5 -25 -15 -35s-21.667 -15 -35 -15z" />
    <glyph glyph-name="copyright" unicode="&#xa9;" 
d="M261 122c-27.333 0 -52.002 6.99805 -74.002 20.998s-39.5 32.833 -52.5 56.5s-19.5 49.167 -19.5 76.5c0 21.333 4 40.833 12 58.5s18.667 33.334 32 47.001s28.333 24.167 45 31.5s33.334 11 50.001 11c36 0 65.5 -8.5 88.5 -25.5s37.833 -39.5 44.5 -67.5l-52 -19
c-2.66699 4.66699 -4 8.66699 -4 12s-0.333008 6.66602 -1 9.99902s-2.83398 7.33301 -6.50098 12s-10.834 10.667 -21.501 18c-5.33301 3.33301 -11.5 5.83301 -18.5 7.5s-14.167 2.5 -21.5 2.5c-9.33301 0 -19.166 -1.66699 -29.499 -5s-20.166 -8.66602 -29.499 -15.999
s-17 -17 -23 -29s-9 -26.333 -9 -43c0 -20 4.16699 -38 12.5 -54s19.666 -28.833 33.999 -38.5s30.166 -14.5 47.499 -14.5c10.667 0 20.834 1.83301 30.501 5.5s18.334 8.83398 26.001 15.501s13.834 14.667 18.501 24l44 -29c-14 -21.333 -32 -38 -54 -50s-45 -18 -69 -18
zM254.998 18.998c-33.333 0 -64.5 6.66602 -93.5 19.999s-54.667 31.666 -77 54.999s-39.666 50.5 -51.999 81.5s-18.5 63.833 -18.5 98.5c0 35.333 6.33301 68.5 19 99.5s30 58.167 52 81.5s47.667 41.666 77 54.999s60.666 20 93.999 20c32.667 0 63.667 -6.66699 93 -20
s55.166 -31.666 77.499 -54.999s39.833 -50.5 52.5 -81.5s19 -64.167 19 -99.5c0 -28.667 -4.16699 -55.667 -12.5 -81s-19.833 -48.666 -34.5 -69.999s-32.167 -39.666 -52.5 -54.999s-42.666 -27.333 -66.999 -36s-49.833 -13 -76.5 -13zM256.998 61.9971
c26.667 0 52.001 5.66895 76.001 17.002s45.167 26.666 63.5 45.999s32.666 42 42.999 68s15.5 53.333 15.5 82c0 29.333 -5.16699 56.833 -15.5 82.5s-24.5 48.167 -42.5 67.5s-39 34.666 -63 45.999s-49.667 17 -77 17s-53 -5.5 -77 -16.5s-45 -26.167 -63 -45.5
s-32.167 -42 -42.5 -68s-15.5 -54 -15.5 -84c0 -29.333 5.16699 -56.833 15.5 -82.5s24.5 -48.167 42.5 -67.5s39 -34.5 63 -45.5s49.667 -16.5 77 -16.5z" />
    <glyph glyph-name="ordfeminine" unicode="&#xaa;" 
d="M219 258c-38 0 -67.332 9.3291 -87.999 27.9961s-31 42.334 -31 71.001c0 26 7.5 48.333 22.5 67s35.667 33 62 43s56.166 15 89.499 15c7.33301 0 15 -0.166992 23 -0.5s16.333 -0.833008 25 -1.5s17.667 -1.66699 27 -3l1 -47c-7.33301 1.33301 -15.333 2.33301 -24 3
s-17.167 1.16699 -25.5 1.5s-16.166 0.5 -23.499 0.5c-24 0 -44.5 -2.66699 -61.5 -8s-30.167 -13.333 -39.5 -24s-14 -24.334 -14 -41.001c0 -13.333 2.83301 -24.166 8.5 -32.499s13.5 -14.166 23.5 -17.499s21 -5 33 -5c18 0 33.833 3 47.5 9s25.167 14.833 34.5 26.5
s16.5 26.334 21.5 44.001s7.5 38.167 7.5 61.5c0 33.333 -3.5 59.333 -10.5 78s-17.667 31.834 -32 39.501s-32.5 11.5 -54.5 11.5c-16 0 -31.333 -2.83301 -46 -8.5s-28.667 -15.167 -42 -28.5l-31 39c16.667 17.333 35.5 29.833 56.5 37.5s43.167 11.5 66.5 11.5
c30 0 56.167 -5 78.5 -15s39.666 -27.167 51.999 -51.5s18.5 -58.5 18.5 -102.5v-192h-65v50c-6.66699 -12 -14.167 -21.833 -22.5 -29.5s-17.5 -13.667 -27.5 -18s-20 -7.33301 -30 -9s-20 -2.5 -30 -2.5zM76.001 210.996h349v-54h-349v54z" />
    <glyph glyph-name="guillemotleft" unicode="&#xab;" 
d="M225 61l-158 169v23l152 147l39 -41l-121 -118l128 -140zM406 61l-157 169v23l151 147l39 -41l-121 -118l128 -140z" />
    <glyph glyph-name="logicalnot" unicode="&#xac;" 
d="M350 157v127h-259v63h323v-190h-64z" />
    <glyph glyph-name="uni00AD" unicode="&#xad;" 
d="M111 281v67h280v-67h-280z" />
    <glyph glyph-name="registered" unicode="&#xae;" 
d="M329 131l-61.998 125.002h-66v-123h-46v292h94c29.333 0 52.666 -3.66699 69.999 -11s30 -17.333 38 -30s12 -27.334 12 -44.001s-4.83301 -32.334 -14.5 -47.001s-23.834 -24.667 -42.501 -30l64 -125zM201.002 296.002h52c23.333 0 41 3.66699 53 11s18 18.333 18 33
s-6.16699 25.667 -18.5 33s-30.833 11 -55.5 11h-49v-88zM255.002 19.002c-33.333 0 -64.5 6.66602 -93.5 19.999s-54.667 31.666 -77 54.999s-39.666 50.5 -51.999 81.5s-18.5 63.833 -18.5 98.5c0 35.333 6.33301 68.5 19 99.5s30 58.167 52 81.5s47.667 41.666 77 54.999
s60.666 20 93.999 20c32.667 0 63.667 -6.66699 93 -20s55.166 -31.666 77.499 -54.999s39.833 -50.5 52.5 -81.5s19 -64.167 19 -99.5c0 -28.667 -4.16699 -55.667 -12.5 -81s-19.833 -48.666 -34.5 -69.999s-32.167 -39.666 -52.5 -54.999s-42.666 -27.333 -66.999 -36
s-49.833 -13 -76.5 -13zM257.002 62.001c26.667 0 52.001 5.66895 76.001 17.002s45.167 26.666 63.5 45.999s32.666 42 42.999 68s15.5 53.333 15.5 82c0 29.333 -5.16699 56.833 -15.5 82.5s-24.5 48.167 -42.5 67.5s-39 34.666 -63 45.999s-49.667 17 -77 17
s-53 -5.5 -77 -16.5s-45 -26.167 -63 -45.5s-32.167 -42 -42.5 -68s-15.5 -54 -15.5 -84c0 -29.333 5.16699 -56.833 15.5 -82.5s24.5 -48.167 42.5 -67.5s39 -34.5 63 -45.5s49.667 -16.5 77 -16.5z" />
    <glyph glyph-name="macron" unicode="&#xaf;" 
d="M123 565v56h254v-56h-254z" />
    <glyph glyph-name="degree" unicode="&#xb0;" 
d="M256 370c-24.667 0 -47.3311 5.99902 -67.998 17.999s-37 28.167 -49 48.5s-18 42.833 -18 67.5c0 19.333 3.66699 37.166 11 53.499s17.166 30.5 29.499 42.5s26.666 21.5 42.999 28.5s33.5 10.5 51.5 10.5c24.667 0 47.167 -6.16699 67.5 -18.5
s36.666 -28.666 48.999 -48.999s18.5 -42.833 18.5 -67.5c0 -24 -6 -46.167 -18 -66.5s-28.167 -36.666 -48.5 -48.999s-43.166 -18.5 -68.499 -18.5zM256.003 424.999c14.667 0 27.502 3.66699 38.502 11s19.833 17.166 26.5 29.499s10 25.5 10 39.5
s-3.16699 27.167 -9.5 39.5s-15 22.333 -26 30s-23.833 11.5 -38.5 11.5c-13.333 0 -25.833 -3.83301 -37.5 -11.5s-20.834 -17.5 -27.501 -29.5s-10 -25.333 -10 -40c0 -14 3.33301 -27.167 10 -39.5s15.667 -22.166 27 -29.499s23.666 -11 36.999 -11z" />
    <glyph glyph-name="plusminus" unicode="&#xb1;" 
d="M222 155v188h-177v61h177v171h63v-171h171v-61h-171v-188h-63zM46 17v63h411v-63h-411z" />
    <glyph glyph-name="uni00B2" unicode="&#xb2;" 
d="M126 287l83.498 75.498c24.333 21.667 45 41.334 62 59.001s30 34.834 39 51.501s13.5 34 13.5 52c0 16 -3 28.667 -9 38s-14.333 16 -25 20s-22.667 6 -36 6s-26.166 -2 -38.499 -6s-23.5 -10 -33.5 -18c-6.66699 -8.66699 -11.167 -15.334 -13.5 -20.001
s-3.16602 -9.66699 -2.49902 -15l-4 -5l-8 6l-39 31c14.667 23.333 34 41.5 58 54.5s51 19.5 81 19.5c24 0 45.5 -4.5 64.5 -13.5s33.833 -21.667 44.5 -38s16 -36.166 16 -59.499c0 -20.667 -4.66699 -40.334 -14 -59.001s-22 -37.167 -38 -55.5
s-34.5 -37.166 -55.5 -56.499l-67.5 -62h133c11.333 0 19.333 0.666992 24 2s9 4 13 8h7v-10v-46h-255v41z" />
    <glyph glyph-name="uni00B3" unicode="&#xb3;" 
d="M242 239c-23.333 0 -45.666 3.83301 -66.999 11.5s-39.333 18.834 -54 33.501l33 40l7 8l5 -5c0.666992 -5.33301 2.33398 -10 5.00098 -14s8.33398 -9.66699 17.001 -17c7.33301 -3.33301 15.166 -6.16602 23.499 -8.49902s17.833 -3.5 28.5 -3.5
c25.333 0 44.666 6.66699 57.999 20s20 30.333 20 51c0 18.667 -4.83301 33.334 -14.5 44.001s-23.334 18.167 -41.001 22.5s-38.834 5.5 -63.501 3.5v43c21.333 0 38.833 1.66699 52.5 5s24.5 8.16602 32.5 14.499s13.5 13.833 16.5 22.5s4.5 17.667 4.5 27
c0 11.333 -2.66699 20.833 -8 28.5s-12.5 13.667 -21.5 18s-19.5 6.5 -31.5 6.5c-14 0 -27.5 -2.16699 -40.5 -6.5s-25.167 -11.833 -36.5 -22.5l-34 33c15.333 15.333 32.833 26.166 52.5 32.499s39.167 9.5 58.5 9.5c35.333 0 63.666 -9 84.999 -27s32 -41.333 32 -70
c0 -20.667 -5.66699 -38.834 -17 -54.501s-27.333 -26.834 -48 -33.501c14.667 -4.66699 27.834 -11.167 39.501 -19.5s21 -19 28 -32s10.5 -28.5 10.5 -46.5c0 -21.333 -5.16699 -40.666 -15.5 -57.999s-25.166 -31 -44.499 -41s-43.333 -15 -72 -15v0z" />
    <glyph glyph-name="acute" unicode="&#xb4;" 
d="M254 522l-38 26l84 149l55 -40z" />
    <glyph glyph-name="uni00B5" unicode="&#xb5;" 
d="M24 -167c0 11.333 0.666016 29 1.99902 53s3 51 5 81l6 91c2 30.667 3.66699 58.667 5 84s2 45.333 2 60v255h66v-271c0 -28 2.66699 -51.167 8 -69.5s12.5 -32.833 21.5 -43.5s19.333 -18.334 31 -23.001s23.834 -7 36.501 -7c22 0 40.5 6.16699 55.5 18.5
s26.333 29.666 34 51.999s11.5 48.5 11.5 78.5v265h64v-341c0 -15.333 1.5 -28.166 4.5 -38.499s7.5 -18 13.5 -23s13.333 -7.5 22 -7.5c9.33301 0 18.833 4 28.5 12s16.5 16.333 20.5 25l6 12l27 -51c-12.667 -18.667 -26.167 -32.5 -40.5 -41.5
s-30.166 -13.5 -47.499 -13.5c-14 0 -27 3.5 -39 10.5s-21.667 16.333 -29 28s-12 24.5 -14 38.5c-7.33301 -17.333 -17.666 -31.666 -30.999 -42.999s-27.833 -19.833 -43.5 -25.5s-31.834 -8.5 -48.501 -8.5c-16 0 -31.5 2.5 -46.5 7.5s-28.333 12.833 -40 23.5
s-20.834 23.667 -27.501 39v-56.5v-57c0 -19 -0.166992 -37.833 -0.5 -56.5s-0.5 -37.667 -0.5 -57h-62z" />
    <glyph glyph-name="paragraph" unicode="&#xb6;" 
d="M243 -68v390c-24.667 1.33301 -48 6.83301 -70 16.5s-41 22.667 -57 39s-28.667 35.166 -38 56.499s-14 44 -14 68c0 28.667 7.83301 55.334 23.5 80.001s41.5 44.667 77.5 60s84.667 23 146 23h125v-733h-58v676h-76v-676h-59z" />
    <glyph glyph-name="periodcentered" unicode="&#xb7;" 
d="M238 274c-16.667 0 -30.665 5.49902 -41.998 16.499s-17 24.5 -17 40.5s6 29.5 18 40.5s25.667 16.5 41 16.5s29.166 -5.5 41.499 -16.5s18.5 -24.5 18.5 -40.5c0 -15.333 -5.83301 -28.666 -17.5 -39.999s-25.834 -17 -42.501 -17z" />
    <glyph glyph-name="cedilla" unicode="&#xb8;" 
d="M268 -197c-17.333 0 -34.334 2.5 -51.001 7.5s-32.667 12.833 -48 23.5l25 42c12.667 -10 26.167 -17.5 40.5 -22.5s29.833 -7.5 46.5 -7.5c17.333 0 30 3.16699 38 9.5s12 15.166 12 26.499c0 10.667 -4.66699 18.834 -14 24.501s-21.666 8.5 -36.999 8.5h-30l11 85h44
l-6 -47c20 -1.33301 36.167 -5.33301 48.5 -12s21.5 -14.667 27.5 -24s9 -19 9 -29c0 -22.667 -9.5 -42.5 -28.5 -59.5s-48.167 -25.5 -87.5 -25.5z" />
    <glyph glyph-name="uni00B9" unicode="&#xb9;" 
d="M232 246v324l-83 -24l-13 33l111 54h41v-387h-56z" />
    <glyph glyph-name="ordmasculine" unicode="&#xba;" 
d="M250 260c-30 0 -56.833 7.66699 -80.5 23s-42.334 36.833 -56.001 64.5s-20.5 59.834 -20.5 96.501s6.83301 68.834 20.5 96.501s32.334 49.167 56.001 64.5s50.5 23 80.5 23c30.667 0 57.667 -7.66699 81 -23s41.833 -36.833 55.5 -64.5s20.5 -59.834 20.5 -96.501
s-6.83301 -68.834 -20.5 -96.501s-32.167 -49.167 -55.5 -64.5s-50.333 -23 -81 -23zM250 312c18.667 0 34.833 5.5 48.5 16.5s24.5 26.5 32.5 46.5s12 43.333 12 70s-4 49.834 -12 69.501s-19 35 -33 46s-30 16.5 -48 16.5s-34 -5.5 -48 -16.5s-25 -26.333 -33 -46
s-12 -42.834 -12 -69.501s4 -50 12 -70s19 -35.5 33 -46.5s30 -16.5 48 -16.5zM75.999 211h349v-54h-349v54z" />
    <glyph glyph-name="guillemotright" unicode="&#xbb;" 
d="M293 61l-40 40l128 140l-121 118l39 41l152 -147v-23zM112 61l-40 40l128 140l-121 118l39 41l151 -147v-23z" />
    <glyph glyph-name="onequarter" unicode="&#xbc;" 
d="M93 380v252l-64 -20l-11 31l88 43h37v-306h-50zM396 -70v73h-139v32l150 201h38v-194h45v-40h-45v-72h-49zM312 42h85v116zM123 -42l-47 26l313 681l48 -27z" />
    <glyph glyph-name="onehalf" unicode="&#xbd;" 
d="M93 380v252l-64 -20l-11 31l88 43h37v-306h-50zM280 -70l0.00292969 36l67 60.5c19.333 17 35.5 32.167 48.5 45.5s23 26.333 30 39s10.5 26 10.5 40c0 11.333 -2.33301 20.333 -7 27s-11 11.5 -19 14.5s-17.333 4.5 -28 4.5s-20.667 -1.5 -30 -4.5
s-17.833 -7.66699 -25.5 -14s-14.5 -14.833 -20.5 -25.5l-34 27c11.333 18.667 26.666 33.167 45.999 43.5s40.666 15.5 63.999 15.5c19.333 0 36.666 -3.5 51.999 -10.5s27.5 -17.167 36.5 -30.5s13.5 -29 13.5 -47c0 -16.667 -3.5 -32.167 -10.5 -46.5
s-16.5 -28.333 -28.5 -42s-26.167 -28 -42.5 -43l-52.5 -48.5h135v-41h-205zM123.003 -42l-47 26l313 681l48 -27z" />
    <glyph glyph-name="threequarters" unicode="&#xbe;" 
d="M103 374c-18.667 0 -36.835 3.00098 -54.502 9.00098s-32.167 15 -43.5 27l28 36l7 8l5 -4c0.666992 -5.33301 2.66699 -10 6 -14s9.33301 -9.33301 18 -16c4 -2 8.66699 -3.5 14 -4.5s11.333 -1.5 18 -1.5c19.333 0 34 4.83301 44 14.5s15 22.167 15 37.5
c0 14.667 -3.66699 26.167 -11 34.5s-17.833 14 -31.5 17s-30.167 3.5 -49.5 1.5v38c16.667 0 30.334 1.16699 41.001 3.5s19 6 25 11s10.333 10.5 13 16.5s4 12.333 4 19c0 8.66699 -2 16 -6 22s-9.5 10.667 -16.5 14s-15.167 5 -24.5 5
c-10.667 0 -21.167 -1.66699 -31.5 -5s-20.166 -9.33301 -29.499 -18l-29 29c12.667 12.667 27 21.667 43 27s31.667 8 47 8c29.333 0 52.666 -7.16699 69.999 -21.5s26 -33.166 26 -56.499c0 -16.667 -4.66699 -31 -14 -43s-21.666 -20.667 -36.999 -26
c16.667 -4.66699 31 -13.334 43 -26.001s18 -30 18 -52c0 -24.667 -9.33301 -45.834 -28 -63.501s-45 -26.5 -79 -26.5v0zM395.999 3.00098h-139v32l150 201h38v-194h45v-40h-45v-72h-49v73zM396.999 42.001v116l-85 -116h85zM122.999 -41.999l-47 26l313 681l48 -27z" />
    <glyph glyph-name="questiondown" unicode="&#xbf;" 
d="M272 316c0 -24 -3.33008 -44.502 -9.99707 -61.502s-15.334 -31.833 -26.001 -44.5s-21.834 -24.667 -33.501 -36s-22.834 -23 -33.501 -35s-19.334 -26 -26.001 -42s-10 -35.667 -10 -59c0 -14.667 2.66699 -28.167 8 -40.5s13 -23 23 -32s21.833 -15.833 35.5 -20.5
s28.5 -7 44.5 -7c25.333 0 47.666 3.66699 66.999 11s36.333 19 51 35c6.66699 8.66699 10.834 15.334 12.501 20.001s2.16699 9.66699 1.5 15l4 6l8 -6l46 -38c-14 -21.333 -29.667 -39.833 -47 -55.5s-37.666 -27.667 -60.999 -36s-51.666 -12.5 -84.999 -12.5
c-35.333 0 -66.333 6.33301 -93 19s-47.334 30.667 -62.001 54s-22 51 -22 83c0 27.333 3.5 50.333 10.5 69s15.833 34.834 26.5 48.501s22 26.167 34 37.5s23.333 22.833 34 34.5s19.5 25 26.5 40s10.5 32.833 10.5 53.5v41h66v-41zM237.003 552.998
c16 0 29.667 -5.66699 41 -17s17 -24.666 17 -39.999s-5.66699 -28.666 -17 -39.999s-25 -17 -41 -17c-15.333 0 -28.666 5.66699 -39.999 17s-17 24.666 -17 39.999s5.66699 28.666 17 39.999s24.666 17 39.999 17v0z" />
    <glyph glyph-name="Agrave" unicode="&#xc0;" 
d="M357 182h-226l14 54h196zM249 474l-164 -474h-69l230 634h8l230 -634h-72zM293 660l-170 61l40 70l153 -89z" />
    <glyph glyph-name="Aacute" unicode="&#xc1;" 
d="M357 182h-226l14 54h196zM249 474l-164 -474h-69l230 634h8l230 -634h-72zM177 660l-23 42l152 89l40 -70z" />
    <glyph glyph-name="Acircumflex" unicode="&#xc2;" 
d="M357 182h-226l14 54h196zM249 474l-164 -474h-69l230 634h8l230 -634h-72zM125 655l-33 38l143 98h22l151 -99l-30 -36l-130 70z" />
    <glyph glyph-name="Atilde" unicode="&#xc3;" 
d="M357 182h-226l14 54h196zM249 474l-164 -474h-69l230 634h8l230 -634h-72zM379 791l46.0039 -28.001c-14.667 -28 -28.834 -47.5 -42.501 -58.5s-30.5 -16.5 -50.5 -16.5c-14.667 0 -27.834 2.66699 -39.501 8s-22.334 11.666 -32.001 18.999
s-19.334 13.666 -29.001 18.999s-20.167 8 -31.5 8s-21.5 -3.33301 -30.5 -10s-17.5 -19 -25.5 -37l-49 22c9.33301 22.667 22.333 41.667 39 57s38 23 64 23c14.667 0 27.5 -2.66699 38.5 -8s21.167 -11.666 30.5 -18.999s18.833 -13.666 28.5 -18.999s20.5 -8 32.5 -8
c10.667 0 19.5 3.33301 26.5 10s15.167 19.334 24.5 38.001z" />
    <glyph glyph-name="Adieresis" unicode="&#xc4;" 
d="M357 182h-226l14 54h196zM249 474l-164 -474h-69l230 634h8l230 -634h-72zM160 688c-13.333 0 -25 5.00098 -35 15.001s-15 21.667 -15 35s5 25.166 15 35.499s21.667 15.5 35 15.5c14 0 26 -5 36 -15s15 -22 15 -36c0 -13.333 -5 -25 -15 -35s-22 -15 -36 -15z
M338 688.001c-13.333 0 -24.833 4.83301 -34.5 14.5s-14.5 21.5 -14.5 35.5s4.83301 26 14.5 36s21.167 15 34.5 15c14 0 26 -5 36 -15s15 -22 15 -36c0 -13.333 -5 -25 -15 -35s-22 -15 -36 -15z" />
    <glyph glyph-name="Aring" unicode="&#xc5;" 
d="M357 182h-226l14 54h196zM249 474l-164 -474h-69l230 634h8l230 -634h-72zM250 619c-16.667 0 -32.001 3.99902 -46.001 11.999s-25.167 18.667 -33.5 32s-12.5 28 -12.5 44s4.33301 30.667 13 44s20 24 34 32s29 12 45 12c16.667 0 31.834 -4 45.501 -12
s24.667 -18.667 33 -32s12.5 -28.333 12.5 -45c0 -15.333 -4 -29.666 -12 -42.999s-18.833 -24 -32.5 -32s-29.167 -12 -46.5 -12zM250.999 661.999c11.333 0 21 4.33301 29 13s12 19.334 12 32.001c0 13.333 -4 24.333 -12 33s-17.667 13 -29 13
s-21.166 -4.33301 -29.499 -13s-12.5 -19.667 -12.5 -33c0 -12.667 4.16699 -23.334 12.5 -32.001s18.166 -13 29.499 -13z" />
    <glyph glyph-name="AE" unicode="&#xc6;" 
d="M15 0l196 624h284v-62h-171v-205h145v-64h-145v-231h169v-62h-230v169h-130l-54 -169h-64zM147 227h116v335h-11z" />
    <glyph glyph-name="Ccedilla" unicode="&#xc7;" 
d="M285 -10c-34 0 -65.6689 6.16406 -95.002 18.4971s-55.166 31.5 -77.499 57.5s-39.833 59 -52.5 99s-19 87.667 -19 143c0 48.667 4.66699 91.167 14 127.5s22 66.833 38 91.5s34.333 44.334 55 59.001s42.334 25.334 65.001 32.001s45.334 10 68.001 10
c45.333 0 84 -11.167 116 -33.5s56 -52.166 72 -89.499l-60 -28l-9 -4l-3 7c2 5.33301 2 10.166 0 14.499s-5.66699 11.166 -11 20.499c-16.667 22.667 -33.834 37.834 -51.501 45.501s-36.167 11.5 -55.5 11.5c-26 0 -49.5 -5.83301 -70.5 -17.5s-39 -28.667 -54 -51
s-26.333 -49.5 -34 -81.5s-11.5 -68.333 -11.5 -109c0 -39.333 4.5 -75 13.5 -107s21.333 -59.667 37 -83s34 -41.333 55 -54s43.5 -19 67.5 -19c16.667 0 32.834 3 48.501 9s30.167 14.833 43.5 26.5s24.666 25.167 33.999 40.5l52 -34
c-20 -33.333 -44 -58.666 -72 -75.999s-62.333 -26 -103 -26v0zM276.998 -197.003c-17.333 0 -34.334 2.5 -51.001 7.5s-32.667 12.833 -48 23.5l25 42c12.667 -10 26.167 -17.5 40.5 -22.5s29.833 -7.5 46.5 -7.5c17.333 0 30 3.16699 38 9.5s12 15.166 12 26.499
c0 10.667 -4.66699 18.834 -14 24.501s-21.666 8.5 -36.999 8.5h-30l11 85h44l-6 -47c20 -1.33301 36.167 -5.33301 48.5 -12s21.5 -14.667 27.5 -24s9 -19 9 -29c0 -22.667 -9.5 -42.5 -28.5 -59.5s-48.167 -25.5 -87.5 -25.5z" />
    <glyph glyph-name="Egrave" unicode="&#xc8;" 
d="M59 0v624h382v-62h-316v-205h261v-64h-261v-231h313v-62h-379zM302 660l-170 61l40 70l153 -89z" />
    <glyph glyph-name="Eacute" unicode="&#xc9;" 
d="M59 0v624h382v-62h-316v-205h261v-64h-261v-231h313v-62h-379zM186 660l-23 42l152 89l40 -70z" />
    <glyph glyph-name="Ecircumflex" unicode="&#xca;" 
d="M59 0v624h382v-62h-316v-205h261v-64h-261v-231h313v-62h-379zM134 655l-33 38l143 98h22l151 -99l-30 -36l-130 70z" />
    <glyph glyph-name="Edieresis" unicode="&#xcb;" 
d="M59 0v624h382v-62h-316v-205h261v-64h-261v-231h313v-62h-379zM169 688c-13.333 0 -25 5.00098 -35 15.001s-15 21.667 -15 35s5 25.166 15 35.499s21.667 15.5 35 15.5c14 0 26 -5 36 -15s15 -22 15 -36c0 -13.333 -5 -25 -15 -35s-22 -15 -36 -15zM347 688.001
c-13.333 0 -24.833 4.83301 -34.5 14.5s-14.5 21.5 -14.5 35.5s4.83301 26 14.5 36s21.167 15 34.5 15c14 0 26 -5 36 -15s15 -22 15 -36c0 -13.333 -5 -25 -15 -35s-22 -15 -36 -15z" />
    <glyph glyph-name="Igrave" unicode="&#xcc;" 
d="M81 0v59h123v505h-116v59h309v-59h-123v-506h129v-58h-322zM282 660l-170 61l40 70l153 -89z" />
    <glyph glyph-name="Iacute" unicode="&#xcd;" 
d="M81 0v59h123v505h-116v59h309v-59h-123v-506h129v-58h-322zM166 660l-23 42l152 89l40 -70z" />
    <glyph glyph-name="Icircumflex" unicode="&#xce;" 
d="M81 0v59h123v505h-116v59h309v-59h-123v-506h129v-58h-322zM114 655l-33 38l143 98h22l151 -99l-30 -36l-130 70z" />
    <glyph glyph-name="Idieresis" unicode="&#xcf;" 
d="M81 0v59h123v505h-116v59h309v-59h-123v-506h129v-58h-322zM149 688c-13.333 0 -25 5.00098 -35 15.001s-15 21.667 -15 35s5 25.166 15 35.499s21.667 15.5 35 15.5c14 0 26 -5 36 -15s15 -22 15 -36c0 -13.333 -5 -25 -15 -35s-22 -15 -36 -15zM327 688.001
c-13.333 0 -24.833 4.83301 -34.5 14.5s-14.5 21.5 -14.5 35.5s4.83301 26 14.5 36s21.167 15 34.5 15c14 0 26 -5 36 -15s15 -22 15 -36c0 -13.333 -5 -25 -15 -35s-22 -15 -36 -15z" />
    <glyph glyph-name="Eth" unicode="&#xd0;" 
d="M79 -1l-0.00195312 302.002h-49v58h49v264h139c31.333 0 58.333 -3.33301 81 -10s42 -15.667 58 -27s29.667 -23.833 41 -37.5s21 -27.834 29 -42.501c6 -10.667 12 -25 18 -43s11 -39.833 15 -65.5s6 -55.167 6 -88.5c0 -48.667 -5.83301 -92.334 -17.5 -131.001
s-28.667 -71.167 -51 -97.5s-49.666 -46.5 -81.999 -60.5s-69.166 -21 -110.499 -21h-126zM142.998 57.002l60 -0.000976562c42.667 0 78.5 9.83301 107.5 29.5s51 48.167 66 85.5s22.5 82 22.5 134c0 53.333 -6.5 99.333 -19.5 138s-33.167 68.334 -60.5 89.001
s-62.333 31 -105 31h-71v-205h105v-58h-105v-244z" />
    <glyph glyph-name="Ntilde" unicode="&#xd1;" 
d="M50 623h68l262 -462v462h66h10v-7c-4 -4 -6.5 -8.33301 -7.5 -13s-1.5 -12.667 -1.5 -24v-579h-55l-275 490v-490h-67v623zM379 791l46.0039 -28.001c-14.667 -28 -28.834 -47.5 -42.501 -58.5s-30.5 -16.5 -50.5 -16.5c-14.667 0 -27.834 2.66699 -39.501 8
s-22.334 11.666 -32.001 18.999s-19.334 13.666 -29.001 18.999s-20.167 8 -31.5 8s-21.5 -3.33301 -30.5 -10s-17.5 -19 -25.5 -37l-49 22c9.33301 22.667 22.333 41.667 39 57s38 23 64 23c14.667 0 27.5 -2.66699 38.5 -8s21.167 -11.666 30.5 -18.999
s18.833 -13.666 28.5 -18.999s20.5 -8 32.5 -8c10.667 0 19.5 3.33301 26.5 10s15.167 19.334 24.5 38.001z" />
    <glyph glyph-name="Ograve" unicode="&#xd2;" 
d="M250 -11c-47.333 0 -87.666 12.333 -120.999 37s-58.666 60.834 -75.999 108.501s-26 105.5 -26 173.5c0 66 8.66699 122.833 26 170.5s42.666 84.334 75.999 110.001s73.666 38.5 120.999 38.5c48 0 88.5 -12.833 121.5 -38.5s58.167 -62.334 75.5 -110.001
s26 -104.5 26 -170.5c0 -68 -8.66699 -125.833 -26 -173.5s-42.5 -83.834 -75.5 -108.501s-73.5 -37 -121.5 -37zM250 50c32 0 59.167 10 81.5 30s39.5 49.167 51.5 87.5s18 85.166 18 140.499c0 52.667 -6 98.167 -18 136.5s-29.167 68.166 -51.5 89.499s-49.5 32 -81.5 32
c-31.333 0 -58.333 -10.667 -81 -32s-40 -51.166 -52 -89.499s-18 -83.833 -18 -136.5c0 -55.333 6 -102.166 18 -140.499s29.333 -67.5 52 -87.5s49.667 -30 81 -30zM293 660l-170 61l40 70l153 -89z" />
    <glyph glyph-name="Oacute" unicode="&#xd3;" 
d="M250 -11c-47.333 0 -87.666 12.333 -120.999 37s-58.666 60.834 -75.999 108.501s-26 105.5 -26 173.5c0 66 8.66699 122.833 26 170.5s42.666 84.334 75.999 110.001s73.666 38.5 120.999 38.5c48 0 88.5 -12.833 121.5 -38.5s58.167 -62.334 75.5 -110.001
s26 -104.5 26 -170.5c0 -68 -8.66699 -125.833 -26 -173.5s-42.5 -83.834 -75.5 -108.501s-73.5 -37 -121.5 -37zM250 50c32 0 59.167 10 81.5 30s39.5 49.167 51.5 87.5s18 85.166 18 140.499c0 52.667 -6 98.167 -18 136.5s-29.167 68.166 -51.5 89.499s-49.5 32 -81.5 32
c-31.333 0 -58.333 -10.667 -81 -32s-40 -51.166 -52 -89.499s-18 -83.833 -18 -136.5c0 -55.333 6 -102.166 18 -140.499s29.333 -67.5 52 -87.5s49.667 -30 81 -30zM177 660l-23 42l152 89l40 -70z" />
    <glyph glyph-name="Ocircumflex" unicode="&#xd4;" 
d="M250 -11c-47.333 0 -87.666 12.333 -120.999 37s-58.666 60.834 -75.999 108.501s-26 105.5 -26 173.5c0 66 8.66699 122.833 26 170.5s42.666 84.334 75.999 110.001s73.666 38.5 120.999 38.5c48 0 88.5 -12.833 121.5 -38.5s58.167 -62.334 75.5 -110.001
s26 -104.5 26 -170.5c0 -68 -8.66699 -125.833 -26 -173.5s-42.5 -83.834 -75.5 -108.501s-73.5 -37 -121.5 -37zM250 50c32 0 59.167 10 81.5 30s39.5 49.167 51.5 87.5s18 85.166 18 140.499c0 52.667 -6 98.167 -18 136.5s-29.167 68.166 -51.5 89.499s-49.5 32 -81.5 32
c-31.333 0 -58.333 -10.667 -81 -32s-40 -51.166 -52 -89.499s-18 -83.833 -18 -136.5c0 -55.333 6 -102.166 18 -140.499s29.333 -67.5 52 -87.5s49.667 -30 81 -30zM125 655l-33 38l143 98h22l151 -99l-30 -36l-130 70z" />
    <glyph glyph-name="Otilde" unicode="&#xd5;" 
d="M250 -11c-47.333 0 -87.666 12.333 -120.999 37s-58.666 60.834 -75.999 108.501s-26 105.5 -26 173.5c0 66 8.66699 122.833 26 170.5s42.666 84.334 75.999 110.001s73.666 38.5 120.999 38.5c48 0 88.5 -12.833 121.5 -38.5s58.167 -62.334 75.5 -110.001
s26 -104.5 26 -170.5c0 -68 -8.66699 -125.833 -26 -173.5s-42.5 -83.834 -75.5 -108.501s-73.5 -37 -121.5 -37zM250 50c32 0 59.167 10 81.5 30s39.5 49.167 51.5 87.5s18 85.166 18 140.499c0 52.667 -6 98.167 -18 136.5s-29.167 68.166 -51.5 89.499s-49.5 32 -81.5 32
c-31.333 0 -58.333 -10.667 -81 -32s-40 -51.166 -52 -89.499s-18 -83.833 -18 -136.5c0 -55.333 6 -102.166 18 -140.499s29.333 -67.5 52 -87.5s49.667 -30 81 -30zM379 791l46.0039 -28.001c-14.667 -28 -28.834 -47.5 -42.501 -58.5s-30.5 -16.5 -50.5 -16.5
c-14.667 0 -27.834 2.66699 -39.501 8s-22.334 11.666 -32.001 18.999s-19.334 13.666 -29.001 18.999s-20.167 8 -31.5 8s-21.5 -3.33301 -30.5 -10s-17.5 -19 -25.5 -37l-49 22c9.33301 22.667 22.333 41.667 39 57s38 23 64 23c14.667 0 27.5 -2.66699 38.5 -8
s21.167 -11.666 30.5 -18.999s18.833 -13.666 28.5 -18.999s20.5 -8 32.5 -8c10.667 0 19.5 3.33301 26.5 10s15.167 19.334 24.5 38.001z" />
    <glyph glyph-name="Odieresis" unicode="&#xd6;" 
d="M250 -11c-47.333 0 -87.666 12.333 -120.999 37s-58.666 60.834 -75.999 108.501s-26 105.5 -26 173.5c0 66 8.66699 122.833 26 170.5s42.666 84.334 75.999 110.001s73.666 38.5 120.999 38.5c48 0 88.5 -12.833 121.5 -38.5s58.167 -62.334 75.5 -110.001
s26 -104.5 26 -170.5c0 -68 -8.66699 -125.833 -26 -173.5s-42.5 -83.834 -75.5 -108.501s-73.5 -37 -121.5 -37zM250 50c32 0 59.167 10 81.5 30s39.5 49.167 51.5 87.5s18 85.166 18 140.499c0 52.667 -6 98.167 -18 136.5s-29.167 68.166 -51.5 89.499s-49.5 32 -81.5 32
c-31.333 0 -58.333 -10.667 -81 -32s-40 -51.166 -52 -89.499s-18 -83.833 -18 -136.5c0 -55.333 6 -102.166 18 -140.499s29.333 -67.5 52 -87.5s49.667 -30 81 -30zM160 688c-13.333 0 -25 5.00098 -35 15.001s-15 21.667 -15 35s5 25.166 15 35.499s21.667 15.5 35 15.5
c14 0 26 -5 36 -15s15 -22 15 -36c0 -13.333 -5 -25 -15 -35s-22 -15 -36 -15zM338 688.001c-13.333 0 -24.833 4.83301 -34.5 14.5s-14.5 21.5 -14.5 35.5s4.83301 26 14.5 36s21.167 15 34.5 15c14 0 26 -5 36 -15s15 -22 15 -36c0 -13.333 -5 -25 -15 -35
s-22 -15 -36 -15z" />
    <glyph glyph-name="multiply" unicode="&#xd7;" 
d="M381 145l-127 133l-125 -129l-44 44l126 131l-126 133l47 46l124 -131l126 131l48 -44l-130 -134l127 -134z" />
    <glyph glyph-name="Oslash" unicode="&#xd8;" 
d="M85 -42l-44 20l375 704l42 -22zM250 -11c-47.333 0 -87.666 12.333 -120.999 37s-58.666 60.834 -75.999 108.501s-26 105.5 -26 173.5c0 66 8.66699 122.833 26 170.5s42.666 84.334 75.999 110.001s73.666 38.5 120.999 38.5c48 0 88.5 -12.833 121.5 -38.5
s58.167 -62.334 75.5 -110.001s26 -104.5 26 -170.5c0 -68 -8.66699 -125.833 -26 -173.5s-42.5 -83.834 -75.5 -108.501s-73.5 -37 -121.5 -37zM250 50c32 0 59.167 10 81.5 30s39.5 49.167 51.5 87.5s18 85.166 18 140.499c0 52.667 -6 98.167 -18 136.5
s-29.167 68.166 -51.5 89.499s-49.5 32 -81.5 32c-31.333 0 -58.333 -10.667 -81 -32s-40 -51.166 -52 -89.499s-18 -83.833 -18 -136.5c0 -55.333 6 -102.166 18 -140.499s29.333 -67.5 52 -87.5s49.667 -30 81 -30z" />
    <glyph glyph-name="Ugrave" unicode="&#xd9;" 
d="M251 -11c-66.667 0 -116.834 19.834 -150.501 59.501s-50.5 95.167 -50.5 166.5v408h68h10v-7c-4 -4 -6.5 -8.33301 -7.5 -13s-1.5 -12.667 -1.5 -24v-365c0 -50.667 9.83301 -91 29.5 -121s54.167 -45 103.5 -45c50 0 85 15 105 45s30 71.333 30 124v406h67v-405
c0 -52.667 -8.33301 -95.834 -25 -129.501s-40.167 -58.667 -70.5 -75s-66.166 -24.5 -107.499 -24.5v0zM293 660.001l-170 61l40 70l153 -89z" />
    <glyph glyph-name="Uacute" unicode="&#xda;" 
d="M251 -11c-66.667 0 -116.834 19.834 -150.501 59.501s-50.5 95.167 -50.5 166.5v408h68h10v-7c-4 -4 -6.5 -8.33301 -7.5 -13s-1.5 -12.667 -1.5 -24v-365c0 -50.667 9.83301 -91 29.5 -121s54.167 -45 103.5 -45c50 0 85 15 105 45s30 71.333 30 124v406h67v-405
c0 -52.667 -8.33301 -95.834 -25 -129.501s-40.167 -58.667 -70.5 -75s-66.166 -24.5 -107.499 -24.5v0zM177 660.001l-23 42l152 89l40 -70z" />
    <glyph glyph-name="Ucircumflex" unicode="&#xdb;" 
d="M251 -11c-66.667 0 -116.834 19.834 -150.501 59.501s-50.5 95.167 -50.5 166.5v408h68h10v-7c-4 -4 -6.5 -8.33301 -7.5 -13s-1.5 -12.667 -1.5 -24v-365c0 -50.667 9.83301 -91 29.5 -121s54.167 -45 103.5 -45c50 0 85 15 105 45s30 71.333 30 124v406h67v-405
c0 -52.667 -8.33301 -95.834 -25 -129.501s-40.167 -58.667 -70.5 -75s-66.166 -24.5 -107.499 -24.5v0zM125 655.001l-33 38l143 98h22l151 -99l-30 -36l-130 70z" />
    <glyph glyph-name="Udieresis" unicode="&#xdc;" 
d="M251 -11c-66.667 0 -116.834 19.834 -150.501 59.501s-50.5 95.167 -50.5 166.5v408h68h10v-7c-4 -4 -6.5 -8.33301 -7.5 -13s-1.5 -12.667 -1.5 -24v-365c0 -50.667 9.83301 -91 29.5 -121s54.167 -45 103.5 -45c50 0 85 15 105 45s30 71.333 30 124v406h67v-405
c0 -52.667 -8.33301 -95.834 -25 -129.501s-40.167 -58.667 -70.5 -75s-66.166 -24.5 -107.499 -24.5v0zM160 688.001c-13.333 0 -25 5.00098 -35 15.001s-15 21.667 -15 35s5 25.166 15 35.499s21.667 15.5 35 15.5c14 0 26 -5 36 -15s15 -22 15 -36
c0 -13.333 -5 -25 -15 -35s-22 -15 -36 -15zM338 688.002c-13.333 0 -24.833 4.83301 -34.5 14.5s-14.5 21.5 -14.5 35.5s4.83301 26 14.5 36s21.167 15 34.5 15c14 0 26 -5 36 -15s15 -22 15 -36c0 -13.333 -5 -25 -15 -35s-22 -15 -36 -15z" />
    <glyph glyph-name="Yacute" unicode="&#xdd;" 
d="M220 0v246l-192 377h80l153 -302l138 302h74l-177 -377v-246h-76zM177 660l-23 42l152 89l40 -70z" />
    <glyph glyph-name="Thorn" unicode="&#xde;" 
d="M59 0l-0.00195312 623h78l1.5 -1.5c0.333008 -0.333008 0.5 -0.833008 0.5 -1.5c0 -2 -1.33301 -5.16699 -4 -9.5s-4.66699 -9.5 -6 -15.5v-89h130c46.667 0 84.334 -8 113.001 -24s49.834 -37.333 63.501 -64s20.5 -56 20.5 -88s-6.66699 -61 -20 -87
s-34 -46.667 -62 -62s-64.667 -23 -110 -23h-135v-158h-70zM128.998 219l135 -0.00195312c28.667 0 51.834 4.83301 69.501 14.5s30.5 22.834 38.5 39.501s12 35 12 55c0 20.667 -4.33301 39.334 -13 56.001s-22.334 30.167 -41.001 40.5s-43 15.5 -73 15.5h-128v-221z" />
    <glyph glyph-name="germandbls" unicode="&#xdf;" 
d="M281 -10c-19.333 0 -37.6719 2.50293 -55.0049 7.50293s-33.666 12.833 -48.999 23.5l35 56c10 -8 21 -14 33 -18s25.333 -6 40 -6c14 0 27.833 3.5 41.5 10.5s25.834 16.833 36.501 29.5s19.167 27.5 25.5 44.5s9.5 35.5 9.5 55.5c0 18 -3 35 -9 51
s-15.333 29.833 -28 41.5s-28.667 20.834 -48 27.501s-42.333 10 -69 10h-30v57h36c10 0 19.833 1.5 29.5 4.5s18.834 7.5 27.501 13.5s16.334 13.333 23.001 22s12 18.834 16 30.501s6 24.834 6 39.501c0 17.333 -2.83301 33.166 -8.5 47.499s-13.5 27.166 -23.5 38.499
s-21.667 20 -35 26s-28 9 -44 9c-25.333 0 -46.833 -7.83301 -64.5 -23.5s-31 -37.334 -40 -65.001s-13.5 -60.167 -13.5 -97.5v-425h-68v423c0 55.333 7.5 101.166 22.5 137.499s35.667 63.5 62 81.5s56.833 27 91.5 27c36 0 68.167 -8.16699 96.5 -24.5
s50.833 -37.833 67.5 -64.5s25 -55.667 25 -87c0 -18.667 -3.16699 -36.667 -9.5 -54s-15.333 -32.833 -27 -46.5s-25.834 -24.834 -42.501 -33.501c19.333 -6 36.5 -14.667 51.5 -26s27.833 -24.833 38.5 -40.5s18.834 -32.834 24.501 -51.501s8.5 -38.667 8.5 -60
c0 -35.333 -7.5 -67.5 -22.5 -96.5s-36.167 -52 -63.5 -69s-59.666 -25.5 -96.999 -25.5z" />
    <glyph glyph-name="agrave" unicode="&#xe0;" 
d="M211 -11c-52 0 -92.002 11.834 -120.002 35.501s-42 53.834 -42 90.501c0 24.667 6 46.834 18 66.501s28.5 36.334 49.5 50.001s45.5 24.167 73.5 31.5s57.667 11 89 11c11.333 0 22.833 -0.166992 34.5 -0.5s24 -1 37 -2s26.5 -2.5 40.5 -4.5l2 -55
c-12 2 -24.167 3.5 -36.5 4.5s-24.5 1.83301 -36.5 2.5s-23.667 1 -35 1c-24 0 -46 -2 -66 -6s-37.333 -10 -52 -18s-26 -18.333 -34 -31s-12 -28 -12 -46c0 -14 2.5 -25.833 7.5 -35.5s11.833 -17.334 20.5 -23.001s18.834 -9.83398 30.501 -12.501s24.5 -4 38.5 -4
c26 0 49.167 4.16699 69.5 12.5s37.666 20.5 51.999 36.5s25.166 35.667 32.499 59s11 50 11 80c0 45.333 -5.33301 80.666 -16 105.999s-26.5 43.333 -47.5 54s-47.833 16 -80.5 16c-22 0 -43.667 -4.16699 -65 -12.5s-40.666 -21.166 -57.999 -38.499l-35 46
c21.333 21.333 46 37.333 74 48s57.667 16 89 16c30 0 57.333 -3.66699 82 -11s45.834 -19.5 63.501 -36.5s31.334 -39.833 41.001 -68.5s14.5 -64.667 14.5 -108v-243h-78v70c-8.66699 -16.667 -19.167 -30.334 -31.5 -41.001s-25.5 -18.834 -39.5 -24.501
s-28.333 -9.66699 -43 -12s-28.667 -3.5 -42 -3.5zM243.998 507.001l-101 135l55 40l84 -149z" />
    <glyph glyph-name="aacute" unicode="&#xe1;" 
d="M211 -11c-52 0 -92.002 11.834 -120.002 35.501s-42 53.834 -42 90.501c0 24.667 6 46.834 18 66.501s28.5 36.334 49.5 50.001s45.5 24.167 73.5 31.5s57.667 11 89 11c11.333 0 22.833 -0.166992 34.5 -0.5s24 -1 37 -2s26.5 -2.5 40.5 -4.5l2 -55
c-12 2 -24.167 3.5 -36.5 4.5s-24.5 1.83301 -36.5 2.5s-23.667 1 -35 1c-24 0 -46 -2 -66 -6s-37.333 -10 -52 -18s-26 -18.333 -34 -31s-12 -28 -12 -46c0 -14 2.5 -25.833 7.5 -35.5s11.833 -17.334 20.5 -23.001s18.834 -9.83398 30.501 -12.501s24.5 -4 38.5 -4
c26 0 49.167 4.16699 69.5 12.5s37.666 20.5 51.999 36.5s25.166 35.667 32.499 59s11 50 11 80c0 45.333 -5.33301 80.666 -16 105.999s-26.5 43.333 -47.5 54s-47.833 16 -80.5 16c-22 0 -43.667 -4.16699 -65 -12.5s-40.666 -21.166 -57.999 -38.499l-35 46
c21.333 21.333 46 37.333 74 48s57.667 16 89 16c30 0 57.333 -3.66699 82 -11s45.834 -19.5 63.501 -36.5s31.334 -39.833 41.001 -68.5s14.5 -64.667 14.5 -108v-243h-78v70c-8.66699 -16.667 -19.167 -30.334 -31.5 -41.001s-25.5 -18.834 -39.5 -24.501
s-28.333 -9.66699 -43 -12s-28.667 -3.5 -42 -3.5zM242.998 507.001l-38 26l84 149l55 -40z" />
    <glyph glyph-name="acircumflex" unicode="&#xe2;" 
d="M211 -11c-52 0 -92.002 11.834 -120.002 35.501s-42 53.834 -42 90.501c0 24.667 6 46.834 18 66.501s28.5 36.334 49.5 50.001s45.5 24.167 73.5 31.5s57.667 11 89 11c11.333 0 22.833 -0.166992 34.5 -0.5s24 -1 37 -2s26.5 -2.5 40.5 -4.5l2 -55
c-12 2 -24.167 3.5 -36.5 4.5s-24.5 1.83301 -36.5 2.5s-23.667 1 -35 1c-24 0 -46 -2 -66 -6s-37.333 -10 -52 -18s-26 -18.333 -34 -31s-12 -28 -12 -46c0 -14 2.5 -25.833 7.5 -35.5s11.833 -17.334 20.5 -23.001s18.834 -9.83398 30.501 -12.501s24.5 -4 38.5 -4
c26 0 49.167 4.16699 69.5 12.5s37.666 20.5 51.999 36.5s25.166 35.667 32.499 59s11 50 11 80c0 45.333 -5.33301 80.666 -16 105.999s-26.5 43.333 -47.5 54s-47.833 16 -80.5 16c-22 0 -43.667 -4.16699 -65 -12.5s-40.666 -21.166 -57.999 -38.499l-35 46
c21.333 21.333 46 37.333 74 48s57.667 16 89 16c30 0 57.333 -3.66699 82 -11s45.834 -19.5 63.501 -36.5s31.334 -39.833 41.001 -68.5s14.5 -64.667 14.5 -108v-243h-78v70c-8.66699 -16.667 -19.167 -30.334 -31.5 -41.001s-25.5 -18.834 -39.5 -24.501
s-28.333 -9.66699 -43 -12s-28.667 -3.5 -42 -3.5zM138.998 511.001l-40 34l139 140h24l139 -140l-40 -34l-111 110z" />
    <glyph glyph-name="atilde" unicode="&#xe3;" 
d="M211 -11c-52 0 -92.002 11.834 -120.002 35.501s-42 53.834 -42 90.501c0 24.667 6 46.834 18 66.501s28.5 36.334 49.5 50.001s45.5 24.167 73.5 31.5s57.667 11 89 11c11.333 0 22.833 -0.166992 34.5 -0.5s24 -1 37 -2s26.5 -2.5 40.5 -4.5l2 -55
c-12 2 -24.167 3.5 -36.5 4.5s-24.5 1.83301 -36.5 2.5s-23.667 1 -35 1c-24 0 -46 -2 -66 -6s-37.333 -10 -52 -18s-26 -18.333 -34 -31s-12 -28 -12 -46c0 -14 2.5 -25.833 7.5 -35.5s11.833 -17.334 20.5 -23.001s18.834 -9.83398 30.501 -12.501s24.5 -4 38.5 -4
c26 0 49.167 4.16699 69.5 12.5s37.666 20.5 51.999 36.5s25.166 35.667 32.499 59s11 50 11 80c0 45.333 -5.33301 80.666 -16 105.999s-26.5 43.333 -47.5 54s-47.833 16 -80.5 16c-22 0 -43.667 -4.16699 -65 -12.5s-40.666 -21.166 -57.999 -38.499l-35 46
c21.333 21.333 46 37.333 74 48s57.667 16 89 16c30 0 57.333 -3.66699 82 -11s45.834 -19.5 63.501 -36.5s31.334 -39.833 41.001 -68.5s14.5 -64.667 14.5 -108v-243h-78v70c-8.66699 -16.667 -19.167 -30.334 -31.5 -41.001s-25.5 -18.834 -39.5 -24.501
s-28.333 -9.66699 -43 -12s-28.667 -3.5 -42 -3.5zM374.998 677.001l46.0039 -28.001c-14.667 -28 -28.834 -47.5 -42.501 -58.5s-30.5 -16.5 -50.5 -16.5c-14.667 0 -27.834 2.66699 -39.501 8s-22.334 11.666 -32.001 18.999s-19.334 13.666 -29.001 18.999
s-20.167 8 -31.5 8s-21.5 -3.33301 -30.5 -10s-17.5 -19 -25.5 -37l-49 22c9.33301 22.667 22.333 41.667 39 57s38 23 64 23c14.667 0 27.5 -2.66699 38.5 -8s21.167 -11.666 30.5 -18.999s18.833 -13.666 28.5 -18.999s20.5 -8 32.5 -8c10.667 0 19.5 3.33301 26.5 10
s15.167 19.334 24.5 38.001z" />
    <glyph glyph-name="adieresis" unicode="&#xe4;" 
d="M211 -11c-52 0 -92.002 11.834 -120.002 35.501s-42 53.834 -42 90.501c0 24.667 6 46.834 18 66.501s28.5 36.334 49.5 50.001s45.5 24.167 73.5 31.5s57.667 11 89 11c11.333 0 22.833 -0.166992 34.5 -0.5s24 -1 37 -2s26.5 -2.5 40.5 -4.5l2 -55
c-12 2 -24.167 3.5 -36.5 4.5s-24.5 1.83301 -36.5 2.5s-23.667 1 -35 1c-24 0 -46 -2 -66 -6s-37.333 -10 -52 -18s-26 -18.333 -34 -31s-12 -28 -12 -46c0 -14 2.5 -25.833 7.5 -35.5s11.833 -17.334 20.5 -23.001s18.834 -9.83398 30.501 -12.501s24.5 -4 38.5 -4
c26 0 49.167 4.16699 69.5 12.5s37.666 20.5 51.999 36.5s25.166 35.667 32.499 59s11 50 11 80c0 45.333 -5.33301 80.666 -16 105.999s-26.5 43.333 -47.5 54s-47.833 16 -80.5 16c-22 0 -43.667 -4.16699 -65 -12.5s-40.666 -21.166 -57.999 -38.499l-35 46
c21.333 21.333 46 37.333 74 48s57.667 16 89 16c30 0 57.333 -3.66699 82 -11s45.834 -19.5 63.501 -36.5s31.334 -39.833 41.001 -68.5s14.5 -64.667 14.5 -108v-243h-78v70c-8.66699 -16.667 -19.167 -30.334 -31.5 -41.001s-25.5 -18.834 -39.5 -24.501
s-28.333 -9.66699 -43 -12s-28.667 -3.5 -42 -3.5zM161.998 564.001c-14 0 -26 5.00098 -36 15.001s-15 21.667 -15 35s5 25.166 15 35.499s22 15.5 36 15.5c13.333 0 25 -5 35 -15s15 -22 15 -36c0 -13.333 -5 -25 -15 -35s-21.667 -15 -35 -15zM339.998 564.002
c-14 0 -25.833 4.83301 -35.5 14.5s-14.5 21.5 -14.5 35.5s4.83301 26 14.5 36s21.5 15 35.5 15c13.333 0 25 -5 35 -15s15 -22 15 -36c0 -13.333 -5 -25 -15 -35s-21.667 -15 -35 -15z" />
    <glyph glyph-name="aring" unicode="&#xe5;" 
d="M211 -11c-52 0 -92.002 11.834 -120.002 35.501s-42 53.834 -42 90.501c0 24.667 6 46.834 18 66.501s28.5 36.334 49.5 50.001s45.5 24.167 73.5 31.5s57.667 11 89 11c11.333 0 22.833 -0.166992 34.5 -0.5s24 -1 37 -2s26.5 -2.5 40.5 -4.5l2 -55
c-12 2 -24.167 3.5 -36.5 4.5s-24.5 1.83301 -36.5 2.5s-23.667 1 -35 1c-24 0 -46 -2 -66 -6s-37.333 -10 -52 -18s-26 -18.333 -34 -31s-12 -28 -12 -46c0 -14 2.5 -25.833 7.5 -35.5s11.833 -17.334 20.5 -23.001s18.834 -9.83398 30.501 -12.501s24.5 -4 38.5 -4
c26 0 49.167 4.16699 69.5 12.5s37.666 20.5 51.999 36.5s25.166 35.667 32.499 59s11 50 11 80c0 45.333 -5.33301 80.666 -16 105.999s-26.5 43.333 -47.5 54s-47.833 16 -80.5 16c-22 0 -43.667 -4.16699 -65 -12.5s-40.666 -21.166 -57.999 -38.499l-35 46
c21.333 21.333 46 37.333 74 48s57.667 16 89 16c30 0 57.333 -3.66699 82 -11s45.834 -19.5 63.501 -36.5s31.334 -39.833 41.001 -68.5s14.5 -64.667 14.5 -108v-243h-78v70c-8.66699 -16.667 -19.167 -30.334 -31.5 -41.001s-25.5 -18.834 -39.5 -24.501
s-28.333 -9.66699 -43 -12s-28.667 -3.5 -42 -3.5zM248.998 517.001c-16 0 -30.8311 4 -44.498 12s-24.834 18.667 -33.501 32s-13 28 -13 44s4.33301 30.667 13 44s19.834 24 33.501 32s28.5 12 44.5 12c16.667 0 32 -4 46 -12s25.167 -18.5 33.5 -31.5
s12.5 -27.833 12.5 -44.5c0 -16 -4.33301 -30.667 -13 -44s-19.834 -24 -33.501 -32s-28.834 -12 -45.501 -12zM250 560.001c11.333 0 21.166 4.5 29.499 13.5s12.5 19.833 12.5 32.5s-4.16699 23.5 -12.5 32.5s-18.166 13.5 -29.499 13.5s-21 -4.5 -29 -13.5
s-12 -19.833 -12 -32.5s4 -23.5 12 -32.5s17.667 -13.5 29 -13.5z" />
    <glyph glyph-name="ae" unicode="&#xe6;" 
d="M142 -11c-31.333 0 -56.666 6.00098 -75.999 18.001s-33.5 28.167 -42.5 48.5s-13.5 42.833 -13.5 67.5c0 24 4.5 45.5 13.5 64.5s22.167 35 39.5 48s39.333 23.167 66 30.5s57.334 11.666 92.001 12.999c0 29.333 -2.66699 53.666 -8 72.999s-13.833 34 -25.5 44
s-26.834 15 -45.501 15c-14.667 0 -28.334 -3.5 -41.001 -10.5s-24.334 -17.833 -35.001 -32.5l-35 44c14.667 18.667 31.5 32.5 50.5 41.5s40.833 13.5 65.5 13.5c16 0 31.167 -2.5 45.5 -7.5s27.166 -12 38.499 -21s20.333 -20.167 27 -33.5c8 13.333 17.5 24.5 28.5 33.5
s23 16 36 21s26.167 7.5 39.5 7.5c30.667 0 55.334 -8 74.001 -24s32.334 -38.833 41.001 -68.5s13 -65.167 13 -106.5v-38l-208 -7v-48c0 -19.333 2.33301 -36.833 7 -52.5s11.667 -29.167 21 -40.5s20.333 -20 33 -26s27 -9 43 -9c10.667 0 20.334 1.33301 29.001 4
s16.667 6.83398 24 12.501s14 12.5 20 20.5l35 -42c-14.667 -17.333 -31.5 -30.5 -50.5 -39.5s-40.167 -13.5 -63.5 -13.5c-16.667 0 -32.834 2.83301 -48.501 8.5s-30 13.667 -43 24s-24.167 22.5 -33.5 36.5c-7.33301 -14 -16.833 -26.167 -28.5 -36.5
s-24.667 -18.333 -39 -24s-29.5 -8.5 -45.5 -8.5zM144 50.001c24 0 41.333 7.66406 52 22.9971s17.5 35.833 20.5 61.5s4.5 53.834 4.5 84.501c-35.333 -1.33301 -63.833 -5.16602 -85.5 -11.499s-37.334 -16.333 -47.001 -30s-14.5 -32.167 -14.5 -55.5
c0 -18.667 2.66699 -33.167 8 -43.5s13.333 -17.666 24 -21.999s23.334 -6.5 38.001 -6.5zM282 278.998l150 4.99902c0 28 -2.33301 51.5 -7 70.5s-12.167 33.167 -22.5 42.5s-23.833 14 -40.5 14s-31 -5.16699 -43 -15.5s-21.167 -25.166 -27.5 -44.499
s-9.5 -43.333 -9.5 -72z" />
    <glyph glyph-name="ccedilla" unicode="&#xe7;" 
d="M285 -11c-33.333 0 -64.002 6.00195 -92.002 18.002s-52.167 28.667 -72.5 50s-36.166 46.5 -47.499 75.5s-17 60.833 -17 95.5c0 34 5.66699 65.5 17 94.5s27.166 54.167 47.499 75.5s44.5 38 72.5 50s58.333 18 91 18c37.333 0 70.833 -7.5 100.5 -22.5
s53.834 -35.833 72.501 -62.5l-45 -44l-7 -7l-5 5c0 5.33301 -1.16699 10.333 -3.5 15s-7.5 11 -15.5 19c-14.667 13.333 -30.334 22.666 -47.001 27.999s-36 8 -58 8c-19.333 0 -37.666 -4 -54.999 -12s-32.833 -19.5 -46.5 -34.5s-24.5 -33.167 -32.5 -54.5
s-12 -45 -12 -71s4 -49.833 12 -71.5s19 -40.5 33 -56.5s30.833 -28.5 50.5 -37.5s40.834 -13.5 63.501 -13.5c15.333 0 30 2.16699 44 6.5s27.333 10.666 40 18.999s24.334 18.5 35.001 30.5l42 -49c-22.667 -24 -47.834 -42 -75.501 -54s-57.5 -18 -89.5 -18v0z
M282.998 -196.998c-17.333 0 -34.334 2.5 -51.001 7.5s-32.667 12.833 -48 23.5l25 42c12.667 -10 26.167 -17.5 40.5 -22.5s29.833 -7.5 46.5 -7.5c17.333 0 30 3.16699 38 9.5s12 15.166 12 26.499c0 10.667 -4.66699 18.834 -14 24.501s-21.666 8.5 -36.999 8.5h-30
l11 85h44l-6 -47c20 -1.33301 36.167 -5.33301 48.5 -12s21.5 -14.667 27.5 -24s9 -19 9 -29c0 -22.667 -9.5 -42.5 -28.5 -59.5s-48.167 -25.5 -87.5 -25.5z" />
    <glyph glyph-name="egrave" unicode="&#xe8;" 
d="M272 -10c-33.333 0 -63.6699 5.16797 -91.0029 15.501s-50.833 25.5 -70.5 45.5s-34.834 44.833 -45.501 74.5s-16 63.5 -16 101.5c0 38.667 5.5 73 16.5 103s26 55.167 45 75.5s41.333 35.833 67 46.5s52.834 16 81.501 16c26 0 50.333 -4.33301 73 -13
s42.334 -21.834 59.001 -39.501s29.834 -40.167 39.501 -67.5s14.5 -59.666 14.5 -96.999c0 -5.33301 -0.166992 -10.833 -0.5 -16.5s-0.833008 -11.167 -1.5 -16.5h-325c1.33301 -29.333 6.33301 -54.833 15 -76.5s20 -39.334 34 -53.001s30.167 -23.834 48.5 -30.501
s37.833 -10 58.5 -10c16 0 31 1.83301 45 5.5s27.167 9.33398 39.5 17.001s23.5 17.167 33.5 28.5l40 -39c-12.667 -15.333 -27.167 -28.333 -43.5 -39s-34.166 -18.5 -53.499 -23.5s-40.333 -7.5 -63 -7.5zM120.996 274.001l250.998 0.000976562
c0 21.333 -2.83301 40.5 -8.5 57.5s-13.667 31.667 -24 44s-22.666 21.666 -36.999 27.999s-30.5 9.5 -48.5 9.5c-16 0 -31.167 -2.66699 -45.5 -8s-27.5 -13.833 -39.5 -25.5s-22.167 -26.167 -30.5 -43.5s-14.166 -38 -17.499 -62zM253.994 507.002l-101 135l55 40
l84 -149z" />
    <glyph glyph-name="eacute" unicode="&#xe9;" 
d="M272 -10c-33.333 0 -63.6699 5.16797 -91.0029 15.501s-50.833 25.5 -70.5 45.5s-34.834 44.833 -45.501 74.5s-16 63.5 -16 101.5c0 38.667 5.5 73 16.5 103s26 55.167 45 75.5s41.333 35.833 67 46.5s52.834 16 81.501 16c26 0 50.333 -4.33301 73 -13
s42.334 -21.834 59.001 -39.501s29.834 -40.167 39.501 -67.5s14.5 -59.666 14.5 -96.999c0 -5.33301 -0.166992 -10.833 -0.5 -16.5s-0.833008 -11.167 -1.5 -16.5h-325c1.33301 -29.333 6.33301 -54.833 15 -76.5s20 -39.334 34 -53.001s30.167 -23.834 48.5 -30.501
s37.833 -10 58.5 -10c16 0 31 1.83301 45 5.5s27.167 9.33398 39.5 17.001s23.5 17.167 33.5 28.5l40 -39c-12.667 -15.333 -27.167 -28.333 -43.5 -39s-34.166 -18.5 -53.499 -23.5s-40.333 -7.5 -63 -7.5zM120.996 274.001l250.998 0.000976562
c0 21.333 -2.83301 40.5 -8.5 57.5s-13.667 31.667 -24 44s-22.666 21.666 -36.999 27.999s-30.5 9.5 -48.5 9.5c-16 0 -31.167 -2.66699 -45.5 -8s-27.5 -13.833 -39.5 -25.5s-22.167 -26.167 -30.5 -43.5s-14.166 -38 -17.499 -62zM252.994 507.002l-38 26l84 149l55 -40z
" />
    <glyph glyph-name="ecircumflex" unicode="&#xea;" 
d="M272 -10c-33.333 0 -63.6699 5.16797 -91.0029 15.501s-50.833 25.5 -70.5 45.5s-34.834 44.833 -45.501 74.5s-16 63.5 -16 101.5c0 38.667 5.5 73 16.5 103s26 55.167 45 75.5s41.333 35.833 67 46.5s52.834 16 81.501 16c26 0 50.333 -4.33301 73 -13
s42.334 -21.834 59.001 -39.501s29.834 -40.167 39.501 -67.5s14.5 -59.666 14.5 -96.999c0 -5.33301 -0.166992 -10.833 -0.5 -16.5s-0.833008 -11.167 -1.5 -16.5h-325c1.33301 -29.333 6.33301 -54.833 15 -76.5s20 -39.334 34 -53.001s30.167 -23.834 48.5 -30.501
s37.833 -10 58.5 -10c16 0 31 1.83301 45 5.5s27.167 9.33398 39.5 17.001s23.5 17.167 33.5 28.5l40 -39c-12.667 -15.333 -27.167 -28.333 -43.5 -39s-34.166 -18.5 -53.499 -23.5s-40.333 -7.5 -63 -7.5zM120.996 274.001l250.998 0.000976562
c0 21.333 -2.83301 40.5 -8.5 57.5s-13.667 31.667 -24 44s-22.666 21.666 -36.999 27.999s-30.5 9.5 -48.5 9.5c-16 0 -31.167 -2.66699 -45.5 -8s-27.5 -13.833 -39.5 -25.5s-22.167 -26.167 -30.5 -43.5s-14.166 -38 -17.499 -62zM148.994 511.002l-40 34l139 140h24
l139 -140l-40 -34l-111 110z" />
    <glyph glyph-name="edieresis" unicode="&#xeb;" 
d="M272 -10c-33.333 0 -63.6699 5.16797 -91.0029 15.501s-50.833 25.5 -70.5 45.5s-34.834 44.833 -45.501 74.5s-16 63.5 -16 101.5c0 38.667 5.5 73 16.5 103s26 55.167 45 75.5s41.333 35.833 67 46.5s52.834 16 81.501 16c26 0 50.333 -4.33301 73 -13
s42.334 -21.834 59.001 -39.501s29.834 -40.167 39.501 -67.5s14.5 -59.666 14.5 -96.999c0 -5.33301 -0.166992 -10.833 -0.5 -16.5s-0.833008 -11.167 -1.5 -16.5h-325c1.33301 -29.333 6.33301 -54.833 15 -76.5s20 -39.334 34 -53.001s30.167 -23.834 48.5 -30.501
s37.833 -10 58.5 -10c16 0 31 1.83301 45 5.5s27.167 9.33398 39.5 17.001s23.5 17.167 33.5 28.5l40 -39c-12.667 -15.333 -27.167 -28.333 -43.5 -39s-34.166 -18.5 -53.499 -23.5s-40.333 -7.5 -63 -7.5zM120.996 274.001l250.998 0.000976562
c0 21.333 -2.83301 40.5 -8.5 57.5s-13.667 31.667 -24 44s-22.666 21.666 -36.999 27.999s-30.5 9.5 -48.5 9.5c-16 0 -31.167 -2.66699 -45.5 -8s-27.5 -13.833 -39.5 -25.5s-22.167 -26.167 -30.5 -43.5s-14.166 -38 -17.499 -62zM171.994 564.002
c-14 0 -26 5.00098 -36 15.001s-15 21.667 -15 35s5 25.166 15 35.499s22 15.5 36 15.5c13.333 0 25 -5 35 -15s15 -22 15 -36c0 -13.333 -5 -25 -15 -35s-21.667 -15 -35 -15zM349.994 564.003c-14 0 -25.833 4.83301 -35.5 14.5s-14.5 21.5 -14.5 35.5s4.83301 26 14.5 36
s21.5 15 35.5 15c13.333 0 25 -5 35 -15s15 -22 15 -36c0 -13.333 -5 -25 -15 -35s-21.667 -15 -35 -15z" />
    <glyph glyph-name="igrave" unicode="&#xec;" 
d="M100 0v58h117v341h-111v58h183v-399h107v-58h-296zM244 507l-101 135l55 40l84 -149z" />
    <glyph glyph-name="iacute" unicode="&#xed;" 
d="M100 0v58h117v341h-111v58h183v-399h107v-58h-296zM246 522l-38 26l84 149l55 -40z" />
    <glyph glyph-name="icircumflex" unicode="&#xee;" 
d="M100 0v58h117v341h-111v58h183v-399h107v-58h-296zM139 511l-40 34l139 140h24l139 -140l-40 -34l-111 110z" />
    <glyph glyph-name="idieresis" unicode="&#xef;" 
d="M100 0v58h117v341h-111v58h183v-399h107v-58h-296zM155 564c-14 0 -26 5.00098 -36 15.001s-15 21.667 -15 35s5 25.166 15 35.499s22 15.5 36 15.5c13.333 0 25 -5 35 -15s15 -22 15 -36c0 -13.333 -5 -25 -15 -35s-21.667 -15 -35 -15zM333 564.001
c-14 0 -25.833 4.83301 -35.5 14.5s-14.5 21.5 -14.5 35.5s4.83301 26 14.5 36s21.5 15 35.5 15c13.333 0 25 -5 35 -15s15 -22 15 -36c0 -13.333 -5 -25 -15 -35s-21.667 -15 -35 -15z" />
    <glyph glyph-name="eth" unicode="&#xf0;" 
d="M256 -12c-28.667 0 -56 5.83496 -82 17.502s-49.167 28 -69.5 49s-36.166 45.833 -47.499 74.5s-17 60 -17 94c0 33.333 5.66699 64.666 17 93.999s26.666 55.333 45.999 78s41 40.334 65 53.001s48.667 19 74 19c17.333 0 33.5 -1.83301 48.5 -5.5
s29.167 -9.33398 42.5 -17.001s25.333 -17.5 36 -29.5c-10.667 25.333 -23 49.5 -37 72.5s-30.333 44.5 -49 64.5l-128 -36l-18 48l104 28c-10 8.66699 -20.5 16.667 -31.5 24s-22.333 14.5 -34 21.5s-23.834 13.167 -36.501 18.5l81 16
c15.333 -8.66699 30.166 -18 44.499 -28s28.5 -21.333 42.5 -34l108 29l17 -44l-85 -25c18.667 -21.333 35 -43.833 49 -67.5s25.833 -48.834 35.5 -75.501s16.834 -54.5 21.501 -83.5s7 -59.167 7 -90.5c0 -40 -4.5 -76.333 -13.5 -109s-22 -60.5 -39 -83.5
s-38.167 -40.833 -63.5 -53.5s-54.666 -19 -87.999 -19zM256 50.002c16.667 0 32.8359 3.50293 48.5029 10.5029s29.667 18 42 33s22.166 33.833 29.499 56.5s11 50 11 82c0 26 -2.66699 48.667 -8 68s-12.333 35.666 -21 48.999s-18.834 24.166 -30.501 32.499
s-23.834 14.5 -36.501 18.5s-25.334 6 -38.001 6c-16 0 -32.167 -3.66699 -48.5 -11s-31 -18.333 -44 -33s-23.5 -32.834 -31.5 -54.501s-12 -46.834 -12 -75.501c0 -27.333 3.66699 -52.166 11 -74.499s17.333 -41.5 30 -57.5s27.334 -28.333 44.001 -37s34.667 -13 54 -13
z" />
    <glyph glyph-name="ntilde" unicode="&#xf1;" 
d="M72 0l-0.000976562 456.997h70v-81c12 18.667 26 34.834 42 48.501s33.667 24.334 53 32.001s39.333 11.5 60 11.5c25.333 0 48 -6.33301 68 -19s36 -33 48 -61s18 -65 18 -111v-277h-70v275c0 32 -3.66699 57.5 -11 76.5s-17.333 32.667 -30 41s-27 12.5 -43 12.5
c-15.333 0 -30.833 -3.33301 -46.5 -10s-30.167 -16.167 -43.5 -28.5s-24.166 -27.166 -32.499 -44.499s-12.5 -37 -12.5 -59v-263h-70zM389.999 676.997l46.0039 -28.001c-14.667 -28 -28.834 -47.5 -42.501 -58.5s-30.5 -16.5 -50.5 -16.5
c-14.667 0 -27.834 2.66699 -39.501 8s-22.334 11.666 -32.001 18.999s-19.334 13.666 -29.001 18.999s-20.167 8 -31.5 8s-21.5 -3.33301 -30.5 -10s-17.5 -19 -25.5 -37l-49 22c9.33301 22.667 22.333 41.667 39 57s38 23 64 23c14.667 0 27.5 -2.66699 38.5 -8
s21.167 -11.666 30.5 -18.999s18.833 -13.666 28.5 -18.999s20.5 -8 32.5 -8c10.667 0 19.5 3.33301 26.5 10s15.167 19.334 24.5 38.001z" />
    <glyph glyph-name="ograve" unicode="&#xf2;" 
d="M250 -8c-41.333 0 -77.833 10.167 -109.5 30.5s-56.5 48.333 -74.5 84s-27 76.5 -27 122.5c0 46.667 9 87.834 27 123.501s42.833 63.667 74.5 84s68.167 30.5 109.5 30.5s77.833 -10.167 109.5 -30.5s56.5 -48.333 74.5 -84s27 -76.834 27 -123.501
c0 -46 -9 -86.833 -27 -122.5s-42.833 -63.667 -74.5 -84s-68.167 -30.5 -109.5 -30.5zM250 52c26.667 0 50 7.66699 70 23s35.833 36.333 47.5 63s17.5 57.334 17.5 92.001s-5.83301 65.334 -17.5 92.001s-27.5 47.5 -47.5 62.5s-43.333 22.5 -70 22.5
c-26 0 -49.167 -7.5 -69.5 -22.5s-36.333 -35.833 -48 -62.5s-17.5 -57.334 -17.5 -92.001s5.83301 -65.334 17.5 -92.001s27.667 -47.667 48 -63s43.5 -23 69.5 -23zM244 507l-101 135l55 40l84 -149z" />
    <glyph glyph-name="oacute" unicode="&#xf3;" 
d="M250 -8c-41.333 0 -77.833 10.167 -109.5 30.5s-56.5 48.333 -74.5 84s-27 76.5 -27 122.5c0 46.667 9 87.834 27 123.501s42.833 63.667 74.5 84s68.167 30.5 109.5 30.5s77.833 -10.167 109.5 -30.5s56.5 -48.333 74.5 -84s27 -76.834 27 -123.501
c0 -46 -9 -86.833 -27 -122.5s-42.833 -63.667 -74.5 -84s-68.167 -30.5 -109.5 -30.5zM250 52c26.667 0 50 7.66699 70 23s35.833 36.333 47.5 63s17.5 57.334 17.5 92.001s-5.83301 65.334 -17.5 92.001s-27.5 47.5 -47.5 62.5s-43.333 22.5 -70 22.5
c-26 0 -49.167 -7.5 -69.5 -22.5s-36.333 -35.833 -48 -62.5s-17.5 -57.334 -17.5 -92.001s5.83301 -65.334 17.5 -92.001s27.667 -47.667 48 -63s43.5 -23 69.5 -23zM243 507l-38 26l84 149l55 -40z" />
    <glyph glyph-name="ocircumflex" unicode="&#xf4;" 
d="M250 -8c-41.333 0 -77.833 10.167 -109.5 30.5s-56.5 48.333 -74.5 84s-27 76.5 -27 122.5c0 46.667 9 87.834 27 123.501s42.833 63.667 74.5 84s68.167 30.5 109.5 30.5s77.833 -10.167 109.5 -30.5s56.5 -48.333 74.5 -84s27 -76.834 27 -123.501
c0 -46 -9 -86.833 -27 -122.5s-42.833 -63.667 -74.5 -84s-68.167 -30.5 -109.5 -30.5zM250 52c26.667 0 50 7.66699 70 23s35.833 36.333 47.5 63s17.5 57.334 17.5 92.001s-5.83301 65.334 -17.5 92.001s-27.5 47.5 -47.5 62.5s-43.333 22.5 -70 22.5
c-26 0 -49.167 -7.5 -69.5 -22.5s-36.333 -35.833 -48 -62.5s-17.5 -57.334 -17.5 -92.001s5.83301 -65.334 17.5 -92.001s27.667 -47.667 48 -63s43.5 -23 69.5 -23zM139 511l-40 34l139 140h24l139 -140l-40 -34l-111 110z" />
    <glyph glyph-name="otilde" unicode="&#xf5;" 
d="M250 -8c-41.333 0 -77.833 10.167 -109.5 30.5s-56.5 48.333 -74.5 84s-27 76.5 -27 122.5c0 46.667 9 87.834 27 123.501s42.833 63.667 74.5 84s68.167 30.5 109.5 30.5s77.833 -10.167 109.5 -30.5s56.5 -48.333 74.5 -84s27 -76.834 27 -123.501
c0 -46 -9 -86.833 -27 -122.5s-42.833 -63.667 -74.5 -84s-68.167 -30.5 -109.5 -30.5zM250 52c26.667 0 50 7.66699 70 23s35.833 36.333 47.5 63s17.5 57.334 17.5 92.001s-5.83301 65.334 -17.5 92.001s-27.5 47.5 -47.5 62.5s-43.333 22.5 -70 22.5
c-26 0 -49.167 -7.5 -69.5 -22.5s-36.333 -35.833 -48 -62.5s-17.5 -57.334 -17.5 -92.001s5.83301 -65.334 17.5 -92.001s27.667 -47.667 48 -63s43.5 -23 69.5 -23zM375 677l46.0039 -28.001c-14.667 -28 -28.834 -47.5 -42.501 -58.5s-30.5 -16.5 -50.5 -16.5
c-14.667 0 -27.834 2.66699 -39.501 8s-22.334 11.666 -32.001 18.999s-19.334 13.666 -29.001 18.999s-20.167 8 -31.5 8s-21.5 -3.33301 -30.5 -10s-17.5 -19 -25.5 -37l-49 22c9.33301 22.667 22.333 41.667 39 57s38 23 64 23c14.667 0 27.5 -2.66699 38.5 -8
s21.167 -11.666 30.5 -18.999s18.833 -13.666 28.5 -18.999s20.5 -8 32.5 -8c10.667 0 19.5 3.33301 26.5 10s15.167 19.334 24.5 38.001z" />
    <glyph glyph-name="odieresis" unicode="&#xf6;" 
d="M250 -8c-41.333 0 -77.833 10.167 -109.5 30.5s-56.5 48.333 -74.5 84s-27 76.5 -27 122.5c0 46.667 9 87.834 27 123.501s42.833 63.667 74.5 84s68.167 30.5 109.5 30.5s77.833 -10.167 109.5 -30.5s56.5 -48.333 74.5 -84s27 -76.834 27 -123.501
c0 -46 -9 -86.833 -27 -122.5s-42.833 -63.667 -74.5 -84s-68.167 -30.5 -109.5 -30.5zM250 52c26.667 0 50 7.66699 70 23s35.833 36.333 47.5 63s17.5 57.334 17.5 92.001s-5.83301 65.334 -17.5 92.001s-27.5 47.5 -47.5 62.5s-43.333 22.5 -70 22.5
c-26 0 -49.167 -7.5 -69.5 -22.5s-36.333 -35.833 -48 -62.5s-17.5 -57.334 -17.5 -92.001s5.83301 -65.334 17.5 -92.001s27.667 -47.667 48 -63s43.5 -23 69.5 -23zM162 564c-14 0 -26 5.00098 -36 15.001s-15 21.667 -15 35s5 25.166 15 35.499s22 15.5 36 15.5
c13.333 0 25 -5 35 -15s15 -22 15 -36c0 -13.333 -5 -25 -15 -35s-21.667 -15 -35 -15zM340 564.001c-14 0 -25.833 4.83301 -35.5 14.5s-14.5 21.5 -14.5 35.5s4.83301 26 14.5 36s21.5 15 35.5 15c13.333 0 25 -5 35 -15s15 -22 15 -36c0 -13.333 -5 -25 -15 -35
s-21.667 -15 -35 -15z" />
    <glyph glyph-name="divide" unicode="&#xf7;" 
d="M71 281v67h360v-67h-360zM255 432c-12 0 -22.333 4.33301 -31 13s-13 19 -13 31c0 12.667 4.5 23.5 13.5 32.5s19.167 13.5 30.5 13.5c12.667 0 23.334 -4.66699 32.001 -14s13 -20 13 -32s-4.33301 -22.333 -13 -31s-19.334 -13 -32.001 -13zM256 104
c-12 0 -22.667 4.16699 -32 12.5s-14 18.833 -14 31.5c0 13.333 4.83301 24.333 14.5 33s20.167 13 31.5 13s21.5 -4.66699 30.5 -14s13.5 -20 13.5 -32s-4.33301 -22.333 -13 -31s-19 -13 -31 -13z" />
    <glyph glyph-name="oslash" unicode="&#xf8;" 
d="M121 -63l-51 27l302 555l54 -28zM250 -8c-41.333 0 -77.833 10.167 -109.5 30.5s-56.5 48.333 -74.5 84s-27 76.5 -27 122.5c0 46.667 9 87.834 27 123.501s42.833 63.667 74.5 84s68.167 30.5 109.5 30.5s77.833 -10.167 109.5 -30.5s56.5 -48.333 74.5 -84
s27 -76.834 27 -123.501c0 -46 -9 -86.833 -27 -122.5s-42.833 -63.667 -74.5 -84s-68.167 -30.5 -109.5 -30.5zM250 52c26.667 0 50 7.66699 70 23s35.833 36.333 47.5 63s17.5 57.334 17.5 92.001s-5.83301 65.334 -17.5 92.001s-27.5 47.5 -47.5 62.5
s-43.333 22.5 -70 22.5c-26 0 -49.167 -7.5 -69.5 -22.5s-36.333 -35.833 -48 -62.5s-17.5 -57.334 -17.5 -92.001s5.83301 -65.334 17.5 -92.001s27.667 -47.667 48 -63s43.5 -23 69.5 -23z" />
    <glyph glyph-name="ugrave" unicode="&#xf9;" 
d="M221 -11c-18 0 -35.0049 2.66797 -51.0049 8.00098s-30.5 13.5 -43.5 24.5s-24.167 24.833 -33.5 41.5s-16.5 36.667 -21.5 60s-7.5 49.666 -7.5 78.999l1 255h70v-255c0 -28.667 2.66699 -53 8 -73s12.833 -36 22.5 -48s20.834 -20.667 33.501 -26s26 -8 40 -8
c16 0 31.333 3.16699 46 9.5s27.834 15.833 39.501 28.5s20.834 29 27.501 49s10 43.667 10 71v252h70v-386c0 -12 0.5 -23.833 1.5 -35.5s3.83301 -23.5 8.5 -35.5h-69c-3.33301 8 -5.66602 15.833 -6.99902 23.5s-2.16602 15.5 -2.49902 23.5s-0.5 15.667 -0.5 23
c-7.33301 -12.667 -16 -24 -26 -34s-21.167 -18.5 -33.5 -25.5s-25.333 -12.333 -39 -16s-28.167 -5.5 -43.5 -5.5zM243.995 507.001l-101 135l55 40l84 -149z" />
    <glyph glyph-name="uacute" unicode="&#xfa;" 
d="M221 -11c-18 0 -35.0049 2.66797 -51.0049 8.00098s-30.5 13.5 -43.5 24.5s-24.167 24.833 -33.5 41.5s-16.5 36.667 -21.5 60s-7.5 49.666 -7.5 78.999l1 255h70v-255c0 -28.667 2.66699 -53 8 -73s12.833 -36 22.5 -48s20.834 -20.667 33.501 -26s26 -8 40 -8
c16 0 31.333 3.16699 46 9.5s27.834 15.833 39.501 28.5s20.834 29 27.501 49s10 43.667 10 71v252h70v-386c0 -12 0.5 -23.833 1.5 -35.5s3.83301 -23.5 8.5 -35.5h-69c-3.33301 8 -5.66602 15.833 -6.99902 23.5s-2.16602 15.5 -2.49902 23.5s-0.5 15.667 -0.5 23
c-7.33301 -12.667 -16 -24 -26 -34s-21.167 -18.5 -33.5 -25.5s-25.333 -12.333 -39 -16s-28.167 -5.5 -43.5 -5.5zM242.995 507.001l-38 26l84 149l55 -40z" />
    <glyph glyph-name="ucircumflex" unicode="&#xfb;" 
d="M221 -11c-18 0 -35.0049 2.66797 -51.0049 8.00098s-30.5 13.5 -43.5 24.5s-24.167 24.833 -33.5 41.5s-16.5 36.667 -21.5 60s-7.5 49.666 -7.5 78.999l1 255h70v-255c0 -28.667 2.66699 -53 8 -73s12.833 -36 22.5 -48s20.834 -20.667 33.501 -26s26 -8 40 -8
c16 0 31.333 3.16699 46 9.5s27.834 15.833 39.501 28.5s20.834 29 27.501 49s10 43.667 10 71v252h70v-386c0 -12 0.5 -23.833 1.5 -35.5s3.83301 -23.5 8.5 -35.5h-69c-3.33301 8 -5.66602 15.833 -6.99902 23.5s-2.16602 15.5 -2.49902 23.5s-0.5 15.667 -0.5 23
c-7.33301 -12.667 -16 -24 -26 -34s-21.167 -18.5 -33.5 -25.5s-25.333 -12.333 -39 -16s-28.167 -5.5 -43.5 -5.5zM138.995 511.001l-40 34l139 140h24l139 -140l-40 -34l-111 110z" />
    <glyph glyph-name="udieresis" unicode="&#xfc;" 
d="M221 -11c-18 0 -35.0049 2.66797 -51.0049 8.00098s-30.5 13.5 -43.5 24.5s-24.167 24.833 -33.5 41.5s-16.5 36.667 -21.5 60s-7.5 49.666 -7.5 78.999l1 255h70v-255c0 -28.667 2.66699 -53 8 -73s12.833 -36 22.5 -48s20.834 -20.667 33.501 -26s26 -8 40 -8
c16 0 31.333 3.16699 46 9.5s27.834 15.833 39.501 28.5s20.834 29 27.501 49s10 43.667 10 71v252h70v-386c0 -12 0.5 -23.833 1.5 -35.5s3.83301 -23.5 8.5 -35.5h-69c-3.33301 8 -5.66602 15.833 -6.99902 23.5s-2.16602 15.5 -2.49902 23.5s-0.5 15.667 -0.5 23
c-7.33301 -12.667 -16 -24 -26 -34s-21.167 -18.5 -33.5 -25.5s-25.333 -12.333 -39 -16s-28.167 -5.5 -43.5 -5.5zM161.995 564.001c-14 0 -26 5.00098 -36 15.001s-15 21.667 -15 35s5 25.166 15 35.499s22 15.5 36 15.5c13.333 0 25 -5 35 -15s15 -22 15 -36
c0 -13.333 -5 -25 -15 -35s-21.667 -15 -35 -15zM339.995 564.002c-14 0 -25.833 4.83301 -35.5 14.5s-14.5 21.5 -14.5 35.5s4.83301 26 14.5 36s21.5 15 35.5 15c13.333 0 25 -5 35 -15s15 -22 15 -36c0 -13.333 -5 -25 -15 -35s-21.667 -15 -35 -15z" />
    <glyph glyph-name="yacute" unicode="&#xfd;" 
d="M127 -174c-21.333 0 -40.8291 3.33105 -58.4961 9.99805s-33.167 16.334 -46.5 29.001l31 49l6 9l6 -4c1.33301 -5.33301 3.66602 -9.83301 6.99902 -13.5s9.66602 -8.5 18.999 -14.5c6 -2 12.333 -3.5 19 -4.5s13.667 -1.5 21 -1.5c18 0 33.167 4.33301 45.5 13
s23.166 22 32.499 40s18.333 40.667 27 68l87 269l29 91c9.33301 30 15.666 60.333 18.999 91h72c-4.66699 -30.667 -12 -61.667 -22 -93s-20.667 -62.666 -32 -93.999l-114 -322c-16 -44.667 -36.5 -76.167 -61.5 -94.5s-53.833 -27.5 -86.5 -27.5v0zM46.0039 456.998h75
l148 -381l-32 -89zM246.004 506.998l-38 26l84 149l55 -40z" />
    <glyph glyph-name="thorn" unicode="&#xfe;" 
d="M60 665l72.001 -0.00195312h10v-7c-4 -4 -6.5 -8.33301 -7.5 -13s-1.5 -12.667 -1.5 -24v-254c7.33301 23.333 17.833 42.333 31.5 57s29.667 25.5 48 32.5s38.166 10.5 59.499 10.5c25.333 0 49.5 -4.83301 72.5 -14.5s43.333 -24.167 61 -43.5
s31.667 -43.666 42 -72.999s15.5 -64 15.5 -104s-5.5 -75.333 -16.5 -106s-25.667 -56.167 -44 -76.5s-39 -35.666 -62 -45.999s-46.5 -15.5 -70.5 -15.5c-18 0 -35.5 2.83301 -52.5 8.5s-32.5 14 -46.5 25s-26.333 23.833 -37 38.5v-227h-74v832zM258.001 51.998
c16 0 31.666 2.83105 46.999 8.49805s29.333 15.167 42 28.5s22.667 31.5 30 54.5s11 51.5 11 85.5c0 36.667 -4.66699 67.834 -14 93.501s-22.833 45.5 -40.5 59.5s-39.167 21.667 -64.5 23c-18.667 1.33301 -36.167 -1.33398 -52.5 -8.00098s-30.833 -17.667 -43.5 -33
s-22.5 -35.5 -29.5 -60.5s-10.5 -55.167 -10.5 -90.5c0.666992 -21.333 3 -40.666 7 -57.999s9.66699 -32.5 17 -45.5s16 -23.667 26 -32s21.333 -14.666 34 -18.999s26.334 -6.5 41.001 -6.5v0z" />
    <glyph glyph-name="ydieresis" unicode="&#xff;" 
d="M127 -174c-21.333 0 -40.8291 3.33105 -58.4961 9.99805s-33.167 16.334 -46.5 29.001l31 49l6 9l6 -4c1.33301 -5.33301 3.66602 -9.83301 6.99902 -13.5s9.66602 -8.5 18.999 -14.5c6 -2 12.333 -3.5 19 -4.5s13.667 -1.5 21 -1.5c18 0 33.167 4.33301 45.5 13
s23.166 22 32.499 40s18.333 40.667 27 68l87 269l29 91c9.33301 30 15.666 60.333 18.999 91h72c-4.66699 -30.667 -12 -61.667 -22 -93s-20.667 -62.666 -32 -93.999l-114 -322c-16 -44.667 -36.5 -76.167 -61.5 -94.5s-53.833 -27.5 -86.5 -27.5v0zM46.0039 456.998h75
l148 -381l-32 -89zM165.004 563.998c-14 0 -26 5.00098 -36 15.001s-15 21.667 -15 35s5 25.166 15 35.499s22 15.5 36 15.5c13.333 0 25 -5 35 -15s15 -22 15 -36c0 -13.333 -5 -25 -15 -35s-21.667 -15 -35 -15zM343.004 563.999c-14 0 -25.833 4.83301 -35.5 14.5
s-14.5 21.5 -14.5 35.5s4.83301 26 14.5 36s21.5 15 35.5 15c13.333 0 25 -5 35 -15s15 -22 15 -36c0 -13.333 -5 -25 -15 -35s-21.667 -15 -35 -15z" />
    <glyph glyph-name="Amacron" unicode="&#x100;" 
d="M357 182h-226l14 54h196zM249 474l-164 -474h-69l230 634h8l230 -634h-72zM123 731v56h254v-56h-254z" />
    <glyph glyph-name="amacron" unicode="&#x101;" 
d="M211 -11c-52 0 -92.002 11.834 -120.002 35.501s-42 53.834 -42 90.501c0 24.667 6 46.834 18 66.501s28.5 36.334 49.5 50.001s45.5 24.167 73.5 31.5s57.667 11 89 11c11.333 0 22.833 -0.166992 34.5 -0.5s24 -1 37 -2s26.5 -2.5 40.5 -4.5l2 -55
c-12 2 -24.167 3.5 -36.5 4.5s-24.5 1.83301 -36.5 2.5s-23.667 1 -35 1c-24 0 -46 -2 -66 -6s-37.333 -10 -52 -18s-26 -18.333 -34 -31s-12 -28 -12 -46c0 -14 2.5 -25.833 7.5 -35.5s11.833 -17.334 20.5 -23.001s18.834 -9.83398 30.501 -12.501s24.5 -4 38.5 -4
c26 0 49.167 4.16699 69.5 12.5s37.666 20.5 51.999 36.5s25.166 35.667 32.499 59s11 50 11 80c0 45.333 -5.33301 80.666 -16 105.999s-26.5 43.333 -47.5 54s-47.833 16 -80.5 16c-22 0 -43.667 -4.16699 -65 -12.5s-40.666 -21.166 -57.999 -38.499l-35 46
c21.333 21.333 46 37.333 74 48s57.667 16 89 16c30 0 57.333 -3.66699 82 -11s45.834 -19.5 63.501 -36.5s31.334 -39.833 41.001 -68.5s14.5 -64.667 14.5 -108v-243h-78v70c-8.66699 -16.667 -19.167 -30.334 -31.5 -41.001s-25.5 -18.834 -39.5 -24.501
s-28.333 -9.66699 -43 -12s-28.667 -3.5 -42 -3.5zM122.998 565.001v56h254v-56h-254z" />
    <glyph glyph-name="Abreve" unicode="&#x102;" 
d="M357 182h-226l14 54h196zM249 474l-164 -474h-69l230 634h8l230 -634h-72zM340 787l51.999 -23.999c-14.667 -29.333 -34.167 -52 -58.5 -68s-52.166 -24 -83.499 -24c-30.667 0 -58.167 8 -82.5 24s-44.166 38.667 -59.499 68l52 24
c11.333 -23.333 24.166 -40.5 38.499 -51.5s31.5 -16.5 51.5 -16.5c13.333 0 25.5 2.33301 36.5 7s20.833 12.167 29.5 22.5s16.667 23.166 24 38.499z" />
    <glyph glyph-name="abreve" unicode="&#x103;" 
d="M211 -11c-52 0 -92.002 11.834 -120.002 35.501s-42 53.834 -42 90.501c0 24.667 6 46.834 18 66.501s28.5 36.334 49.5 50.001s45.5 24.167 73.5 31.5s57.667 11 89 11c11.333 0 22.833 -0.166992 34.5 -0.5s24 -1 37 -2s26.5 -2.5 40.5 -4.5l2 -55
c-12 2 -24.167 3.5 -36.5 4.5s-24.5 1.83301 -36.5 2.5s-23.667 1 -35 1c-24 0 -46 -2 -66 -6s-37.333 -10 -52 -18s-26 -18.333 -34 -31s-12 -28 -12 -46c0 -14 2.5 -25.833 7.5 -35.5s11.833 -17.334 20.5 -23.001s18.834 -9.83398 30.501 -12.501s24.5 -4 38.5 -4
c26 0 49.167 4.16699 69.5 12.5s37.666 20.5 51.999 36.5s25.166 35.667 32.499 59s11 50 11 80c0 45.333 -5.33301 80.666 -16 105.999s-26.5 43.333 -47.5 54s-47.833 16 -80.5 16c-22 0 -43.667 -4.16699 -65 -12.5s-40.666 -21.166 -57.999 -38.499l-35 46
c21.333 21.333 46 37.333 74 48s57.667 16 89 16c30 0 57.333 -3.66699 82 -11s45.834 -19.5 63.501 -36.5s31.334 -39.833 41.001 -68.5s14.5 -64.667 14.5 -108v-243h-78v70c-8.66699 -16.667 -19.167 -30.334 -31.5 -41.001s-25.5 -18.834 -39.5 -24.501
s-28.333 -9.66699 -43 -12s-28.667 -3.5 -42 -3.5zM339.998 654.001l51.999 -23.999c-14.667 -29.333 -34.167 -52 -58.5 -68s-52.166 -24 -83.499 -24c-30.667 0 -58.167 8 -82.5 24s-44.166 38.667 -59.499 68l52 24c11.333 -23.333 24.166 -40.5 38.499 -51.5
s31.5 -16.5 51.5 -16.5c13.333 0 25.5 2.33301 36.5 7s20.833 12.167 29.5 22.5s16.667 23.166 24 38.499z" />
    <glyph glyph-name="Aogonek" unicode="&#x104;" 
d="M357 182h-226l14 54h196zM249 474l-164 -474h-69l230 634h8l230 -634h-72zM444 -179l-15.999 -48.001c-22 3.33301 -41.333 8.83301 -58 16.5s-29.834 17.667 -39.501 30s-14.5 26.833 -14.5 43.5c0 18 4.66699 35.833 14 53.5s23 35 41 52s40 33.167 66 48.5l27 -17
c-16.667 -13.333 -31.167 -27.166 -43.5 -41.499s-21.833 -28.5 -28.5 -42.5s-10 -27 -10 -39c0 -14 5 -26 15 -36s25.667 -16.667 47 -20z" />
    <glyph glyph-name="aogonek" unicode="&#x105;" 
d="M211 -11c-52 0 -92.002 11.834 -120.002 35.501s-42 53.834 -42 90.501c0 24.667 6 46.834 18 66.501s28.5 36.334 49.5 50.001s45.5 24.167 73.5 31.5s57.667 11 89 11c11.333 0 22.833 -0.166992 34.5 -0.5s24 -1 37 -2s26.5 -2.5 40.5 -4.5l2 -55
c-12 2 -24.167 3.5 -36.5 4.5s-24.5 1.83301 -36.5 2.5s-23.667 1 -35 1c-24 0 -46 -2 -66 -6s-37.333 -10 -52 -18s-26 -18.333 -34 -31s-12 -28 -12 -46c0 -14 2.5 -25.833 7.5 -35.5s11.833 -17.334 20.5 -23.001s18.834 -9.83398 30.501 -12.501s24.5 -4 38.5 -4
c26 0 49.167 4.16699 69.5 12.5s37.666 20.5 51.999 36.5s25.166 35.667 32.499 59s11 50 11 80c0 45.333 -5.33301 80.666 -16 105.999s-26.5 43.333 -47.5 54s-47.833 16 -80.5 16c-22 0 -43.667 -4.16699 -65 -12.5s-40.666 -21.166 -57.999 -38.499l-35 46
c21.333 21.333 46 37.333 74 48s57.667 16 89 16c30 0 57.333 -3.66699 82 -11s45.834 -19.5 63.501 -36.5s31.334 -39.833 41.001 -68.5s14.5 -64.667 14.5 -108v-243h-78v70c-8.66699 -16.667 -19.167 -30.334 -31.5 -41.001s-25.5 -18.834 -39.5 -24.501
s-28.333 -9.66699 -43 -12s-28.667 -3.5 -42 -3.5zM378.998 -178.999l-15.999 -48.001c-22 3.33301 -41.333 8.83301 -58 16.5s-29.834 17.667 -39.501 30s-14.5 26.833 -14.5 43.5c0 18 4.66699 35.833 14 53.5s23 35 41 52s40 33.167 66 48.5l27 -17
c-16.667 -13.333 -31.167 -27.166 -43.5 -41.499s-21.833 -28.5 -28.5 -42.5s-10 -27 -10 -39c0 -14 5 -26 15 -36s25.667 -16.667 47 -20z" />
    <glyph glyph-name="Cacute" unicode="&#x106;" 
d="M285 -10c-34 0 -65.6689 6.16406 -95.002 18.4971s-55.166 31.5 -77.499 57.5s-39.833 59 -52.5 99s-19 87.667 -19 143c0 48.667 4.66699 91.167 14 127.5s22 66.833 38 91.5s34.333 44.334 55 59.001s42.334 25.334 65.001 32.001s45.334 10 68.001 10
c45.333 0 84 -11.167 116 -33.5s56 -52.166 72 -89.499l-60 -28l-9 -4l-3 7c2 5.33301 2 10.166 0 14.499s-5.66699 11.166 -11 20.499c-16.667 22.667 -33.834 37.834 -51.501 45.501s-36.167 11.5 -55.5 11.5c-26 0 -49.5 -5.83301 -70.5 -17.5s-39 -28.667 -54 -51
s-26.333 -49.5 -34 -81.5s-11.5 -68.333 -11.5 -109c0 -39.333 4.5 -75 13.5 -107s21.333 -59.667 37 -83s34 -41.333 55 -54s43.5 -19 67.5 -19c16.667 0 32.834 3 48.501 9s30.167 14.833 43.5 26.5s24.666 25.167 33.999 40.5l52 -34
c-20 -33.333 -44 -58.666 -72 -75.999s-62.333 -26 -103 -26v0zM196.998 659.997l-23 42l152 89l40 -70z" />
    <glyph glyph-name="cacute" unicode="&#x107;" 
d="M285 -11c-33.333 0 -64.002 6.00195 -92.002 18.002s-52.167 28.667 -72.5 50s-36.166 46.5 -47.499 75.5s-17 60.833 -17 95.5c0 34 5.66699 65.5 17 94.5s27.166 54.167 47.499 75.5s44.5 38 72.5 50s58.333 18 91 18c37.333 0 70.833 -7.5 100.5 -22.5
s53.834 -35.833 72.501 -62.5l-45 -44l-7 -7l-5 5c0 5.33301 -1.16699 10.333 -3.5 15s-7.5 11 -15.5 19c-14.667 13.333 -30.334 22.666 -47.001 27.999s-36 8 -58 8c-19.333 0 -37.666 -4 -54.999 -12s-32.833 -19.5 -46.5 -34.5s-24.5 -33.167 -32.5 -54.5
s-12 -45 -12 -71s4 -49.833 12 -71.5s19 -40.5 33 -56.5s30.833 -28.5 50.5 -37.5s40.834 -13.5 63.501 -13.5c15.333 0 30 2.16699 44 6.5s27.333 10.666 40 18.999s24.334 18.5 35.001 30.5l42 -49c-22.667 -24 -47.834 -42 -75.501 -54s-57.5 -18 -89.5 -18v0z
M278.998 507.002l-38 26l84 149l55 -40z" />
    <glyph glyph-name="Ccircumflex" unicode="&#x108;" 
d="M285 -10c-34 0 -65.6689 6.16406 -95.002 18.4971s-55.166 31.5 -77.499 57.5s-39.833 59 -52.5 99s-19 87.667 -19 143c0 48.667 4.66699 91.167 14 127.5s22 66.833 38 91.5s34.333 44.334 55 59.001s42.334 25.334 65.001 32.001s45.334 10 68.001 10
c45.333 0 84 -11.167 116 -33.5s56 -52.166 72 -89.499l-60 -28l-9 -4l-3 7c2 5.33301 2 10.166 0 14.499s-5.66699 11.166 -11 20.499c-16.667 22.667 -33.834 37.834 -51.501 45.501s-36.167 11.5 -55.5 11.5c-26 0 -49.5 -5.83301 -70.5 -17.5s-39 -28.667 -54 -51
s-26.333 -49.5 -34 -81.5s-11.5 -68.333 -11.5 -109c0 -39.333 4.5 -75 13.5 -107s21.333 -59.667 37 -83s34 -41.333 55 -54s43.5 -19 67.5 -19c16.667 0 32.834 3 48.501 9s30.167 14.833 43.5 26.5s24.666 25.167 33.999 40.5l52 -34
c-20 -33.333 -44 -58.666 -72 -75.999s-62.333 -26 -103 -26v0zM144.998 654.997l-33 38l143 98h22l151 -99l-30 -36l-130 70z" />
    <glyph glyph-name="ccircumflex" unicode="&#x109;" 
d="M285 -11c-33.333 0 -64.002 6.00195 -92.002 18.002s-52.167 28.667 -72.5 50s-36.166 46.5 -47.499 75.5s-17 60.833 -17 95.5c0 34 5.66699 65.5 17 94.5s27.166 54.167 47.499 75.5s44.5 38 72.5 50s58.333 18 91 18c37.333 0 70.833 -7.5 100.5 -22.5
s53.834 -35.833 72.501 -62.5l-45 -44l-7 -7l-5 5c0 5.33301 -1.16699 10.333 -3.5 15s-7.5 11 -15.5 19c-14.667 13.333 -30.334 22.666 -47.001 27.999s-36 8 -58 8c-19.333 0 -37.666 -4 -54.999 -12s-32.833 -19.5 -46.5 -34.5s-24.5 -33.167 -32.5 -54.5
s-12 -45 -12 -71s4 -49.833 12 -71.5s19 -40.5 33 -56.5s30.833 -28.5 50.5 -37.5s40.834 -13.5 63.501 -13.5c15.333 0 30 2.16699 44 6.5s27.333 10.666 40 18.999s24.334 18.5 35.001 30.5l42 -49c-22.667 -24 -47.834 -42 -75.501 -54s-57.5 -18 -89.5 -18v0z
M174.998 511.002l-40 34l139 140h24l139 -140l-40 -34l-111 110z" />
    <glyph glyph-name="Cdotaccent" unicode="&#x10a;" 
d="M285 -10c-34 0 -65.6689 6.16406 -95.002 18.4971s-55.166 31.5 -77.499 57.5s-39.833 59 -52.5 99s-19 87.667 -19 143c0 48.667 4.66699 91.167 14 127.5s22 66.833 38 91.5s34.333 44.334 55 59.001s42.334 25.334 65.001 32.001s45.334 10 68.001 10
c45.333 0 84 -11.167 116 -33.5s56 -52.166 72 -89.499l-60 -28l-9 -4l-3 7c2 5.33301 2 10.166 0 14.499s-5.66699 11.166 -11 20.499c-16.667 22.667 -33.834 37.834 -51.501 45.501s-36.167 11.5 -55.5 11.5c-26 0 -49.5 -5.83301 -70.5 -17.5s-39 -28.667 -54 -51
s-26.333 -49.5 -34 -81.5s-11.5 -68.333 -11.5 -109c0 -39.333 4.5 -75 13.5 -107s21.333 -59.667 37 -83s34 -41.333 55 -54s43.5 -19 67.5 -19c16.667 0 32.834 3 48.501 9s30.167 14.833 43.5 26.5s24.666 25.167 33.999 40.5l52 -34
c-20 -33.333 -44 -58.666 -72 -75.999s-62.333 -26 -103 -26v0zM267.998 692.997c-14 0 -26.001 5 -36.001 15s-15 22 -15 36c0 14.667 4.83301 27 14.5 37s21.834 15 36.501 15c14 0 26.167 -5.16699 36.5 -15.5s15.5 -22.5 15.5 -36.5s-5.16699 -26 -15.5 -36
s-22.5 -15 -36.5 -15z" />
    <glyph glyph-name="cdotaccent" unicode="&#x10b;" 
d="M285 -11c-33.333 0 -64.002 6.00195 -92.002 18.002s-52.167 28.667 -72.5 50s-36.166 46.5 -47.499 75.5s-17 60.833 -17 95.5c0 34 5.66699 65.5 17 94.5s27.166 54.167 47.499 75.5s44.5 38 72.5 50s58.333 18 91 18c37.333 0 70.833 -7.5 100.5 -22.5
s53.834 -35.833 72.501 -62.5l-45 -44l-7 -7l-5 5c0 5.33301 -1.16699 10.333 -3.5 15s-7.5 11 -15.5 19c-14.667 13.333 -30.334 22.666 -47.001 27.999s-36 8 -58 8c-19.333 0 -37.666 -4 -54.999 -12s-32.833 -19.5 -46.5 -34.5s-24.5 -33.167 -32.5 -54.5
s-12 -45 -12 -71s4 -49.833 12 -71.5s19 -40.5 33 -56.5s30.833 -28.5 50.5 -37.5s40.834 -13.5 63.501 -13.5c15.333 0 30 2.16699 44 6.5s27.333 10.666 40 18.999s24.334 18.5 35.001 30.5l42 -49c-22.667 -24 -47.834 -42 -75.501 -54s-57.5 -18 -89.5 -18v0z
M284.998 553.002c-14 0 -26.001 5 -36.001 15s-15 22 -15 36c0 14.667 4.83301 27 14.5 37s21.834 15 36.501 15c14 0 26.167 -5.16699 36.5 -15.5s15.5 -22.5 15.5 -36.5s-5.16699 -26 -15.5 -36s-22.5 -15 -36.5 -15z" />
    <glyph glyph-name="Ccaron" unicode="&#x10c;" 
d="M285 -10c-34 0 -65.6689 6.16406 -95.002 18.4971s-55.166 31.5 -77.499 57.5s-39.833 59 -52.5 99s-19 87.667 -19 143c0 48.667 4.66699 91.167 14 127.5s22 66.833 38 91.5s34.333 44.334 55 59.001s42.334 25.334 65.001 32.001s45.334 10 68.001 10
c45.333 0 84 -11.167 116 -33.5s56 -52.166 72 -89.499l-60 -28l-9 -4l-3 7c2 5.33301 2 10.166 0 14.499s-5.66699 11.166 -11 20.499c-16.667 22.667 -33.834 37.834 -51.501 45.501s-36.167 11.5 -55.5 11.5c-26 0 -49.5 -5.83301 -70.5 -17.5s-39 -28.667 -54 -51
s-26.333 -49.5 -34 -81.5s-11.5 -68.333 -11.5 -109c0 -39.333 4.5 -75 13.5 -107s21.333 -59.667 37 -83s34 -41.333 55 -54s43.5 -19 67.5 -19c16.667 0 32.834 3 48.501 9s30.167 14.833 43.5 26.5s24.666 25.167 33.999 40.5l52 -34
c-20 -33.333 -44 -58.666 -72 -75.999s-62.333 -26 -103 -26v0zM390.998 792.997l33 -38l-143 -98h-22l-151 99l30 36l130 -70z" />
    <glyph glyph-name="ccaron" unicode="&#x10d;" 
d="M285 -11c-33.333 0 -64.002 6.00195 -92.002 18.002s-52.167 28.667 -72.5 50s-36.166 46.5 -47.499 75.5s-17 60.833 -17 95.5c0 34 5.66699 65.5 17 94.5s27.166 54.167 47.499 75.5s44.5 38 72.5 50s58.333 18 91 18c37.333 0 70.833 -7.5 100.5 -22.5
s53.834 -35.833 72.501 -62.5l-45 -44l-7 -7l-5 5c0 5.33301 -1.16699 10.333 -3.5 15s-7.5 11 -15.5 19c-14.667 13.333 -30.334 22.666 -47.001 27.999s-36 8 -58 8c-19.333 0 -37.666 -4 -54.999 -12s-32.833 -19.5 -46.5 -34.5s-24.5 -33.167 -32.5 -54.5
s-12 -45 -12 -71s4 -49.833 12 -71.5s19 -40.5 33 -56.5s30.833 -28.5 50.5 -37.5s40.834 -13.5 63.501 -13.5c15.333 0 30 2.16699 44 6.5s27.333 10.666 40 18.999s24.334 18.5 35.001 30.5l42 -49c-22.667 -24 -47.834 -42 -75.501 -54s-57.5 -18 -89.5 -18v0z
M173.998 688.002l111 -110l111 110l40 -34l-139 -140h-24l-139 140z" />
    <glyph glyph-name="Dcaron" unicode="&#x10e;" 
d="M54 -1l0.00195312 624.001h145c36 0 66.333 -3.33301 91 -10s45.667 -16.167 63 -28.5s32.666 -27.833 45.999 -46.5c14 -18.667 25.5 -39.667 34.5 -63s15.667 -48.833 20 -76.5s6.5 -57.834 6.5 -90.501c-2 -48 -8.33301 -91 -19 -129s-26.667 -70.333 -48 -97
s-48.833 -47.167 -82.5 -61.5s-74.834 -21.5 -123.501 -21.5h-133zM120.002 54.001h63.999c48 0 87.167 9.66699 117.5 29s52.833 47.666 67.5 84.999s21.667 82.666 21 135.999c0 54.667 -6.66699 101.334 -20 140.001s-34.166 68.334 -62.499 89.001s-65.833 31 -112.5 31
h-75v-510zM341.001 793.001l33 -38l-143 -98h-22l-151 99l30 36l130 -70z" />
    <glyph glyph-name="dcaron" unicode="&#x10f;" 
d="M183 -10c-18.667 0 -36.834 4.33301 -54.501 13s-33.5 22.334 -47.5 41.001s-25.167 43.667 -33.5 75s-12.5 69.333 -12.5 114s4.16699 82.167 12.5 112.5s19.833 54.5 34.5 72.5s31 31 49 39s37 12 57 12c24.667 0 45.834 -6.5 63.501 -19.5s30.5 -31.5 38.5 -55.5v271
h61h10v-7c-4 -4 -6.5 -8.33301 -7.5 -13s-1.5 -12.667 -1.5 -24v-550c0 -12 0.333008 -23.833 1 -35.5s3 -23.5 7 -35.5h-63c-2.66699 7.33301 -4.66699 14.5 -6 21.5s-2.33301 14.167 -3 21.5s-1 15 -1 23c-6.66699 -14.667 -15.167 -27.834 -25.5 -39.501
s-22 -20.667 -35 -27s-27.5 -9.5 -43.5 -9.5v0zM195 52c21.333 0 38.6689 6.99902 52.002 20.999s23.166 34.333 29.499 61s9.5 59 9.5 97c0 38.667 -3.5 71.167 -10.5 97.5s-17.333 46.333 -31 60s-31.167 20.5 -52.5 20.5c-15.333 0 -29 -3.33301 -41 -10
s-22 -16.667 -30 -30s-14 -30.333 -18 -51s-6 -45.334 -6 -74.001c0 -34 2.33301 -63.167 7 -87.5s11.167 -44.166 19.5 -59.499s18.666 -26.666 30.999 -33.999s25.833 -11 40.5 -11v0zM433.003 667.999c12 0 22.501 -5 31.501 -15s13.5 -22.333 13.5 -37
c0 -13.333 -3.33301 -28.833 -10 -46.5s-15.334 -35.5 -26.001 -53.5s-21.667 -34.333 -33 -49l-29 21c6.66699 8 13 16.167 19 24.5s11 17 15 26s6 18.167 6 27.5c0 6.66699 -2.66699 12.5 -8 17.5s-10.833 10.833 -16.5 17.5s-8.5 15.667 -8.5 27
c0 9.33301 4 18.333 12 27s19.333 13 34 13z" />
    <glyph glyph-name="Dcroat" unicode="&#x110;" 
d="M79 -1l-0.00195312 302.002h-49v58h49v264h139c31.333 0 58.333 -3.33301 81 -10s42 -15.667 58 -27s29.667 -23.833 41 -37.5s21 -27.834 29 -42.501c6 -10.667 12 -25 18 -43s11 -39.833 15 -65.5s6 -55.167 6 -88.5c0 -48.667 -5.83301 -92.334 -17.5 -131.001
s-28.667 -71.167 -51 -97.5s-49.666 -46.5 -81.999 -60.5s-69.166 -21 -110.499 -21h-126zM142.998 57.002l60 -0.000976562c42.667 0 78.5 9.83301 107.5 29.5s51 48.167 66 85.5s22.5 82 22.5 134c0 53.333 -6.5 99.333 -19.5 138s-33.167 68.334 -60.5 89.001
s-62.333 31 -105 31h-71v-205h105v-58h-105v-244z" />
    <glyph glyph-name="dcroat" unicode="&#x111;" 
d="M234 -10c-23.333 0 -46.1719 5 -68.5049 15s-42.666 25 -60.999 45s-32.833 45.333 -43.5 76s-16 66.334 -16 107.001c0 42 5.66699 77.833 17 107.5s26.333 54 45 73s39.334 33 62.001 42s45.667 13.5 69 13.5c21.333 0 40.5 -3.33301 57.5 -10s32 -15.834 45 -27.501
s23.167 -25.5 30.5 -41.5v275h66h10v-7c-4 -4 -6.5 -8.33301 -7.5 -13s-1.5 -12.667 -1.5 -24l1 -550c0 -12 0.5 -23.833 1.5 -35.5s3.83301 -23.5 8.5 -35.5h-71c-3.33301 8 -5.66602 16 -6.99902 24s-2.16602 15.833 -2.49902 23.5s-0.5 15.5 -0.5 23.5
c-9.33301 -16 -20.666 -30.167 -33.999 -42.5s-28.333 -21.833 -45 -28.5s-35 -10 -55 -10v0zM244.994 53c22 0 40.6689 4.49902 56.002 13.499s27.666 21.667 36.999 38s16.166 35.333 20.499 57s6.5 44.834 6.5 69.501c0 34 -4.33301 64.5 -13 91.5
s-22.334 48.333 -41.001 64s-42.667 23.5 -72 23.5c-20 0 -37.833 -3.83301 -53.5 -11.5s-28.667 -18.834 -39 -33.501s-18.166 -32.167 -23.499 -52.5s-8 -43.166 -8 -68.499c0 -38 5 -71.333 15 -100s24.667 -51 44 -67s43 -24 71 -24v0zM229.996 519.999v57h270v-57h-270
z" />
    <glyph glyph-name="Emacron" unicode="&#x112;" 
d="M59 0v624h382v-62h-316v-205h261v-64h-261v-231h313v-62h-379zM132 731v56h254v-56h-254z" />
    <glyph glyph-name="emacron" unicode="&#x113;" 
d="M272 -10c-33.333 0 -63.6699 5.16797 -91.0029 15.501s-50.833 25.5 -70.5 45.5s-34.834 44.833 -45.501 74.5s-16 63.5 -16 101.5c0 38.667 5.5 73 16.5 103s26 55.167 45 75.5s41.333 35.833 67 46.5s52.834 16 81.501 16c26 0 50.333 -4.33301 73 -13
s42.334 -21.834 59.001 -39.501s29.834 -40.167 39.501 -67.5s14.5 -59.666 14.5 -96.999c0 -5.33301 -0.166992 -10.833 -0.5 -16.5s-0.833008 -11.167 -1.5 -16.5h-325c1.33301 -29.333 6.33301 -54.833 15 -76.5s20 -39.334 34 -53.001s30.167 -23.834 48.5 -30.501
s37.833 -10 58.5 -10c16 0 31 1.83301 45 5.5s27.167 9.33398 39.5 17.001s23.5 17.167 33.5 28.5l40 -39c-12.667 -15.333 -27.167 -28.333 -43.5 -39s-34.166 -18.5 -53.499 -23.5s-40.333 -7.5 -63 -7.5zM120.996 274.001l250.998 0.000976562
c0 21.333 -2.83301 40.5 -8.5 57.5s-13.667 31.667 -24 44s-22.666 21.666 -36.999 27.999s-30.5 9.5 -48.5 9.5c-16 0 -31.167 -2.66699 -45.5 -8s-27.5 -13.833 -39.5 -25.5s-22.167 -26.167 -30.5 -43.5s-14.166 -38 -17.499 -62zM132.994 565.002v56h254v-56h-254z" />
    <glyph glyph-name="Ebreve" unicode="&#x114;" 
d="M59 0v624h382v-62h-316v-205h261v-64h-261v-231h313v-62h-379zM349 787l51.999 -23.999c-14.667 -29.333 -34.167 -52 -58.5 -68s-52.166 -24 -83.499 -24c-30.667 0 -58.167 8 -82.5 24s-44.166 38.667 -59.499 68l52 24c11.333 -23.333 24.166 -40.5 38.499 -51.5
s31.5 -16.5 51.5 -16.5c13.333 0 25.5 2.33301 36.5 7s20.833 12.167 29.5 22.5s16.667 23.166 24 38.499z" />
    <glyph glyph-name="ebreve" unicode="&#x115;" 
d="M272 -10c-33.333 0 -63.6699 5.16797 -91.0029 15.501s-50.833 25.5 -70.5 45.5s-34.834 44.833 -45.501 74.5s-16 63.5 -16 101.5c0 38.667 5.5 73 16.5 103s26 55.167 45 75.5s41.333 35.833 67 46.5s52.834 16 81.501 16c26 0 50.333 -4.33301 73 -13
s42.334 -21.834 59.001 -39.501s29.834 -40.167 39.501 -67.5s14.5 -59.666 14.5 -96.999c0 -5.33301 -0.166992 -10.833 -0.5 -16.5s-0.833008 -11.167 -1.5 -16.5h-325c1.33301 -29.333 6.33301 -54.833 15 -76.5s20 -39.334 34 -53.001s30.167 -23.834 48.5 -30.501
s37.833 -10 58.5 -10c16 0 31 1.83301 45 5.5s27.167 9.33398 39.5 17.001s23.5 17.167 33.5 28.5l40 -39c-12.667 -15.333 -27.167 -28.333 -43.5 -39s-34.166 -18.5 -53.499 -23.5s-40.333 -7.5 -63 -7.5zM120.996 274.001l250.998 0.000976562
c0 21.333 -2.83301 40.5 -8.5 57.5s-13.667 31.667 -24 44s-22.666 21.666 -36.999 27.999s-30.5 9.5 -48.5 9.5c-16 0 -31.167 -2.66699 -45.5 -8s-27.5 -13.833 -39.5 -25.5s-22.167 -26.167 -30.5 -43.5s-14.166 -38 -17.499 -62zM349.994 654.002l51.999 -23.999
c-14.667 -29.333 -34.167 -52 -58.5 -68s-52.166 -24 -83.499 -24c-30.667 0 -58.167 8 -82.5 24s-44.166 38.667 -59.499 68l52 24c11.333 -23.333 24.166 -40.5 38.499 -51.5s31.5 -16.5 51.5 -16.5c13.333 0 25.5 2.33301 36.5 7s20.833 12.167 29.5 22.5
s16.667 23.166 24 38.499z" />
    <glyph glyph-name="Edotaccent" unicode="&#x116;" 
d="M59 0v624h382v-62h-316v-205h261v-64h-261v-231h313v-62h-379zM257 693c-14 0 -26.001 5 -36.001 15s-15 22 -15 36c0 14.667 4.83301 27 14.5 37s21.834 15 36.501 15c14 0 26.167 -5.16699 36.5 -15.5s15.5 -22.5 15.5 -36.5s-5.16699 -26 -15.5 -36
s-22.5 -15 -36.5 -15z" />
    <glyph glyph-name="edotaccent" unicode="&#x117;" 
d="M272 -10c-33.333 0 -63.6699 5.16797 -91.0029 15.501s-50.833 25.5 -70.5 45.5s-34.834 44.833 -45.501 74.5s-16 63.5 -16 101.5c0 38.667 5.5 73 16.5 103s26 55.167 45 75.5s41.333 35.833 67 46.5s52.834 16 81.501 16c26 0 50.333 -4.33301 73 -13
s42.334 -21.834 59.001 -39.501s29.834 -40.167 39.501 -67.5s14.5 -59.666 14.5 -96.999c0 -5.33301 -0.166992 -10.833 -0.5 -16.5s-0.833008 -11.167 -1.5 -16.5h-325c1.33301 -29.333 6.33301 -54.833 15 -76.5s20 -39.334 34 -53.001s30.167 -23.834 48.5 -30.501
s37.833 -10 58.5 -10c16 0 31 1.83301 45 5.5s27.167 9.33398 39.5 17.001s23.5 17.167 33.5 28.5l40 -39c-12.667 -15.333 -27.167 -28.333 -43.5 -39s-34.166 -18.5 -53.499 -23.5s-40.333 -7.5 -63 -7.5zM120.996 274.001l250.998 0.000976562
c0 21.333 -2.83301 40.5 -8.5 57.5s-13.667 31.667 -24 44s-22.666 21.666 -36.999 27.999s-30.5 9.5 -48.5 9.5c-16 0 -31.167 -2.66699 -45.5 -8s-27.5 -13.833 -39.5 -25.5s-22.167 -26.167 -30.5 -43.5s-14.166 -38 -17.499 -62zM258.994 553.002
c-14 0 -26.001 5 -36.001 15s-15 22 -15 36c0 14.667 4.83301 27 14.5 37s21.834 15 36.501 15c14 0 26.167 -5.16699 36.5 -15.5s15.5 -22.5 15.5 -36.5s-5.16699 -26 -15.5 -36s-22.5 -15 -36.5 -15z" />
    <glyph glyph-name="Eogonek" unicode="&#x118;" 
d="M59 0v624h382v-62h-316v-205h261v-64h-261v-231h313v-62h-379zM379 -179l-15.999 -48.001c-22 3.33301 -41.333 8.83301 -58 16.5s-29.834 17.667 -39.501 30s-14.5 26.833 -14.5 43.5c0 18 4.66699 35.833 14 53.5s23 35 41 52s40 33.167 66 48.5l27 -17
c-16.667 -13.333 -31.167 -27.166 -43.5 -41.499s-21.833 -28.5 -28.5 -42.5s-10 -27 -10 -39c0 -14 5 -26 15 -36s25.667 -16.667 47 -20z" />
    <glyph glyph-name="eogonek" unicode="&#x119;" 
d="M272 -10c-33.333 0 -63.6699 5.16797 -91.0029 15.501s-50.833 25.5 -70.5 45.5s-34.834 44.833 -45.501 74.5s-16 63.5 -16 101.5c0 38.667 5.5 73 16.5 103s26 55.167 45 75.5s41.333 35.833 67 46.5s52.834 16 81.501 16c26 0 50.333 -4.33301 73 -13
s42.334 -21.834 59.001 -39.501s29.834 -40.167 39.501 -67.5s14.5 -59.666 14.5 -96.999c0 -5.33301 -0.166992 -10.833 -0.5 -16.5s-0.833008 -11.167 -1.5 -16.5h-325c1.33301 -29.333 6.33301 -54.833 15 -76.5s20 -39.334 34 -53.001s30.167 -23.834 48.5 -30.501
s37.833 -10 58.5 -10c16 0 31 1.83301 45 5.5s27.167 9.33398 39.5 17.001s23.5 17.167 33.5 28.5l40 -39c-12.667 -15.333 -27.167 -28.333 -43.5 -39s-34.166 -18.5 -53.499 -23.5s-40.333 -7.5 -63 -7.5zM120.996 274.001l250.998 0.000976562
c0 21.333 -2.83301 40.5 -8.5 57.5s-13.667 31.667 -24 44s-22.666 21.666 -36.999 27.999s-30.5 9.5 -48.5 9.5c-16 0 -31.167 -2.66699 -45.5 -8s-27.5 -13.833 -39.5 -25.5s-22.167 -26.167 -30.5 -43.5s-14.166 -38 -17.499 -62zM357.994 -163.998l-15.999 -48.001
c-22 3.33301 -41.333 8.83301 -58 16.5s-29.834 17.667 -39.501 30s-14.5 26.833 -14.5 43.5c0 18 4.66699 35.833 14 53.5s23 35 41 52s40 33.167 66 48.5l27 -17c-16.667 -13.333 -31.167 -27.166 -43.5 -41.499s-21.833 -28.5 -28.5 -42.5s-10 -27 -10 -39
c0 -14 5 -26 15 -36s25.667 -16.667 47 -20z" />
    <glyph glyph-name="Ecaron" unicode="&#x11a;" 
d="M59 0v624h382v-62h-316v-205h261v-64h-261v-231h313v-62h-379zM380 793l33 -38l-143 -98h-22l-151 99l30 36l130 -70z" />
    <glyph glyph-name="ecaron" unicode="&#x11b;" 
d="M272 -10c-33.333 0 -63.6699 5.16797 -91.0029 15.501s-50.833 25.5 -70.5 45.5s-34.834 44.833 -45.501 74.5s-16 63.5 -16 101.5c0 38.667 5.5 73 16.5 103s26 55.167 45 75.5s41.333 35.833 67 46.5s52.834 16 81.501 16c26 0 50.333 -4.33301 73 -13
s42.334 -21.834 59.001 -39.501s29.834 -40.167 39.501 -67.5s14.5 -59.666 14.5 -96.999c0 -5.33301 -0.166992 -10.833 -0.5 -16.5s-0.833008 -11.167 -1.5 -16.5h-325c1.33301 -29.333 6.33301 -54.833 15 -76.5s20 -39.334 34 -53.001s30.167 -23.834 48.5 -30.501
s37.833 -10 58.5 -10c16 0 31 1.83301 45 5.5s27.167 9.33398 39.5 17.001s23.5 17.167 33.5 28.5l40 -39c-12.667 -15.333 -27.167 -28.333 -43.5 -39s-34.166 -18.5 -53.499 -23.5s-40.333 -7.5 -63 -7.5zM120.996 274.001l250.998 0.000976562
c0 21.333 -2.83301 40.5 -8.5 57.5s-13.667 31.667 -24 44s-22.666 21.666 -36.999 27.999s-30.5 9.5 -48.5 9.5c-16 0 -31.167 -2.66699 -45.5 -8s-27.5 -13.833 -39.5 -25.5s-22.167 -26.167 -30.5 -43.5s-14.166 -38 -17.499 -62zM147.994 688.002l111 -110l111 110
l40 -34l-139 -140h-24l-139 140z" />
    <glyph glyph-name="Gcircumflex" unicode="&#x11c;" 
d="M277 -10c-49.333 0 -92.167 13.002 -128.5 39.002s-64.166 62.667 -83.499 110s-29 102.333 -29 165c-0.666992 54 4.16602 99.833 14.499 137.5s24.166 68.834 41.499 93.501s36.666 44 57.999 58s42.833 23.667 64.5 29s41.5 8 59.5 8
c24.667 0 48.834 -4.5 72.501 -13.5s45.334 -21.167 65.001 -36.5s35.167 -33.666 46.5 -54.999l-49 -39l-8 -7l-4 6c0.666992 5.33301 -0.166016 10.166 -2.49902 14.499s-7.16602 10.833 -14.499 19.5c-10 11.333 -20.333 20.666 -31 27.999s-22.167 12.666 -34.5 15.999
s-26.166 5 -41.499 5c-18 0 -35.333 -2.5 -52 -7.5s-32 -13.333 -46 -25s-26.333 -27.167 -37 -46.5s-18.834 -43 -24.501 -71s-8.5 -61 -8.5 -99c0 -43.333 4 -81.5 12 -114.5s19.5 -60.833 34.5 -83.5s33 -39.834 54 -51.501s44.833 -17.5 71.5 -17.5
c9.33301 0 19.166 0.666992 29.499 2s20.666 3.5 30.999 6.5s20.5 7 30.5 12s19 10.833 27 17.5v148h-113v61h178v-244c-29.333 -21.333 -59.333 -37.5 -90 -48.5s-61.667 -16.5 -93 -16.5v0zM148.999 655.002l-33 38l143 98h22l151 -99l-30 -36l-130 70z" />
    <glyph glyph-name="gcircumflex" unicode="&#x11d;" 
d="M247 -172c-32 0 -60.8418 2.49707 -86.5088 7.49707s-47.667 12.333 -66 22s-32.333 21.834 -42 36.501s-14.5 32 -14.5 52c0 18.667 4 35.334 12 50.001s18.5 26.834 31.5 36.501s27.167 16.834 42.5 21.501l30 -18c-12 -7.33301 -21.667 -14.666 -29 -21.999
s-12.666 -15.833 -15.999 -25.5s-5 -21.167 -5 -34.5c0 -11.333 3.33301 -21.5 10 -30.5s16.167 -16.5 28.5 -22.5s27.333 -10.667 45 -14s37.834 -5 60.501 -5c30.667 0 55.5 3.16699 74.5 9.5s33.167 15 42.5 26s14 23.5 14 37.5c0 14.667 -2.66699 26.667 -8 36
s-16.333 16.333 -33 21s-42 7 -76 7c-23.333 0 -44.666 1 -63.999 3s-36.666 5.33301 -51.999 10s-28.166 10.5 -38.499 17.5s-18.166 15.5 -23.499 25.5s-8 21.667 -8 35c0 17.333 4.83301 34 14.5 50s22.834 31.333 39.501 46l34 -27
c-6.66699 -7.33301 -12 -13.833 -16 -19.5s-6.83301 -11 -8.5 -16s-2.5 -10.5 -2.5 -16.5c0 -10.667 4.16699 -19.334 12.5 -26.001s22.833 -11.5 43.5 -14.5s48.667 -4.5 84 -4.5s64 -2.83301 86 -8.5s38.833 -13.834 50.5 -24.501s19.834 -23 24.501 -37s7 -29.333 7 -46
c0 -18 -3.5 -35.167 -10.5 -51.5s-18.167 -31 -33.5 -44s-35.666 -23.333 -60.999 -31s-56.333 -11.5 -93 -11.5zM225.991 154.997c-32.667 0 -61 7.16699 -85 21.5s-42.5 33.666 -55.5 57.999s-19.5 51.166 -19.5 80.499s6.5 56 19.5 80s31.5 43.167 55.5 57.5
s52.333 21.5 85 21.5c33.333 0 61.833 -7.16699 85.5 -21.5s42 -33.5 55 -57.5s19.5 -50.667 19.5 -80s-6.5 -56.166 -19.5 -80.499s-31.333 -43.666 -55 -57.999s-52.167 -21.5 -85.5 -21.5zM225.991 214.997c19.333 0 36.5 4.5 51.5 13.5s26.833 21.167 35.5 36.5
s13 32 13 50c0 18.667 -4.33301 35.5 -13 50.5s-20.5 27 -35.5 36s-32.167 13.5 -51.5 13.5s-36.5 -4.5 -51.5 -13.5s-26.833 -21 -35.5 -36s-13 -31.833 -13 -50.5c0 -18 4.33301 -34.667 13 -50s20.5 -27.5 35.5 -36.5s32.167 -13.5 51.5 -13.5zM358.991 382.997
l-28 32.999c19.333 19.333 39.5 33.5 60.5 42.5s45.833 12.5 74.5 10.5l9 -59c-22 2 -42.667 1.33301 -62 -2s-37.333 -11.666 -54 -24.999zM114.991 510.996l-40 34l139 140h24l139 -140l-40 -34l-111 110z" />
    <glyph glyph-name="Gbreve" unicode="&#x11e;" 
d="M277 -10c-49.333 0 -92.167 13.002 -128.5 39.002s-64.166 62.667 -83.499 110s-29 102.333 -29 165c-0.666992 54 4.16602 99.833 14.499 137.5s24.166 68.834 41.499 93.501s36.666 44 57.999 58s42.833 23.667 64.5 29s41.5 8 59.5 8
c24.667 0 48.834 -4.5 72.501 -13.5s45.334 -21.167 65.001 -36.5s35.167 -33.666 46.5 -54.999l-49 -39l-8 -7l-4 6c0.666992 5.33301 -0.166016 10.166 -2.49902 14.499s-7.16602 10.833 -14.499 19.5c-10 11.333 -20.333 20.666 -31 27.999s-22.167 12.666 -34.5 15.999
s-26.166 5 -41.499 5c-18 0 -35.333 -2.5 -52 -7.5s-32 -13.333 -46 -25s-26.333 -27.167 -37 -46.5s-18.834 -43 -24.501 -71s-8.5 -61 -8.5 -99c0 -43.333 4 -81.5 12 -114.5s19.5 -60.833 34.5 -83.5s33 -39.834 54 -51.501s44.833 -17.5 71.5 -17.5
c9.33301 0 19.166 0.666992 29.499 2s20.666 3.5 30.999 6.5s20.5 7 30.5 12s19 10.833 27 17.5v148h-113v61h178v-244c-29.333 -21.333 -59.333 -37.5 -90 -48.5s-61.667 -16.5 -93 -16.5v0zM363.999 787.002l51.999 -23.999c-14.667 -29.333 -34.167 -52 -58.5 -68
s-52.166 -24 -83.499 -24c-30.667 0 -58.167 8 -82.5 24s-44.166 38.667 -59.499 68l52 24c11.333 -23.333 24.166 -40.5 38.499 -51.5s31.5 -16.5 51.5 -16.5c13.333 0 25.5 2.33301 36.5 7s20.833 12.167 29.5 22.5s16.667 23.166 24 38.499z" />
    <glyph glyph-name="gbreve" unicode="&#x11f;" 
d="M247 -172c-32 0 -60.8418 2.49707 -86.5088 7.49707s-47.667 12.333 -66 22s-32.333 21.834 -42 36.501s-14.5 32 -14.5 52c0 18.667 4 35.334 12 50.001s18.5 26.834 31.5 36.501s27.167 16.834 42.5 21.501l30 -18c-12 -7.33301 -21.667 -14.666 -29 -21.999
s-12.666 -15.833 -15.999 -25.5s-5 -21.167 -5 -34.5c0 -11.333 3.33301 -21.5 10 -30.5s16.167 -16.5 28.5 -22.5s27.333 -10.667 45 -14s37.834 -5 60.501 -5c30.667 0 55.5 3.16699 74.5 9.5s33.167 15 42.5 26s14 23.5 14 37.5c0 14.667 -2.66699 26.667 -8 36
s-16.333 16.333 -33 21s-42 7 -76 7c-23.333 0 -44.666 1 -63.999 3s-36.666 5.33301 -51.999 10s-28.166 10.5 -38.499 17.5s-18.166 15.5 -23.499 25.5s-8 21.667 -8 35c0 17.333 4.83301 34 14.5 50s22.834 31.333 39.501 46l34 -27
c-6.66699 -7.33301 -12 -13.833 -16 -19.5s-6.83301 -11 -8.5 -16s-2.5 -10.5 -2.5 -16.5c0 -10.667 4.16699 -19.334 12.5 -26.001s22.833 -11.5 43.5 -14.5s48.667 -4.5 84 -4.5s64 -2.83301 86 -8.5s38.833 -13.834 50.5 -24.501s19.834 -23 24.501 -37s7 -29.333 7 -46
c0 -18 -3.5 -35.167 -10.5 -51.5s-18.167 -31 -33.5 -44s-35.666 -23.333 -60.999 -31s-56.333 -11.5 -93 -11.5zM225.991 154.997c-32.667 0 -61 7.16699 -85 21.5s-42.5 33.666 -55.5 57.999s-19.5 51.166 -19.5 80.499s6.5 56 19.5 80s31.5 43.167 55.5 57.5
s52.333 21.5 85 21.5c33.333 0 61.833 -7.16699 85.5 -21.5s42 -33.5 55 -57.5s19.5 -50.667 19.5 -80s-6.5 -56.166 -19.5 -80.499s-31.333 -43.666 -55 -57.999s-52.167 -21.5 -85.5 -21.5zM225.991 214.997c19.333 0 36.5 4.5 51.5 13.5s26.833 21.167 35.5 36.5
s13 32 13 50c0 18.667 -4.33301 35.5 -13 50.5s-20.5 27 -35.5 36s-32.167 13.5 -51.5 13.5s-36.5 -4.5 -51.5 -13.5s-26.833 -21 -35.5 -36s-13 -31.833 -13 -50.5c0 -18 4.33301 -34.667 13 -50s20.5 -27.5 35.5 -36.5s32.167 -13.5 51.5 -13.5zM358.991 382.997
l-28 32.999c19.333 19.333 39.5 33.5 60.5 42.5s45.833 12.5 74.5 10.5l9 -59c-22 2 -42.667 1.33301 -62 -2s-37.333 -11.666 -54 -24.999zM259.991 523.996c-28.667 0 -55.5 6.5 -80.5 19.5s-48.167 32.167 -69.5 57.5l36 45c12.667 -20 28.834 -36.667 48.501 -50
s41.167 -20 64.5 -20c21.333 0 41.833 5.83301 61.5 17.5s38.834 29.167 57.501 52.5l28 -42c-12 -16 -25.833 -30 -41.5 -42s-32.334 -21.333 -50.001 -28s-35.834 -10 -54.501 -10z" />
    <glyph glyph-name="Gdotaccent" unicode="&#x120;" 
d="M277 -10c-49.333 0 -92.167 13.002 -128.5 39.002s-64.166 62.667 -83.499 110s-29 102.333 -29 165c-0.666992 54 4.16602 99.833 14.499 137.5s24.166 68.834 41.499 93.501s36.666 44 57.999 58s42.833 23.667 64.5 29s41.5 8 59.5 8
c24.667 0 48.834 -4.5 72.501 -13.5s45.334 -21.167 65.001 -36.5s35.167 -33.666 46.5 -54.999l-49 -39l-8 -7l-4 6c0.666992 5.33301 -0.166016 10.166 -2.49902 14.499s-7.16602 10.833 -14.499 19.5c-10 11.333 -20.333 20.666 -31 27.999s-22.167 12.666 -34.5 15.999
s-26.166 5 -41.499 5c-18 0 -35.333 -2.5 -52 -7.5s-32 -13.333 -46 -25s-26.333 -27.167 -37 -46.5s-18.834 -43 -24.501 -71s-8.5 -61 -8.5 -99c0 -43.333 4 -81.5 12 -114.5s19.5 -60.833 34.5 -83.5s33 -39.834 54 -51.501s44.833 -17.5 71.5 -17.5
c9.33301 0 19.166 0.666992 29.499 2s20.666 3.5 30.999 6.5s20.5 7 30.5 12s19 10.833 27 17.5v148h-113v61h178v-244c-29.333 -21.333 -59.333 -37.5 -90 -48.5s-61.667 -16.5 -93 -16.5v0zM271.999 693.002c-14 0 -26.001 5 -36.001 15s-15 22 -15 36
c0 14.667 4.83301 27 14.5 37s21.834 15 36.501 15c14 0 26.167 -5.16699 36.5 -15.5s15.5 -22.5 15.5 -36.5s-5.16699 -26 -15.5 -36s-22.5 -15 -36.5 -15z" />
    <glyph glyph-name="gdotaccent" unicode="&#x121;" 
d="M247 -172c-32 0 -60.8418 2.49707 -86.5088 7.49707s-47.667 12.333 -66 22s-32.333 21.834 -42 36.501s-14.5 32 -14.5 52c0 18.667 4 35.334 12 50.001s18.5 26.834 31.5 36.501s27.167 16.834 42.5 21.501l30 -18c-12 -7.33301 -21.667 -14.666 -29 -21.999
s-12.666 -15.833 -15.999 -25.5s-5 -21.167 -5 -34.5c0 -11.333 3.33301 -21.5 10 -30.5s16.167 -16.5 28.5 -22.5s27.333 -10.667 45 -14s37.834 -5 60.501 -5c30.667 0 55.5 3.16699 74.5 9.5s33.167 15 42.5 26s14 23.5 14 37.5c0 14.667 -2.66699 26.667 -8 36
s-16.333 16.333 -33 21s-42 7 -76 7c-23.333 0 -44.666 1 -63.999 3s-36.666 5.33301 -51.999 10s-28.166 10.5 -38.499 17.5s-18.166 15.5 -23.499 25.5s-8 21.667 -8 35c0 17.333 4.83301 34 14.5 50s22.834 31.333 39.501 46l34 -27
c-6.66699 -7.33301 -12 -13.833 -16 -19.5s-6.83301 -11 -8.5 -16s-2.5 -10.5 -2.5 -16.5c0 -10.667 4.16699 -19.334 12.5 -26.001s22.833 -11.5 43.5 -14.5s48.667 -4.5 84 -4.5s64 -2.83301 86 -8.5s38.833 -13.834 50.5 -24.501s19.834 -23 24.501 -37s7 -29.333 7 -46
c0 -18 -3.5 -35.167 -10.5 -51.5s-18.167 -31 -33.5 -44s-35.666 -23.333 -60.999 -31s-56.333 -11.5 -93 -11.5zM225.991 154.997c-32.667 0 -61 7.16699 -85 21.5s-42.5 33.666 -55.5 57.999s-19.5 51.166 -19.5 80.499s6.5 56 19.5 80s31.5 43.167 55.5 57.5
s52.333 21.5 85 21.5c33.333 0 61.833 -7.16699 85.5 -21.5s42 -33.5 55 -57.5s19.5 -50.667 19.5 -80s-6.5 -56.166 -19.5 -80.499s-31.333 -43.666 -55 -57.999s-52.167 -21.5 -85.5 -21.5zM225.991 214.997c19.333 0 36.5 4.5 51.5 13.5s26.833 21.167 35.5 36.5
s13 32 13 50c0 18.667 -4.33301 35.5 -13 50.5s-20.5 27 -35.5 36s-32.167 13.5 -51.5 13.5s-36.5 -4.5 -51.5 -13.5s-26.833 -21 -35.5 -36s-13 -31.833 -13 -50.5c0 -18 4.33301 -34.667 13 -50s20.5 -27.5 35.5 -36.5s32.167 -13.5 51.5 -13.5zM358.991 382.997
l-28 32.999c19.333 19.333 39.5 33.5 60.5 42.5s45.833 12.5 74.5 10.5l9 -59c-22 2 -42.667 1.33301 -62 -2s-37.333 -11.666 -54 -24.999zM224.991 552.996c-14 0 -26.001 5 -36.001 15s-15 22 -15 36c0 14.667 4.83301 27 14.5 37s21.834 15 36.501 15
c14 0 26.167 -5.16699 36.5 -15.5s15.5 -22.5 15.5 -36.5s-5.16699 -26 -15.5 -36s-22.5 -15 -36.5 -15z" />
    <glyph glyph-name="uni0122" unicode="&#x122;" 
d="M277 -10c-49.333 0 -92.167 13.002 -128.5 39.002s-64.166 62.667 -83.499 110s-29 102.333 -29 165c-0.666992 54 4.16602 99.833 14.499 137.5s24.166 68.834 41.499 93.501s36.666 44 57.999 58s42.833 23.667 64.5 29s41.5 8 59.5 8
c24.667 0 48.834 -4.5 72.501 -13.5s45.334 -21.167 65.001 -36.5s35.167 -33.666 46.5 -54.999l-49 -39l-8 -7l-4 6c0.666992 5.33301 -0.166016 10.166 -2.49902 14.499s-7.16602 10.833 -14.499 19.5c-10 11.333 -20.333 20.666 -31 27.999s-22.167 12.666 -34.5 15.999
s-26.166 5 -41.499 5c-18 0 -35.333 -2.5 -52 -7.5s-32 -13.333 -46 -25s-26.333 -27.167 -37 -46.5s-18.834 -43 -24.501 -71s-8.5 -61 -8.5 -99c0 -43.333 4 -81.5 12 -114.5s19.5 -60.833 34.5 -83.5s33 -39.834 54 -51.501s44.833 -17.5 71.5 -17.5
c9.33301 0 19.166 0.666992 29.499 2s20.666 3.5 30.999 6.5s20.5 7 30.5 12s19 10.833 27 17.5v148h-113v61h178v-244c-29.333 -21.333 -59.333 -37.5 -90 -48.5s-61.667 -16.5 -93 -16.5v0zM236.999 -274.998l-30.001 27.001c16 15.333 29.667 32 41 50s17 32.667 17 44
c0 8 -3.83301 15.333 -11.5 22l-23 20.5c-7.66699 7 -11.5 16.167 -11.5 27.5c0 14.667 5 27.167 15 37.5s22.667 15.5 38 15.5c16 0 30.167 -7 42.5 -21s18.5 -32 18.5 -54c0 -16 -3.5 -32.833 -10.5 -50.5s-17.667 -36.334 -32 -56.001s-32.166 -40.5 -53.499 -62.5z" />
    <glyph glyph-name="uni0123" unicode="&#x123;" 
d="M247 -172c-32 0 -60.8418 2.49707 -86.5088 7.49707s-47.667 12.333 -66 22s-32.333 21.834 -42 36.501s-14.5 32 -14.5 52c0 18.667 4 35.334 12 50.001s18.5 26.834 31.5 36.501s27.167 16.834 42.5 21.501l30 -18c-12 -7.33301 -21.667 -14.666 -29 -21.999
s-12.666 -15.833 -15.999 -25.5s-5 -21.167 -5 -34.5c0 -11.333 3.33301 -21.5 10 -30.5s16.167 -16.5 28.5 -22.5s27.333 -10.667 45 -14s37.834 -5 60.501 -5c30.667 0 55.5 3.16699 74.5 9.5s33.167 15 42.5 26s14 23.5 14 37.5c0 14.667 -2.66699 26.667 -8 36
s-16.333 16.333 -33 21s-42 7 -76 7c-23.333 0 -44.666 1 -63.999 3s-36.666 5.33301 -51.999 10s-28.166 10.5 -38.499 17.5s-18.166 15.5 -23.499 25.5s-8 21.667 -8 35c0 17.333 4.83301 34 14.5 50s22.834 31.333 39.501 46l34 -27
c-6.66699 -7.33301 -12 -13.833 -16 -19.5s-6.83301 -11 -8.5 -16s-2.5 -10.5 -2.5 -16.5c0 -10.667 4.16699 -19.334 12.5 -26.001s22.833 -11.5 43.5 -14.5s48.667 -4.5 84 -4.5s64 -2.83301 86 -8.5s38.833 -13.834 50.5 -24.501s19.834 -23 24.501 -37s7 -29.333 7 -46
c0 -18 -3.5 -35.167 -10.5 -51.5s-18.167 -31 -33.5 -44s-35.666 -23.333 -60.999 -31s-56.333 -11.5 -93 -11.5zM225.991 154.997c-32.667 0 -61 7.16699 -85 21.5s-42.5 33.666 -55.5 57.999s-19.5 51.166 -19.5 80.499s6.5 56 19.5 80s31.5 43.167 55.5 57.5
s52.333 21.5 85 21.5c33.333 0 61.833 -7.16699 85.5 -21.5s42 -33.5 55 -57.5s19.5 -50.667 19.5 -80s-6.5 -56.166 -19.5 -80.499s-31.333 -43.666 -55 -57.999s-52.167 -21.5 -85.5 -21.5zM225.991 214.997c19.333 0 36.5 4.5 51.5 13.5s26.833 21.167 35.5 36.5
s13 32 13 50c0 18.667 -4.33301 35.5 -13 50.5s-20.5 27 -35.5 36s-32.167 13.5 -51.5 13.5s-36.5 -4.5 -51.5 -13.5s-26.833 -21 -35.5 -36s-13 -31.833 -13 -50.5c0 -18 4.33301 -34.667 13 -50s20.5 -27.5 35.5 -36.5s32.167 -13.5 51.5 -13.5zM358.991 382.997
l-28 32.999c19.333 19.333 39.5 33.5 60.5 42.5s45.833 12.5 74.5 10.5l9 -59c-22 2 -42.667 1.33301 -62 -2s-37.333 -11.666 -54 -24.999zM262.991 810.996l34 -29.998c-18.667 -17.333 -34.167 -36 -46.5 -56s-18.5 -36.333 -18.5 -49
c0 -6.66699 2.5 -12.834 7.5 -18.501s11 -11.167 18 -16.5s13 -11.333 18 -18s7.5 -14.667 7.5 -24c0 -16.667 -5.5 -30.667 -16.5 -42s-25.167 -17 -42.5 -17s-33 7.66699 -47 23s-21 35.333 -21 60c0 13.333 2.16699 27.166 6.5 41.499s11 29.333 20 45s20.167 32 33.5 49
s29 34.5 47 52.5z" />
    <glyph glyph-name="Hcircumflex" unicode="&#x124;" 
d="M50 623h72h10v-7c-4 -4 -6.5 -8.33301 -7.5 -13s-1.5 -12.667 -1.5 -24v-222h244v266h72h10v-7c-4 -4 -6.5 -8.33301 -7.5 -13s-1.5 -12.667 -1.5 -24v-579h-74v297h-243v-297h-73v623zM125 655l-33 38l143 98h22l151 -99l-30 -36l-130 70z" />
    <glyph glyph-name="hcircumflex" unicode="&#x125;" 
d="M73 665l69.001 -0.000976562h10v-7c-4 -4 -6.5 -8.33301 -7.5 -13s-1.5 -12.667 -1.5 -24v-245c12 18.667 26.167 34.834 42.5 48.501s33.666 24.334 51.999 32.001s36.833 11.5 55.5 11.5c27.333 0 51.5 -6.33301 72.5 -19s37.333 -33 49 -61s17.5 -65 17.5 -111v-277
h-70v275c0 32 -3.66699 57.5 -11 76.5s-17.333 32.667 -30 41s-27 12.5 -43 12.5c-12 0 -24.333 -2 -37 -6s-24.834 -10 -36.501 -18s-22.167 -17.833 -31.5 -29.5s-16.666 -24.834 -21.999 -39.501s-8 -31 -8 -49v-263h-70v665zM-6.99902 696.999l-33 38l143 98h22l151 -99
l-30 -36l-130 70z" />
    <glyph glyph-name="Hbar" unicode="&#x126;" 
d="M7 498v55h480v-55h-480zM50 623h72h10v-7c-4 -4 -6.5 -8.33301 -7.5 -13s-1.5 -12.667 -1.5 -24v-222h244v266h72h10v-7c-4 -4 -6.5 -8.33301 -7.5 -13s-1.5 -12.667 -1.5 -24v-579h-74v297h-243v-297h-73v623z" />
    <glyph glyph-name="hbar" unicode="&#x127;" 
d="M73 665l69.001 -0.000976562h10v-7c-4 -4 -6.5 -8.33301 -7.5 -13s-1.5 -12.667 -1.5 -24v-245c12 18.667 26.167 34.834 42.5 48.501s33.666 24.334 51.999 32.001s36.833 11.5 55.5 11.5c27.333 0 51.5 -6.33301 72.5 -19s37.333 -33 49 -61s17.5 -65 17.5 -111v-277
h-70v275c0 32 -3.66699 57.5 -11 76.5s-17.333 32.667 -30 41s-27 12.5 -43 12.5c-12 0 -24.333 -2 -37 -6s-24.834 -10 -36.501 -18s-22.167 -17.833 -31.5 -29.5s-16.666 -24.834 -21.999 -39.501s-8 -31 -8 -49v-263h-70v665zM0.000976562 519.999v57h270v-57h-270z" />
    <glyph glyph-name="Itilde" unicode="&#x128;" 
d="M81 0v59h123v505h-116v59h309v-59h-123v-506h129v-58h-322zM364 843l46.0039 -28.001c-14.667 -28 -28.834 -47.5 -42.501 -58.5s-30.5 -16.5 -50.5 -16.5c-14.667 0 -27.834 2.66699 -39.501 8s-22.334 11.666 -32.001 18.999s-19.334 13.666 -29.001 18.999
s-20.167 8 -31.5 8s-21.5 -3.33301 -30.5 -10s-17.5 -19 -25.5 -37l-49 22c9.33301 22.667 22.333 41.667 39 57s38 23 64 23c14.667 0 27.5 -2.66699 38.5 -8s21.167 -11.666 30.5 -18.999s18.833 -13.666 28.5 -18.999s20.5 -8 32.5 -8c10.667 0 19.5 3.33301 26.5 10
s15.167 19.334 24.5 38.001z" />
    <glyph glyph-name="itilde" unicode="&#x129;" 
d="M100 0v58h117v341h-111v58h183v-399h107v-58h-296zM347 671l46.002 -22.002c-12.667 -28 -25.667 -47.5 -39 -58.5s-28.666 -16.5 -45.999 -16.5c-12 0 -23 2.66699 -33 8s-19.333 11.666 -28 18.999s-17 13.666 -25 18.999s-16 8 -24 8c-8.66699 0 -17 -3.5 -25 -10.5
s-14.667 -17.5 -20 -31.5l-46 22c7.33301 22.667 19.166 40.834 35.499 54.501s32.833 20.5 49.5 20.5c12 0 23.5 -2.66699 34.5 -8s21.333 -11.666 31 -18.999s18.667 -13.666 27 -18.999s16.166 -8 23.499 -8s14.166 3.33301 20.499 10s12.5 17.334 18.5 32.001z" />
    <glyph glyph-name="Imacron" unicode="&#x12a;" 
d="M81 0v59h123v505h-116v59h309v-59h-123v-506h129v-58h-322zM112 731v56h254v-56h-254z" />
    <glyph glyph-name="imacron" unicode="&#x12b;" 
d="M100 0v58h117v341h-111v58h183v-399h107v-58h-296zM123 565v56h254v-56h-254z" />
    <glyph glyph-name="Ibreve" unicode="&#x12c;" 
d="M81 0v59h123v505h-116v59h309v-59h-123v-506h129v-58h-322zM329 787l51.999 -23.999c-14.667 -29.333 -34.167 -52 -58.5 -68s-52.166 -24 -83.499 -24c-30.667 0 -58.167 8 -82.5 24s-44.166 38.667 -59.499 68l52 24c11.333 -23.333 24.166 -40.5 38.499 -51.5
s31.5 -16.5 51.5 -16.5c13.333 0 25.5 2.33301 36.5 7s20.833 12.167 29.5 22.5s16.667 23.166 24 38.499z" />
    <glyph glyph-name="ibreve" unicode="&#x12d;" 
d="M100 0v58h117v341h-111v58h183v-399h107v-58h-296zM340 654l51.999 -23.999c-14.667 -29.333 -34.167 -52 -58.5 -68s-52.166 -24 -83.499 -24c-30.667 0 -58.167 8 -82.5 24s-44.166 38.667 -59.499 68l52 24c11.333 -23.333 24.166 -40.5 38.499 -51.5
s31.5 -16.5 51.5 -16.5c13.333 0 25.5 2.33301 36.5 7s20.833 12.167 29.5 22.5s16.667 23.166 24 38.499z" />
    <glyph glyph-name="Iogonek" unicode="&#x12e;" 
d="M81 0v59h123v505h-116v59h309v-59h-123v-506h129v-58h-322zM383 -179l-15.999 -48.001c-22 3.33301 -41.333 8.83301 -58 16.5s-29.834 17.667 -39.501 30s-14.5 26.833 -14.5 43.5c0 18 4.66699 35.833 14 53.5s23 35 41 52s40 33.167 66 48.5l27 -17
c-16.667 -13.333 -31.167 -27.166 -43.5 -41.499s-21.833 -28.5 -28.5 -42.5s-10 -27 -10 -39c0 -14 5 -26 15 -36s25.667 -16.667 47 -20z" />
    <glyph glyph-name="iogonek" unicode="&#x12f;" 
d="M100 0v58h117v341h-111v58h183v-399h107v-58h-296zM249 553c-14 0 -26.001 5 -36.001 15s-15 22 -15 36c0 14.667 4.83301 27 14.5 37s21.834 15 36.501 15c14 0 26.167 -5.16699 36.5 -15.5s15.5 -22.5 15.5 -36.5s-5.16699 -26 -15.5 -36s-22.5 -15 -36.5 -15z
M375.999 -179l-15.999 -48.001c-22 3.33301 -41.333 8.83301 -58 16.5s-29.834 17.667 -39.501 30s-14.5 26.833 -14.5 43.5c0 18 4.66699 35.833 14 53.5s23 35 41 52s40 33.167 66 48.5l27 -17c-16.667 -13.333 -31.167 -27.166 -43.5 -41.499s-21.833 -28.5 -28.5 -42.5
s-10 -27 -10 -39c0 -14 5 -26 15 -36s25.667 -16.667 47 -20z" />
    <glyph glyph-name="Idotaccent" unicode="&#x130;" 
d="M81 0v59h123v505h-116v59h309v-59h-123v-506h129v-58h-322zM237 693c-14 0 -26.001 5 -36.001 15s-15 22 -15 36c0 14.667 4.83301 27 14.5 37s21.834 15 36.501 15c14 0 26.167 -5.16699 36.5 -15.5s15.5 -22.5 15.5 -36.5s-5.16699 -26 -15.5 -36s-22.5 -15 -36.5 -15z
" />
    <glyph glyph-name="dotlessi" unicode="&#x131;" 
d="M100 0v58h117v341h-111v58h183v-399h107v-58h-296z" />
    <glyph glyph-name="Jcircumflex" unicode="&#x134;" 
d="M196 -11c-29.333 0 -56.333 5.83398 -81 17.501s-46.667 28.834 -66 51.501l40 50l7 8l5 -4c0.666992 -6 2.16699 -11.333 4.5 -16s7.83301 -10.667 16.5 -18c11.333 -8.66699 22.833 -15.334 34.5 -20.001s24.834 -7 39.501 -7c22.667 0 41 5 55 15s24.333 26.5 31 49.5
s10 53.833 10 92.5v356h-120v59h285v-59h-96v-355c1.33301 -40 -2.33398 -74 -11.001 -102s-21 -50.833 -37 -68.5s-34 -30.334 -54 -38.001s-41 -11.5 -63 -11.5v0zM205 655.001l-33 38l143 98h22l151 -99l-30 -36l-130 70z" />
    <glyph glyph-name="jcircumflex" unicode="&#x135;" 
d="M194 -174c-28.667 0 -55.832 5.33301 -81.499 16s-47.167 26.667 -64.5 48l40 54l6 8l6 -4c1.33301 -5.33301 3 -10.5 5 -15.5s6.66699 -11.5 14 -19.5c9.33301 -7.33301 20.166 -13.333 32.499 -18s26.166 -7 41.499 -7c20 0 37.833 4.5 53.5 13.5s27.834 23 36.501 42
s13 43.833 13 74.5v380h-170v59h243v-435c0 -46 -8 -83.5 -24 -112.5s-37.167 -50.167 -63.5 -63.5s-55.5 -20 -87.5 -20v0zM217.002 511l-40 34l139 140h24l139 -140l-40 -34l-111 110z" />
    <glyph glyph-name="uni0136" unicode="&#x136;" 
d="M166 312l-49.001 -54v-258h-75v623h74h10v-7c-4 -4 -6.5 -8.33301 -7.5 -13s-1.5 -12.667 -1.5 -24v-243l260 292l12 -2c4 -0.666992 8.16699 -1.16699 12.5 -1.5l13.5 -1c4.66699 -0.333008 9.33398 -0.5 14.001 -0.5h26l-236 -269l252 -354l-90 -4zM206.999 -275
l-30.001 27.001c16 15.333 29.667 32 41 50s17 32.667 17 44c0 8 -3.83301 15.333 -11.5 22l-23 20.5c-7.66699 7 -11.5 16.167 -11.5 27.5c0 14.667 5 27.167 15 37.5s22.667 15.5 38 15.5c16 0 30.167 -7 42.5 -21s18.5 -32 18.5 -54c0 -16 -3.5 -32.833 -10.5 -50.5
s-17.667 -36.334 -32 -56.001s-32.166 -40.5 -53.499 -62.5z" />
    <glyph glyph-name="uni0137" unicode="&#x137;" 
d="M199 229l-60 -56.001v-173h-73v665h72h10v-7c-4 -4 -6.5 -8.33301 -7.5 -13s-1.5 -12.667 -1.5 -24v-374l229 212l12 -2c4 -0.666992 8.16699 -1.16699 12.5 -1.5s9 -0.666016 14 -0.999023s9.83301 -0.5 14.5 -0.5h26l-192 -181l224 -273l-93 -4zM221 -275.001
l-30.001 27.001c16 15.333 29.667 32 41 50s17 32.667 17 44c0 8 -3.83301 15.333 -11.5 22l-23 20.5c-7.66699 7 -11.5 16.167 -11.5 27.5c0 14.667 5 27.167 15 37.5s22.667 15.5 38 15.5c16 0 30.167 -7 42.5 -21s18.5 -32 18.5 -54c0 -16 -3.5 -32.833 -10.5 -50.5
s-17.667 -36.334 -32 -56.001s-32.166 -40.5 -53.499 -62.5z" />
    <glyph glyph-name="kgreenlandic" unicode="&#x138;" 
d="M199 229l-60 -56.001v-173h-73v457h72h10v-7c-4 -4 -6.5 -8.33301 -7.5 -13s-1.5 -12.667 -1.5 -24v-166l229 212l12 -2c4 -0.666992 8.16699 -1.16699 12.5 -1.5s9 -0.666016 14 -0.999023s9.83301 -0.5 14.5 -0.5h26l-192 -181l224 -273l-93 -4z" />
    <glyph glyph-name="Lacute" unicode="&#x139;" 
d="M66 623h72h10v-7c-4 -4 -6.5 -8.33301 -7.5 -13s-1.5 -12.667 -1.5 -24v-519h300v-60h-373v623zM127 660l-23 42l152 89l40 -70z" />
    <glyph glyph-name="lacute" unicode="&#x13a;" 
d="M79 0v58h135v549h-129v58h202v-607h134v-58h-342zM177 702l-23 42l152 89l40 -70z" />
    <glyph glyph-name="uni013B" unicode="&#x13b;" 
d="M66 623h72h10v-7c-4 -4 -6.5 -8.33301 -7.5 -13s-1.5 -12.667 -1.5 -24v-519h300v-60h-373v623zM221 -275l-30.001 27.001c16 15.333 29.667 32 41 50s17 32.667 17 44c0 8 -3.83301 15.333 -11.5 22l-23 20.5c-7.66699 7 -11.5 16.167 -11.5 27.5
c0 14.667 5 27.167 15 37.5s22.667 15.5 38 15.5c16 0 30.167 -7 42.5 -21s18.5 -32 18.5 -54c0 -16 -3.5 -32.833 -10.5 -50.5s-17.667 -36.334 -32 -56.001s-32.166 -40.5 -53.499 -62.5z" />
    <glyph glyph-name="uni013C" unicode="&#x13c;" 
d="M79 0v58h135v549h-129v58h202v-607h134v-58h-342zM221 -275l-30.001 27.001c16 15.333 29.667 32 41 50s17 32.667 17 44c0 8 -3.83301 15.333 -11.5 22l-23 20.5c-7.66699 7 -11.5 16.167 -11.5 27.5c0 14.667 5 27.167 15 37.5s22.667 15.5 38 15.5
c16 0 30.167 -7 42.5 -21s18.5 -32 18.5 -54c0 -16 -3.5 -32.833 -10.5 -50.5s-17.667 -36.334 -32 -56.001s-32.166 -40.5 -53.499 -62.5z" />
    <glyph glyph-name="Lcaron" unicode="&#x13d;" 
d="M339 411l-28.002 23.998c15.333 14 27.833 29.167 37.5 45.5s14.5 29.166 14.5 38.499c0 7.33301 -3.33301 14 -10 20l-20.5 19c-7 6.66699 -10.5 14.334 -10.5 23.001c0 13.333 4.5 24.5 13.5 33.5s20.5 13.5 34.5 13.5s26.5 -6.16699 37.5 -18.5
s16.5 -28.166 16.5 -47.499c0 -14.667 -3.16699 -30 -9.5 -46s-15.666 -32.667 -27.999 -50s-28.166 -35.666 -47.499 -54.999zM65.998 622.998h72h10v-7c-4 -4 -6.5 -8.33301 -7.5 -13s-1.5 -12.667 -1.5 -24v-519h300v-60h-373v623z" />
    <glyph glyph-name="lcaron" unicode="&#x13e;" 
d="M79 0v58h135v549h-129v58h202v-607h134v-58h-342zM372 454l-28.0029 23.999c10.667 9.33301 19.834 19.333 27.501 30s13.667 20.834 18 30.501s6.5 17.834 6.5 24.501c0 5.33301 -2 10.166 -6 14.499s-8.83301 8.66602 -14.5 12.999s-10.5 9.16602 -14.5 14.499
s-6 11.666 -6 18.999c0 13.333 4.5 24.5 13.5 33.5s20.5 13.5 34.5 13.5s26.5 -6.16699 37.5 -18.5s16.5 -28.166 16.5 -47.499c0 -14 -3.16699 -29.167 -9.5 -45.5s-15.666 -33.166 -27.999 -50.499s-28.166 -35.666 -47.499 -54.999z" />
    <glyph glyph-name="Ldot" unicode="&#x13f;" 
d="M66 623h72h10v-7c-4 -4 -6.5 -8.33301 -7.5 -13s-1.5 -12.667 -1.5 -24v-519h300v-60h-373v623zM298 274c-16.667 0 -30.665 5.49902 -41.998 16.499s-17 24.5 -17 40.5s6 29.5 18 40.5s25.667 16.5 41 16.5s29.166 -5.5 41.499 -16.5s18.5 -24.5 18.5 -40.5
c0 -15.333 -5.83301 -28.666 -17.5 -39.999s-25.834 -17 -42.501 -17z" />
    <glyph glyph-name="ldot" unicode="&#x140;" 
d="M69 0v58h115v549h-109v58h182v-607h154v-58h-342zM388 274c-16.667 0 -30.665 5.49902 -41.998 16.499s-17 24.5 -17 40.5s6 29.5 18 40.5s25.667 16.5 41 16.5s29.166 -5.5 41.499 -16.5s18.5 -24.5 18.5 -40.5c0 -15.333 -5.83301 -28.666 -17.5 -39.999
s-25.834 -17 -42.501 -17z" />
    <glyph glyph-name="Lslash" unicode="&#x141;" 
d="M73 0v243l-53 -17v61l53 18v318h81c0.666992 0 1.16699 -0.166992 1.5 -0.5s0.5 -0.833008 0.5 -1.5c0 -2.66699 -1.33301 -5.5 -4 -8.5s-4.66699 -10.833 -6 -23.5v-261l166 54l14.5 5.5c4.33301 1.66699 7.83301 3.16699 10.5 4.5v-64l-191 -61v-207h300v-60h-373z" />
    <glyph glyph-name="lslash" unicode="&#x142;" 
d="M79 0v58h135v221l-79 -27v66l79 27v262h-129v58h202v-295l91 33v-69l-91 -31v-245h134v-58h-342z" />
    <glyph glyph-name="Nacute" unicode="&#x143;" 
d="M50 623h68l262 -462v462h66h10v-7c-4 -4 -6.5 -8.33301 -7.5 -13s-1.5 -12.667 -1.5 -24v-579h-55l-275 490v-490h-67v623zM177 660l-23 42l152 89l40 -70z" />
    <glyph glyph-name="nacute" unicode="&#x144;" 
d="M72 0l-0.000976562 456.997h70v-81c12 18.667 26 34.834 42 48.501s33.667 24.334 53 32.001s39.333 11.5 60 11.5c25.333 0 48 -6.33301 68 -19s36 -33 48 -61s18 -65 18 -111v-277h-70v275c0 32 -3.66699 57.5 -11 76.5s-17.333 32.667 -30 41s-27 12.5 -43 12.5
c-15.333 0 -30.833 -3.33301 -46.5 -10s-30.167 -16.167 -43.5 -28.5s-24.166 -27.166 -32.499 -44.499s-12.5 -37 -12.5 -59v-263h-70zM257.999 506.997l-38 26l84 149l55 -40z" />
    <glyph glyph-name="uni0145" unicode="&#x145;" 
d="M50 623h68l262 -462v462h66h10v-7c-4 -4 -6.5 -8.33301 -7.5 -13s-1.5 -12.667 -1.5 -24v-579h-55l-275 490v-490h-67v623zM221 -275l-30.001 27.001c16 15.333 29.667 32 41 50s17 32.667 17 44c0 8 -3.83301 15.333 -11.5 22l-23 20.5
c-7.66699 7 -11.5 16.167 -11.5 27.5c0 14.667 5 27.167 15 37.5s22.667 15.5 38 15.5c16 0 30.167 -7 42.5 -21s18.5 -32 18.5 -54c0 -16 -3.5 -32.833 -10.5 -50.5s-17.667 -36.334 -32 -56.001s-32.166 -40.5 -53.499 -62.5z" />
    <glyph glyph-name="uni0146" unicode="&#x146;" 
d="M72 0l-0.000976562 456.997h70v-81c12 18.667 26 34.834 42 48.501s33.667 24.334 53 32.001s39.333 11.5 60 11.5c25.333 0 48 -6.33301 68 -19s36 -33 48 -61s18 -65 18 -111v-277h-70v275c0 32 -3.66699 57.5 -11 76.5s-17.333 32.667 -30 41s-27 12.5 -43 12.5
c-15.333 0 -30.833 -3.33301 -46.5 -10s-30.167 -16.167 -43.5 -28.5s-24.166 -27.166 -32.499 -44.499s-12.5 -37 -12.5 -59v-263h-70zM230.999 -275.003l-30.001 27.001c16 15.333 29.667 32 41 50s17 32.667 17 44c0 8 -3.83301 15.333 -11.5 22l-23 20.5
c-7.66699 7 -11.5 16.167 -11.5 27.5c0 14.667 5 27.167 15 37.5s22.667 15.5 38 15.5c16 0 30.167 -7 42.5 -21s18.5 -32 18.5 -54c0 -16 -3.5 -32.833 -10.5 -50.5s-17.667 -36.334 -32 -56.001s-32.166 -40.5 -53.499 -62.5z" />
    <glyph glyph-name="Ncaron" unicode="&#x147;" 
d="M50 623h68l262 -462v462h66h10v-7c-4 -4 -6.5 -8.33301 -7.5 -13s-1.5 -12.667 -1.5 -24v-579h-55l-275 490v-490h-67v623zM371 793l33 -38l-143 -98h-22l-151 99l30 36l130 -70z" />
    <glyph glyph-name="ncaron" unicode="&#x148;" 
d="M72 0l-0.000976562 456.997h70v-81c12 18.667 26 34.834 42 48.501s33.667 24.334 53 32.001s39.333 11.5 60 11.5c25.333 0 48 -6.33301 68 -19s36 -33 48 -61s18 -65 18 -111v-277h-70v275c0 32 -3.66699 57.5 -11 76.5s-17.333 32.667 -30 41s-27 12.5 -43 12.5
c-15.333 0 -30.833 -3.33301 -46.5 -10s-30.167 -16.167 -43.5 -28.5s-24.166 -27.166 -32.499 -44.499s-12.5 -37 -12.5 -59v-263h-70zM152.999 687.997l111 -110l111 110l40 -34l-139 -140h-24l-139 140z" />
    <glyph glyph-name="Eng" unicode="&#x14a;" 
d="M380 623h73.9971c0 -4 -1.16699 -7.66699 -3.5 -11s-3.5 -8.66602 -3.5 -15.999v-596c0 -41.333 -6.16699 -75.666 -18.5 -102.999s-29.833 -47.833 -52.5 -61.5s-49.667 -20.5 -81 -20.5c-15.333 0 -30.333 2 -45 6s-28.667 10.333 -42 19l35 62
c4.66699 -1.33301 8.16699 -3.33301 10.5 -6s4.83301 -5.33398 7.5 -8.00098s6.83398 -5 12.501 -7s13.834 -3 24.501 -3c20.667 0 36.834 5.16699 48.501 15.5s20 26.166 25 47.499s7.83301 48.333 8.5 81l-263 468v-490h-67v623h68l262 -462v462z" />
    <glyph glyph-name="eng" unicode="&#x14b;" 
d="M262 -176c-17.333 0 -34.165 2.83203 -50.498 8.49902s-31.833 14.167 -46.5 25.5l34 67c2 -0.666992 3.83301 -2.66699 5.5 -6s4.5 -7.16602 8.5 -11.499s10 -8.16602 18 -11.499s19 -5 33 -5c22 0 40.167 5.66699 54.5 17s25 28.5 32 51.5s10.5 51.5 10.5 85.5v230
c0 24 -2.16699 44.333 -6.5 61s-10.333 30 -18 40s-16.5 17.333 -26.5 22s-21 7 -33 7c-12.667 0 -25.334 -2.16699 -38.001 -6.5s-24.834 -10.5 -36.501 -18.5s-22 -17.833 -31 -29.5s-16.167 -24.834 -21.5 -39.501s-8 -30.667 -8 -48v-263h-74v457h74v-81
c8.66699 14 18.667 26.667 30 38s23.5 21 36.5 29s26.5 14.167 40.5 18.5s28 6.5 42 6.5c20 0 38.667 -3.5 56 -10.5s32.333 -18 45 -33s22.5 -34.667 29.5 -59s10.5 -53.833 10.5 -88.5v-221c0 -40.667 -4.33301 -75.667 -13 -105s-20.667 -53.333 -36 -72
s-33.333 -32.5 -54 -41.5s-43 -13.5 -67 -13.5z" />
    <glyph glyph-name="Omacron" unicode="&#x14c;" 
d="M250 -11c-47.333 0 -87.666 12.333 -120.999 37s-58.666 60.834 -75.999 108.501s-26 105.5 -26 173.5c0 66 8.66699 122.833 26 170.5s42.666 84.334 75.999 110.001s73.666 38.5 120.999 38.5c48 0 88.5 -12.833 121.5 -38.5s58.167 -62.334 75.5 -110.001
s26 -104.5 26 -170.5c0 -68 -8.66699 -125.833 -26 -173.5s-42.5 -83.834 -75.5 -108.501s-73.5 -37 -121.5 -37zM250 50c32 0 59.167 10 81.5 30s39.5 49.167 51.5 87.5s18 85.166 18 140.499c0 52.667 -6 98.167 -18 136.5s-29.167 68.166 -51.5 89.499s-49.5 32 -81.5 32
c-31.333 0 -58.333 -10.667 -81 -32s-40 -51.166 -52 -89.499s-18 -83.833 -18 -136.5c0 -55.333 6 -102.166 18 -140.499s29.333 -67.5 52 -87.5s49.667 -30 81 -30zM123 731v56h254v-56h-254z" />
    <glyph glyph-name="omacron" unicode="&#x14d;" 
d="M250 -8c-41.333 0 -77.833 10.167 -109.5 30.5s-56.5 48.333 -74.5 84s-27 76.5 -27 122.5c0 46.667 9 87.834 27 123.501s42.833 63.667 74.5 84s68.167 30.5 109.5 30.5s77.833 -10.167 109.5 -30.5s56.5 -48.333 74.5 -84s27 -76.834 27 -123.501
c0 -46 -9 -86.833 -27 -122.5s-42.833 -63.667 -74.5 -84s-68.167 -30.5 -109.5 -30.5zM250 52c26.667 0 50 7.66699 70 23s35.833 36.333 47.5 63s17.5 57.334 17.5 92.001s-5.83301 65.334 -17.5 92.001s-27.5 47.5 -47.5 62.5s-43.333 22.5 -70 22.5
c-26 0 -49.167 -7.5 -69.5 -22.5s-36.333 -35.833 -48 -62.5s-17.5 -57.334 -17.5 -92.001s5.83301 -65.334 17.5 -92.001s27.667 -47.667 48 -63s43.5 -23 69.5 -23zM123 565v56h254v-56h-254z" />
    <glyph glyph-name="Obreve" unicode="&#x14e;" 
d="M250 -11c-47.333 0 -87.666 12.333 -120.999 37s-58.666 60.834 -75.999 108.501s-26 105.5 -26 173.5c0 66 8.66699 122.833 26 170.5s42.666 84.334 75.999 110.001s73.666 38.5 120.999 38.5c48 0 88.5 -12.833 121.5 -38.5s58.167 -62.334 75.5 -110.001
s26 -104.5 26 -170.5c0 -68 -8.66699 -125.833 -26 -173.5s-42.5 -83.834 -75.5 -108.501s-73.5 -37 -121.5 -37zM250 50c32 0 59.167 10 81.5 30s39.5 49.167 51.5 87.5s18 85.166 18 140.499c0 52.667 -6 98.167 -18 136.5s-29.167 68.166 -51.5 89.499s-49.5 32 -81.5 32
c-31.333 0 -58.333 -10.667 -81 -32s-40 -51.166 -52 -89.499s-18 -83.833 -18 -136.5c0 -55.333 6 -102.166 18 -140.499s29.333 -67.5 52 -87.5s49.667 -30 81 -30zM340 787l51.999 -23.999c-14.667 -29.333 -34.167 -52 -58.5 -68s-52.166 -24 -83.499 -24
c-30.667 0 -58.167 8 -82.5 24s-44.166 38.667 -59.499 68l52 24c11.333 -23.333 24.166 -40.5 38.499 -51.5s31.5 -16.5 51.5 -16.5c13.333 0 25.5 2.33301 36.5 7s20.833 12.167 29.5 22.5s16.667 23.166 24 38.499z" />
    <glyph glyph-name="obreve" unicode="&#x14f;" 
d="M250 -8c-41.333 0 -77.833 10.167 -109.5 30.5s-56.5 48.333 -74.5 84s-27 76.5 -27 122.5c0 46.667 9 87.834 27 123.501s42.833 63.667 74.5 84s68.167 30.5 109.5 30.5s77.833 -10.167 109.5 -30.5s56.5 -48.333 74.5 -84s27 -76.834 27 -123.501
c0 -46 -9 -86.833 -27 -122.5s-42.833 -63.667 -74.5 -84s-68.167 -30.5 -109.5 -30.5zM250 52c26.667 0 50 7.66699 70 23s35.833 36.333 47.5 63s17.5 57.334 17.5 92.001s-5.83301 65.334 -17.5 92.001s-27.5 47.5 -47.5 62.5s-43.333 22.5 -70 22.5
c-26 0 -49.167 -7.5 -69.5 -22.5s-36.333 -35.833 -48 -62.5s-17.5 -57.334 -17.5 -92.001s5.83301 -65.334 17.5 -92.001s27.667 -47.667 48 -63s43.5 -23 69.5 -23zM340 654l51.999 -23.999c-14.667 -29.333 -34.167 -52 -58.5 -68s-52.166 -24 -83.499 -24
c-30.667 0 -58.167 8 -82.5 24s-44.166 38.667 -59.499 68l52 24c11.333 -23.333 24.166 -40.5 38.499 -51.5s31.5 -16.5 51.5 -16.5c13.333 0 25.5 2.33301 36.5 7s20.833 12.167 29.5 22.5s16.667 23.166 24 38.499z" />
    <glyph glyph-name="Ohungarumlaut" unicode="&#x150;" 
d="M250 -11c-47.333 0 -87.666 12.333 -120.999 37s-58.666 60.834 -75.999 108.501s-26 105.5 -26 173.5c0 66 8.66699 122.833 26 170.5s42.666 84.334 75.999 110.001s73.666 38.5 120.999 38.5c48 0 88.5 -12.833 121.5 -38.5s58.167 -62.334 75.5 -110.001
s26 -104.5 26 -170.5c0 -68 -8.66699 -125.833 -26 -173.5s-42.5 -83.834 -75.5 -108.501s-73.5 -37 -121.5 -37zM250 50c32 0 59.167 10 81.5 30s39.5 49.167 51.5 87.5s18 85.166 18 140.499c0 52.667 -6 98.167 -18 136.5s-29.167 68.166 -51.5 89.499s-49.5 32 -81.5 32
c-31.333 0 -58.333 -10.667 -81 -32s-40 -51.166 -52 -89.499s-18 -83.833 -18 -136.5c0 -55.333 6 -102.166 18 -140.499s29.333 -67.5 52 -87.5s49.667 -30 81 -30zM282 645l-32 41l131 124l46 -64zM104 645l-32 41l131 124l47 -64z" />
    <glyph glyph-name="ohungarumlaut" unicode="&#x151;" 
d="M250 -8c-41.333 0 -77.833 10.167 -109.5 30.5s-56.5 48.333 -74.5 84s-27 76.5 -27 122.5c0 46.667 9 87.834 27 123.501s42.833 63.667 74.5 84s68.167 30.5 109.5 30.5s77.833 -10.167 109.5 -30.5s56.5 -48.333 74.5 -84s27 -76.834 27 -123.501
c0 -46 -9 -86.833 -27 -122.5s-42.833 -63.667 -74.5 -84s-68.167 -30.5 -109.5 -30.5zM250 52c26.667 0 50 7.66699 70 23s35.833 36.333 47.5 63s17.5 57.334 17.5 92.001s-5.83301 65.334 -17.5 92.001s-27.5 47.5 -47.5 62.5s-43.333 22.5 -70 22.5
c-26 0 -49.167 -7.5 -69.5 -22.5s-36.333 -35.833 -48 -62.5s-17.5 -57.334 -17.5 -92.001s5.83301 -65.334 17.5 -92.001s27.667 -47.667 48 -63s43.5 -23 69.5 -23zM342 522l-50 30l88 147l63 -42zM187 522l-50 30l88 147l63 -42z" />
    <glyph glyph-name="OE" unicode="&#x152;" 
d="M172 -7c-24.667 0 -47.1689 6.33301 -67.502 19s-37.5 32.167 -51.5 58.5s-24.833 59.5 -32.5 99.5s-11.5 87.333 -11.5 142c0 70.667 6.5 129.667 19.5 177s31.667 83 56 107s53.833 36 88.5 36c14 0 27.833 -2.83301 41.5 -8.5s26.5 -15.167 38.5 -28.5v29h231v-62
h-169v-205h143v-64h-143v-231h167v-62h-230v31c-11.333 -13.333 -23.666 -23 -36.999 -29s-27.666 -9 -42.999 -9zM178.998 54c17.333 0 32.667 7.00293 46 21.0029s22.333 32 27 54v356c-8 22.667 -18.333 43.167 -31 61.5s-29.334 27.5 -50.001 27.5
c-12.667 0 -25 -4.16699 -37 -12.5s-22.5 -22.333 -31.5 -42s-16.167 -46.334 -21.5 -80.001s-8 -75.834 -8 -126.501c0 -54.667 4.16699 -101.334 12.5 -140.001s20.333 -68.167 36 -88.5s34.834 -30.5 57.501 -30.5z" />
    <glyph glyph-name="oe" unicode="&#x153;" 
d="M372 -12c-22.667 0 -44.0059 3.49805 -64.0059 10.498s-38.333 17.167 -55 30.5c-14.667 -13.333 -30.167 -23.333 -46.5 -30s-33.833 -10 -52.5 -10c-16.667 0 -33.667 3.5 -51 10.5s-33.333 19.333 -48 37s-26.5 42 -35.5 73s-13.5 70.5 -13.5 118.5
c0 58.667 7.33301 105.334 22 140.001s33.834 59.667 57.501 75s48.834 23 75.501 23c20 0 37.833 -3.83301 53.5 -11.5s29.167 -19.167 40.5 -34.5c13.333 15.333 28.333 26.833 45 34.5s35.334 11.5 56.001 11.5c28 0 52 -6.83301 72 -20.5s35.333 -34 46 -61
s16 -60.833 16 -101.5v-62h-228c1.33301 -47.333 5.83301 -83.666 13.5 -108.999s18.834 -42.5 33.501 -51.5s32.667 -13.5 54 -13.5c20.667 0 39 3.16699 55 9.5s29.667 15.833 41 28.5l35 -43c-17.333 -18 -36.166 -31.5 -56.499 -40.5s-42.166 -13.5 -65.499 -13.5z
M162.994 49.998c6.66699 0 12.9971 0.830078 18.9971 2.49707s11.333 4.33398 16 8.00098s8.33398 7.83398 11.001 12.501s4 10 4 16c0 1.33301 -0.166992 3.83301 -0.5 7.5s-1.16602 8.83398 -2.49902 15.501c-2.66699 16 -4.66699 31.333 -6 46s-2.33301 28.667 -3 42
s-1 26 -1 38c0 26 0.666992 47.5 2 64.5s2.83301 30.5 4.5 40.5s2.5 16.333 2.5 19c0 6 -1.16699 11.667 -3.5 17s-5.66602 10 -9.99902 14s-9.5 7.16699 -15.5 9.5s-12.333 3.5 -19 3.5c-15.333 0 -30.333 -5.5 -45 -16.5s-26.667 -28.667 -36 -53s-14 -56.833 -14 -97.5
c0 -42.667 4 -78 12 -106s19.167 -48.833 33.5 -62.5s31.5 -20.5 51.5 -20.5zM262.991 277.995l168 0.000976562c0 32 -2.66699 57.667 -8 77s-14 33.5 -26 42.5s-27.667 13.5 -47 13.5c-17.333 0 -32.5 -5.16699 -45.5 -15.5s-23.167 -25.333 -30.5 -45
s-11 -43.834 -11 -72.501z" />
    <glyph glyph-name="Racute" unicode="&#x154;" 
d="M56 0l0.000976562 622.999h184c49.333 0 89.166 -7.33301 119.499 -22s52.5 -35.334 66.5 -62.001s21 -58 21 -94c0 -23.333 -5.16699 -46.666 -15.5 -69.999s-25 -43.666 -44 -60.999s-41.5 -29.333 -67.5 -36l144 -278h-78l-138 275h-121v-275h-71zM127.001 336.999
l121.001 -0.000976562c44.667 0 77 9.83301 97 29.5s30 45.834 30 78.501c0 20.667 -4.33301 39.5 -13 56.5s-22.334 30.5 -41.001 40.5s-43 15 -73 15h-121v-220zM177.002 659.998l-23 42l152 89l40 -70z" />
    <glyph glyph-name="racute" unicode="&#x155;" 
d="M119 457l75.0029 -0.000976562l-3 -133l-9 15c4 20.667 11 39 21 55s22 29.5 36 40.5s29.333 19.333 46 25s34 8.5 52 8.5c24 0 46.167 -4.16699 66.5 -12.5s38.5 -20.833 54.5 -37.5l-32 -56l-4 -9l-7 4c-1.33301 5.33301 -3.33301 10.333 -6 15
s-8.33398 10.334 -17.001 17.001c-10.667 6.66699 -20.5 11.167 -29.5 13.5s-19.167 3.5 -30.5 3.5c-16.667 0 -33.334 -3.16699 -50.001 -9.5s-31.834 -16.166 -45.501 -29.499s-24.5 -30.333 -32.5 -51s-12 -45.334 -12 -74.001v-243h-73v458zM283.003 506.999l-38 26
l84 149l55 -40z" />
    <glyph glyph-name="uni0156" unicode="&#x156;" 
d="M56 0l0.000976562 622.999h184c49.333 0 89.166 -7.33301 119.499 -22s52.5 -35.334 66.5 -62.001s21 -58 21 -94c0 -23.333 -5.16699 -46.666 -15.5 -69.999s-25 -43.666 -44 -60.999s-41.5 -29.333 -67.5 -36l144 -278h-78l-138 275h-121v-275h-71zM127.001 336.999
l121.001 -0.000976562c44.667 0 77 9.83301 97 29.5s30 45.834 30 78.501c0 20.667 -4.33301 39.5 -13 56.5s-22.334 30.5 -41.001 40.5s-43 15 -73 15h-121v-220zM221.002 -275.002l-30.001 27.001c16 15.333 29.667 32 41 50s17 32.667 17 44
c0 8 -3.83301 15.333 -11.5 22l-23 20.5c-7.66699 7 -11.5 16.167 -11.5 27.5c0 14.667 5 27.167 15 37.5s22.667 15.5 38 15.5c16 0 30.167 -7 42.5 -21s18.5 -32 18.5 -54c0 -16 -3.5 -32.833 -10.5 -50.5s-17.667 -36.334 -32 -56.001s-32.166 -40.5 -53.499 -62.5z" />
    <glyph glyph-name="uni0157" unicode="&#x157;" 
d="M119 457l75.0029 -0.000976562l-3 -133l-9 15c4 20.667 11 39 21 55s22 29.5 36 40.5s29.333 19.333 46 25s34 8.5 52 8.5c24 0 46.167 -4.16699 66.5 -12.5s38.5 -20.833 54.5 -37.5l-32 -56l-4 -9l-7 4c-1.33301 5.33301 -3.33301 10.333 -6 15
s-8.33398 10.334 -17.001 17.001c-10.667 6.66699 -20.5 11.167 -29.5 13.5s-19.167 3.5 -30.5 3.5c-16.667 0 -33.334 -3.16699 -50.001 -9.5s-31.834 -16.166 -45.501 -29.499s-24.5 -30.333 -32.5 -51s-12 -45.334 -12 -74.001v-243h-73v458zM241.003 -275.001
l-30.001 27.001c16 15.333 29.667 32 41 50s17 32.667 17 44c0 8 -3.83301 15.333 -11.5 22l-23 20.5c-7.66699 7 -11.5 16.167 -11.5 27.5c0 14.667 5 27.167 15 37.5s22.667 15.5 38 15.5c16 0 30.167 -7 42.5 -21s18.5 -32 18.5 -54c0 -16 -3.5 -32.833 -10.5 -50.5
s-17.667 -36.334 -32 -56.001s-32.166 -40.5 -53.499 -62.5z" />
    <glyph glyph-name="Rcaron" unicode="&#x158;" 
d="M56 0l0.000976562 622.999h184c49.333 0 89.166 -7.33301 119.499 -22s52.5 -35.334 66.5 -62.001s21 -58 21 -94c0 -23.333 -5.16699 -46.666 -15.5 -69.999s-25 -43.666 -44 -60.999s-41.5 -29.333 -67.5 -36l144 -278h-78l-138 275h-121v-275h-71zM127.001 336.999
l121.001 -0.000976562c44.667 0 77 9.83301 97 29.5s30 45.834 30 78.501c0 20.667 -4.33301 39.5 -13 56.5s-22.334 30.5 -41.001 40.5s-43 15 -73 15h-121v-220zM371.002 792.998l33 -38l-143 -98h-22l-151 99l30 36l130 -70z" />
    <glyph glyph-name="rcaron" unicode="&#x159;" 
d="M119 457l75.0029 -0.000976562l-3 -133l-9 15c4 20.667 11 39 21 55s22 29.5 36 40.5s29.333 19.333 46 25s34 8.5 52 8.5c24 0 46.167 -4.16699 66.5 -12.5s38.5 -20.833 54.5 -37.5l-32 -56l-4 -9l-7 4c-1.33301 5.33301 -3.33301 10.333 -6 15
s-8.33398 10.334 -17.001 17.001c-10.667 6.66699 -20.5 11.167 -29.5 13.5s-19.167 3.5 -30.5 3.5c-16.667 0 -33.334 -3.16699 -50.001 -9.5s-31.834 -16.166 -45.501 -29.499s-24.5 -30.333 -32.5 -51s-12 -45.334 -12 -74.001v-243h-73v458zM178.003 687.999l111 -110
l111 110l40 -34l-139 -140h-24l-139 140z" />
    <glyph glyph-name="Sacute" unicode="&#x15a;" 
d="M247 -10c-40.667 0 -77.1689 6.66895 -109.502 20.002s-60.833 33 -85.5 59l36 63l4 9l7 -4c1.33301 -4.66699 3 -9.83398 5 -15.501s6.66699 -12.5 14 -20.5c17.333 -14.667 37.5 -26.334 60.5 -35.001s49.167 -13 78.5 -13c18.667 0 35.834 2.83301 51.501 8.5
s29.334 13.334 41.001 23.001s20.667 21 27 34s9.5 26.833 9.5 41.5c0 11.333 -1.16699 21.666 -3.5 30.999s-6.66602 17.833 -12.999 25.5s-14.833 15.334 -25.5 23.001s-24.334 15.834 -41.001 24.501s-36.667 18 -60 28c-43.333 16.667 -77.5 34.834 -102.5 54.501
s-42.667 40.5 -53 62.5s-15.5 44.667 -15.5 68c0 30.667 7.66699 57.5 23 80.5s37.166 41 65.499 54s62.166 19.5 101.499 19.5c22.667 0 44.5 -3.16699 65.5 -9.5s40.667 -15.166 59 -26.499s34.5 -25.333 48.5 -42l-39 -52l-6 -8l-6 4
c-0.666992 5.33301 -2 10.666 -4 15.999s-6.66699 12 -14 20c-16 15.333 -33 25.833 -51 31.5s-39.333 8.5 -64 8.5c-16.667 0 -31.5 -2.33301 -44.5 -7s-24.167 -11.334 -33.5 -20.001s-16.5 -18.5 -21.5 -29.5s-7.5 -22.5 -7.5 -34.5c0 -11.333 1.33301 -21.666 4 -30.999
s7.33398 -18.333 14.001 -27s15.834 -17.334 27.501 -26.001s26.334 -17.334 44.001 -26.001s39.167 -18 64.5 -28c30.667 -12.667 56.167 -25.167 76.5 -37.5s36.333 -25.333 48 -39s20 -28.5 25 -44.5s7.5 -33.667 7.5 -53c0 -28.667 -7.16699 -56.834 -21.5 -84.501
s-36.833 -50.5 -67.5 -68.5s-70.334 -27 -119.001 -27v0zM187.998 660.002l-23 42l152 89l40 -70z" />
    <glyph glyph-name="sacute" unicode="&#x15b;" 
d="M251 -10c-25.333 0 -49.5029 2.66309 -72.5029 7.99609s-44.667 13.333 -65 24s-39.166 24 -56.499 40l40 68l6 9l6 -4c1.33301 -5.33301 2.83301 -10.833 4.5 -16.5s6.16699 -12.5 13.5 -20.5c14 -14 30.833 -25.5 50.5 -34.5s44.834 -13.5 75.501 -13.5
c24.667 0 45.5 3 62.5 9s30.167 14.5 39.5 25.5s14 23.833 14 38.5c0 10 -2 18.833 -6 26.5s-10.5 14.834 -19.5 21.501s-20.833 13.334 -35.5 20.001s-32.667 13.334 -54 20.001c-34.667 10 -65 21.667 -91 35s-46 28.833 -60 46.5s-21 37.834 -21 60.501
c0 23.333 6.33301 43.5 19 60.5s31.5 30.333 56.5 40s55.833 14.5 92.5 14.5c21.333 0 40.666 -1.5 57.999 -4.5s33.333 -7.5 48 -13.5s28.167 -13.5 40.5 -22.5s24.166 -19.5 35.499 -31.5l-41 -50l-7 -8l-5 5c-0.666992 5.33301 -2.16699 10.5 -4.5 15.5
s-7.16602 11.167 -14.499 18.5c-15.333 12 -32.666 21.167 -51.999 27.5s-38 9.5 -56 9.5c-26.667 0 -49.667 -4.66699 -69 -14s-29 -23.666 -29 -42.999c0 -10 3.5 -19.833 10.5 -29.5s19.833 -19.334 38.5 -29.001s45.334 -19.5 80.001 -29.5
c38 -12 68.5 -24.167 91.5 -36.5s39.667 -26.5 50 -42.5s15.5 -35 15.5 -57c0 -25.333 -6.83301 -49 -20.5 -71s-34.5 -39.5 -62.5 -52.5s-63.333 -19.5 -106 -19.5v0zM253.997 506.996l-38 26l84 149l55 -40z" />
    <glyph glyph-name="Scircumflex" unicode="&#x15c;" 
d="M247 -10c-40.667 0 -77.1689 6.66895 -109.502 20.002s-60.833 33 -85.5 59l36 63l4 9l7 -4c1.33301 -4.66699 3 -9.83398 5 -15.501s6.66699 -12.5 14 -20.5c17.333 -14.667 37.5 -26.334 60.5 -35.001s49.167 -13 78.5 -13c18.667 0 35.834 2.83301 51.501 8.5
s29.334 13.334 41.001 23.001s20.667 21 27 34s9.5 26.833 9.5 41.5c0 11.333 -1.16699 21.666 -3.5 30.999s-6.66602 17.833 -12.999 25.5s-14.833 15.334 -25.5 23.001s-24.334 15.834 -41.001 24.501s-36.667 18 -60 28c-43.333 16.667 -77.5 34.834 -102.5 54.501
s-42.667 40.5 -53 62.5s-15.5 44.667 -15.5 68c0 30.667 7.66699 57.5 23 80.5s37.166 41 65.499 54s62.166 19.5 101.499 19.5c22.667 0 44.5 -3.16699 65.5 -9.5s40.667 -15.166 59 -26.499s34.5 -25.333 48.5 -42l-39 -52l-6 -8l-6 4
c-0.666992 5.33301 -2 10.666 -4 15.999s-6.66699 12 -14 20c-16 15.333 -33 25.833 -51 31.5s-39.333 8.5 -64 8.5c-16.667 0 -31.5 -2.33301 -44.5 -7s-24.167 -11.334 -33.5 -20.001s-16.5 -18.5 -21.5 -29.5s-7.5 -22.5 -7.5 -34.5c0 -11.333 1.33301 -21.666 4 -30.999
s7.33398 -18.333 14.001 -27s15.834 -17.334 27.501 -26.001s26.334 -17.334 44.001 -26.001s39.167 -18 64.5 -28c30.667 -12.667 56.167 -25.167 76.5 -37.5s36.333 -25.333 48 -39s20 -28.5 25 -44.5s7.5 -33.667 7.5 -53c0 -28.667 -7.16699 -56.834 -21.5 -84.501
s-36.833 -50.5 -67.5 -68.5s-70.334 -27 -119.001 -27v0zM135.998 655.002l-33 38l143 98h22l151 -99l-30 -36l-130 70z" />
    <glyph glyph-name="scircumflex" unicode="&#x15d;" 
d="M251 -10c-25.333 0 -49.5029 2.66309 -72.5029 7.99609s-44.667 13.333 -65 24s-39.166 24 -56.499 40l40 68l6 9l6 -4c1.33301 -5.33301 2.83301 -10.833 4.5 -16.5s6.16699 -12.5 13.5 -20.5c14 -14 30.833 -25.5 50.5 -34.5s44.834 -13.5 75.501 -13.5
c24.667 0 45.5 3 62.5 9s30.167 14.5 39.5 25.5s14 23.833 14 38.5c0 10 -2 18.833 -6 26.5s-10.5 14.834 -19.5 21.501s-20.833 13.334 -35.5 20.001s-32.667 13.334 -54 20.001c-34.667 10 -65 21.667 -91 35s-46 28.833 -60 46.5s-21 37.834 -21 60.501
c0 23.333 6.33301 43.5 19 60.5s31.5 30.333 56.5 40s55.833 14.5 92.5 14.5c21.333 0 40.666 -1.5 57.999 -4.5s33.333 -7.5 48 -13.5s28.167 -13.5 40.5 -22.5s24.166 -19.5 35.499 -31.5l-41 -50l-7 -8l-5 5c-0.666992 5.33301 -2.16699 10.5 -4.5 15.5
s-7.16602 11.167 -14.499 18.5c-15.333 12 -32.666 21.167 -51.999 27.5s-38 9.5 -56 9.5c-26.667 0 -49.667 -4.66699 -69 -14s-29 -23.666 -29 -42.999c0 -10 3.5 -19.833 10.5 -29.5s19.833 -19.334 38.5 -29.001s45.334 -19.5 80.001 -29.5
c38 -12 68.5 -24.167 91.5 -36.5s39.667 -26.5 50 -42.5s15.5 -35 15.5 -57c0 -25.333 -6.83301 -49 -20.5 -71s-34.5 -39.5 -62.5 -52.5s-63.333 -19.5 -106 -19.5v0zM138.997 510.996l-40 34l139 140h24l139 -140l-40 -34l-111 110z" />
    <glyph glyph-name="Scedilla" unicode="&#x15e;" 
d="M247 -10c-40.667 0 -77.1689 6.66895 -109.502 20.002s-60.833 33 -85.5 59l36 63l4 9l7 -4c1.33301 -4.66699 3 -9.83398 5 -15.501s6.66699 -12.5 14 -20.5c17.333 -14.667 37.5 -26.334 60.5 -35.001s49.167 -13 78.5 -13c18.667 0 35.834 2.83301 51.501 8.5
s29.334 13.334 41.001 23.001s20.667 21 27 34s9.5 26.833 9.5 41.5c0 11.333 -1.16699 21.666 -3.5 30.999s-6.66602 17.833 -12.999 25.5s-14.833 15.334 -25.5 23.001s-24.334 15.834 -41.001 24.501s-36.667 18 -60 28c-43.333 16.667 -77.5 34.834 -102.5 54.501
s-42.667 40.5 -53 62.5s-15.5 44.667 -15.5 68c0 30.667 7.66699 57.5 23 80.5s37.166 41 65.499 54s62.166 19.5 101.499 19.5c22.667 0 44.5 -3.16699 65.5 -9.5s40.667 -15.166 59 -26.499s34.5 -25.333 48.5 -42l-39 -52l-6 -8l-6 4
c-0.666992 5.33301 -2 10.666 -4 15.999s-6.66699 12 -14 20c-16 15.333 -33 25.833 -51 31.5s-39.333 8.5 -64 8.5c-16.667 0 -31.5 -2.33301 -44.5 -7s-24.167 -11.334 -33.5 -20.001s-16.5 -18.5 -21.5 -29.5s-7.5 -22.5 -7.5 -34.5c0 -11.333 1.33301 -21.666 4 -30.999
s7.33398 -18.333 14.001 -27s15.834 -17.334 27.501 -26.001s26.334 -17.334 44.001 -26.001s39.167 -18 64.5 -28c30.667 -12.667 56.167 -25.167 76.5 -37.5s36.333 -25.333 48 -39s20 -28.5 25 -44.5s7.5 -33.667 7.5 -53c0 -28.667 -7.16699 -56.834 -21.5 -84.501
s-36.833 -50.5 -67.5 -68.5s-70.334 -27 -119.001 -27v0zM243.998 -196.998c-17.333 0 -34.334 2.5 -51.001 7.5s-32.667 12.833 -48 23.5l25 42c12.667 -10 26.167 -17.5 40.5 -22.5s29.833 -7.5 46.5 -7.5c17.333 0 30 3.16699 38 9.5s12 15.166 12 26.499
c0 10.667 -4.66699 18.834 -14 24.501s-21.666 8.5 -36.999 8.5h-30l11 85h44l-6 -47c20 -1.33301 36.167 -5.33301 48.5 -12s21.5 -14.667 27.5 -24s9 -19 9 -29c0 -22.667 -9.5 -42.5 -28.5 -59.5s-48.167 -25.5 -87.5 -25.5z" />
    <glyph glyph-name="scedilla" unicode="&#x15f;" 
d="M251 -10c-25.333 0 -49.5029 2.66309 -72.5029 7.99609s-44.667 13.333 -65 24s-39.166 24 -56.499 40l40 68l6 9l6 -4c1.33301 -5.33301 2.83301 -10.833 4.5 -16.5s6.16699 -12.5 13.5 -20.5c14 -14 30.833 -25.5 50.5 -34.5s44.834 -13.5 75.501 -13.5
c24.667 0 45.5 3 62.5 9s30.167 14.5 39.5 25.5s14 23.833 14 38.5c0 10 -2 18.833 -6 26.5s-10.5 14.834 -19.5 21.501s-20.833 13.334 -35.5 20.001s-32.667 13.334 -54 20.001c-34.667 10 -65 21.667 -91 35s-46 28.833 -60 46.5s-21 37.834 -21 60.501
c0 23.333 6.33301 43.5 19 60.5s31.5 30.333 56.5 40s55.833 14.5 92.5 14.5c21.333 0 40.666 -1.5 57.999 -4.5s33.333 -7.5 48 -13.5s28.167 -13.5 40.5 -22.5s24.166 -19.5 35.499 -31.5l-41 -50l-7 -8l-5 5c-0.666992 5.33301 -2.16699 10.5 -4.5 15.5
s-7.16602 11.167 -14.499 18.5c-15.333 12 -32.666 21.167 -51.999 27.5s-38 9.5 -56 9.5c-26.667 0 -49.667 -4.66699 -69 -14s-29 -23.666 -29 -42.999c0 -10 3.5 -19.833 10.5 -29.5s19.833 -19.334 38.5 -29.001s45.334 -19.5 80.001 -29.5
c38 -12 68.5 -24.167 91.5 -36.5s39.667 -26.5 50 -42.5s15.5 -35 15.5 -57c0 -25.333 -6.83301 -49 -20.5 -71s-34.5 -39.5 -62.5 -52.5s-63.333 -19.5 -106 -19.5v0zM267.997 -197.004c-17.333 0 -34.334 2.5 -51.001 7.5s-32.667 12.833 -48 23.5l25 42
c12.667 -10 26.167 -17.5 40.5 -22.5s29.833 -7.5 46.5 -7.5c17.333 0 30 3.16699 38 9.5s12 15.166 12 26.499c0 10.667 -4.66699 18.834 -14 24.501s-21.666 8.5 -36.999 8.5h-30l11 85h44l-6 -47c20 -1.33301 36.167 -5.33301 48.5 -12s21.5 -14.667 27.5 -24
s9 -19 9 -29c0 -22.667 -9.5 -42.5 -28.5 -59.5s-48.167 -25.5 -87.5 -25.5z" />
    <glyph glyph-name="Scaron" unicode="&#x160;" 
d="M247 -10c-40.667 0 -77.1689 6.66895 -109.502 20.002s-60.833 33 -85.5 59l36 63l4 9l7 -4c1.33301 -4.66699 3 -9.83398 5 -15.501s6.66699 -12.5 14 -20.5c17.333 -14.667 37.5 -26.334 60.5 -35.001s49.167 -13 78.5 -13c18.667 0 35.834 2.83301 51.501 8.5
s29.334 13.334 41.001 23.001s20.667 21 27 34s9.5 26.833 9.5 41.5c0 11.333 -1.16699 21.666 -3.5 30.999s-6.66602 17.833 -12.999 25.5s-14.833 15.334 -25.5 23.001s-24.334 15.834 -41.001 24.501s-36.667 18 -60 28c-43.333 16.667 -77.5 34.834 -102.5 54.501
s-42.667 40.5 -53 62.5s-15.5 44.667 -15.5 68c0 30.667 7.66699 57.5 23 80.5s37.166 41 65.499 54s62.166 19.5 101.499 19.5c22.667 0 44.5 -3.16699 65.5 -9.5s40.667 -15.166 59 -26.499s34.5 -25.333 48.5 -42l-39 -52l-6 -8l-6 4
c-0.666992 5.33301 -2 10.666 -4 15.999s-6.66699 12 -14 20c-16 15.333 -33 25.833 -51 31.5s-39.333 8.5 -64 8.5c-16.667 0 -31.5 -2.33301 -44.5 -7s-24.167 -11.334 -33.5 -20.001s-16.5 -18.5 -21.5 -29.5s-7.5 -22.5 -7.5 -34.5c0 -11.333 1.33301 -21.666 4 -30.999
s7.33398 -18.333 14.001 -27s15.834 -17.334 27.501 -26.001s26.334 -17.334 44.001 -26.001s39.167 -18 64.5 -28c30.667 -12.667 56.167 -25.167 76.5 -37.5s36.333 -25.333 48 -39s20 -28.5 25 -44.5s7.5 -33.667 7.5 -53c0 -28.667 -7.16699 -56.834 -21.5 -84.501
s-36.833 -50.5 -67.5 -68.5s-70.334 -27 -119.001 -27v0zM381.998 793.002l33 -38l-143 -98h-22l-151 99l30 36l130 -70z" />
    <glyph glyph-name="scaron" unicode="&#x161;" 
d="M251 -10c-25.333 0 -49.5029 2.66309 -72.5029 7.99609s-44.667 13.333 -65 24s-39.166 24 -56.499 40l40 68l6 9l6 -4c1.33301 -5.33301 2.83301 -10.833 4.5 -16.5s6.16699 -12.5 13.5 -20.5c14 -14 30.833 -25.5 50.5 -34.5s44.834 -13.5 75.501 -13.5
c24.667 0 45.5 3 62.5 9s30.167 14.5 39.5 25.5s14 23.833 14 38.5c0 10 -2 18.833 -6 26.5s-10.5 14.834 -19.5 21.501s-20.833 13.334 -35.5 20.001s-32.667 13.334 -54 20.001c-34.667 10 -65 21.667 -91 35s-46 28.833 -60 46.5s-21 37.834 -21 60.501
c0 23.333 6.33301 43.5 19 60.5s31.5 30.333 56.5 40s55.833 14.5 92.5 14.5c21.333 0 40.666 -1.5 57.999 -4.5s33.333 -7.5 48 -13.5s28.167 -13.5 40.5 -22.5s24.166 -19.5 35.499 -31.5l-41 -50l-7 -8l-5 5c-0.666992 5.33301 -2.16699 10.5 -4.5 15.5
s-7.16602 11.167 -14.499 18.5c-15.333 12 -32.666 21.167 -51.999 27.5s-38 9.5 -56 9.5c-26.667 0 -49.667 -4.66699 -69 -14s-29 -23.666 -29 -42.999c0 -10 3.5 -19.833 10.5 -29.5s19.833 -19.334 38.5 -29.001s45.334 -19.5 80.001 -29.5
c38 -12 68.5 -24.167 91.5 -36.5s39.667 -26.5 50 -42.5s15.5 -35 15.5 -57c0 -25.333 -6.83301 -49 -20.5 -71s-34.5 -39.5 -62.5 -52.5s-63.333 -19.5 -106 -19.5v0zM143.997 687.996l111 -110l111 110l40 -34l-139 -140h-24l-139 140z" />
    <glyph glyph-name="uni0162" unicode="&#x162;" 
d="M208 0v561h-177v63h432v-63h-184v-561h-71zM247 -197c-17.333 0 -34.334 2.5 -51.001 7.5s-32.667 12.833 -48 23.5l25 42c12.667 -10 26.167 -17.5 40.5 -22.5s29.833 -7.5 46.5 -7.5c17.333 0 30 3.16699 38 9.5s12 15.166 12 26.499
c0 10.667 -4.66699 18.834 -14 24.501s-21.666 8.5 -36.999 8.5h-30l11 85h44l-6 -47c20 -1.33301 36.167 -5.33301 48.5 -12s21.5 -14.667 27.5 -24s9 -19 9 -29c0 -22.667 -9.5 -42.5 -28.5 -59.5s-48.167 -25.5 -87.5 -25.5z" />
    <glyph glyph-name="uni0163" unicode="&#x163;" 
d="M299 -7c-29.333 0 -53.335 5.00195 -72.002 15.002s-33 25.5 -43 46.5s-16.5 47.5 -19.5 79.5s-3.83301 70 -2.5 114l12 326l75 9l10 1l1 -7c-3.33301 -4.66699 -6.16602 -9.33398 -8.49902 -14.001s-4.16602 -12.667 -5.49902 -24l-9 -113l3 -18l-7 -165
c-2 -50.667 -0.666992 -89.834 4 -117.501s13 -46.667 25 -57s28 -15.5 48 -15.5c22 0 41.5 4.33301 58.5 13s34.833 19.667 53.5 33l22 -57c-22.667 -16.667 -46 -29 -70 -37s-49 -12 -75 -12v0zM69.998 457.002h329v-59h-329v59zM246.998 -196.998
c-17.333 0 -34.334 2.5 -51.001 7.5s-32.667 12.833 -48 23.5l25 42c12.667 -10 26.167 -17.5 40.5 -22.5s29.833 -7.5 46.5 -7.5c17.333 0 30 3.16699 38 9.5s12 15.166 12 26.499c0 10.667 -4.66699 18.834 -14 24.501s-21.666 8.5 -36.999 8.5h-30l11 85h44l-6 -47
c20 -1.33301 36.167 -5.33301 48.5 -12s21.5 -14.667 27.5 -24s9 -19 9 -29c0 -22.667 -9.5 -42.5 -28.5 -59.5s-48.167 -25.5 -87.5 -25.5z" />
    <glyph glyph-name="Tcaron" unicode="&#x164;" 
d="M208 0v561h-177v63h432v-63h-184v-561h-71zM371 793l33 -38l-143 -98h-22l-151 99l30 36l130 -70z" />
    <glyph glyph-name="tcaron" unicode="&#x165;" 
d="M299 -7c-29.333 0 -53.335 5.00195 -72.002 15.002s-33 25.5 -43 46.5s-16.5 47.5 -19.5 79.5s-3.83301 70 -2.5 114l12 326l75 9l10 1l1 -7c-3.33301 -4.66699 -6.16602 -9.33398 -8.49902 -14.001s-4.16602 -12.667 -5.49902 -24l-9 -113l3 -18l-7 -165
c-2 -50.667 -0.666992 -89.834 4 -117.501s13 -46.667 25 -57s28 -15.5 48 -15.5c22 0 41.5 4.33301 58.5 13s34.833 19.667 53.5 33l22 -57c-22.667 -16.667 -46 -29 -70 -37s-49 -12 -75 -12v0zM69.998 457.002h329v-59h-329v59zM381.998 489.002l-28.0029 23.999
c10.667 9.33301 19.834 19.333 27.501 30s13.667 20.834 18 30.501s6.5 17.834 6.5 24.501c0 5.33301 -2 10.166 -6 14.499s-8.83301 8.66602 -14.5 12.999s-10.5 9.16602 -14.5 14.499s-6 11.666 -6 18.999c0 13.333 4.5 24.5 13.5 33.5s20.5 13.5 34.5 13.5
s26.5 -6.16699 37.5 -18.5s16.5 -28.166 16.5 -47.499c0 -14 -3.16699 -29.167 -9.5 -45.5s-15.666 -33.166 -27.999 -50.499s-28.166 -35.666 -47.499 -54.999z" />
    <glyph glyph-name="Tbar" unicode="&#x166;" 
d="M208 0v561h-177v63h432v-63h-184v-561h-71zM88 283v57h324v-57h-324z" />
    <glyph glyph-name="tbar" unicode="&#x167;" 
d="M61 220v57h329v-57h-329zM299 -7c-29.333 0 -53.335 5.00195 -72.002 15.002s-33 25.5 -43 46.5s-16.5 47.5 -19.5 79.5s-3.83301 70 -2.5 114l12 326l75 9l10 1l1 -7c-3.33301 -4.66699 -6.16602 -9.33398 -8.49902 -14.001s-4.16602 -12.667 -5.49902 -24l-9 -113
l3 -18l-7 -165c-2 -50.667 -0.666992 -89.834 4 -117.501s13 -46.667 25 -57s28 -15.5 48 -15.5c22 0 41.5 4.33301 58.5 13s34.833 19.667 53.5 33l22 -57c-22.667 -16.667 -46 -29 -70 -37s-49 -12 -75 -12v0zM69.998 457.002h329v-59h-329v59z" />
    <glyph glyph-name="Utilde" unicode="&#x168;" 
d="M251 -11c-66.667 0 -116.834 19.834 -150.501 59.501s-50.5 95.167 -50.5 166.5v408h68h10v-7c-4 -4 -6.5 -8.33301 -7.5 -13s-1.5 -12.667 -1.5 -24v-365c0 -50.667 9.83301 -91 29.5 -121s54.167 -45 103.5 -45c50 0 85 15 105 45s30 71.333 30 124v406h67v-405
c0 -52.667 -8.33301 -95.834 -25 -129.501s-40.167 -58.667 -70.5 -75s-66.166 -24.5 -107.499 -24.5v0zM379 791.001l46.0039 -28.001c-14.667 -28 -28.834 -47.5 -42.501 -58.5s-30.5 -16.5 -50.5 -16.5c-14.667 0 -27.834 2.66699 -39.501 8
s-22.334 11.666 -32.001 18.999s-19.334 13.666 -29.001 18.999s-20.167 8 -31.5 8s-21.5 -3.33301 -30.5 -10s-17.5 -19 -25.5 -37l-49 22c9.33301 22.667 22.333 41.667 39 57s38 23 64 23c14.667 0 27.5 -2.66699 38.5 -8s21.167 -11.666 30.5 -18.999
s18.833 -13.666 28.5 -18.999s20.5 -8 32.5 -8c10.667 0 19.5 3.33301 26.5 10s15.167 19.334 24.5 38.001z" />
    <glyph glyph-name="utilde" unicode="&#x169;" 
d="M221 -11c-18 0 -35.0049 2.66797 -51.0049 8.00098s-30.5 13.5 -43.5 24.5s-24.167 24.833 -33.5 41.5s-16.5 36.667 -21.5 60s-7.5 49.666 -7.5 78.999l1 255h70v-255c0 -28.667 2.66699 -53 8 -73s12.833 -36 22.5 -48s20.834 -20.667 33.501 -26s26 -8 40 -8
c16 0 31.333 3.16699 46 9.5s27.834 15.833 39.501 28.5s20.834 29 27.501 49s10 43.667 10 71v252h70v-386c0 -12 0.5 -23.833 1.5 -35.5s3.83301 -23.5 8.5 -35.5h-69c-3.33301 8 -5.66602 15.833 -6.99902 23.5s-2.16602 15.5 -2.49902 23.5s-0.5 15.667 -0.5 23
c-7.33301 -12.667 -16 -24 -26 -34s-21.167 -18.5 -33.5 -25.5s-25.333 -12.333 -39 -16s-28.167 -5.5 -43.5 -5.5zM374.995 677.001l46.0039 -28.001c-14.667 -28 -28.834 -47.5 -42.501 -58.5s-30.5 -16.5 -50.5 -16.5c-14.667 0 -27.834 2.66699 -39.501 8
s-22.334 11.666 -32.001 18.999s-19.334 13.666 -29.001 18.999s-20.167 8 -31.5 8s-21.5 -3.33301 -30.5 -10s-17.5 -19 -25.5 -37l-49 22c9.33301 22.667 22.333 41.667 39 57s38 23 64 23c14.667 0 27.5 -2.66699 38.5 -8s21.167 -11.666 30.5 -18.999
s18.833 -13.666 28.5 -18.999s20.5 -8 32.5 -8c10.667 0 19.5 3.33301 26.5 10s15.167 19.334 24.5 38.001z" />
    <glyph glyph-name="Umacron" unicode="&#x16a;" 
d="M251 -11c-66.667 0 -116.834 19.834 -150.501 59.501s-50.5 95.167 -50.5 166.5v408h68h10v-7c-4 -4 -6.5 -8.33301 -7.5 -13s-1.5 -12.667 -1.5 -24v-365c0 -50.667 9.83301 -91 29.5 -121s54.167 -45 103.5 -45c50 0 85 15 105 45s30 71.333 30 124v406h67v-405
c0 -52.667 -8.33301 -95.834 -25 -129.501s-40.167 -58.667 -70.5 -75s-66.166 -24.5 -107.499 -24.5v0zM123 731.001v56h254v-56h-254z" />
    <glyph glyph-name="umacron" unicode="&#x16b;" 
d="M221 -11c-18 0 -35.0049 2.66797 -51.0049 8.00098s-30.5 13.5 -43.5 24.5s-24.167 24.833 -33.5 41.5s-16.5 36.667 -21.5 60s-7.5 49.666 -7.5 78.999l1 255h70v-255c0 -28.667 2.66699 -53 8 -73s12.833 -36 22.5 -48s20.834 -20.667 33.501 -26s26 -8 40 -8
c16 0 31.333 3.16699 46 9.5s27.834 15.833 39.501 28.5s20.834 29 27.501 49s10 43.667 10 71v252h70v-386c0 -12 0.5 -23.833 1.5 -35.5s3.83301 -23.5 8.5 -35.5h-69c-3.33301 8 -5.66602 15.833 -6.99902 23.5s-2.16602 15.5 -2.49902 23.5s-0.5 15.667 -0.5 23
c-7.33301 -12.667 -16 -24 -26 -34s-21.167 -18.5 -33.5 -25.5s-25.333 -12.333 -39 -16s-28.167 -5.5 -43.5 -5.5zM122.995 565.001v56h254v-56h-254z" />
    <glyph glyph-name="Ubreve" unicode="&#x16c;" 
d="M251 -11c-66.667 0 -116.834 19.834 -150.501 59.501s-50.5 95.167 -50.5 166.5v408h68h10v-7c-4 -4 -6.5 -8.33301 -7.5 -13s-1.5 -12.667 -1.5 -24v-365c0 -50.667 9.83301 -91 29.5 -121s54.167 -45 103.5 -45c50 0 85 15 105 45s30 71.333 30 124v406h67v-405
c0 -52.667 -8.33301 -95.834 -25 -129.501s-40.167 -58.667 -70.5 -75s-66.166 -24.5 -107.499 -24.5v0zM340 787.001l51.999 -23.999c-14.667 -29.333 -34.167 -52 -58.5 -68s-52.166 -24 -83.499 -24c-30.667 0 -58.167 8 -82.5 24s-44.166 38.667 -59.499 68l52 24
c11.333 -23.333 24.166 -40.5 38.499 -51.5s31.5 -16.5 51.5 -16.5c13.333 0 25.5 2.33301 36.5 7s20.833 12.167 29.5 22.5s16.667 23.166 24 38.499z" />
    <glyph glyph-name="ubreve" unicode="&#x16d;" 
d="M221 -11c-18 0 -35.0049 2.66797 -51.0049 8.00098s-30.5 13.5 -43.5 24.5s-24.167 24.833 -33.5 41.5s-16.5 36.667 -21.5 60s-7.5 49.666 -7.5 78.999l1 255h70v-255c0 -28.667 2.66699 -53 8 -73s12.833 -36 22.5 -48s20.834 -20.667 33.501 -26s26 -8 40 -8
c16 0 31.333 3.16699 46 9.5s27.834 15.833 39.501 28.5s20.834 29 27.501 49s10 43.667 10 71v252h70v-386c0 -12 0.5 -23.833 1.5 -35.5s3.83301 -23.5 8.5 -35.5h-69c-3.33301 8 -5.66602 15.833 -6.99902 23.5s-2.16602 15.5 -2.49902 23.5s-0.5 15.667 -0.5 23
c-7.33301 -12.667 -16 -24 -26 -34s-21.167 -18.5 -33.5 -25.5s-25.333 -12.333 -39 -16s-28.167 -5.5 -43.5 -5.5zM339.995 654.001l51.999 -23.999c-14.667 -29.333 -34.167 -52 -58.5 -68s-52.166 -24 -83.499 -24c-30.667 0 -58.167 8 -82.5 24
s-44.166 38.667 -59.499 68l52 24c11.333 -23.333 24.166 -40.5 38.499 -51.5s31.5 -16.5 51.5 -16.5c13.333 0 25.5 2.33301 36.5 7s20.833 12.167 29.5 22.5s16.667 23.166 24 38.499z" />
    <glyph glyph-name="Uring" unicode="&#x16e;" 
d="M251 -11c-66.667 0 -116.834 19.834 -150.501 59.501s-50.5 95.167 -50.5 166.5v408h68h10v-7c-4 -4 -6.5 -8.33301 -7.5 -13s-1.5 -12.667 -1.5 -24v-365c0 -50.667 9.83301 -91 29.5 -121s54.167 -45 103.5 -45c50 0 85 15 105 45s30 71.333 30 124v406h67v-405
c0 -52.667 -8.33301 -95.834 -25 -129.501s-40.167 -58.667 -70.5 -75s-66.166 -24.5 -107.499 -24.5v0zM250 619.001c-16.667 0 -32.001 3.99902 -46.001 11.999s-25.167 18.667 -33.5 32s-12.5 28 -12.5 44s4.33301 30.667 13 44s20 24 34 32s29 12 45 12
c16.667 0 31.834 -4 45.501 -12s24.667 -18.667 33 -32s12.5 -28.333 12.5 -45c0 -15.333 -4 -29.666 -12 -42.999s-18.833 -24 -32.5 -32s-29.167 -12 -46.5 -12zM250.999 662c11.333 0 21 4.33301 29 13s12 19.334 12 32.001c0 13.333 -4 24.333 -12 33s-17.667 13 -29 13
s-21.166 -4.33301 -29.499 -13s-12.5 -19.667 -12.5 -33c0 -12.667 4.16699 -23.334 12.5 -32.001s18.166 -13 29.499 -13z" />
    <glyph glyph-name="uring" unicode="&#x16f;" 
d="M221 -11c-18 0 -35.0049 2.66797 -51.0049 8.00098s-30.5 13.5 -43.5 24.5s-24.167 24.833 -33.5 41.5s-16.5 36.667 -21.5 60s-7.5 49.666 -7.5 78.999l1 255h70v-255c0 -28.667 2.66699 -53 8 -73s12.833 -36 22.5 -48s20.834 -20.667 33.501 -26s26 -8 40 -8
c16 0 31.333 3.16699 46 9.5s27.834 15.833 39.501 28.5s20.834 29 27.501 49s10 43.667 10 71v252h70v-386c0 -12 0.5 -23.833 1.5 -35.5s3.83301 -23.5 8.5 -35.5h-69c-3.33301 8 -5.66602 15.833 -6.99902 23.5s-2.16602 15.5 -2.49902 23.5s-0.5 15.667 -0.5 23
c-7.33301 -12.667 -16 -24 -26 -34s-21.167 -18.5 -33.5 -25.5s-25.333 -12.333 -39 -16s-28.167 -5.5 -43.5 -5.5zM248.995 517.001c-16 0 -30.8311 4 -44.498 12s-24.834 18.667 -33.501 32s-13 28 -13 44s4.33301 30.667 13 44s19.834 24 33.501 32s28.5 12 44.5 12
c16.667 0 32 -4 46 -12s25.167 -18.5 33.5 -31.5s12.5 -27.833 12.5 -44.5c0 -16 -4.33301 -30.667 -13 -44s-19.834 -24 -33.501 -32s-28.834 -12 -45.501 -12zM249.997 560.001c11.333 0 21.166 4.5 29.499 13.5s12.5 19.833 12.5 32.5s-4.16699 23.5 -12.5 32.5
s-18.166 13.5 -29.499 13.5s-21 -4.5 -29 -13.5s-12 -19.833 -12 -32.5s4 -23.5 12 -32.5s17.667 -13.5 29 -13.5z" />
    <glyph glyph-name="Uhungarumlaut" unicode="&#x170;" 
d="M251 -11c-66.667 0 -116.834 19.834 -150.501 59.501s-50.5 95.167 -50.5 166.5v408h68h10v-7c-4 -4 -6.5 -8.33301 -7.5 -13s-1.5 -12.667 -1.5 -24v-365c0 -50.667 9.83301 -91 29.5 -121s54.167 -45 103.5 -45c50 0 85 15 105 45s30 71.333 30 124v406h67v-405
c0 -52.667 -8.33301 -95.834 -25 -129.501s-40.167 -58.667 -70.5 -75s-66.166 -24.5 -107.499 -24.5v0zM282 645.001l-32 41l131 124l46 -64zM104 645.001l-32 41l131 124l47 -64z" />
    <glyph glyph-name="uhungarumlaut" unicode="&#x171;" 
d="M221 -11c-18 0 -35.0049 2.66797 -51.0049 8.00098s-30.5 13.5 -43.5 24.5s-24.167 24.833 -33.5 41.5s-16.5 36.667 -21.5 60s-7.5 49.666 -7.5 78.999l1 255h70v-255c0 -28.667 2.66699 -53 8 -73s12.833 -36 22.5 -48s20.834 -20.667 33.501 -26s26 -8 40 -8
c16 0 31.333 3.16699 46 9.5s27.834 15.833 39.501 28.5s20.834 29 27.501 49s10 43.667 10 71v252h70v-386c0 -12 0.5 -23.833 1.5 -35.5s3.83301 -23.5 8.5 -35.5h-69c-3.33301 8 -5.66602 15.833 -6.99902 23.5s-2.16602 15.5 -2.49902 23.5s-0.5 15.667 -0.5 23
c-7.33301 -12.667 -16 -24 -26 -34s-21.167 -18.5 -33.5 -25.5s-25.333 -12.333 -39 -16s-28.167 -5.5 -43.5 -5.5zM341.995 522.001l-50 30l88 147l63 -42zM186.995 522.001l-50 30l88 147l63 -42z" />
    <glyph glyph-name="Uogonek" unicode="&#x172;" 
d="M251 -11c-66.667 0 -116.834 19.834 -150.501 59.501s-50.5 95.167 -50.5 166.5v408h68h10v-7c-4 -4 -6.5 -8.33301 -7.5 -13s-1.5 -12.667 -1.5 -24v-365c0 -50.667 9.83301 -91 29.5 -121s54.167 -45 103.5 -45c50 0 85 15 105 45s30 71.333 30 124v406h67v-405
c0 -52.667 -8.33301 -95.834 -25 -129.501s-40.167 -58.667 -70.5 -75s-66.166 -24.5 -107.499 -24.5v0zM332 -168.999l-15.999 -48.001c-22 3.33301 -41.333 8.83301 -58 16.5s-29.834 17.667 -39.501 30s-14.5 26.833 -14.5 43.5c0 18 4.66699 35.833 14 53.5s23 35 41 52
s40 33.167 66 48.5l27 -17c-16.667 -13.333 -31.167 -27.166 -43.5 -41.499s-21.833 -28.5 -28.5 -42.5s-10 -27 -10 -39c0 -14 5 -26 15 -36s25.667 -16.667 47 -20z" />
    <glyph glyph-name="uogonek" unicode="&#x173;" 
d="M221 -11c-18 0 -35.0049 2.66797 -51.0049 8.00098s-30.5 13.5 -43.5 24.5s-24.167 24.833 -33.5 41.5s-16.5 36.667 -21.5 60s-7.5 49.666 -7.5 78.999l1 255h70v-255c0 -28.667 2.66699 -53 8 -73s12.833 -36 22.5 -48s20.834 -20.667 33.501 -26s26 -8 40 -8
c16 0 31.333 3.16699 46 9.5s27.834 15.833 39.501 28.5s20.834 29 27.501 49s10 43.667 10 71v252h70v-386c0 -12 0.5 -23.833 1.5 -35.5s3.83301 -23.5 8.5 -35.5h-69c-3.33301 8 -5.66602 15.833 -6.99902 23.5s-2.16602 15.5 -2.49902 23.5s-0.5 15.667 -0.5 23
c-7.33301 -12.667 -16 -24 -26 -34s-21.167 -18.5 -33.5 -25.5s-25.333 -12.333 -39 -16s-28.167 -5.5 -43.5 -5.5zM407.995 -178.999l-15.999 -48.001c-22 3.33301 -41.333 8.83301 -58 16.5s-29.834 17.667 -39.501 30s-14.5 26.833 -14.5 43.5
c0 18 4.66699 35.833 14 53.5s23 35 41 52s40 33.167 66 48.5l27 -17c-16.667 -13.333 -31.167 -27.166 -43.5 -41.499s-21.833 -28.5 -28.5 -42.5s-10 -27 -10 -39c0 -14 5 -26 15 -36s25.667 -16.667 47 -20z" />
    <glyph glyph-name="Wcircumflex" unicode="&#x174;" 
d="M117 0l-100 623h65l67 -421l100 375h22l101 -377l57 423h59l-99 -623h-27l-107 407l-109 -407h-29zM135 655l-33 38l143 98h22l151 -99l-30 -36l-130 70z" />
    <glyph glyph-name="wcircumflex" unicode="&#x175;" 
d="M108 -1l-91.999 458h63l74 -367l78 324h44l97 -323l21.5 146c5.66699 38 10 69.167 13 93.5s5 44.833 6 61.5s1.5 33.334 1.5 50.001v15h67c-6.66699 -51.333 -13.834 -102.5 -21.501 -153.5s-16 -101.833 -25 -152.5s-18.833 -101.334 -29.5 -152.001h-68l-84 296
l-80 -296h-65zM139.001 511l-40 34l139 140h24l139 -140l-40 -34l-111 110z" />
    </font>
</defs>
</svg>
